<svg xmlns="http://www.w3.org/2000/svg" viewBox="0 0 398 186.217">
  <defs>
    <style>
      .cls-1, .cls-4 {
        fill: #1f3291;
      }

      .cls-2 {
        fill: #fd5e53;
      }

      .cls-3, .cls-5 {
        fill: #ffca7c;
      }

      .cls-4, .cls-5 {
        fill-rule: evenodd;
      }

      .cls-6 {
        fill: #3a59f5;
      }

      .cls-7 {
        fill: #fff;
      }
    </style>
  </defs>
  <g id="mentorbaba" transform="translate(31.508 -26)">
    <g id="_468404050336" transform="translate(-31.508 26)">
      <g id="Group_7601" data-name="Group 7601" transform="translate(182.339 87.6)">
        <path id="Path_401" data-name="Path 401" class="cls-1" d="M536.135,7208.184a7.092,7.092,0,0,1,5.274,1.911,7.8,7.8,0,0,1,1.91,5.648v10.3h-2.409v-10.05a6.048,6.048,0,0,0-1.329-4.194,4.825,4.825,0,0,0-3.779-1.454,5.635,5.635,0,0,0-4.361,1.7,6.674,6.674,0,0,0-1.578,4.692v9.3h-2.409v-10.05a5.854,5.854,0,0,0-1.329-4.194,4.767,4.767,0,0,0-3.779-1.454,5.635,5.635,0,0,0-4.361,1.7,6.674,6.674,0,0,0-1.578,4.692v9.3H514V7208.31h2.284v3.239a6.661,6.661,0,0,1,2.658-2.492,8.264,8.264,0,0,1,3.862-.873,7.6,7.6,0,0,1,3.862.914,5.836,5.836,0,0,1,2.45,2.824,7.161,7.161,0,0,1,2.824-2.74A8.688,8.688,0,0,1,536.135,7208.184Zm29.2,9.761H550.5a6.218,6.218,0,0,0,2.118,4.443,6.946,6.946,0,0,0,4.859,1.7,8.058,8.058,0,0,0,3.032-.582,6.51,6.51,0,0,0,2.409-1.744l1.329,1.578a8.1,8.1,0,0,1-2.949,2.159,10.719,10.719,0,0,1-3.9.706,9.5,9.5,0,0,1-4.817-1.163,8.21,8.21,0,0,1-3.322-3.2,9.213,9.213,0,0,1-1.163-4.651,9.794,9.794,0,0,1,1.121-4.692,8.237,8.237,0,0,1,3.115-3.2,8.837,8.837,0,0,1,4.443-1.122,8.682,8.682,0,0,1,4.4,1.122,8.132,8.132,0,0,1,3.073,3.2,9.562,9.562,0,0,1,1.121,4.692Zm-8.555-7.725a5.983,5.983,0,0,0-4.319,1.661,6.16,6.16,0,0,0-1.952,4.235h12.583a6.381,6.381,0,0,0-1.994-4.235A5.982,5.982,0,0,0,556.775,7210.22Zm22.55-2.036a7.323,7.323,0,0,1,5.316,1.911,7.773,7.773,0,0,1,1.952,5.648v10.3h-2.409v-10.05a5.865,5.865,0,0,0-1.37-4.194,5.081,5.081,0,0,0-3.945-1.454,5.949,5.949,0,0,0-4.527,1.7,6.373,6.373,0,0,0-1.7,4.692v9.3h-2.367V7208.31h2.284v3.28a7.187,7.187,0,0,1,2.7-2.533A9.023,9.023,0,0,1,579.325,7208.184Zm23.132,16.779a4.385,4.385,0,0,1-1.661.954,6.961,6.961,0,0,1-2.077.291,5.2,5.2,0,0,1-3.862-1.329,5.271,5.271,0,0,1-1.329-3.82v-10.715h-3.2v-2.034h3.2v-3.9H595.9v3.9h5.4v2.034h-5.4v10.59a3.5,3.5,0,0,0,.789,2.409,3.147,3.147,0,0,0,2.284.831,4.257,4.257,0,0,0,1.453-.25,3.727,3.727,0,0,0,1.2-.664Zm10.964,1.245a9.047,9.047,0,0,1-4.61-1.163,8.267,8.267,0,0,1-3.239-3.2,9.24,9.24,0,0,1-1.2-4.651,9.393,9.393,0,0,1,1.2-4.692,8.559,8.559,0,0,1,3.239-3.2,10.03,10.03,0,0,1,9.219,0,8.274,8.274,0,0,1,3.239,3.2,9.367,9.367,0,0,1,1.163,4.692,9.213,9.213,0,0,1-1.163,4.651,8,8,0,0,1-3.239,3.2A9.046,9.046,0,0,1,613.421,7226.208Zm0-2.117a6.7,6.7,0,0,0,3.405-.873,5.657,5.657,0,0,0,2.326-2.409,7.489,7.489,0,0,0,.872-3.612,7.261,7.261,0,0,0-.872-3.612,5.758,5.758,0,0,0-2.326-2.45,6.7,6.7,0,0,0-3.405-.873,6.81,6.81,0,0,0-3.405.873,5.758,5.758,0,0,0-2.326,2.45,7.261,7.261,0,0,0-.872,3.612,7.489,7.489,0,0,0,.872,3.612,5.657,5.657,0,0,0,2.326,2.409A6.81,6.81,0,0,0,613.421,7224.091Zm16.2-12.293a5.72,5.72,0,0,1,2.533-2.7,8.358,8.358,0,0,1,4.111-.914v2.326l-.581-.042a5.72,5.72,0,0,0-4.361,1.7,6.849,6.849,0,0,0-1.578,4.858v9.012h-2.409V7208.31h2.284Zm26.122,2.076a6.3,6.3,0,0,1,3.613,1.993,5.834,5.834,0,0,1,1.246,3.862,5.448,5.448,0,0,1-2.242,4.693c-1.5,1.079-3.7,1.619-6.645,1.619H640.871v-23.63h10.175a10.121,10.121,0,0,1,6.146,1.619,5.159,5.159,0,0,1,2.159,4.485,5.8,5.8,0,0,1-.955,3.322A5.725,5.725,0,0,1,655.739,7213.874Zm-12.376-9.386v8.555h7.517a7.569,7.569,0,0,0,4.444-1.078,3.66,3.66,0,0,0,1.536-3.2,3.7,3.7,0,0,0-1.536-3.2,7.881,7.881,0,0,0-4.444-1.08Zm8.347,19.52a8.745,8.745,0,0,0,4.776-1.08,3.821,3.821,0,0,0,1.62-3.364c0-2.948-2.118-4.443-6.4-4.443h-8.347v8.888Zm20.308-15.824a7.453,7.453,0,0,1,5.316,1.745,6.589,6.589,0,0,1,1.869,5.107v11.006h-2.284v-2.74a5.573,5.573,0,0,1-2.409,2.159,8.527,8.527,0,0,1-3.7.747,7.232,7.232,0,0,1-4.734-1.412,4.552,4.552,0,0,1-1.744-3.737,4.645,4.645,0,0,1,1.62-3.655q1.62-1.371,5.232-1.369h5.606v-1.081a4.455,4.455,0,0,0-1.287-3.487,5.243,5.243,0,0,0-3.738-1.205,9.467,9.467,0,0,0-3.239.54,8.759,8.759,0,0,0-2.658,1.536l-1.08-1.785a10.089,10.089,0,0,1,3.239-1.745A12.534,12.534,0,0,1,672.018,7208.184Zm-.831,16.156a6.549,6.549,0,0,0,3.447-.914,5.388,5.388,0,0,0,2.159-2.7v-2.907h-5.565c-3.032,0-4.568,1.079-4.568,3.156a2.9,2.9,0,0,0,1.2,2.45A5.188,5.188,0,0,0,671.187,7224.34Zm23.672-16.156a9.265,9.265,0,0,1,4.527,1.122,8.064,8.064,0,0,1,3.156,3.2,9.151,9.151,0,0,1,1.163,4.692,9.265,9.265,0,0,1-1.163,4.693,8.331,8.331,0,0,1-3.156,3.2,9.244,9.244,0,0,1-4.527,1.122,8.3,8.3,0,0,1-3.987-.914,7.257,7.257,0,0,1-2.865-2.74v3.488h-2.284V7201h2.409v10.674a7.423,7.423,0,0,1,2.824-2.617A8.558,8.558,0,0,1,694.859,7208.184Zm-.166,15.907a6.547,6.547,0,0,0,3.364-.873,5.845,5.845,0,0,0,2.409-2.409,7.967,7.967,0,0,0,.831-3.612,7.717,7.717,0,0,0-.831-3.612,5.945,5.945,0,0,0-2.409-2.45,6.547,6.547,0,0,0-3.364-.873,6.7,6.7,0,0,0-3.405.873,6.107,6.107,0,0,0-2.367,2.45,7.715,7.715,0,0,0-.831,3.612,7.966,7.966,0,0,0,.831,3.612,6,6,0,0,0,2.367,2.409A6.7,6.7,0,0,0,694.693,7224.091Zm20.017-15.907a7.455,7.455,0,0,1,5.316,1.745,6.59,6.59,0,0,1,1.869,5.107v11.006H719.61v-2.74a5.573,5.573,0,0,1-2.409,2.159,8.527,8.527,0,0,1-3.7.747,7.232,7.232,0,0,1-4.734-1.412,4.552,4.552,0,0,1-1.744-3.737,4.645,4.645,0,0,1,1.62-3.655q1.62-1.371,5.233-1.369h5.606v-1.081a4.456,4.456,0,0,0-1.287-3.487,5.243,5.243,0,0,0-3.738-1.205,9.468,9.468,0,0,0-3.239.54,8.761,8.761,0,0,0-2.658,1.536l-1.08-1.785a10.09,10.09,0,0,1,3.239-1.745A12.535,12.535,0,0,1,714.71,7208.184Zm-.83,16.156a6.55,6.55,0,0,0,3.447-.914,5.39,5.39,0,0,0,2.159-2.7v-2.907h-5.565c-3.032,0-4.568,1.079-4.568,3.156a2.9,2.9,0,0,0,1.2,2.45A5.187,5.187,0,0,0,713.879,7224.34Z" transform="translate(-510.096 -7201)"/>
        <path id="Path_402" data-name="Path 402" class="cls-2" d="M426.354,8215.517a2.413,2.413,0,0,1-1,2.076,4.044,4.044,0,0,1-2.575.749,7.026,7.026,0,0,1-2.782-.458v-1.121a10.479,10.479,0,0,0,1.37.415,8.594,8.594,0,0,0,1.453.126,3.026,3.026,0,0,0,1.744-.415,1.5,1.5,0,0,0,.582-1.246,1.94,1.94,0,0,0-.208-.874,1.713,1.713,0,0,0-.706-.579,9.029,9.029,0,0,0-1.495-.667,4.943,4.943,0,0,1-1.993-1.161,2.614,2.614,0,0,1-.581-1.828,2.221,2.221,0,0,1,.872-1.826,3.57,3.57,0,0,1,2.284-.707,6.624,6.624,0,0,1,2.741.582l-.332,1a6.608,6.608,0,0,0-2.45-.5,2.36,2.36,0,0,0-1.412.376,1.286,1.286,0,0,0-.54,1.121,1.635,1.635,0,0,0,.208.83,1.5,1.5,0,0,0,.623.623,6.674,6.674,0,0,0,1.412.623,5.553,5.553,0,0,1,2.16,1.2A2.289,2.289,0,0,1,426.354,8215.517Zm8.264,2.7h-1.163V8209.2h-3.2v-1.036h7.517v1.036h-3.156Zm13.123,0-1.246-3.2h-4.028l-1.246,3.2h-1.163l3.987-10.091H445l3.945,10.091Zm-1.62-4.276-1.163-3.115c-.125-.373-.291-.871-.457-1.41a12.937,12.937,0,0,1-.415,1.41l-1.2,3.115Zm15.2,4.276h-1.329l-5.523-8.431h-.042c.083,1,.125,1.869.125,2.7v5.73h-1.08v-10.048H454.8l5.44,8.387h.083a11.628,11.628,0,0,1-.083-1.2c-.041-.665-.041-1.121-.041-1.411v-5.771h1.121Zm13.871-5.147a5.211,5.211,0,0,1-1.329,3.82,5.42,5.42,0,0,1-3.9,1.327h-2.782v-10.048h3.073a4.479,4.479,0,0,1,4.942,4.9Zm-1.246.04a3.459,3.459,0,0,0-3.9-3.945h-1.7v8.015h1.453a4.387,4.387,0,0,0,3.115-1A4.117,4.117,0,0,0,473.946,8213.108Zm14.2-4.94v6.478a3.416,3.416,0,0,1-1.038,2.7,3.95,3.95,0,0,1-2.865,1,3.745,3.745,0,0,1-2.782-1,3.667,3.667,0,0,1-1-2.7v-6.478h1.163v6.56a2.565,2.565,0,0,0,.706,1.91,2.689,2.689,0,0,0,1.993.666,2.391,2.391,0,0,0,2.658-2.618v-6.518Zm12.127,2.906a2.783,2.783,0,0,1-1.038,2.366,4.622,4.622,0,0,1-2.949.789h-1.2v3.986h-1.163v-10.048h2.616C499.03,8208.168,500.276,8209.123,500.276,8211.074Zm-5.191,2.158h1.08a3.887,3.887,0,0,0,2.243-.5,1.827,1.827,0,0,0,.664-1.579,1.8,1.8,0,0,0-.623-1.5,3.426,3.426,0,0,0-2.035-.5h-1.329Zm22.841,4.983H516.8l-2.035-6.727a9.535,9.535,0,0,1-.332-1.122,4.32,4.32,0,0,1-.166-.829c-.125.579-.291,1.246-.5,1.992l-1.952,6.686h-1.163L508,8208.168h1.2l1.62,6.187a21.255,21.255,0,0,1,.457,2.367,23.347,23.347,0,0,1,.54-2.451l1.827-6.1h1.2l1.91,6.146a17.31,17.31,0,0,1,.54,2.408,17.449,17.449,0,0,1,.5-2.367l1.578-6.187h1.246Zm7.392,0v-10.048h1.163v10.048Zm10.133,0h-1.163V8209.2h-3.156v-1.036h7.517v1.036h-3.2Zm15.449,0h-1.163v-4.733h-5.274v4.733h-1.2v-10.048h1.2v4.277h5.274v-4.277H550.9Zm15.2-2.7a2.488,2.488,0,0,1-.955,2.076,4.253,4.253,0,0,1-2.616.749,6.663,6.663,0,0,1-2.741-.458v-1.121a12.1,12.1,0,0,0,1.329.415,8.977,8.977,0,0,0,1.453.126,2.857,2.857,0,0,0,1.744-.415,1.431,1.431,0,0,0,.623-1.246,1.939,1.939,0,0,0-.208-.874,2.041,2.041,0,0,0-.706-.579,9.023,9.023,0,0,0-1.5-.667,4.854,4.854,0,0,1-2.035-1.161,2.829,2.829,0,0,1-.582-1.828,2.221,2.221,0,0,1,.872-1.826,3.694,3.694,0,0,1,2.326-.707,6.625,6.625,0,0,1,2.741.582l-.374,1a6.4,6.4,0,0,0-2.409-.5,2.411,2.411,0,0,0-1.453.376,1.394,1.394,0,0,0-.54,1.121,1.635,1.635,0,0,0,.208.83,1.4,1.4,0,0,0,.664.623,5.394,5.394,0,0,0,1.37.623,5.79,5.79,0,0,1,2.2,1.2A2.45,2.45,0,0,1,566.1,8215.517Zm8.264,2.7H573.2V8209.2H570v-1.036h7.558v1.036h-3.2Zm13.165,0-1.246-3.2h-4.028l-1.246,3.2h-1.2l3.987-10.091h1l3.945,10.091Zm-1.62-4.276-1.163-3.115a13.421,13.421,0,0,1-.5-1.41,7.529,7.529,0,0,1-.415,1.41l-1.163,3.115Zm8.472.083v4.193h-1.163v-10.048h2.741a4.423,4.423,0,0,1,2.741.705,2.527,2.527,0,0,1,.872,2.117,2.665,2.665,0,0,1-1.994,2.7l2.7,4.525h-1.37l-2.409-4.193Zm0-1H596a2.623,2.623,0,0,0,1.786-.5,1.743,1.743,0,0,0,.581-1.453,1.64,1.64,0,0,0-.581-1.453,3.1,3.1,0,0,0-1.869-.417h-1.537Zm13.746,5.191h-1.163V8209.2h-3.156v-1.036h7.517v1.036h-3.2Zm15.407-10.048v6.478a3.417,3.417,0,0,1-1.038,2.7,4.019,4.019,0,0,1-2.865,1,3.746,3.746,0,0,1-2.783-1,3.667,3.667,0,0,1-1-2.7v-6.478h1.163v6.56a2.565,2.565,0,0,0,.706,1.91,2.689,2.689,0,0,0,1.993.666,2.391,2.391,0,0,0,2.658-2.618v-6.518Zm12.126,2.906a2.783,2.783,0,0,1-1.038,2.366,4.621,4.621,0,0,1-2.949.789h-1.2v3.986h-1.163v-10.048h2.616C634.415,8208.168,635.66,8209.123,635.66,8211.074Zm-5.191,2.158h1.08a3.978,3.978,0,0,0,2.243-.5,1.827,1.827,0,0,0,.664-1.579,1.8,1.8,0,0,0-.623-1.5,3.426,3.426,0,0,0-2.035-.5h-1.329Z" transform="translate(-420 -8166.179)"/>
      </g>
      <g id="Group_7602" data-name="Group 7602">
        <g id="Group_7599" data-name="Group 7599">
          <ellipse id="Ellipse_2" data-name="Ellipse 2" class="cls-3" cx="52.94" cy="51.757" rx="52.94" ry="51.757" transform="translate(28.298 20.945)"/>
          <g id="Group_7598" data-name="Group 7598">
            <rect id="Rectangle_181" data-name="Rectangle 181" class="cls-1" width="2.216" height="10.656" rx="1.108" transform="translate(80.943)"/>
            <rect id="Rectangle_182" data-name="Rectangle 182" class="cls-1" width="2.216" height="10.656" rx="1.108" transform="matrix(0.959, 0.283, -0.283, 0.959, 104.126, 3.21)"/>
            <rect id="Rectangle_183" data-name="Rectangle 183" class="cls-1" width="2.216" height="10.656" rx="1.108" transform="matrix(0.839, 0.543, -0.543, 0.839, 125.457, 12.859)"/>
            <rect id="Rectangle_184" data-name="Rectangle 184" class="cls-1" width="2.216" height="10.656" rx="1.108" transform="matrix(0.651, 0.759, -0.759, 0.651, 143.18, 28.156)"/>
            <rect id="Rectangle_185" data-name="Rectangle 185" class="cls-1" width="2.216" height="10.656" rx="1.108" transform="matrix(0.409, 0.912, -0.912, 0.409, 155.844, 47.847)"/>
            <rect id="Rectangle_186" data-name="Rectangle 186" class="cls-1" width="2.216" height="10.656" rx="1.108" transform="matrix(0.134, 0.991, -0.991, 0.134, 162.41, 70.319)"/>
            <rect id="Rectangle_187" data-name="Rectangle 187" class="cls-1" width="2.216" height="10.656" rx="1.108" transform="matrix(-0.152, 0.988, -0.988, -0.152, 162.34, 93.731)"/>
            <rect id="Rectangle_188" data-name="Rectangle 188" class="cls-1" width="2.216" height="10.656" rx="1.108" transform="matrix(-0.426, 0.905, -0.905, -0.426, 155.641, 116.164)"/>
            <rect id="Rectangle_189" data-name="Rectangle 189" class="cls-1" width="2.216" height="10.656" rx="1.108" transform="matrix(-0.393, -0.92, 0.92, -0.393, 6.417, 114.375)"/>
            <rect id="Rectangle_190" data-name="Rectangle 190" class="cls-1" width="2.216" height="10.656" rx="1.108" transform="matrix(-0.116, -0.993, 0.993, -0.116, 0.258, 91.788)"/>
            <rect id="Rectangle_191" data-name="Rectangle 191" class="cls-1" width="2.216" height="10.656" rx="1.108" transform="matrix(0.17, -0.985, 0.985, 0.17, 0.75, 68.381)"/>
            <rect id="Rectangle_192" data-name="Rectangle 192" class="cls-1" width="2.216" height="10.656" rx="1.108" transform="matrix(0.442, -0.897, 0.897, 0.442, 7.853, 46.073)"/>
            <rect id="Rectangle_193" data-name="Rectangle 193" class="cls-1" width="2.216" height="10.656" rx="1.108" transform="matrix(0.678, -0.735, 0.735, 0.678, 20.985, 26.691)"/>
            <rect id="Rectangle_194" data-name="Rectangle 194" class="cls-1" width="2.216" height="10.656" rx="1.108" transform="matrix(0.859, -0.513, 0.513, 0.859, 39.07, 11.824)"/>
            <rect id="Rectangle_195" data-name="Rectangle 195" class="cls-1" width="2.216" height="10.656" rx="1.108" transform="matrix(0.969, -0.249, 0.249, 0.969, 60.626, 2.689)"/>
          </g>
        </g>
        <g id="Group_7600" data-name="Group 7600" transform="translate(26.363 39.792)">
          <path id="Path_403" data-name="Path 403" class="cls-4" d="M1077.175,1605.265Zm-32.049,21.16h-1.613a12.443,12.443,0,0,1-4.678-1.129c-8.254-3.845-8.2-.646-11.642-.887-1.318-.107-.457-.242-1.775-.564-2.742-.618-4.033,2.393-9.034,2.581h-.968q-.807-.04-1.775-.161c-2.823-.4-4.866-.672-7.582-2.581-3.092-2.151-2.178-3.576-.376-6.265a30.236,30.236,0,0,1-4.167-2.1,20.994,20.994,0,0,1-3.5-2.366c-3.979-3.119-3.683-4.678-3.683-8.066-7.878,0-7.932,6.587-12.5,3.522.242-2.689,1.909-1.855,3.146-3.522-3.28.753-5,1.1-7.824-.78,0-3.549,1.237-2.742,4.678-2.742l-1.936-1.183c-2.312-1.156-3.9-2.447-3.9-5.082,3.818-2.043,3.011,1.183,5.834,1.963,0-2.527.108-4.167,1.156-5.512.672-.833,2.554-2.312,3.952-2.259,3.011.108-.592.43,2.2.511,4.141.107,2.259,1.1,5.592,3.334,1.613-1.075,3.011-2.393,4.651-3.576,3.253-2.366,1.317-2.5,3.092-4.705,1.049-1.291.941-.134,1.775-2.151,1.21-2.931.4-7.582.645-11.077,1.1-14.411,11.454-11.185,14.438-16.858-.914-1.4-2.769-2.447-4.167-3.63-4.732-4.006-5.324-5.162-7.609-10l-1.049-2.1c-.242-.672.135.027-.161-.592-.457-.941.135-.457-.995-.968-1.183-.565-1.318-.215-2.716-1.183-3.71-2.581-5.055-10.7-2.984-14.573,1.183-2.2,2.366-1.99,4.84-2.581,0-1.963-.4-2.689-.4-5.082.054-10.755-.4-18.041,11.991-24.413,12.422-6.4,22.424-1.317,27.344-2.742,2.339-.7,3.872-4.033,2.5-6.91,2.366.215,3.845,2.151,4.705,3.9,1.613,3.442.242,3.845-.027,7.071,5.028-2.42,2.554-1.049,4.3-4.705,2.124,1.425,3.173,3.469,2.688,7.394-.484,4.114-2.93,2.689-.86,7.233,1.99,4.409.968,12.69.511,18.256,2.447.564,4.006,1.048,5.189,3.038,2.043,3.388.78,9.383-1.264,12.26a7.966,7.966,0,0,1-4.786,3.038c-2.259.645-.995-.081-1.775,2.124a35.713,35.713,0,0,1-4.275,7.448c-3.952,5.27-2.393,3.011-5.377,5.593l-.188.188-1.049.914a.721.721,0,0,0-.215.188c-2.071,2.178,1.425,3.5,5.781,5.673,3.065,1.506,4.194,1.855,5.619,4.947,2.42,5.243,1.855,8.792,1.936,14.116.027,1.963.4,2.715.4,4.678,4.409,2.339,1.156,3.2,4.275,5.512l5.485,4.275c1.183-.78,2.5-2.716,3.469-3.2,1.317-.672,1.882-.161,2.716-.215.726-.054,3.9-1.748,5.942,2.608,1.237,2.635.618,2.42.376,5.108,3.791-2.527,3.253-3.926,6.265-2.339-.108,4.49-3.253,4.436-5.861,6.265h3.9a7.876,7.876,0,0,1,.4,2.742c-2.554,1.694-3.065,1.156-7.044,1.156.618.538.081.135.941.646.242.134.995.51,1.049.538,2.151,1.667.242,4.006-3.576,1.99-3.173-1.667-2.662-3.549-8.174-3.549,0,3.092.161,3.683-1.156,5.485-1.828,2.5-8.577,7.179-11.749,7.421.376,1.586,1.425,2.231,1.049,3.764C1055.074,1623.521,1050.288,1626.156,1045.126,1626.425Zm-63.291-29.36Zm53.854-31.726c-1.936,4.517-2.178,1.909-1.452,8.227.376,3.253.753,6.614,1.1,9.841.511,4.544,1.291,16.293,2.447,19.6l-6.614,6.291c-1.855-.995-3.28-3.173-4.759-4.463-2.85-2.474-2.2-2.124-1.721-6.641.565-5.565,1.237-11.077,1.882-16.562.323-2.716.592-5.4.914-8.093.511-4.705.995-3.522-1.022-7.152C1024.584,1562.946,1032.865,1559.074,1035.688,1565.338Z" transform="translate(-976 -1480)"/>
          <path id="Path_404" data-name="Path 404" class="cls-5" d="M2773.514,4549.722c-.646,5.484-1.318,11-1.882,16.562-.484,4.517-1.129,4.167,1.721,6.641,1.479,1.29,2.9,3.468,4.759,4.463l6.614-6.292c-1.156-3.307-1.936-15.057-2.446-19.6-.35-3.226-.726-6.587-1.1-9.84-.726-6.318-.484-3.711,1.452-8.228-2.823-6.265-11.1-2.393-9.222,1.048,2.016,3.63,1.533,2.447,1.022,7.152C2774.105,4544.318,2773.837,4547.006,2773.514,4549.722Z" transform="translate(-2722.94 -4448.09)"/>
        </g>
      </g>
      <g id="Group_8129" data-name="Group 8129" transform="translate(7 20)">
        <rect id="Rectangle_4192" data-name="Rectangle 4192" class="cls-6" width="76" height="36" rx="18" transform="translate(175 26)"/>
        <path id="Path_3749" data-name="Path 3749" class="cls-7" d="M-26.55-17.847h5.042a9.512,9.512,0,0,1,5.139,1.062,3.749,3.749,0,0,1,1.587,3.357,3.879,3.879,0,0,1-.885,2.618A4.261,4.261,0,0,1-18.25-9.473v.122q4.065.7,4.065,4.272A4.589,4.589,0,0,1-15.8-1.343,6.885,6.885,0,0,1-20.325,0H-26.55Zm2.075,7.642h3.418a5.564,5.564,0,0,0,3.162-.69,2.663,2.663,0,0,0,.964-2.325,2.353,2.353,0,0,0-1.074-2.167,6.712,6.712,0,0,0-3.418-.665h-3.052Zm0,1.758V-1.77h3.723A5.3,5.3,0,0,0-17.5-2.606a3.087,3.087,0,0,0,1.093-2.618,2.773,2.773,0,0,0-1.117-2.441,5.97,5.97,0,0,0-3.4-.781ZM-.4,0h-9.949V-17.847H-.4V-16H-8.276v5.75h7.4v1.831h-7.4v6.567H-.4ZM9.045,0H6.97V-16H1.318v-1.843H14.7V-16H9.045Zm17.81,0L24.634-5.676H17.48L15.283,0h-2.1l7.056-17.92h1.746L29,0ZM23.987-7.544l-2.075-5.53q-.4-1.05-.83-2.576a23.129,23.129,0,0,1-.769,2.576l-2.1,5.53Z" transform="translate(213 54)"/>
      </g>
    </g>
  </g>
</svg>
