<svg xmlns="http://www.w3.org/2000/svg" viewBox="0 0 279.252 261.131">
  <defs>
    <style>
      .cls-1, .cls-8 {
        fill: #fd5e53;
      }

      .cls-1, .cls-2, .cls-3, .cls-4, .cls-5, .cls-6, .cls-7 {
        fill-rule: evenodd;
      }

      .cls-2, .cls-3, .cls-9 {
        fill: #1f3291;
      }

      .cls-2, .cls-4, .cls-5, .cls-7 {
        stroke: #1f3291;
        stroke-width: 5px;
      }

      .cls-4, .cls-6 {
        fill: #ffca7c;
      }

      .cls-5 {
        fill: #3e4095;
      }

      .cls-7 {
        fill: #fefefe;
      }
    </style>
  </defs>
  <g id="Group_8128" data-name="Group 8128" transform="translate(0 20.718)">
    <path id="Path_3522" data-name="Path 3522" class="cls-1" d="M25.407,10152.376,277.835,10150l-9.85,41.455L0,10183.112Z" transform="translate(0 -10023.15)"/>
    <g id="Group_8066" data-name="Group 8066" transform="translate(15.628 -20)">
      <path id="Path_3523" data-name="Path 3523" class="cls-2" d="M2972.5,2099.487c-1.405-.058-1.55-.145-2.042-1.246-2.535-5.635,8.068-6.185,11.791-6.011,18.222.869,16.223,9.415,26.551,16.73a33.054,33.054,0,0,0,15.745,6.141c-1.043-2.129-12.428-17.454-9.632-21,1.608.2,1.246.565,1.738,2.462,1.521,5.982,6.62,12.66,9.777,17.585,6.692,10.5,9.807,21.539,13.993,33.127l3.694,10.024c2.274,5.692,7.88,19.164,8.952,24.117,2.216-.275,11.443-4.041,12.718-5.215-.551-2.651-6.113-15.861-7.5-19.83-1.188-3.389-2.521-6.895-3.491-10.154-1.014-3.4-2.071-7.141-3.172-10.125-3.114-8.386-7.691-30.244-9.893-41.064l.246-2.477c1.854-1.362,2.129,7.489,3.346,9.517,3.766-3.448,4.244-12.225,2.622-18.193-1.043-3.853-1.608-4.693-4.708-6.3a37.437,37.437,0,0,0-8.083-2.926c-6.344-1.695-13.992-.058-20.612.2-7.779.29-12.964-.55-20.134-2.042-11.907-2.462-40.775-5.591-51.523,4.36l-7.011,9.343c-1.724,2.839-2.433,3.578-5.026,4.867l-.84.449c1.607,4.765,2.4,13.789,6.808,15.3,7.749,2.651,26.029-1,35.256,1.318,11.2,2.81,11.487,4.954,13.587,5.866.246-4.2-1.246-6.3-1.463-9.966-.42-7.185,6.518-7.315,3.8-4.548l-1.3,1.173c5.316-.782,7.851-.681,12.5.985-1.912-4-7.069-6.286-13.08-7.112C2968.081,2092.346,2972.962,2097.793,2972.5,2099.487Z" transform="translate(-2903.187 -2040.504)"/>
      <path id="Path_3524" data-name="Path 3524" class="cls-3" d="M2847.413,73.685a45.378,45.378,0,0,1,4.867,6.562,31.519,31.519,0,0,0-8.691-1.477l-.753-4.259ZM2829.322,70.9c.463-1.695-4.418-7.141,13.6-4.65,6.011.826,11.168,3.114,13.08,7.112-4.65-1.666-7.184-1.767-12.5-.985l1.3-1.173c2.723-2.767-4.215-2.636-3.8,4.548.217,3.665,1.709,5.765,1.463,9.966-2.1-.913-2.39-3.056-13.587-5.866-9.227-2.318-23.523-4.823-31.273-7.474-4.389-1.506-9.183-4.374-10.791-9.14l.84-.449c2.593-1.289,3.3-2.028,5.026-4.867l7.011-9.343c10.748-9.951,39.616-6.822,51.523-4.36,7.17,1.492,12.356,2.332,20.134,2.042,6.62-.261,14.268-1.9,20.612-.2a37.469,37.469,0,0,1,8.083,2.926c3.1,1.608,3.665,2.448,4.708,6.3,1.622,5.968,1.144,14.746-2.622,18.193-1.217-2.028-1.492-10.878-3.346-9.517l-.247,2.477c2.2,10.82,6.779,32.678,9.894,41.065,1.1,2.984,2.158,6.721,3.172,10.125.97,3.259,2.3,6.764,3.491,10.154,1.391,3.969,6.953,17.179,7.5,19.83-1.275,1.173-10.5,4.939-12.718,5.215-1.072-4.954-6.677-18.425-8.952-24.117l-3.694-10.024c-4.186-11.588-7.3-22.625-13.993-33.127-3.157-4.925-8.256-11.6-9.777-17.585-.492-1.9-.13-2.26-1.738-2.462-2.8,3.549,8.59,18.874,9.633,21a33.057,33.057,0,0,1-15.745-6.142c-10.328-7.315-8.329-15.861-26.551-16.73-3.723-.174-14.325.377-11.791,6.011C2827.771,70.759,2827.916,70.846,2829.322,70.9Zm72.439-53.638c1.391-1.492.985-1.941,3.245-2.854,4.649-1.912,8.691.739,6.909,3.1-.941,1.246-3.013,1.289-2.317,3.332,1.492.377,2.9-1.695,4.78-2.752a13.955,13.955,0,0,1,6.374-1.753c8.705-.3,16.339,3.549,20.67,10.661,2.4,3.969,4.186,6.229,2.2,11.255-.391-.536.043.319-.435-.826a5.4,5.4,0,0,1-.29-.9c-.015-.072-.319-1.492-.319-1.535-.145-2,.927-1.811-.145-3.288-2.564.188-.493,1.391-3.23,4.737-3.795,4.635-11.327,6.895-17.295,6.721-.869-1.622-.884-2.854-2.448-3.723a5.2,5.2,0,0,0-5.1-.087c-3.505,2.216-.3,6.576-.521,9.314-3.317.913-7.112-.579-9.271-2.318,2.317-1.072,3.795-.261,3.882-3.621.087-3.882-3.027-6.649-2.491-12.544.174-1.811,1.579-4.4.739-5.722-1.97.174-1.55,1.738-2.448,3.621-2.043.275-3.259.1-4.027-1.68-1.362-3.1.087-1.347-3.071-2.564a6.882,6.882,0,0,1,.507-5.388C2898.893,16.528,2899.515,17.136,2901.76,17.267ZM2791.994,71.831l1.84.884c7.778,3.274,16.469,5.229,25.435,6.895,5,.927,17.541,3.3,21.307,7.2.941.97,1,1.579,2.665,1.622,1.506-1.941,1.115-5.128.826-7.706,3.665-.261,7.141,1.086,9.995,2.549,1.941.435,2.1.811,2.2-1.072-1.767-2.593-4.592-5.475-5.954-8.3,6.417.652,8.879,3.853,11.472,5.765,4.012,2.984,5.243,4.476,10.878,6.605,11.878,4.476,9.1-3.332,17.353,17.614,4.664,11.791,9.2,26.623,14.123,37.922.884,2.028,1.781,4.114,2.52,6.214.637,1.782,1.13,5.432,1.956,6.779l3.085-.435,1.8-.71c3.259-1.2,5.736-2.332,8.792-3.621l.623.55,2.115-.015,2.448-.941,1.724-.811c.739-.464.435-.174.985-.739-.174-2.245-5.562-13.877-6.779-16.774a267.086,267.086,0,0,1-14.833-44.845c-.666-2.723-1.42-7.156-2.419-9.575l-.391-.29c-1.072.362-.826-.217-1.144.869.348,5.3,8.155,31.287,10.11,36.314,3.2,8.213,6.171,16.831,9.879,25.059a74.533,74.533,0,0,1,3.448,8.445l-3.143,1.159c-1.535-5.678-6.967-17.932-9.459-25.146-4.229-12.312-10.632-33.17-12.573-45.584-.42-1.246-.652-1.217.014-2.332,4.823-4.563,5.287-13.949,3.9-19.8-.608-2.535-1.8-4.128-2.289-5.91a6.452,6.452,0,0,1,3.781.652l4.432.464,1.97-.464c1.072.652,1.623,2.086,3.042,1.579,1.188-.97-.724-1.188-2.13-4.751-3.259-8.256,2.448-6.924,3.564-5.461.854,1.144.435,2.752.608,4.317,2.911.71.174-.246,2.94-.942,5.186-1.289,12.471-.449,18.425-7.923.869,5.461-.087,5.635-2.072,9.415-2.318,4.389,1.883,4.867,2.173,8.329-1.622,1.26-2.68.464-4.012,1.637-2.81,2.477-7.126,14.673-14.731,4.621-3.722-4.925-2.375-6.518-4.548-6.069-.507,1.217.029,2.115.666,3.476a15.875,15.875,0,0,1,1.318,2.854l-8.778,3.375c-.681.884-.391.232-.666,1.506.377.565-.637.71.608.391l10.458-3.853c1.405,2.665,6.127,5.49,10.226,3.071,4.273-2.535,4.78-7.242,7.127-8.083,2-.739,4.2-.652,4.548-2.622.319-1.8-1.9-3.81-2.477-4.939-1.419-2.8,1.029-2.39,2.187-8.329.42-2.144.116-1.028,1.492-2.3,5.446-5.055-2.549-15.731-6.953-19.9-2.245-2.129-6.475-3.752-10.3-4.534-6.287-1.275-7.779-.985-13.094.8-1.246-1.984-.652-2.144-2.738-3.216a8.766,8.766,0,0,0-5.461-.681,9.228,9.228,0,0,0-4.331,2.144c-2.042,1.506-2.419-.246-4.592,1.883-1.811,1.767-3.4,6.982-1.13,9.14.725.7,1.347.623,1.9,1.144,1.115,1.043.854,3.781,6.083,3.607-.029,9.01,4.186,12.167,1.912,13.891-2.1.811-6.629,6.417-8.714,6.895-.464,2.042,5.368-3.708,6.324-2.854-2.056.29-6.851-3.216-14.18-4.259-5.9-.84-16.875,1.115-26.942.594-1.839-.1-5.214-.826-7.706-1.275-15.412-2.81-35.662-5.635-49.785.2-11.776,4.852-13.21,16.382-17.657,17.686-1.68.492-1.014-.406-2.042.666-1.564,1.825.768,5.142,1.753,6.257C2788.923,69.977,2789.72,70.137,2791.994,71.831Z" transform="translate(-2760.009 -11.92)"/>
      <path id="Path_3525" data-name="Path 3525" class="cls-2" d="M3474.229,4219.559c-2.854-1.463-6.33-2.81-9.995-2.549.29,2.578.681,5.765-.826,7.706-1.666-.044-1.724-.652-2.665-1.623-3.766-3.9-16.31-6.272-21.308-7.2-8.966-1.666-17.657-3.621-25.436-6.895,1.289,8.6,8.908,14.919,13.355,19.366,6.722,6.721,12.24,10.545,12.486,20.467,3.723.739,5.417,2.825,12.167,2.347,4.317-.291,7.518-2.332,10.574-3.853.058-4.143-1.927-15.47-.8-18.512,1.536.174,1.478.174,1.608,1.839l.493,9.908c1.579-1.607,3.1-5.316,7.344-8.879,3.751-3.128,6.924-4.172,11.183-5.519C3480.486,4223.731,3475.33,4221.3,3474.229,4219.559Z" transform="translate(-3380.176 -4148.206)"/>
      <path id="Path_3526" data-name="Path 3526" class="cls-2" d="M6764.951,5531.661l10.718,4.708c1.781-1.739,3.433-3.549,4.925-3.144.246,2.057-1.825,2.274-5.041,6.084a36.574,36.574,0,0,0-4.911,6.475c-4.664,7.431-8.111,26.29-10.342,35.633-1.26,5.3-1.825,4.171,1.116,7.865a13.7,13.7,0,0,0,6.894,5c-2.3-9.4,1.247-13.674,4.158-21.191,2.463-6.344,5.852-12.326,8.865-18.135,4.823-9.27,14.456-21.234,7.981-27.767a25.151,25.151,0,0,0-7.923-5.78c-2.825-.753-7.792,2.057-9.821,3.288C6769.484,5525.969,6765.53,5529.025,6764.951,5531.661Z" transform="translate(-6676.997 -5441.478)"/>
      <path id="Path_3527" data-name="Path 3527" class="cls-2" d="M10530.735,142.27c-2.244-.13-2.867-.739-4.1,1.188a6.877,6.877,0,0,0-.507,5.388c3.157,1.217,1.71-.536,3.071,2.564.768,1.782,1.984,1.955,4.025,1.68.9-1.883.479-3.447,2.449-3.621.84,1.318-.564,3.911-.738,5.722-.537,5.9,2.577,8.662,2.49,12.544-.086,3.361-3.346,4.867-5.664,5.939,2.158,1.738,7.736.913,11.053,0,.218-2.738-2.983-7.1.522-9.314a5.2,5.2,0,0,1,5.1.087c1.564.869,1.578,2.1,2.447,3.723,5.967.174,13.5-2.086,17.295-6.721,2.738-3.346.666-4.548,3.23-4.737,1.072,1.477,0,1.289.145,3.288,0,.043.3,1.463.318,1.535a5.512,5.512,0,0,0,.289.9c.479,1.144.043.29.436.826,1.984-5.026.2-7.286-2.2-11.255-4.332-7.112-11.965-10.965-20.671-10.661a13.954,13.954,0,0,0-6.373,1.753c-1.884,1.057-3.288,3.129-4.78,2.752-.7-2.042,1.375-2.086,2.318-3.332,1.781-2.361-2.261-5.012-6.91-3.1C10531.721,140.329,10532.127,140.778,10530.735,142.27Z" transform="translate(-10388.985 -136.924)"/>
      <path id="Path_3528" data-name="Path 3528" class="cls-2" d="M2316.285,7085.8c-10.792,2.491-21.959,15.252-31.027,22.205-4.925,3.766-6.446,5.36-12.153,9.125-2.926,1.927-4.9,1.724-7.938,3.071-.42,5.721,1.492,10.038,6.315,10.805,5.722-6.663,5.9-6.1,15.166-10.979,11.2-5.9,23.2-11.993,33.3-19.555,10.5-7.865,9.183-7.083,8.851-16.86l-.681-.608C2323.831,7085.622,2320.746,7084.666,2316.285,7085.8Z" transform="translate(-2247.928 -6980.576)"/>
      <path id="Path_3529" data-name="Path 3529" class="cls-4" d="M11461.346,1766.645a10.073,10.073,0,0,1-1.087.188l-.941.333a2.223,2.223,0,0,0-.318.159c.623,4.3.464,12.689.782,13.312l8.778-3.375a15.814,15.814,0,0,0-1.319-2.854c-.637-1.362-1.172-2.26-.665-3.476,2.172-.449.825,1.144,4.549,6.069,7.6,10.052,11.92-2.144,14.73-4.621,1.333-1.173,2.39-.377,4.013-1.637-.29-3.462-4.491-3.94-2.173-8.329,1.984-3.781,2.939-3.955,2.07-9.415-5.953,7.474-13.239,6.634-18.424,7.923-2.767.7-.029,1.651-2.941.942-.174-1.564.246-3.172-.608-4.317-1.115-1.463-6.822-2.8-3.562,5.461,1.405,3.563,3.316,3.781,2.129,4.751-1.42.507-1.97-.927-3.042-1.579Z" transform="translate(-11308.645 -1727.781)"/>
      <path id="Path_3530" data-name="Path 3530" class="cls-5" d="M6220.329,5537.244l-3.013-1.347c-.1-8.561.912-9.473,4.1-14.456l1.391,1.724a22.784,22.784,0,0,0,5.533,4.736c4.867,2.868,3.911.13,7.358,5.837,6.88,11.428,15.3,5.563,15.354,11.5-6.794.376-13.659,1.072-17.831-2.853-3.4-3.187-4.751-9.691-11.327-9.386A14.533,14.533,0,0,0,6220.329,5537.244Zm24.958-82.563a25.15,25.15,0,0,1,7.923,5.779c6.475,6.533-3.157,18.5-7.981,27.768-3.013,5.809-6.4,11.791-8.864,18.135-2.912,7.518-6.461,11.791-4.158,21.191a13.7,13.7,0,0,1-6.895-5c-2.94-3.693-2.375-2.564-1.116-7.865,2.231-9.343,5.678-28.2,10.342-35.633a36.576,36.576,0,0,1,4.911-6.475c3.215-3.81,5.287-4.026,5.04-6.083-1.492-.406-3.143,1.4-4.925,3.143l-10.719-4.708c-.97.2-.855.13-1.043,1.463,1.434.492,9.314,4.042,10.2,4.9l-2.462,3.085a34.891,34.891,0,0,0-5.809,10.894c-1.854,5.4-6.156,23.277-7.967,30.794-.9,3.693.275,2.3-1.289,4.027-4.259,4.664-5.664,9.995-5.041,17,1.275.681,4.157,2.434,5.606,2.478.941-1.261.97-2.825,1.94-4.5,5.736.709,6.822,8.474,11.328,10.806,3.548,1.854,14.963,2.216,19.047.666a5.483,5.483,0,0,0-3.447-6.011c-2.231-.956-4.461-.753-7.054-2.072-3.4-1.738-6.3-6.242-8.184-10.067-2.694-5.489-1.448-9.806.8-14.977l8.735-19c2.433-5.243,6.75-12.732,9.5-17.874,1.811-3.39,4.9-9.372,3.259-13.747-1.275-3.375-6.07-7.662-9.343-9.023-1.347-.188-.073-.363-1.333.1C6244.823,5454.405,6245.808,5454.1,6245.286,5454.681Z" transform="translate(-6140.892 -5374.752)"/>
      <path id="Path_3531" data-name="Path 3531" class="cls-5" d="M15173.313,11755.606q-1.566-.023-3.172-.088c-4.649-.159-6-.434-6.142,1.579.579.406,4.446.579,9.313.638Z" transform="translate(-14959.979 -11585.306)"/>
      <path id="Path_3532" data-name="Path 3532" class="cls-5" d="M1161.146,7068.726c-.84-1.753-1.825-2.375-.724-4.229,1.97-3.332,5.664-8.459,9.734-8.909,3.317-.348.811,3.549,3.665,8.126,1.825,2.926,2.549,2.751,5.866,4.288-3.839,20.684,10.893,6.88,11.124,17.729-6.953.753-15.933.84-19-3.636-2.883-4.2-1.536-14.064-6.765-15.977C1163.42,7066.943,1162.8,7068.088,1161.146,7068.726Zm76.408-50.162c.333,9.777,1.651,9-8.85,16.861-10.1,7.561-22.1,13.659-33.3,19.555-9.27,4.881-9.444,4.316-15.166,10.979-4.824-.768-6.736-5.084-6.315-10.806,3.042-1.347,5.012-1.144,7.938-3.07,5.707-3.766,7.228-5.359,12.153-9.125,9.068-6.953,20.235-19.714,31.027-22.206a7.81,7.81,0,0,0-3.795-.666c-5.606,1.782-13.674,8.575-17.251,11.935-2.491,2.318-5.229,4.606-7.938,6.9l-7.88,6.562c-2.419,1.738-6.069,4.606-8.952,5.881-9.488,4.214-11.414-.7-19.091,10.154-1.985,2.824-4.157,5.127.347,9.531,2.086-.1,2.825-1.913,4.563-2.637,4.012,3.549,1.115,11.2,6.924,16.556,2.361,2.187,5.041,2.492,9.01,2.564,3.085.058,8.358.392,11.2-.043a6.514,6.514,0,0,0-1.478-7.2c-1.883-1.506-4.331-1.13-6.924-1.782-5.258-1.333-2.2-11.516-1.028-12.994,4.345-5.4,15.166-9.285,22.118-13.238,8.054-4.578,14.789-8.4,22.031-13.312,10.27-6.952,14.167-9.458,12.2-21.959-.985.13-.478-.044-1.275.275Z" transform="translate(-1156.683 -6915.532)"/>
      <path id="Path_3533" data-name="Path 3533" class="cls-5" d="M11869.065,9807.145c1.405,1.521,14.978,8.532,17.787,11.328,1.491,1.49,2.824,3.9,6.692,7.749,2.983,2.983,7.024,4.462,6.271,7.793-2.939-.1-.841-.725-3.78-3.434-5.056-4.679-14.528-14.108-19.729-17.136a51.954,51.954,0,0,1-8.764-5.952c-1.738-.841-1.868-1.724-3.463-.015,8.127,6.213,13.051,8.01,20.613,15.049l9.169,8.705c.984.973,1.419.928,1.246,2.348-3.1.2-11.415-6.692-13.806-11.066-.882-1.623-.563-1.637-2.158-1.811-.68,1.693,1.8,5.068,2.725,6.561,1.434,2.318,3.548,5,3.606,6.91-4.39-.9-6.271-7.952-10.732-11.951-1.146-1.027-1.464-.883-2-1.811-.868-1.49.03-1.592-1.449-2.5-.8.361-1.1-.262-.911,1.433l1.81,6.185c.754,2.492,2.1,6.012,2.651,8.489-2.593-.912-6.678-10.3-7.909-13.138-2.014-.291-1.3,1.26-5.707-3.39a16.273,16.273,0,0,1-3.766-5.9c-1.637.463-.8.015-1.463,1.332,2.622,7.039,9.574,10.082,10.443,11.516,2.361,3.91,4.982,13.313,10.212,11.2.971-2.333-2.013-6.592-3.027-11.85,2.158,1.13,4.983,6.822,6.952,9.315,2.8,3.534,8.808,5.04,6.432-1.581,1.811,1.218,3.534,2.955,6.286,3.709,2.333.623,2.606-.463,3.825,0,1.42.537,1.448,1.42,3.433.811,1.607-1.085,2.014-3.692.622-5.662a17.515,17.515,0,0,0-4.258-3.723c-5.012-3.693-6.823-8.518-11.705-11.863-3.229-2.217-11.369-5.982-14.325-8.793C11869.876,9807.029,11870.151,9806.334,11869.065,9807.145Z" transform="translate(-11699.895 -9664.134)"/>
      <path id="Path_3534" data-name="Path 3534" class="cls-2" d="M1304.443,9692.667c1.651-.637,2.274-1.782,3.9-2.607,5.229,1.912,3.882,11.777,6.765,15.978,3.071,4.475,12.052,4.389,19,3.635-.232-10.849-14.963,2.955-11.124-17.729-3.317-1.535-4.041-1.362-5.866-4.287-2.853-4.577-.348-8.474-3.665-8.126-4.07.449-7.764,5.576-9.734,8.908C1302.618,9690.292,1303.6,9690.914,1304.443,9692.667Z" transform="translate(-1299.98 -9539.474)"/>
      <path id="Path_3535" data-name="Path 3535" class="cls-4" d="M11957,9912.112a16.227,16.227,0,0,0,3.766,5.9c4.4,4.65,3.693,3.1,5.706,3.39,1.231,2.84,5.316,12.226,7.909,13.139-.551-2.478-1.9-6-2.65-8.488l-1.811-6.185c-.188-1.7.115-1.072.912-1.435,1.477.913.579,1.014,1.448,2.5.536.928.855.783,2,1.813,4.461,4,6.344,11.052,10.734,11.949-.059-1.912-2.174-4.592-3.607-6.908-.928-1.494-3.4-4.869-2.724-6.562,1.593.173,1.275.188,2.159,1.811,2.39,4.374,10.7,11.27,13.8,11.066.175-1.42-.261-1.377-1.245-2.346l-9.169-8.706c-7.561-7.04-12.485-8.837-20.612-15.05C11961.664,9908.318,11957.825,9910.693,11957,9912.112Z" transform="translate(-11799.433 -9764.655)"/>
      <path id="Path_3536" data-name="Path 3536" class="cls-2" d="M6357.55,10154.8a14.5,14.5,0,0,1,1.564-4.244c6.576-.3,7.922,6.2,11.327,9.387,4.171,3.926,11.037,3.23,17.831,2.854-.058-5.939-8.474-.074-15.354-11.5-3.447-5.707-2.492-2.969-7.358-5.838a22.751,22.751,0,0,1-5.533-4.736l-1.391-1.723c-3.187,4.982-4.2,5.895-4.1,14.455Z" transform="translate(-6278.113 -9992.311)"/>
      <path id="Path_3537" data-name="Path 3537" class="cls-2" d="M3319.577,4192.643a7.809,7.809,0,0,1,3.795.666c4.461-1.13,7.547-.173,11.834-2.8l.681.609.261-1.29c.8-.318.289-.145,1.275-.275l1.912-1.449c.029-.869-.782-6.5,2.593-8.372.188-1.333.072-1.26,1.043-1.463.58-2.636,4.534-5.692,6.62-6.967,2.028-1.231,7-4.041,9.821-3.288.521-.58-.463-.276,1-.812,1.26-.464-.014-.29,1.333-.1-1.781-1.593-3.476-2.854-5.417-4.36-1.319-1.014-9.531-5.369-10.256-6.717-.1,1.883,4.939,3.849,3,3.414,1.1,1.739,6.258,4.172,8.184,6.605-4.259,1.347-7.431,2.39-11.182,5.519-4.244,3.563-5.765,7.271-7.344,8.879l-.492-9.908c-.131-1.666-.073-1.666-1.608-1.839-1.129,3.042.855,14.37.8,18.512-3.056,1.521-6.258,3.563-10.574,3.853-6.75.478-8.445-1.607-12.167-2.347-.246-9.922-5.765-13.746-12.486-20.467-4.447-4.447-12.066-10.762-13.355-19.367L3287,4148c.2,13.3,19.033,23.552,24.349,33.879,1.347,2.623.608,6,1.695,7.793C3314.2,4191.571,3317.548,4191.368,3319.577,4192.643Z" transform="translate(-3255.016 -4088.089)"/>
      <path id="Path_3538" data-name="Path 3538" class="cls-5" d="M10943.736,4537l-1.736.246c1.939,12.414,8.343,33.271,12.572,45.584,2.491,7.213,7.923,19.468,9.459,25.146l3.142-1.159a74.52,74.52,0,0,0-3.446-8.445c-3.708-8.227-6.678-16.846-9.88-25.059C10951.893,4568.287,10944.084,4542.3,10943.736,4537Z" transform="translate(-10799.134 -4471.455)"/>
      <path id="Path_3539" data-name="Path 3539" class="cls-5" d="M9060.117,11767.765c3.838.014,5.215.639,6.3-.9-.666-1.477-.956-1.115-2.854-1.086l-47.148.058c-2.419-.016-5.591-.8-5.156,1.579C9013.462,11768.359,9051.644,11767.765,9060.117,11767.765Z" transform="translate(-8896.321 -11595.45)"/>
      <path id="Path_3540" data-name="Path 3540" class="cls-5" d="M3711,11766.162c.912,1.26,1.072.941,2.9.941,8.112-.029,46.048.376,47.438-.521-.188-1.883-.8-1.507-2.926-1.478l-41.079.043C3715.418,11765.147,3711.941,11764.4,3711,11766.162Z" transform="translate(-3672.874 -11594.747)"/>
      <path id="Path_3541" data-name="Path 3541" class="cls-6" d="M12653,9885.347a51.835,51.835,0,0,0,8.765,5.954c5.2,3.027,14.672,12.457,19.728,17.136,2.939,2.708.84,3.332,3.78,3.433.753-3.332-3.287-4.809-6.272-7.793-3.868-3.853-5.2-6.258-6.691-7.748-2.811-2.8-16.383-9.807-17.787-11.328Z" transform="translate(-12485.35 -9741.989)"/>
      <path id="Path_3542" data-name="Path 3542" class="cls-5" d="M11566.773,9463.811l1.521,3.187-2.564.739-1.4-2.983-2.115.014a7.82,7.82,0,0,1,.914,2.346c-3.26,2.13-5.955,3.463-8.605,5.534l-1.723-4.81-1.8.71a34.054,34.054,0,0,0,1.492,4.244c.912,2.694.68,2.318,2.926,2.1.666-1.318-.174-.869,1.461-1.332.828-1.42,4.666-3.8,6.621-4.114,1.594-1.709,1.725-.826,3.463.014l1.52-.347c1.088-.812.813-.116,1.826-1.145.434-.956.434.116.088-1.275a9.368,9.368,0,0,0-.639-1.26,17.421,17.421,0,0,1-1.26-2.433Z" transform="translate(-11399.313 -9326.102)"/>
      <path id="Path_3543" data-name="Path 3543" class="cls-5" d="M10914.52,2688.059c-.667,1.115-.435,1.086-.016,2.332l1.739-.246c.318-1.086.071-.507,1.144-.869l.391.29c.464-1.97,1.8-2.984,2.725-5.026a17.617,17.617,0,0,0,.955-2.824c.58-2,.058-1.289,1.261-2.361-1.246.319-.231.173-.608-.391.274-1.274-.016-.623.666-1.506-.318-.623-.16-9.01-.783-13.312a2.279,2.279,0,0,1,.319-.159l.941-.333a10.317,10.317,0,0,0,1.087-.189l-4.433-.464c.565,5.026,1.361,10.14.449,15.383a24.367,24.367,0,0,1-1.854,6.069c-1.1,2.39-1.9,2.781-3.578,4.273C10914.346,2688.45,10914.346,2689.232,10914.52,2688.059Z" transform="translate(-10771.639 -2624.599)"/>
      <path id="Path_3544" data-name="Path 3544" class="cls-5" d="M10936.111,2637.813c-.174,1.173-.174.391.4.666,1.682-1.492,2.479-1.883,3.578-4.273a24.444,24.444,0,0,0,1.854-6.069c.912-5.243.117-10.356-.449-15.383a6.452,6.452,0,0,0-3.781-.652c.494,1.782,1.682,3.375,2.289,5.91C10941.4,2623.864,10940.934,2633.25,10936.111,2637.813Z" transform="translate(-10793.229 -2574.354)"/>
      <path id="Path_3545" data-name="Path 3545" class="cls-7" d="M11675,9550.621l1.725,4.809c2.649-2.072,5.344-3.4,8.6-5.533a7.779,7.779,0,0,0-.912-2.346l-.622-.551C11680.736,9548.289,11678.259,9549.42,11675,9550.621Z" transform="translate(-11521.516 -9408.885)"/>
      <path id="Path_3546" data-name="Path 3546" class="cls-2" d="M6797,4276.826l.753,4.258a31.516,31.516,0,0,1,8.691,1.478,45.425,45.425,0,0,0-4.867-6.562Z" transform="translate(-6714.173 -4214.235)"/>
      <path id="Path_3547" data-name="Path 3547" class="cls-5" d="M1082.684,11771.105c3.114-.058,8.879.521,10.226-.507-.087-1.9-.768-1.449-3-1.435h-8.792c-3.317.087-2.506,1.782-.362,1.984C1081.091,11771.177,1082.264,11771.119,1082.684,11771.105Z" transform="translate(-1078.888 -11598.806)"/>
      <path id="Path_3548" data-name="Path 3548" class="cls-7" d="M12471,9519.941l1.4,2.984,2.564-.738-1.521-3.187Z" transform="translate(-12305.987 -9381.291)"/>
    </g>
    <path id="Path_3748" data-name="Path 3748" class="cls-8" d="M-270.88-14a6.486,6.486,0,0,1,4.28,1.3,4.409,4.409,0,0,1,1.56,3.58,4.409,4.409,0,0,1-1.56,3.58,6.486,6.486,0,0,1-4.28,1.3h-3.46V0h-2V-14Zm-.06,8.02a4.514,4.514,0,0,0,2.9-.81,2.825,2.825,0,0,0,1-2.33,2.825,2.825,0,0,0-1-2.33,4.514,4.514,0,0,0-2.9-.81h-3.4v6.28Zm10.22-2.84a3.276,3.276,0,0,1,1.48-1.4,5.371,5.371,0,0,1,2.38-.48v1.86a3.748,3.748,0,0,0-.44-.02,3.23,3.23,0,0,0-2.45.93,3.682,3.682,0,0,0-.89,2.65V0h-1.92V-10.6h1.84Zm15.7,3.58a5.5,5.5,0,0,1-.04.58h-8.6a3.329,3.329,0,0,0,1.23,2.25,4.014,4.014,0,0,0,2.61.85,3.932,3.932,0,0,0,3.06-1.28l1.06,1.24a4.643,4.643,0,0,1-1.79,1.28,6.23,6.23,0,0,1-2.39.44,6.26,6.26,0,0,1-2.98-.69,4.921,4.921,0,0,1-2.01-1.93,5.533,5.533,0,0,1-.71-2.8,5.619,5.619,0,0,1,.69-2.78,4.943,4.943,0,0,1,1.9-1.93,5.412,5.412,0,0,1,2.73-.69,5.3,5.3,0,0,1,2.71.69,4.845,4.845,0,0,1,1.86,1.93A5.88,5.88,0,0,1-245.02-5.24Zm-5.24-3.84a3.318,3.318,0,0,0-2.31.84,3.386,3.386,0,0,0-1.09,2.2h6.8a3.409,3.409,0,0,0-1.09-2.19A3.3,3.3,0,0,0-250.26-9.08Zm7.42,2.76h5.38v1.66h-5.38ZM-230.48.16a9.581,9.581,0,0,1-3.05-.49,6.263,6.263,0,0,1-2.31-1.27l.74-1.56a6.128,6.128,0,0,0,2.05,1.17,7.532,7.532,0,0,0,2.57.45,4.629,4.629,0,0,0,2.6-.59,1.819,1.819,0,0,0,.86-1.57,1.547,1.547,0,0,0-.47-1.17,3.143,3.143,0,0,0-1.16-.69q-.69-.24-1.95-.54a20.1,20.1,0,0,1-2.55-.76,4.216,4.216,0,0,1-1.66-1.17,3.124,3.124,0,0,1-.69-2.13,3.6,3.6,0,0,1,.59-2.02,4.053,4.053,0,0,1,1.79-1.44,7.261,7.261,0,0,1,2.98-.54,9.43,9.43,0,0,1,2.44.32,6.492,6.492,0,0,1,2.06.92l-.66,1.6a7.241,7.241,0,0,0-1.88-.85,7.017,7.017,0,0,0-1.96-.29,4.319,4.319,0,0,0-2.55.62,1.9,1.9,0,0,0-.85,1.6,1.53,1.53,0,0,0,.48,1.17,3.33,3.33,0,0,0,1.19.7,18.593,18.593,0,0,0,1.93.53,19.55,19.55,0,0,1,2.54.76,4.276,4.276,0,0,1,1.65,1.16,3.055,3.055,0,0,1,.69,2.1,3.575,3.575,0,0,1-.6,2.01,4.019,4.019,0,0,1-1.82,1.44A7.528,7.528,0,0,1-230.48.16Zm17.64-5.4a5.5,5.5,0,0,1-.04.58h-8.6a3.329,3.329,0,0,0,1.23,2.25,4.014,4.014,0,0,0,2.61.85,3.932,3.932,0,0,0,3.06-1.28l1.06,1.24a4.643,4.643,0,0,1-1.79,1.28,6.23,6.23,0,0,1-2.39.44,6.26,6.26,0,0,1-2.98-.69,4.921,4.921,0,0,1-2.01-1.93,5.533,5.533,0,0,1-.71-2.8,5.619,5.619,0,0,1,.69-2.78,4.943,4.943,0,0,1,1.9-1.93,5.412,5.412,0,0,1,2.73-.69,5.3,5.3,0,0,1,2.71.69,4.845,4.845,0,0,1,1.86,1.93A5.88,5.88,0,0,1-212.84-5.24Zm-5.24-3.84a3.318,3.318,0,0,0-2.31.84,3.386,3.386,0,0,0-1.09,2.2h6.8a3.409,3.409,0,0,0-1.09-2.19A3.3,3.3,0,0,0-218.08-9.08Zm17.48,3.84a5.5,5.5,0,0,1-.04.58h-8.6a3.329,3.329,0,0,0,1.23,2.25,4.014,4.014,0,0,0,2.61.85,3.932,3.932,0,0,0,3.06-1.28l1.06,1.24a4.643,4.643,0,0,1-1.79,1.28,6.23,6.23,0,0,1-2.39.44,6.26,6.26,0,0,1-2.98-.69,4.921,4.921,0,0,1-2.01-1.93,5.533,5.533,0,0,1-.71-2.8,5.619,5.619,0,0,1,.69-2.78,4.943,4.943,0,0,1,1.9-1.93,5.412,5.412,0,0,1,2.73-.69,5.3,5.3,0,0,1,2.71.69,4.845,4.845,0,0,1,1.86,1.93A5.88,5.88,0,0,1-200.6-5.24Zm-5.24-3.84a3.318,3.318,0,0,0-2.31.84,3.386,3.386,0,0,0-1.09,2.2h6.8a3.409,3.409,0,0,0-1.09-2.19A3.3,3.3,0,0,0-205.84-9.08Zm17.9-5.76V0h-1.84V-1.68A4.158,4.158,0,0,1-191.4-.34a5.02,5.02,0,0,1-2.16.46,5.572,5.572,0,0,1-2.76-.68,4.872,4.872,0,0,1-1.91-1.91,5.685,5.685,0,0,1-.69-2.83,5.629,5.629,0,0,1,.69-2.82,4.891,4.891,0,0,1,1.91-1.9,5.572,5.572,0,0,1,2.76-.68,5.078,5.078,0,0,1,2.1.43A4.077,4.077,0,0,1-189.86-9v-5.84ZM-193.4-1.56a3.594,3.594,0,0,0,1.82-.47,3.3,3.3,0,0,0,1.28-1.32,4.032,4.032,0,0,0,.46-1.95,4.032,4.032,0,0,0-.46-1.95,3.23,3.23,0,0,0-1.28-1.31,3.656,3.656,0,0,0-1.82-.46,3.64,3.64,0,0,0-1.83.46,3.316,3.316,0,0,0-1.28,1.31,3.963,3.963,0,0,0-.47,1.95,3.963,3.963,0,0,0,.47,1.95,3.387,3.387,0,0,0,1.28,1.32A3.579,3.579,0,0,0-193.4-1.56Zm18.36-11.82q-1.72,0-1.72,1.86v.92h3.08v1.58h-3.04V0h-1.92V-9.02h-1.8V-10.6h1.8v-.94a3.378,3.378,0,0,1,.92-2.5,3.488,3.488,0,0,1,2.58-.92,4.35,4.35,0,0,1,1.2.16,2.92,2.92,0,0,1,.96.46l-.58,1.46A2.39,2.39,0,0,0-175.04-13.38Zm13.06,2.78V0h-1.82V-1.6a3.859,3.859,0,0,1-1.53,1.27,4.774,4.774,0,0,1-2.07.45,4.625,4.625,0,0,1-3.34-1.17,4.563,4.563,0,0,1-1.22-3.45v-6.1h1.92v5.88a3.292,3.292,0,0,0,.74,2.33,2.764,2.764,0,0,0,2.12.79,3.164,3.164,0,0,0,2.4-.92,3.611,3.611,0,0,0,.88-2.6V-10.6Zm9.32-.1a4.38,4.38,0,0,1,3.21,1.17,4.6,4.6,0,0,1,1.19,3.43V0h-1.92V-5.88a3.254,3.254,0,0,0-.74-2.32,2.783,2.783,0,0,0-2.12-.78,3.3,3.3,0,0,0-2.46.91,3.556,3.556,0,0,0-.9,2.61V0h-1.92V-10.6h1.84V-9a3.732,3.732,0,0,1,1.57-1.26A5.486,5.486,0,0,1-152.66-10.7Zm18.02-4.14V0h-1.84V-1.68A4.158,4.158,0,0,1-138.1-.34a5.02,5.02,0,0,1-2.16.46,5.572,5.572,0,0,1-2.76-.68,4.872,4.872,0,0,1-1.91-1.91,5.685,5.685,0,0,1-.69-2.83,5.629,5.629,0,0,1,.69-2.82,4.891,4.891,0,0,1,1.91-1.9,5.572,5.572,0,0,1,2.76-.68,5.078,5.078,0,0,1,2.1.43A4.077,4.077,0,0,1-136.56-9v-5.84ZM-140.1-1.56a3.6,3.6,0,0,0,1.82-.47A3.3,3.3,0,0,0-137-3.35a4.032,4.032,0,0,0,.46-1.95A4.032,4.032,0,0,0-137-7.25a3.23,3.23,0,0,0-1.28-1.31,3.656,3.656,0,0,0-1.82-.46,3.64,3.64,0,0,0-1.83.46,3.316,3.316,0,0,0-1.28,1.31,3.963,3.963,0,0,0-.47,1.95,3.963,3.963,0,0,0,.47,1.95,3.387,3.387,0,0,0,1.28,1.32A3.579,3.579,0,0,0-140.1-1.56ZM-127.96.12a8.883,8.883,0,0,1-2.5-.35,5.49,5.49,0,0,1-1.88-.89l.8-1.52a5.742,5.742,0,0,0,1.7.8,7,7,0,0,0,2.02.3q2.52,0,2.52-1.44a.933.933,0,0,0-.34-.76,2.153,2.153,0,0,0-.85-.41q-.51-.13-1.45-.29a14.21,14.21,0,0,1-2.09-.46,3.221,3.221,0,0,1-1.39-.88A2.449,2.449,0,0,1-132-7.52a2.718,2.718,0,0,1,1.2-2.31,5.375,5.375,0,0,1,3.22-.87,8.871,8.871,0,0,1,2.12.26,5.7,5.7,0,0,1,1.74.7l-.82,1.52a5.513,5.513,0,0,0-3.06-.84,3.537,3.537,0,0,0-1.86.4,1.207,1.207,0,0,0-.64,1.06,1.011,1.011,0,0,0,.36.82,2.277,2.277,0,0,0,.89.44q.53.14,1.49.32a16.171,16.171,0,0,1,2.07.47,3.091,3.091,0,0,1,1.35.85,2.368,2.368,0,0,1,.56,1.68,2.649,2.649,0,0,1-1.23,2.29A5.809,5.809,0,0,1-127.96.12Zm16.24-13.5q-1.72,0-1.72,1.86v.92h3.08v1.58h-3.04V0h-1.92V-9.02h-1.8V-10.6h1.8v-.94a3.378,3.378,0,0,1,.92-2.5,3.488,3.488,0,0,1,2.58-.92,4.35,4.35,0,0,1,1.2.16,2.92,2.92,0,0,1,.96.46l-.58,1.46A2.39,2.39,0,0,0-111.72-13.38Zm7.56,13.5A5.748,5.748,0,0,1-107-.58a5.076,5.076,0,0,1-1.97-1.93,5.479,5.479,0,0,1-.71-2.79,5.479,5.479,0,0,1,.71-2.79A5.006,5.006,0,0,1-107-10.01a5.814,5.814,0,0,1,2.84-.69,5.757,5.757,0,0,1,2.83.69,5.024,5.024,0,0,1,1.96,1.92,5.479,5.479,0,0,1,.71,2.79,5.479,5.479,0,0,1-.71,2.79,5.1,5.1,0,0,1-1.96,1.93A5.692,5.692,0,0,1-104.16.12Zm0-1.68a3.579,3.579,0,0,0,1.83-.47,3.317,3.317,0,0,0,1.27-1.32,4.032,4.032,0,0,0,.46-1.95,4.032,4.032,0,0,0-.46-1.95,3.249,3.249,0,0,0-1.27-1.31,3.64,3.64,0,0,0-1.83-.46,3.64,3.64,0,0,0-1.83.46,3.316,3.316,0,0,0-1.28,1.31,3.963,3.963,0,0,0-.47,1.95,3.963,3.963,0,0,0,.47,1.95,3.387,3.387,0,0,0,1.28,1.32A3.579,3.579,0,0,0-104.16-1.56Zm10-7.26a3.276,3.276,0,0,1,1.48-1.4,5.372,5.372,0,0,1,2.38-.48v1.86a3.748,3.748,0,0,0-.44-.02,3.23,3.23,0,0,0-2.45.93,3.682,3.682,0,0,0-.89,2.65V0H-96V-10.6h1.84ZM-79.38.12a8.883,8.883,0,0,1-2.5-.35,5.49,5.49,0,0,1-1.88-.89l.8-1.52a5.742,5.742,0,0,0,1.7.8,7,7,0,0,0,2.02.3q2.52,0,2.52-1.44a.933.933,0,0,0-.34-.76,2.153,2.153,0,0,0-.85-.41q-.51-.13-1.45-.29a14.21,14.21,0,0,1-2.09-.46,3.221,3.221,0,0,1-1.39-.88,2.449,2.449,0,0,1-.58-1.74,2.718,2.718,0,0,1,1.2-2.31A5.375,5.375,0,0,1-79-10.7a8.871,8.871,0,0,1,2.12.26,5.7,5.7,0,0,1,1.74.7l-.82,1.52a5.513,5.513,0,0,0-3.06-.84,3.537,3.537,0,0,0-1.86.4,1.207,1.207,0,0,0-.64,1.06,1.011,1.011,0,0,0,.36.82,2.276,2.276,0,0,0,.89.44q.53.14,1.49.32a16.171,16.171,0,0,1,2.07.47,3.091,3.091,0,0,1,1.35.85,2.368,2.368,0,0,1,.56,1.68A2.649,2.649,0,0,1-76.03-.73,5.809,5.809,0,0,1-79.38.12Zm12.94-.74a2.865,2.865,0,0,1-1.04.55,4.344,4.344,0,0,1-1.28.19,3.4,3.4,0,0,1-2.48-.86,3.284,3.284,0,0,1-.88-2.46V-9.02h-1.8V-10.6h1.8v-2.32h1.92v2.32h3.04v1.58H-70.2v5.74a1.862,1.862,0,0,0,.43,1.32,1.6,1.6,0,0,0,1.23.46,2.314,2.314,0,0,0,1.5-.5Zm6.18-10.08a4.794,4.794,0,0,1,3.37,1.08A4.17,4.17,0,0,1-55.72-6.4V0h-1.82V-1.4A3.035,3.035,0,0,1-58.91-.27a5.229,5.229,0,0,1-2.11.39,4.416,4.416,0,0,1-2.85-.86A2.759,2.759,0,0,1-64.94-3a2.783,2.783,0,0,1,1.02-2.25,5.027,5.027,0,0,1,3.24-.85h3.04v-.38a2.448,2.448,0,0,0-.72-1.9,3.037,3.037,0,0,0-2.12-.66,5.613,5.613,0,0,0-1.84.31,4.74,4.74,0,0,0-1.52.83l-.8-1.44a5.805,5.805,0,0,1,1.96-1.01A8.2,8.2,0,0,1-60.26-10.7Zm-.44,9.34a3.566,3.566,0,0,0,1.9-.49,2.8,2.8,0,0,0,1.16-1.39V-4.72H-60.6q-2.44,0-2.44,1.64a1.484,1.484,0,0,0,.62,1.26A2.835,2.835,0,0,0-60.7-1.36Zm10.38-7.46a3.276,3.276,0,0,1,1.48-1.4,5.372,5.372,0,0,1,2.38-.48v1.86a3.748,3.748,0,0,0-.44-.02,3.23,3.23,0,0,0-2.45.93,3.682,3.682,0,0,0-.89,2.65V0h-1.92V-10.6h1.84ZM-37.7-.62a2.865,2.865,0,0,1-1.04.55,4.344,4.344,0,0,1-1.28.19A3.4,3.4,0,0,1-42.5-.74a3.284,3.284,0,0,1-.88-2.46V-9.02h-1.8V-10.6h1.8v-2.32h1.92v2.32h3.04v1.58h-3.04v5.74a1.862,1.862,0,0,0,.43,1.32,1.6,1.6,0,0,0,1.23.46A2.314,2.314,0,0,0-38.3-2Zm12.2-9.98V0h-1.82V-1.6A3.859,3.859,0,0,1-28.85-.33a4.773,4.773,0,0,1-2.07.45,4.625,4.625,0,0,1-3.34-1.17A4.563,4.563,0,0,1-35.48-4.5v-6.1h1.92v5.88a3.292,3.292,0,0,0,.74,2.33,2.764,2.764,0,0,0,2.12.79,3.164,3.164,0,0,0,2.4-.92,3.611,3.611,0,0,0,.88-2.6V-10.6Zm9.28-.1a5.572,5.572,0,0,1,2.76.68,4.891,4.891,0,0,1,1.91,1.9,5.629,5.629,0,0,1,.69,2.82,5.686,5.686,0,0,1-.69,2.83A4.872,4.872,0,0,1-13.46-.56a5.572,5.572,0,0,1-2.76.68,4.912,4.912,0,0,1-2.09-.44A4.347,4.347,0,0,1-19.92-1.6V3.88h-1.92V-10.6H-20v1.68a4.076,4.076,0,0,1,1.62-1.33A5.114,5.114,0,0,1-16.22-10.7Zm-.16,9.14a3.579,3.579,0,0,0,1.83-.47,3.387,3.387,0,0,0,1.28-1.32A3.963,3.963,0,0,0-12.8-5.3a3.963,3.963,0,0,0-.47-1.95,3.316,3.316,0,0,0-1.28-1.31,3.64,3.64,0,0,0-1.83-.46,3.54,3.54,0,0,0-1.81.47,3.405,3.405,0,0,0-1.28,1.31,3.906,3.906,0,0,0-.47,1.94,4.032,4.032,0,0,0,.46,1.95A3.3,3.3,0,0,0-18.2-2.03,3.594,3.594,0,0,0-16.38-1.56ZM-5.16.12a8.883,8.883,0,0,1-2.5-.35,5.49,5.49,0,0,1-1.88-.89l.8-1.52a5.742,5.742,0,0,0,1.7.8,7,7,0,0,0,2.02.3q2.52,0,2.52-1.44a.933.933,0,0,0-.34-.76,2.153,2.153,0,0,0-.85-.41q-.51-.13-1.45-.29A14.21,14.21,0,0,1-7.23-4.9a3.221,3.221,0,0,1-1.39-.88A2.449,2.449,0,0,1-9.2-7.52,2.718,2.718,0,0,1-8-9.83a5.375,5.375,0,0,1,3.22-.87,8.871,8.871,0,0,1,2.12.26,5.7,5.7,0,0,1,1.74.7l-.82,1.52A5.513,5.513,0,0,0-4.8-9.06a3.537,3.537,0,0,0-1.86.4A1.207,1.207,0,0,0-7.3-7.6a1.011,1.011,0,0,0,.36.82,2.276,2.276,0,0,0,.89.44q.53.14,1.49.32a16.171,16.171,0,0,1,2.07.47,3.091,3.091,0,0,1,1.35.85A2.368,2.368,0,0,1-.58-3.02,2.649,2.649,0,0,1-1.81-.73,5.809,5.809,0,0,1-5.16.12Z" transform="translate(279.831 236.533)"/>
    <g id="Group_8076" data-name="Group 8076" transform="translate(-82.111 -5.859)">
      <path id="Path_3746" data-name="Path 3746" class="cls-9" d="M-229.15-18.2a9.236,9.236,0,0,1,4.6,3.175,8.834,8.834,0,0,1,1.7,5.525,8.1,8.1,0,0,1-3.5,7.025Q-229.85,0-236.55,0h-17.4V-35h16.4q6.2,0,9.55,2.425a7.791,7.791,0,0,1,3.35,6.675,8.766,8.766,0,0,1-1.2,4.6A8.216,8.216,0,0,1-229.15-18.2Zm-18.3-11.7v9.65h9.2a9.35,9.35,0,0,0,5.225-1.225A4.035,4.035,0,0,0-231.2-25.05a4.083,4.083,0,0,0-1.825-3.625A9.35,9.35,0,0,0-238.25-29.9Zm10.5,24.8q7.55,0,7.55-5.05t-7.55-5.05h-10.5V-5.1ZM-206.3-27q5.9,0,9.025,2.825t3.125,8.525V0h-5.9V-3.25a7.272,7.272,0,0,1-3.275,2.675A12.8,12.8,0,0,1-208.45.35,12.556,12.556,0,0,1-213.7-.675a8.112,8.112,0,0,1-3.475-2.85A7.232,7.232,0,0,1-218.4-7.65a7.07,7.07,0,0,1,2.675-5.775Q-213.05-15.6-207.3-15.6h6.9V-16a5.472,5.472,0,0,0-1.675-4.3,7.247,7.247,0,0,0-4.975-1.5,14.36,14.36,0,0,0-4.425.7,10.87,10.87,0,0,0-3.675,1.95l-2.45-4.55a15.171,15.171,0,0,1,5.05-2.45A22.47,22.47,0,0,1-206.3-27Zm-.85,22.8a8.07,8.07,0,0,0,4.175-1.075A5.849,5.849,0,0,0-200.4-8.35v-3.1h-6.45q-5.4,0-5.4,3.55a3.187,3.187,0,0,0,1.35,2.7A6.189,6.189,0,0,0-207.15-4.2Zm35.8-22.8a14.173,14.173,0,0,1,6.975,1.7,12.26,12.26,0,0,1,4.825,4.8,14.294,14.294,0,0,1,1.75,7.15,14.434,14.434,0,0,1-1.75,7.175,12.215,12.215,0,0,1-4.825,4.825A14.173,14.173,0,0,1-171.35.35a12.916,12.916,0,0,1-5.025-.95A9.67,9.67,0,0,1-180.2-3.45V0h-5.95V-37.1h6.25v13.65a10.5,10.5,0,0,1,3.775-2.65A12.369,12.369,0,0,1-171.35-27Zm-.7,22a7.554,7.554,0,0,0,5.675-2.3,8.334,8.334,0,0,0,2.225-6.05,8.334,8.334,0,0,0-2.225-6.05,7.554,7.554,0,0,0-5.675-2.3,8.038,8.038,0,0,0-4.05,1.025,7.408,7.408,0,0,0-2.85,2.925,8.949,8.949,0,0,0-1.05,4.4,8.949,8.949,0,0,0,1.05,4.4,7.408,7.408,0,0,0,2.85,2.925A8.038,8.038,0,0,0-172.05-5ZM-142-27q5.9,0,9.025,2.825t3.125,8.525V0h-5.9V-3.25a7.272,7.272,0,0,1-3.275,2.675A12.8,12.8,0,0,1-144.15.35,12.556,12.556,0,0,1-149.4-.675a8.112,8.112,0,0,1-3.475-2.85A7.232,7.232,0,0,1-154.1-7.65a7.07,7.07,0,0,1,2.675-5.775Q-148.75-15.6-143-15.6h6.9V-16a5.472,5.472,0,0,0-1.675-4.3,7.247,7.247,0,0,0-4.975-1.5,14.36,14.36,0,0,0-4.425.7,10.87,10.87,0,0,0-3.675,1.95l-2.45-4.55a15.171,15.171,0,0,1,5.05-2.45A22.47,22.47,0,0,1-142-27Zm-.85,22.8a8.07,8.07,0,0,0,4.175-1.075A5.849,5.849,0,0,0-136.1-8.35v-3.1h-6.45q-5.4,0-5.4,3.55a3.187,3.187,0,0,0,1.35,2.7A6.189,6.189,0,0,0-142.85-4.2ZM-110.4.5a26.7,26.7,0,0,1-7.825-1.15A16.331,16.331,0,0,1-124.2-3.7l2.25-5.05a17.724,17.724,0,0,0,5.275,2.775A19.181,19.181,0,0,0-110.4-4.9a10.844,10.844,0,0,0,5.825-1.25,3.787,3.787,0,0,0,1.925-3.3,3.2,3.2,0,0,0-1.075-2.475,7.547,7.547,0,0,0-2.725-1.525q-1.65-.55-4.5-1.25a52.456,52.456,0,0,1-6.475-1.9,10.656,10.656,0,0,1-4.25-2.975,8.014,8.014,0,0,1-1.775-5.475,9.339,9.339,0,0,1,1.575-5.275,10.657,10.657,0,0,1,4.75-3.775,19.244,19.244,0,0,1,7.775-1.4,25.112,25.112,0,0,1,6.3.8,17.414,17.414,0,0,1,5.35,2.3l-2.05,5.05a20.224,20.224,0,0,0-4.8-2.05,17.955,17.955,0,0,0-4.85-.7,10.132,10.132,0,0,0-5.725,1.3A4.01,4.01,0,0,0-117-25.35a3.119,3.119,0,0,0,1.075,2.45,7.767,7.767,0,0,0,2.725,1.5q1.65.55,4.5,1.25a47.353,47.353,0,0,1,6.4,1.875A10.96,10.96,0,0,1-98.025-15.3,7.841,7.841,0,0,1-96.25-9.9a9.221,9.221,0,0,1-1.575,5.25A10.714,10.714,0,0,1-102.6-.9,19.426,19.426,0,0,1-110.4.5Zm36.05-1.95A7.358,7.358,0,0,1-77.025-.1,12.047,12.047,0,0,1-80.35.35a9.435,9.435,0,0,1-6.8-2.3q-2.4-2.3-2.4-6.7V-21.5h-4.4v-5h4.4v-6.1h6.25v6.1h7.15v5H-83.3V-8.8a4.224,4.224,0,0,0,.95,2.975A3.565,3.565,0,0,0-79.6-4.8a5.491,5.491,0,0,0,3.5-1.1ZM-59-27q5.9,0,9.025,2.825t3.125,8.525V0h-5.9V-3.25A7.272,7.272,0,0,1-56.025-.575,12.8,12.8,0,0,1-61.15.35,12.556,12.556,0,0,1-66.4-.675a8.112,8.112,0,0,1-3.475-2.85A7.232,7.232,0,0,1-71.1-7.65a7.07,7.07,0,0,1,2.675-5.775Q-65.75-15.6-60-15.6h6.9V-16a5.472,5.472,0,0,0-1.675-4.3,7.247,7.247,0,0,0-4.975-1.5,14.36,14.36,0,0,0-4.425.7,10.87,10.87,0,0,0-3.675,1.95L-70.3-23.7a15.171,15.171,0,0,1,5.05-2.45A22.47,22.47,0,0,1-59-27Zm-.85,22.8a8.07,8.07,0,0,0,4.175-1.075A5.849,5.849,0,0,0-53.1-8.35v-3.1h-6.45q-5.4,0-5.4,3.55A3.187,3.187,0,0,0-63.6-5.2,6.189,6.189,0,0,0-59.85-4.2ZM-32.9-22.8q2.7-4.2,9.5-4.2v5.95a7.934,7.934,0,0,0-1.45-.15,7.549,7.549,0,0,0-5.7,2.125A8.475,8.475,0,0,0-32.6-12.95V0h-6.25V-26.7h5.95ZM-1.05-1.45A7.358,7.358,0,0,1-3.725-.1,12.047,12.047,0,0,1-7.05.35a9.435,9.435,0,0,1-6.8-2.3q-2.4-2.3-2.4-6.7V-21.5h-4.4v-5h4.4v-6.1H-10v6.1h7.15v5H-10V-8.8a4.224,4.224,0,0,0,.95,2.975A3.565,3.565,0,0,0-6.3-4.8,5.491,5.491,0,0,0-2.8-5.9Z" transform="translate(342.941 216.392)"/>
      <path id="Path_3747" data-name="Path 3747" class="cls-9" d="M-13.21-5.9h-2.32V-7h5.94v1.1h-2.32V0h-1.3ZM-2.18,0l-.01-4.64L-4.49-.8h-.58l-2.3-3.78V0H-8.61V-7h1.07l2.78,4.64L-2.03-7H-.96l.01,7Z" transform="translate(358.941 190.392)"/>
    </g>
  </g>
</svg>
