<svg xmlns="http://www.w3.org/2000/svg" viewBox="0 0 189.064 305.596">
  <defs>
    <style>
      .cls-1, .cls-2 {
        fill: #1f3291;
      }

      .cls-1, .cls-2, .cls-3, .cls-4, .cls-6 {
        fill-rule: evenodd;
      }

      .cls-2, .cls-3, .cls-4 {
        stroke: #1f3291;
        stroke-width: 1.401px;
      }

      .cls-3 {
        fill: #fab279;
      }

      .cls-4, .cls-5, .cls-6 {
        fill: #fd5e53;
      }

      .cls-7 {
        fill: #373435;
      }
    </style>
  </defs>
  <g id="Group_8003" data-name="Group 8003" transform="translate(-0.002 0)">
    <g id="Group_8000" data-name="Group 8000">
      <path id="Path_3150" data-name="Path 3150" class="cls-1" d="M173.808,270.21l-.983,5.409a7.708,7.708,0,0,1-6.146-.492l-5.04.369-3.688.123c.246,0,1.967-.369,3.319-.492l.983,1.352c7.007.246,34.051.738,39.829,2.336,7.13,1.967,5.04,11.555,4.794,15-.492,7.5.246,13.645-5.9,15.243-1.844,1.352-14.629-.123-17.333-.246-6.024-.369-11.8-.861-17.825-1.106-3.811-.246-4.917-.123-6.884-2.7-1.844-2.213-2.336-3.319-2.09-7.253.246-4.18,0-14.383,1.844-17.21-.738-1.352,1.721-1.721-.86-1.106a12.638,12.638,0,0,1-.123,2.213c-.369,1.475-.615,1.229-.983,1.967L155,307.95l14.26.983c-.123,1.844-4.18,8.236-5.163,11.064-3.811,10.2-.861,21.39-4.18,30.732-1.721,4.3-3.442,9.22-2.582,14.383l4.3-1.475c.615,4.671,1.352,7.5.738,12.416a7.073,7.073,0,0,0,5.04.369c.123-2.09-.246-3.811,1.352-4.917,1.475-.615.615,1.229,2.213,2.95,1.475.615.738-.738,1.229,1.106,1.352,1.475,1.106.983,3.565.983,1.352.123,3.2,0,4.548,0,3.319,0,6.638.246,9.711-.369-.369-3.565-1.352-5.409-3.934-6.884-4.18-2.459-3.565,0-5.532-5.409a19.716,19.716,0,0,1-1.229-3.811c0-2.95.983.123.246-3.565-1.352-8.236,1.721-38.6,8.482-46.221l18.562.983,2.336-32.822-3.565-1.352,2.7-8.728c8.113.861,18.316-1.352,26.553-2.213-1.967,5.778-18.194,29.995-21.267,39.46-.861,2.459-1.721,12.785,2.09,13.768.123,0,.738,0,.86.123l1.352,3.565.492,8.974,4.671-.246a14.187,14.187,0,0,1,.123-3.2c.492-2.581.369-1.106.861-1.844l.861-.369,2.09,3.811c1.229.738.615-.123,1.721,1.475,3.442.369,13.768.615,16.6-.492l-.246-2.95c-3.073-7.007-6.146-1.106-9.22-9.834-5.532-16.473,1.844-21.267,11.432-39.583,4.917-9.466,12.908-17.948-.369-23.6-4.671-2.09-8.728-3.2-13.645-4.917-7.99-2.827-7.622-1.475-8.482-11.064,8.851,1.721,2.827,2.213,8.728.123,3.934-1.475,4.057.983,8.113,1.967,3.2.738,2.827.738,5.04,2.213-.861-.983-.369-.615-1.106-1.6-2.213-2.336-5.532-.983-8.974-4.671.615-2.336.492-2.459,2.582-3.811,5.163-.246,9.343,1.229,11.555,4.917-4.917-1.844-3.934-.738-9.22-.983-1.106.369-.615-.492-.738.738,3.688,1.106,4.794-.615,7.867.492,1.106.369,3.565,2.95,4.425,3.565-1.352-.615-4.425-3.319-5.286-1.844,2.581.86,1.721.123,2.95,2.213l2.7,1.967.123.246.246-3.442,2.336.369c-.615-3.2-1.721-2.582-5.9-5.9-3.442-2.7-3.2-2.213-8.482-3.2-4.671-.861-12.662-5.04-16.841-7.007.123-4.425,1.967-9.343,2.581-14.137,1.721-12.539-4.18-9.957-6.884-26.43-1.229-7.253-2.459-7.5-5.409-12.17,2.581-10.695,10.326,9.957,16.1-7.99,1.106-3.688-.983-1.352,1.475-3.565,1.6-1.352,1.229.369,2.582-2.581-1.844-4.057-3.442-1.229-2.95-9.711.123-3.934-.492-8.236.246-11.8,3.442-16.227-31.347-17.21-41.058-4.18-2.7,3.442-2.09,4.794-3.319,9.22-5.163,1.6-8.605-6.269-16.6-2.827-3.934,1.721-8.974,7.376-7.007,13.891,1.352,4.671,5.9,9.22,8.236,13.153,4.917,8.605,2.213,8.851-.369,16.35,12.539-1.6,16.6-11.924,14.874-22.619-.615-4.057-3.442-7.622,1.475-7.745,3.2,6.023,5.532,13.4,15.858,12.785.492,4.18.983,3.319-1.106,6.146-1.352,1.721-1.844,3.319-3.073,4.671-3.565,3.319-7.5,1.106-9.588,6.638-1.6,4.18-2.213,7.253-4.057,11.187-1.844,4.057-3.442,7.376-5.286,11.064-6.638,13.768-7.007,11.924-6.515,23.971.492,10.449-.246,22.25.615,32.085,3.073,1.352.86-.738,2.827,1.967l-2.459,6.515Z" transform="translate(-155 -124.054)"/>
      <path id="Path_3151" data-name="Path 3151" class="cls-1" d="M449.826,158.453c-1.475,2.7,1.475,13.891-4.425,13.891-7.622.123-15.366-14.014-11.555-26.676,4.425-14.751,36.387-15.858,40.936-5.778,3.073,6.761-3.073,8.482-8.113,10.326-7.376,2.827-6.884,3.565-10.449,9.343C453.391,158.7,453.022,156.363,449.826,158.453Z" transform="translate(-398.687 -132.153)"/>
      <path id="Path_3152" data-name="Path 3152" class="cls-1" d="M577.18,275.373c-.983.983-1.844-1.475-.492,2.95.123.615.738,1.352,1.106,2.459-.86,1.721-.737,1.106-1.352,1.475-1.721,2.336-1.6,3.811-1.721,7.007-2.459-1.475-2.827-2.459-4.671-4.3s-3.565-1.844-2.7-6.024c-1.475-2.213-.123-5.409.86-8.113,2.827,2.582,2.09,3.934,7.13,2.827L573,273.038c-4.671-1.229-6.147-6.515-4.671-9.1,2.581-.369,3.2,1.475,5.9,2.336,1.475-2.582.738-3.073,2.7-5.409a13.517,13.517,0,0,1,4.426-3.319c1.721-.861,9.465-4.3,10.818-4.548l.123,5.9c-3.073,1.844-5.04.246-6.884,4.18l1.106-.615c2.7-1.6,2.336-1.844,5.778-1.721a27.7,27.7,0,0,0,.123,7.13c.615,2.95,1.6,2.213,2.336,4.548-4.3,2.459-2.09.861-4.057,5.532-.983,2.213-1.844,4.425-3.073,5.778C581.36,285.207,578.164,280.413,577.18,275.373Z" transform="translate(-516.084 -237.149)"/>
      <path id="Path_3153" data-name="Path 3153" class="cls-1" d="M411.191,286.09c0,.123.123,2.213.123,2.459.123,3.565.492,1.967-1.106,3.073l-.983-4.425c-.123-2.827-.861-1.844.983-3.2C411.191,285.475,410.331,282.525,411.191,286.09Z" transform="translate(-377.755 -264.338)"/>
      <path id="Path_3154" data-name="Path 3154" class="cls-1" d="M247.136,294.51c1.352-5.286,3.2-6.638.369-12.662-4.18-8.728-12.662-13.891-8.974-22.127,4.548-9.834,18.316-7.376,19.3,0,.492,4.548-.369,4.794-.492,7.867C257.216,269.556,264.715,290.085,247.136,294.51Z" transform="translate(-227.468 -237.355)"/>
      <path id="Path_3155" data-name="Path 3155" class="cls-1" d="M572.605,513.2c-1.6-.738-1.229-.615-2.582-2.213-4.3-5.778-5.163-4.3-6.023-7.99C567.073,504.721,572.113,508.778,572.605,513.2Z" transform="translate(-513.722 -456.417)"/>
      <path id="Path_3156" data-name="Path 3156" class="cls-1" d="M561.086,537.054c2.828,6.392,9.1,15.366,8.482,23.357-1.721-3.565-2.7-8.6-4.548-12.416-4.057-8.482-4.917-5.532-6.515-9.343-5.532-14.137-11.924-15.858-11.064-20.652,2.336.738,1.475.246,3.073,1.967A60.1,60.1,0,0,1,561.086,537.054Z" transform="translate(-499.13 -469.573)"/>
      <path id="Path_3157" data-name="Path 3157" class="cls-1" d="M650.9,560.087c1.352,3.934,6.761,12.785,4.917,15.981-1.106-2.7-1.967-5.532-3.2-8.113-5.04-10.572-5.409-10.941-7.622-24.955C648.934,547.3,648.811,553.941,650.9,560.087Z" transform="translate(-584.765 -491.5)"/>
      <path id="Path_3158" data-name="Path 3158" class="cls-1" d="M635.392,598.655c-.615-2.213-.123-.369-1.475-2.459-1.844-2.827-.123-3.2-.123-3.2A7.2,7.2,0,0,1,635.392,598.655Z" transform="translate(-574.296 -535.353)"/>
      <path id="Path_3159" data-name="Path 3159" class="cls-1" d="M331.829,629.871l-4.794,1.844c.369-11.555.123-23.357-.492-34.912-.369-7.253.861-7.745,3.565-13.522.983-2.213,4.794-10.326,6.146-11.678.369-2.7,4.425-10.326,5.778-14.506,1.229-4.057.983-3.934,4.548-5.532,2.7-1.106,4.18-2.581,6.269-3.565a54.322,54.322,0,0,1,10.2,17.456c1.721,4.794,3.811,1.352,8.236,13.154,3.934,10.2,3.319,9.1,2.336,19.792-1.106,11.064,1.967,19.054.983,21.758-13.276.369-17.7,1.229-30.978-1.106l-2.582-1.6c1.721-3.442,7.622-10.449,9.711-14.874a14.47,14.47,0,0,1,1.352-2.336c2.09-2.827.738.615,1.6-2.09a60.339,60.339,0,0,0-4.3-15.981c-1.967-4.794-1.106-5.286,3.934-14.383.123-3.319,0-7.99-3.2-10.08,2.827,10.08,2.582,9.957-2.459,18.071-6.392,10.449-11.924,15.12-12.047,22.373-.123,10.818-.615,19.3,2.336,29.995Z" transform="translate(-305.399 -495.885)"/>
      <path id="Path_3160" data-name="Path 3160" class="cls-1" d="M409.641,848.444c-1.844-3.319-1.352-19.669-.861-24.832.246-2.7,7.867-13.768,9.834-15.612,2.09,2.581,3.2,7.5,4.425,11.31,2.213,7.5-2.336,12.785-7.744,20.16-1.229,1.721-2.213,2.95-3.2,4.548C411.239,845.371,410.748,846.723,409.641,848.444Z" transform="translate(-377.188 -723.923)"/>
      <path id="Path_3161" data-name="Path 3161" class="cls-1" d="M717.369,961c2.827.86,5.778,2.827,9.589,3.811l-3.565,8.851L717,971.326Z" transform="translate(-647.914 -858.115)"/>
      <path id="Path_3162" data-name="Path 3162" class="cls-1" d="M790.605,1008.283c-.86-1.229-.86,1.475-.614-1.967,0-.246.737-1.721.737-1.967,1.352-2.7.369-2.09,2.95-1.721C793.556,1004.718,792.449,1007.3,790.605,1008.283Z" transform="translate(-711.808 -894.335)"/>
      <path id="Path_3163" data-name="Path 3163" class="cls-1" d="M450.87,1194.578l-1.352,1.106c-2.458-4.179-1.352-10.449.492-15,1.229-2.95,4.671-9.834,6.761-11.432.615-2.7,12.047-23.111,14.014-24.463-.615-2.828,1.352-2.213-3.319-1.967-5.163.369-18.931,3.442-24.094,2.213-.246-2.582,2.213-8.605,4.18-10.695.369-3.073,1.352-2.213,1.844-5.163-3.442,1.475-5.532,8.851-6.761,12.17-1.475,4.056-3.2,11.187-4.794,14.137l-9.589-.615c-.246-2.582.369-3.2-.246-5.409l-1.6-3.688c-1.6-5.04-2.827-2.95-4.057-6.269-1.106-2.828,1.352-2.828,0-7.744-.983-3.565.123-4.549,1.721-6.761,12.662,4.18,20.037,3.442,33.56,2.459,5.532-.369,23.725,6.515,27.044,9.588,4.548,4.179,1.352,7.745-1.106,12.416-5.655,10.818-16.718,28.151-16.964,37.74Z" transform="translate(-389.16 -1001.955)"/>
      <path id="Path_3164" data-name="Path 3164" class="cls-1" d="M343,1217.565c1.106-1.6-.369-.738,2.213-1.967l6.884-1.6C350.745,1215.475,345.459,1217.073,343,1217.565Z" transform="translate(-319.889 -1080.014)"/>
      <path id="Path_3165" data-name="Path 3165" class="cls-1" d="M344.438,1244.506c-2.7,1.475-7.007,1.106-7.99-2.213a6.277,6.277,0,0,1,1.721-6.884c.246-4.425,3.319-3.442,6.638-5.409,3.073,4.548,5.286,6.761,5.409,10.572-1.967-.738-.861-.738-2.336-.984C346.651,1242.662,347.757,1244.383,344.438,1244.506Z" transform="translate(-313.829 -1094.047)"/>
      <path id="Path_3166" data-name="Path 3166" class="cls-1" d="M440.95,1328l-.738,4.426c-1.844-.246-1.967-2.459-2.213-4.426Z" transform="translate(-403.211 -1180)"/>
      <path id="Path_3167" data-name="Path 3167" class="cls-1" d="M313.835,1326.3c-2.95-.492-2.582-1.6-1.352-4.3C313.958,1322.615,314.081,1324.582,313.835,1326.3Z" transform="translate(-292.322 -1174.738)"/>
      <path id="Path_3168" data-name="Path 3168" class="cls-1" d="M340.459,1350.967c-2.95-.246-1.352.492-2.459-1.967C341.073,1350.107,339.352,1348.754,340.459,1350.967Z" transform="translate(-315.504 -1198.419)"/>
      <path id="Path_3169" data-name="Path 3169" class="cls-1" d="M561.951,1386.2c-2.581-1.6-2.09-1.107-2.95-3.2C562.934,1383.369,561.951,1382.263,561.951,1386.2Z" transform="translate(-509.337 -1228.239)"/>
      <path id="Path_3170" data-name="Path 3170" class="cls-1" d="M165.875,1591.475a3.158,3.158,0,0,1,.615,1.475c-2.7,0-3.319-.369-2.213-2.95C165.384,1590.738,164.892,1590.123,165.875,1591.475Z" transform="translate(-162.679 -1409.793)"/>
      <path id="Path_3171" data-name="Path 3171" class="cls-1" d="M543,1614.073c1.352-1.967,1.6-2.335,3.319-3.073l-.123,3.073Z" transform="translate(-495.303 -1428.211)"/>
      <path id="Path_3172" data-name="Path 3172" class="cls-1" d="M209.038,1635.795c-.86,6.024-3.934,12.908-4.794,20.406-.738,5.286-1.721,18.685-.492,23.357-2.582.123-7.622.983-10.2,1.352-4.057.738-5.409,2.7-8.359,3.319l-1.352,1.107c-1.229-4.671,1.6-9.588,2.827-14.014,1.229-4.671,1.229-10.326,1.475-15.243.369-5.9.246-8.6,2.336-14.26.86-2.582,4.3-9.22,5.9-10.818l14.752.861C210.513,1633.828,210.391,1634.811,209.038,1635.795Z" transform="translate(-180.027 -1445.753)"/>
      <path id="Path_3173" data-name="Path 3173" class="cls-1" d="M717.711,1644.6c.983,4.057,2.95,8.114,3.565,10.941-6.146,1.106-9.466-1.352-10.326-5.286L708,1648.04c1.475-1.967,6.515-3.811,9.1-5.04Z" transform="translate(-640.02 -1456.278)"/>
      <path id="Path_3174" data-name="Path 3174" class="cls-1" d="M723.18,1721.811c5.9,3.565,11.064-2.336,15.12,4.794-.984.738-.246.369-1.475.738l-5.04.86c-7.868.861-12.047-2.458-12.785-10.2,2.582,1.6,0-.123,2.336,2.336A6.025,6.025,0,0,0,723.18,1721.811Z" transform="translate(-649.668 -1522.058)"/>
      <path id="Path_3175" data-name="Path 3175" class="cls-1" d="M273.22,2037l3.073,8.974c-8.113,1.475-12.047-5.778-12.293-7.622Z" transform="translate(-250.601 -1801.844)"/>
      <path id="Path_3176" data-name="Path 3176" class="cls-1" d="M262.258,2078.17c-21.513,0-8.236-.123-17.948-5.778-2.459-1.475-7.253-2.458-3.073-6.392,2.213.983.615.245,2.213,1.966.738.861,1.475,1.721,2.213,2.459,1.844,1.967,3.073,2.458,6.392,2.7C252.055,2073.13,263.487,2071.532,262.258,2078.17Z" transform="translate(-229.19 -1827.279)"/>
      <path id="Path_3177" data-name="Path 3177" class="cls-2" d="M205.149,1366.459c-2.582,8.974,7.99,18.071,13.153,21.267a58.944,58.944,0,0,0,12.293,5.654c5.532,1.967,8.359,1.967,14.014,3.2,6.146-1.6,5.409-7.745,5.9-15.243.246-3.442,2.336-13.03-4.794-15-5.778-1.6-32.822-2.09-39.829-2.336Z" transform="translate(-198.633 -1211.575)"/>
      <path id="Path_3178" data-name="Path 3178" class="cls-2" d="M449.826,158.453c3.2-2.09,3.565.246,6.392,1.106,3.565-5.778,3.073-6.515,10.449-9.343,5.04-1.844,11.187-3.565,8.113-10.326-4.548-10.08-36.51-8.974-40.936,5.778-3.811,12.662,3.934,26.8,11.555,26.676C451.3,172.344,448.351,161.157,449.826,158.453Z" transform="translate(-398.687 -132.153)"/>
      <path id="Path_3179" data-name="Path 3179" class="cls-2" d="M189.106,1710.028c2.95-.615,4.3-2.581,8.359-3.319,2.582-.369,7.622-1.229,10.2-1.352-1.229-4.672-.246-18.071.492-23.357.86-7.5,3.934-14.383,4.794-20.406,1.229-2.336.369-.369-.369-.983-14.629,2.7-14.014-2.7-17.948,25.815-.492,3.073-.86,10.572-1.844,13.031-1.475,3.319-2.582,1.229-4.794,10.2C188.983,1710.766,187.262,1710.028,189.106,1710.028Z" transform="translate(-183.943 -1471.552)"/>
      <path id="Path_3180" data-name="Path 3180" class="cls-2" d="M247.136,294.51c17.579-4.425,10.08-24.955,10.2-26.922.123-3.073.983-3.319.492-7.867-.983-7.376-14.751-9.834-19.3,0-3.688,8.236,4.794,13.4,8.974,22.127C250.332,287.872,248.488,289.224,247.136,294.51Z" transform="translate(-227.468 -237.355)"/>
      <path id="Path_3181" data-name="Path 3181" class="cls-3" d="M581.243,270.456c-2.95-.492-.861-.123-2.213-2.213-.861-1.721-.861-.615-1.967-2.459l3.442,1.229Zm1.844,3.2c.492.738.123.246.738.861.123.123.492.983.738.615,0-.123.246.123.369.246.983,5.04,4.18,9.834,10.449,8.359,1.229-1.352,2.09-3.565,3.073-5.778,1.967-4.671-.246-3.073,4.057-5.532,1.475-1.352-1.475-2.213-1.721-3.073-1.352-4.548-.738-11.555-.861-16.35-1.352.246-9.1,3.688-10.818,4.548a13.518,13.518,0,0,0-4.426,3.319c-1.967,2.336-1.229,2.827-2.7,5.409-2.7-.861-3.319-2.7-5.9-2.336-1.475,2.582,0,7.868,4.671,9.1Z" transform="translate(-523.835 -237.149)"/>
      <path id="Path_3182" data-name="Path 3182" class="cls-2" d="M171.424,1385.6c-1.844,2.828-1.6,13.031-1.844,17.21-.246,3.934.246,5.04,2.09,7.253,1.967,2.581,3.073,2.459,6.884,2.7,6.024.246,11.8.738,17.825,1.106,2.7.123,15.489,1.6,17.333.246-5.655-1.229-8.482-1.229-14.014-3.2a58.943,58.943,0,0,1-12.293-5.654c-5.163-3.2-15.735-12.293-13.153-21.267Z" transform="translate(-167.736 -1229.116)"/>
      <path id="Path_3183" data-name="Path 3183" class="cls-2" d="M185.19,1684.229c-1.844,0-.123.738-1.106-.369,2.213-8.974,3.319-6.884,4.794-10.2.983-2.459,1.352-9.957,1.844-13.031,3.934-28.52,3.319-23.111,17.948-25.815.738.615,1.6-1.352.369.983,1.352-.983,1.475-1.967,2.09-3.934L196.377,1631c-1.6,1.6-5.04,8.236-5.9,10.818-2.09,5.655-1.967,8.359-2.336,14.26-.246,4.917-.246,10.572-1.475,15.243-1.229,4.426-4.057,9.343-2.827,14.014Z" transform="translate(-180.027 -1445.753)"/>
      <path id="Path_3184" data-name="Path 3184" class="cls-2" d="M623.292,1211.449l2.213-2.213c.983-.984.983-1.352,1.844-2.213-4.18-.492-11.678.861-16.472.984-8.359.246-9.466.246-10.818-7.007-1.967,2.09-4.425,8.113-4.18,10.695,5.163,1.229,18.931-1.844,24.094-2.213C624.644,1209.236,622.677,1208.622,623.292,1211.449Z" transform="translate(-541.666 -1068.612)"/>
      <path id="Path_3185" data-name="Path 3185" class="cls-4" d="M569.568,560.411c.615-7.99-5.655-16.964-8.482-23.357a60.1,60.1,0,0,0-10.572-17.087c-1.6-1.721-.738-1.229-3.073-1.967-.86,4.794,5.532,6.515,11.064,20.652,1.6,3.811,2.459.86,6.515,9.343C566.864,551.806,567.847,556.846,569.568,560.411Z" transform="translate(-499.13 -469.573)"/>
      <path id="Path_3186" data-name="Path 3186" class="cls-2" d="M241.237,2066c-4.18,3.934.615,4.917,3.073,6.392,9.711,5.654-3.565,5.778,17.948,5.778,1.229-6.638-10.2-5.04-10.2-5.04-3.319-.246-4.548-.738-6.392-2.7-.738-.738-1.475-1.6-2.213-2.459C241.852,2066.246,243.45,2066.984,241.237,2066Z" transform="translate(-229.19 -1827.279)"/>
      <path id="Path_3187" data-name="Path 3187" class="cls-2" d="M738.3,1726.605c-4.057-7.13-9.22-1.229-15.12-4.794a6.025,6.025,0,0,1-1.844-1.475c-2.336-2.459.246-.738-2.336-2.336.738,7.745,4.917,11.064,12.785,10.2l5.04-.86C738.054,1726.974,737.317,1727.343,738.3,1726.605Z" transform="translate(-649.668 -1522.058)"/>
      <path id="Path_3188" data-name="Path 3188" class="cls-2" d="M717,971.326l6.392,2.336,3.565-8.851c-3.811-.984-6.761-2.951-9.589-3.811Z" transform="translate(-647.914 -858.115)"/>
      <path id="Path_3189" data-name="Path 3189" class="cls-2" d="M732,1661.655c.86,3.934,4.18,6.392,10.326,5.286-.615-2.827-2.581-6.884-3.565-10.94-1.967.492-.86-.123-2.459,1.106-.492.246-1.475,1.107-1.844,1.352C732.983,1659.688,732.123,1659.934,732,1661.655Z" transform="translate(-661.07 -1467.679)"/>
      <path id="Path_3190" data-name="Path 3190" class="cls-2" d="M264,2038.352c.246,1.844,4.18,9.1,12.293,7.622L273.22,2037Z" transform="translate(-250.601 -1801.844)"/>
      <path id="Path_3191" data-name="Path 3191" class="cls-2" d="M570.372,449.473c-.861,4.18.86,4.18,2.7,6.024s2.213,2.827,4.671,4.3c.123-3.2,0-4.671,1.721-7.007C578.363,448.121,574.306,445.293,570.372,449.473Z" transform="translate(-519.111 -407.684)"/>
      <path id="Path_3192" data-name="Path 3192" class="cls-4" d="M655.818,576.068c1.844-3.2-3.565-12.047-4.917-15.981-2.09-6.146-1.967-12.785-5.9-17.087,2.213,14.014,2.581,14.383,7.622,24.955C653.851,570.536,654.712,573.364,655.818,576.068Z" transform="translate(-584.765 -491.5)"/>
      <path id="Path_3193" data-name="Path 3193" class="cls-2" d="M567.346,406.113c3.934-4.18,7.99-1.352,9.1,3.319.615-.369.492.246,1.352-1.475-.369-1.106-.983-1.844-1.106-2.458-1.352-4.426-.492-1.967.492-2.95-.123-.123-.369-.369-.369-.246-.246.369-.615-.492-.738-.615-.615-.615-.246-.123-.738-.86-5.04,1.106-4.3-.246-7.13-2.827C567.223,400.7,565.871,403.9,567.346,406.113Z" transform="translate(-516.084 -364.324)"/>
      <path id="Path_3194" data-name="Path 3194" class="cls-2" d="M637.213,1510.323c-2.95-6.146,4.057-20.652,5.9-25.323-2.09,1.6-5.532,8.482-6.761,11.432-1.844,4.548-2.95,10.818-.492,15Z" transform="translate(-575.502 -1317.7)"/>
      <path id="Path_3195" data-name="Path 3195" class="cls-2" d="M825.974,1022.482c1.844-.861.492.983,2.213-1.6.861-1.475,3.934,1.229,5.286,1.844-.86-.615-3.319-3.2-4.425-3.565-3.073-1.106-4.18.615-7.867-.492.123-1.229-.369-.369.738-.737-1.6-1.721-2.7-.86-2.336-3.934-2.09,1.352-1.967,1.475-2.581,3.811C820.442,1021.5,823.761,1020.146,825.974,1022.482Z" transform="translate(-735.621 -904.6)"/>
      <path id="Path_3196" data-name="Path 3196" class="cls-2" d="M839.828,1017.747c5.286.246,4.3-.86,9.22.984-2.213-3.688-6.392-5.163-11.555-4.917C837.123,1016.887,838.23,1016.026,839.828,1017.747Z" transform="translate(-753.531 -904.413)"/>
      <path id="Path_3197" data-name="Path 3197" class="cls-2" d="M344.438,1283.1c-6.269-.246-6.515-3.565-6.269-9.1a6.277,6.277,0,0,0-1.721,6.884C337.431,1284.2,341.733,1284.573,344.438,1283.1Z" transform="translate(-313.829 -1132.639)"/>
      <path id="Path_3198" data-name="Path 3198" class="cls-2" d="M710.951,1650.253c.123-1.721.983-1.967,2.458-3.2.369-.246,1.352-1.106,1.844-1.352,1.6-1.229.492-.615,2.458-1.107l-.614-1.6c-2.582,1.229-7.622,3.073-9.1,5.04Z" transform="translate(-640.02 -1456.278)"/>
      <path id="Path_3199" data-name="Path 3199" class="cls-2" d="M170.844,1353.59c-.492-3.565-.615-2.581,2.582-2.213ZM169,1358.507c.369-.738.615-.492.983-1.967a12.636,12.636,0,0,0,.123-2.213c2.582-.615.123-.246.861,1.106l2.827-1.6.738-2.459-.983-1.352c-1.352.123-3.073.492-3.319.492l3.688-.123c-.861-.615,1.229-.492-1.844-.737a4.252,4.252,0,0,0-2.213.246Z" transform="translate(-167.279 -1198.952)"/>
      <path id="Path_3200" data-name="Path 3200" class="cls-4" d="M572.605,513.2c-.492-4.425-5.532-8.482-8.6-10.2.86,3.688,1.721,2.213,6.023,7.99C571.376,512.589,571.007,512.466,572.605,513.2Z" transform="translate(-513.722 -456.417)"/>
      <path id="Path_3201" data-name="Path 3201" class="cls-2" d="M890,1071.6c.738.984.246.615,1.106,1.6.123,1.107-.123.86.984.983l1.6-.123c-.246-2.459.123-2.336-1.721-2.7l2.581.738.615,2.582c-1.229.86,1.721,2.213-1.844.246.615,1.229-.983.492,1.229,1.106,1.229-.737,1.844-.492,3.319-1.844l-2.7-1.967c-1.229-2.09-.369-1.352-2.95-2.213C890.492,1072.582,891.844,1070.738,890,1071.6Z" transform="translate(-799.647 -953.716)"/>
      <path id="Path_3202" data-name="Path 3202" class="cls-2" d="M486,1177.449c2.336-1.23,2.582-2.336,3.442-4.794.738-1.967,1.475-4.057.615-5.655Z" transform="translate(-445.31 -1038.792)"/>
      <path id="Path_3203" data-name="Path 3203" class="cls-2" d="M790.605,1008.283c1.844-.983,2.95-3.565,3.073-5.655-2.582-.369-1.6-.983-2.95,1.721,0,.246-.737,1.721-.737,1.967C789.745,1009.758,789.745,1007.054,790.605,1008.283Z" transform="translate(-711.808 -894.335)"/>
      <path id="Path_3204" data-name="Path 3204" class="cls-2" d="M410.208,291.622c1.6-1.106,1.229.492,1.106-3.073,0-.246-.123-2.336-.123-2.459-.861-3.565,0-.615-.983-2.09-1.844,1.352-1.106.369-.983,3.2Z" transform="translate(-377.755 -264.338)"/>
      <path id="Path_3205" data-name="Path 3205" class="cls-2" d="M713.565,1773.811l-2.09-3.811-.861.369-.615,4.548a12.63,12.63,0,0,0,2.213-.123C714.18,1774.18,712.213,1775.163,713.565,1773.811Z" transform="translate(-641.774 -1567.666)"/>
      <path id="Path_3206" data-name="Path 3206" class="cls-2" d="M589.95,984.692c-1.721-.246-2.95-.86-2.95.738,3.811.615,4.3,1.229,8.482-.123C593.761,983.832,592.778,985.061,589.95,984.692Z" transform="translate(-533.895 -878.611)"/>
      <path id="Path_3207" data-name="Path 3207" class="cls-2" d="M544,753.352c2.335,1.967,3.073,3.688,5.163,4.671-.738-2.581-1.352-1.721-2.09-4.425L544.86,752C543.385,752.861,544.492,751.754,544,753.352Z" transform="translate(-496.181 -674.807)"/>
      <path id="Path_3208" data-name="Path 3208" class="cls-2" d="M440.213,1332.426l.738-4.426H438C438.246,1329.967,438.369,1332.18,440.213,1332.426Z" transform="translate(-403.211 -1180)"/>
      <path id="Path_3209" data-name="Path 3209" class="cls-2" d="M264.827,2139.089c-1.6-1.721-.738-3.565-2.213-2.95a14.843,14.843,0,0,0-.615,2.212c0,1.844,0,1.106.615,2.09C267.04,2140.441,263.352,2140.81,264.827,2139.089Z" transform="translate(-248.847 -1888.689)"/>
      <path id="Path_3210" data-name="Path 3210" class="cls-2" d="M256,2141.917a10.547,10.547,0,0,0,2.7.246c3.073-.492,1.106-.123,2.09-1.106-.492-1.844.246-.492-1.229-1.106-1.475,1.72,2.213,1.352-2.213,1.352-.615-.983-.615-.245-.615-2.09a14.846,14.846,0,0,1,.615-2.213C255.754,2138.106,256.123,2139.828,256,2141.917Z" transform="translate(-243.584 -1889.551)"/>
      <path id="Path_3211" data-name="Path 3211" class="cls-2" d="M592.18,361.671l-.737-3.442L588,357c1.106,1.844,1.106.738,1.967,2.459C591.319,361.548,589.229,361.18,592.18,361.671Z" transform="translate(-534.772 -328.364)"/>
      <path id="Path_3212" data-name="Path 3212" class="cls-2" d="M313.835,1326.3c.246-1.721.123-3.688-1.352-4.3C311.253,1324.7,310.885,1325.811,313.835,1326.3Z" transform="translate(-292.322 -1174.738)"/>
      <path id="Path_3213" data-name="Path 3213" class="cls-2" d="M250,1317.918a7.709,7.709,0,0,0,6.147.492l.983-5.409c-1.475.737-1.106,3.073-1.229,5.163Z" transform="translate(-238.322 -1166.844)"/>
      <path id="Path_3214" data-name="Path 3214" class="cls-2" d="M706.781,1778.041l5.655-.123c-1.106-1.6-.492-.737-1.721-1.475-1.352,1.353.615.369-1.352.984a12.656,12.656,0,0,1-2.213.123l.615-4.548c-.492.737-.369-.738-.861,1.844A14.181,14.181,0,0,0,706.781,1778.041Z" transform="translate(-638.924 -1570.297)"/>
      <path id="Path_3215" data-name="Path 3215" class="cls-2" d="M561.951,1386.2c0-3.934.983-2.828-2.95-3.2C559.861,1385.09,559.369,1384.6,561.951,1386.2Z" transform="translate(-509.337 -1228.239)"/>
      <path id="Path_3216" data-name="Path 3216" class="cls-2" d="M543,1614.073h3.2l.123-3.073C544.6,1611.738,544.352,1612.106,543,1614.073Z" transform="translate(-495.303 -1428.211)"/>
      <path id="Path_3217" data-name="Path 3217" class="cls-4" d="M635.392,598.655a7.2,7.2,0,0,0-1.6-5.655s-1.721.369.123,3.2C635.269,598.286,634.777,596.442,635.392,598.655Z" transform="translate(-574.296 -535.353)"/>
      <path id="Path_3218" data-name="Path 3218" class="cls-2" d="M955,1081.442l1.721-.369c.123-3.2-.369-.984.86-2.7l-2.336-.369Z" transform="translate(-856.656 -960.732)"/>
      <path id="Path_3219" data-name="Path 3219" class="cls-2" d="M906.123,1083.827c1.106,1.23.369.492,1.229.737,3.565,1.967.615.615,1.844-.245l-.615-2.582L906,1081c1.844.369,1.475.246,1.721,2.7Z" transform="translate(-813.68 -963.364)"/>
      <path id="Path_3220" data-name="Path 3220" class="cls-2" d="M166.49,1592.951a3.158,3.158,0,0,0-.615-1.475c-.983-1.352-.492-.737-1.6-1.475C163.171,1592.582,163.786,1592.951,166.49,1592.951Z" transform="translate(-162.679 -1409.793)"/>
      <path id="Path_3221" data-name="Path 3221" class="cls-2" d="M182.121,1363.3l2.582-2.213C181.507,1360.722,181.63,1359.739,182.121,1363.3Z" transform="translate(-178.556 -1208.666)"/>
      <path id="Path_3222" data-name="Path 3222" class="cls-2" d="M340.459,1350.967c-1.106-2.213.615-.86-2.459-1.967C339.106,1351.459,337.508,1350.721,340.459,1350.967Z" transform="translate(-315.504 -1198.419)"/>
    </g>
    <rect id="Rectangle_4176" data-name="Rectangle 4176" class="cls-5" width="42.779" height="48.311" rx="9" transform="translate(0.246 257.284)"/>
    <path id="Path_3223" data-name="Path 3223" class="cls-6" d="M582.035,1841H554.622a7.824,7.824,0,0,0-7.622,7.99V1927.3a7.934,7.934,0,0,0,7.622,8.113h27.413a7.954,7.954,0,0,0,7.745-8.113v-78.306A7.846,7.846,0,0,0,582.035,1841Z" transform="translate(-498.812 -1629.938)"/>
    <path id="Path_3224" data-name="Path 3224" class="cls-6" d="M933.745,1524h27.413c4.18,0,7.622,5.163,7.622,11.31v110.759c0,6.146-3.442,11.309-7.622,11.309H933.745c-4.3,0-7.745-5.163-7.745-11.309V1535.31C926,1529.163,929.442,1524,933.745,1524Z" transform="translate(-831.221 -1351.906)"/>
    <path id="Path_3225" data-name="Path 3225" class="cls-6" d="M1352.745,1165h27.29c4.3,0,7.745,6.761,7.745,15V1327.39c0,8.236-3.442,15.12-7.745,15.12h-27.29c-4.3,0-7.745-6.884-7.745-15.12V1180C1345,1171.761,1348.442,1165,1352.745,1165Z" transform="translate(-1198.714 -1037.038)"/>
    <path id="Path_3228" data-name="Path 3228" class="cls-7" d="M1398.738,2301.583v-2.213H1398V2299h1.967v.368h-.86v2.213Zm1.6,0V2299h.492l.615,1.843c0,.123.123.246.123.369,0-.123.123-.246.123-.369l.615-1.843h.491v2.581h-.368v-2.091l-.738,2.091h-.246l-.738-2.213v2.213Z" transform="translate(-1245.199 -2031.637)"/>
  </g>
</svg>
