<svg xmlns="http://www.w3.org/2000/svg" viewBox="0 0 237.707 339.925">
  <defs>
    <style>
      .cls-1 {
        fill: #4b4b4d;
      }

      .cls-1, .cls-10, .cls-11, .cls-2, .cls-3, .cls-4, .cls-5, .cls-6, .cls-7, .cls-8, .cls-9 {
        fill-rule: evenodd;
      }

      .cls-2 {
        fill: #889fac;
      }

      .cls-3 {
        fill: #a9abae;
      }

      .cls-4 {
        fill: #fee0c5;
      }

      .cls-5 {
        fill: #f9ed4c;
      }

      .cls-6 {
        fill: #fdfbf2;
      }

      .cls-7 {
        fill: #a45050;
      }

      .cls-8 {
        fill: #443a3d;
      }

      .cls-9 {
        fill: #4c2715;
      }

      .cls-10 {
        fill: #373435;
      }

      .cls-11 {
        fill: #585555;
      }
    </style>
  </defs>
  <g id="Group_7992" data-name="Group 7992" transform="translate(3188 4220.714)">
    <path id="Path_3011" data-name="Path 3011" class="cls-1" d="M1154.392,4937.432a1.83,1.83,0,1,1,3.629-.472A1.83,1.83,0,1,1,1154.392,4937.432Zm6.206-1.924a1.818,1.818,0,0,1,3.52-.907C1164.735,4937.4,1161,4937.541,1160.6,4935.508Zm6.714-4.463c2.359-1.162,3.447,2.25,1.633,3.193a1.853,1.853,0,0,1-2.54-.8A1.589,1.589,0,0,1,1167.311,4931.045Zm-41.588-37.851c-.073,2.178,4.5,14.371,4.754,17.129-1.234,1.488-6.568,5.3-8.383,7.148l1.887,12.63c-2.939,1.6-18.871,14.116-20.83,14.915.617-2.286,3.992-9.217,5.3-12.411,1.379-3.339,1.234-2.068,1.125-4.137.109-1.778-2.032-10.705-2.54-13.1-.762-3.52-1.343-3.338.327-6.169a48.211,48.211,0,0,0,2.9-4.79,27.535,27.535,0,0,0-3.194-4.1l-12.52,1.669c-.508.218-1.161,2.287-1.488,3.411-.435,1.306,0,1.343,1.343,2.9,3.411,3.992,3.266,3.52,2.758,5.952-.508,2.721-2.976,14.262-2.831,16.076-.218,1.27,1.089,2.721,1.742,3.847.762,1.2,1.452,2.4,2.141,3.556,1.452,2.4,3.193,4.863,4.391,7.367a47.9,47.9,0,0,1-5.843-3.52c-2.032-1.27-3.919-2.431-5.879-3.628-1.923-1.234-3.629-2.323-5.7-3.593a63.857,63.857,0,0,0-5.879-3.593l1.016-11.4-11.068-6.205c.145-2,1.524-5.952,2.141-8.093.472-1.706,2.1-6.642,2.1-8.093-4.427-.291-8.709-.472-13.137-.98-3.121-.326-9.617-.979-12.23-1.851-.907.218-.544-.363-1.234,2.323-.254,1.016-.472,1.851-.726,2.867-.436,2.032-.835,3.955-1.161,5.987-4.863,30.447,5.443,53.056,41.443,55.27,16.512,1.016,33.386-4.1,47.067-9.291,10.6-4.028,19.742-7.8,30.012-12.3,1.742-.762,3.193-1.415,4.935-2.177l3.629-1.6c1.089-.544.8-.072.689-1.052-.29-2.323-1.234-5.589-1.778-7.947-.4-1.851-1.669-6.242-1.6-7.839l-.508-.834c-5.081,2.541-10.161,5.407-15.351,8.165-13.463,7.113-35.056,17.564-49.027,21.992-25.729,8.129-52.366-2.25-51.749-31.427.036-1.379-.254-4.537.835-5.335,1.052.617.472,1.234.327,3.992a39.478,39.478,0,0,0,1.125,12.229c3.919,14.733,17.31,21.773,32.043,22.173,14.153.4,29.1-7.112,41.588-12.629,2.867-1.233,10.6-5.226,12.411-5.842-.29-1.379-1.016-3.049-1.451-4.391-.508-1.488-.98-2.976-1.415-4.536a125.216,125.216,0,0,1-4.536-25.149l-.254-4.064c-.182-1.234.145-.834-.871-.907Z" transform="translate(-4194.004 -8935.002)"/>
    <path id="Path_3012" data-name="Path 3012" class="cls-2" d="M509.764,8264.061c-1.706.941-1.379,1.56-5.407,2.031-6.6.834-13.79-.508-20.286-1.124l.436-7.041c-.29.509.327-.508-.218.4-.254.508-.145.327-.327.508l-7.04-.762,1.27,14.551c.435-.107,2.25-1.886,4.318-2.975a9.788,9.788,0,0,1,6.423-1.088c2.831.508,8.891,4.463,6.786,7.438-3.012,4.247-25.911,4.1-26.165,3.594-.036-.072-.145-.035-.254-.072l-.181-22.318-6.968-.4c.073,3.919.508,30.81-.29,32.335l-1.524-.4c-3.411-.036-8.056-.8-11.576-1.125l-58.39-5.842c-2.867-.29-21.919-2.032-23.116-2.5l-.581-4.5,87.2,4.754-2.758-23.117c-2.5-.436-8.093-.254-10.851-.217-11,.108-20.1.581-31.136,1.633-10.923,1.016-44.019,5.588-49.825,15.5-7.8,13.318,35.854,19.7,43.148,20.649,25.584,3.3,56.72,3.411,82.159-.4,11.25-1.669,25.512-4.319,34.221-9.181,2.286-1.271,4.863-3.086,6.024-4.937,4.754-7.549-8.093-12.521-13.572-14.515C509.8,8264.387,509.91,8264.567,509.764,8264.061Z" transform="translate(-3533.373 -12177.22)"/>
    <path id="Path_3013" data-name="Path 3013" class="cls-1" d="M1380.426,6537.829l.182,22.318c.109.036.218,0,.254.073.254.508,23.153.653,26.165-3.593,2.1-2.976-3.955-6.932-6.786-7.439a9.785,9.785,0,0,0-6.423,1.089c-2.068,1.088-3.883,2.867-4.318,2.975l-1.27-14.552-2.1-23.189c-2.431-1.379-25.511-8.963-27-10.125,6.242-.544,9.979-.29,16.04-2.5,1.306-.472,2.758-1.67,4.137-1.234l18,6.6-1.488,30.3-.435,7.04c6.5.617,13.681,1.959,20.286,1.125,4.028-.472,3.7-1.088,5.407-2.032a5.75,5.75,0,0,0-1.887-4.972,9.814,9.814,0,0,0-10.342-2.9c-2.177.653-3.157,1.669-4.718,2.323L1403,6504.007c-.544-.617-17.854-11.613-19.016-12.048v-16.4c-.835-.037-7.984,2.612-9.544,3.084-3.3,1.016-6.46,2-9.943,2.9-14.371,3.7-30.084,4.718-44.382-.036-11.1-3.666-13.427-7.948-16.112-9.508.254,2.867,5.3,34.511,6.6,37.777l69.6,9.544Z" transform="translate(-4444.678 -10457.848)"/>
    <path id="Path_3014" data-name="Path 3014" class="cls-3" d="M105.748,4931.489l2.758,23.116-87.2-4.754.581,4.5c1.2.471,20.25,2.213,23.116,2.5l58.39,5.842c3.52.327,8.165,1.089,11.576,1.125l1.524.109.073-44.672-77.478-9.871c-.327-2.141,1.2-26.89,1.415-31.354.109-2.613.254-5.262.363-7.839.181-2.939-.69-3.919-1.669-6.314l-14.479-34.729c-1.633-3.956-3.266-7.657-4.79-11.577-1.379-3.556-3.23-8.273-4.9-11.576L0,4814.528c.218,1.125,11.613,20.9,13.209,23.733L29.9,4867.692c.8,1.452,3.012,4.5,2.794,6.1-1.379,9.436-3.81,21.447-5.48,31.318-.435,2.432-2.685,14.153-2.649,15.641l80.417,5.625Z" transform="translate(-3188 -8852.307)"/>
    <path id="Path_3015" data-name="Path 3015" class="cls-4" d="M1206.124,3558.052c8.964-2.25,13.464-1.561,22.645-.4a10.6,10.6,0,0,1-3.375,7.149C1220.785,3569.374,1206.668,3568.974,1206.124,3558.052Zm-6.351-14.189c3.448-1.633,2.431,7.766-.254,9.109C1195.927,3554.785,1196.471,3545.423,1199.773,3543.862Zm34.874-3.121c3.448-1.706,2.359,8.093-.363,9.218C1230.8,3551.375,1231.454,3542.338,1234.647,3540.741Zm-51.2-10.452c.254,2.468-1.56,12.411-2.4,14.552-.98-.363-6.532-5.952-7.621.29-.907,5.3,1.379,6.822,6.024,5.516-.327,6.024-8.891,14.371-13.463,17.963-.762.581-5.77,3.955-5.988,4.355l.036.109c2.613.871,9.109,1.524,12.23,1.851,4.427.508,8.709.689,13.137.979.327.145.363.073.653.29.581-.472,5.48-.181,6.532-.145,10.488.037,31.282-1.306,41.406-3.338.653-.146,2.431-.726,2.939-.109.036-.036.254-.181.29-.218.072-.036.145-.109.218-.145a.794.794,0,0,1,.181-.109l6.859-1.379c.4-.327-.508-.073.726-.472.254-8.528-.29-17.782-.871-26.165-.254-3.992-1.887-20.9-3.52-23.116-.036,7.331-17.2,9.254-24.532,9.979a143.266,143.266,0,0,1-16.8.472C1195.31,3531.379,1184.858,3530.218,1183.443,3530.29Z" transform="translate(-4305.904 -7613.938)"/>
    <path id="Path_3017" data-name="Path 3017" class="cls-5" d="M1475.06,1113.314l4.863-.036c-.907-10.705-10.6-37.56-4.972-49.1,1.488-3.048,3.847-2.25,5.371.073,1.234,1.887,1.742,4.609,2.5,6.823,1.052-2.323.8-4.718,2.649-6.859,2.359-2.686,4.391.327,5.044,2.722,1.089-1.6.98-4.355,2.831-5.988,2.068-1.851,3.847.907,4.282,3.084,1.052,5.044.218,11.286-.145,16.512-.218,3.411-2.577,32.152-2.468,32.479l5.915-.036c0-7.258,5.371-16,8.637-20.867,4.21-6.278,7.947-13.137,6.46-22.935-2.468-16-13.536-28.451-32.152-26.854-16.367,1.415-28.886,14.153-28.016,30.991C1456.661,1089.217,1472.883,1097.709,1475.06,1113.314Z" transform="translate(-4590.989 -5225.086)"/>
    <path id="Path_3022" data-name="Path 3022" class="cls-6" d="M4116.827,3632.589l1.959-.073c-.181-2.685-4.863-16.838-6.024-23.08-.689-3.665-1.416-9.725,0-13.136.979-2.323,2.758-1.959,4.064-.181,1.016,1.379,1.343,3.3,2.178,4.79.254-1.161,1.2-7.947,4.245-5.516.509.363.834,1.343,1.307,1.959.726-1.561.653-3.484,1.852-4.5,1.56-1.306,2.866.8,3.229,2.069,1.162,4.209.727,19.415.617,24.6-.036,3.919-.472,8.274-.29,12.121l3.411-.218,1.125-.4c.726-14.843,12.557-18.979,8.854-33.895-5.77-23.189-30.482-20.939-39.736-9.508a22.409,22.409,0,0,0-4.5,17.129c1.778,9.907,11.032,15.75,14.588,23.7.509,1.053,1.125,3.3,1.6,4.137Z" transform="translate(-7138.077 -7670.077)"/>
    <path id="Path_3024" data-name="Path 3024" class="cls-1" d="M3638.3,6415.922c2.141-1.561,3.81,1.814,2,3.012A1.809,1.809,0,1,1,3638.3,6415.922Zm6.5-.834c2.4-1.089,3.557,2.395,1.561,3.266A1.81,1.81,0,0,1,3644.793,6415.088Zm6.1-1.125c2.286-.98,3.448,2.757,1.161,3.411A1.8,1.8,0,1,1,3650.89,6413.963Zm5.081,3.847-2.794-13.718a3.472,3.472,0,0,1-.472-1.742c-2.4.436-4.754,1.2-7.4,1.6a49.3,49.3,0,0,1-23.371-1.959,42.363,42.363,0,0,1-11.468-6.1c-2.54-1.851-7.4-6.314-8.782-8.892L3588,6392.3c.544,1.778,3.956,6.46,4.972,7.766,15.677,20.649,36.652,24.531,61.184,18.943C3656.66,6418.426,3656.152,6418.753,3655.97,6417.81Z" transform="translate(-6645.793 -10375.932)"/>
    <path id="Path_3025" data-name="Path 3025" class="cls-7" d="M1188,3219.741c1.125,1.851.073,2.177,3.593,4.427,4.355,2.794,13.935,5.044,18.834,5.443,1.415-.073,11.867,1.089,16.04,1.161a143.21,143.21,0,0,0,16.8-.472c7.33-.726,24.5-2.649,24.532-9.979-.363-4.21-5.189-6.387-9.036-7.693a61.233,61.233,0,0,0-14.116-2.976,8.129,8.129,0,0,1-1.524,3.375c.907,1.016,2.576,2,1.27,3.919a5.058,5.058,0,0,1-4.028,1.923c-3.085.254-2.722-.254-4.282,1.633l-2.939,3.121c-1.705.073-6.133.29-7.149-.581a47.331,47.331,0,0,1-3.52-4.028c-2.177-.145-5.189.291-6.568-.871-2.141-1.814-.617-3.012.544-4.391-.363-.616-1.343-1.052-1.488-2.214-.109-1.2.8-1.814,1.125-2.54a103.633,103.633,0,0,0-16.766,2.576,31.171,31.171,0,0,0-7.04,2.686C1189.887,3215.641,1188.762,3216.584,1188,3219.741Z" transform="translate(-4332.888 -7313.261)"/>
    <path id="Path_3027" data-name="Path 3027" class="cls-6" d="M5425.653,5041.494a10.068,10.068,0,0,0,3.121.544c.653-8.092.109-26.382,4.9-32.661,1.125-1.451,2.541-2,3.557-.254.8,1.343.762,3.919.8,5.661,1.234-1.524,1.851-4.391,4.427-4.282,1.27.726,1.2,1.27,1.415,2.9,1.416-1.415,1.488-3.556,4.1-3.52,1.271,1.233,1.234,2.286.944,4.282-.617,3.846-2.83,9.508-4.173,13.427l-6.061,17.129a9.546,9.546,0,0,0,3.122.617l.943.254c1.052-4.246,6.1-9.363,8.528-11.468,3.375-2.939,6.967-6.133,8.419-11.54,2.794-10.2-1.307-22.209-12.992-25.8a23.538,23.538,0,0,0-16.765,1.233,20,20,0,0,0-9.254,10.706c-2.287,5.734-.871,11.177,1.052,16.367.908,2.468,1.851,4.717,2.649,7.331C5426.052,5037.792,5425.109,5038.336,5425.653,5041.494Z" transform="translate(-8410.83 -9035.217)"/>
    <path id="Path_3030" data-name="Path 3030" class="cls-8" d="M1946.831,1594.982l-10.6.145c-.907-3.665-1.705-7.8-2.54-11.467-1.851-8.383-6.714-30.846-2.468-37.015,3.665.508,4.572,14.226,5.661,16.693l1.27-.073c1.2-2.032-.943-2.54.218-8.092.363-1.815,1.56-6.423,2.867-7.185.617.327.508.109.907,1.089,2.25,5.879-.4,12.3,3.157,11.141.29-.762.835-13.935,3.3-15.024,2.177,1.016,1.524,9.435,1.306,12.084C1949.443,1563.119,1947.774,1592.006,1946.831,1594.982Zm-17.709.218c-.871.8-2.068,1.415-2.141,3.23-.036,1.815,1.27,2.9,1.814,3.81l-.544.472c-.327.726-1.234,1.343-1.125,2.54.145,1.161,1.125,1.6,1.488,2.214-1.161,1.379-2.685,2.577-.545,4.391,1.379,1.161,4.391.726,6.569.871a47.423,47.423,0,0,0,3.52,4.028c1.016.871,5.443.653,7.149.58l2.94-3.121c1.56-1.887,1.2-1.379,4.282-1.633a5.058,5.058,0,0,0,4.028-1.923c1.306-1.924-.363-2.9-1.27-3.919a8.129,8.129,0,0,0,1.524-3.375c-.29-1.125-.581-.871-1.524-1.6.4-1.052,1.56-1.851,1.669-3.593.109-1.887-.907-2.468-1.96-3.3l-5.915.036c-.109-.327,2.25-29.068,2.468-32.479.363-5.226,1.2-11.467.145-16.512-.436-2.177-2.214-4.935-4.282-3.084-1.851,1.633-1.742,4.391-2.83,5.988-.653-2.4-2.686-5.407-5.044-2.722-1.851,2.141-1.6,4.536-2.649,6.859-.762-2.214-1.27-4.935-2.5-6.823-1.524-2.323-3.883-3.121-5.371-.072-5.625,11.54,4.064,38.394,4.972,49.1Z" transform="translate(-5045.051 -5706.972)"/>
    <path id="Path_3031" data-name="Path 3031" class="cls-9" d="M1113.626,3557.547c.218-.4,5.226-3.774,5.988-4.355,4.573-3.593,13.137-11.939,13.464-17.963-4.645,1.307-6.931-.218-6.024-5.516,1.089-6.242,6.641-.653,7.621-.291.835-2.141,2.649-12.084,2.4-14.552-4.9-.4-14.479-2.649-18.834-5.444-3.52-2.25-2.468-2.577-3.593-4.427-3.3,16.766-3.339,33.931-1.705,51.059C1113.082,3557.475,1113.263,3557.293,1113.626,3557.547Z" transform="translate(-4259.53 -7598.52)"/>
    <path id="Path_3033" data-name="Path 3033" class="cls-6" d="M1878,4939.2c.073.689-.036.326.435,1.125l14.407,23.843c.835,1.415,1.633,2.721,2.5,4.137.4.689.8,1.378,1.27,2.1,1.125,1.887.617,1.559,1.56,1.851-.145-1.815,2.323-13.355,2.831-16.077.508-2.431.653-1.959-2.758-5.952-1.343-1.561-1.778-1.6-1.343-2.9.327-1.125.98-3.193,1.488-3.411l12.52-1.669a27.555,27.555,0,0,1,3.193,4.1,48.142,48.142,0,0,1-2.9,4.791c-1.669,2.831-1.089,2.648-.327,6.169.508,2.4,2.649,11.323,2.54,13.1.726.362.29.761,1.27-1.561l2.867-6.6c1.742-4.137,11.25-25.511,11.322-26.636-.508-.618-2.286-.036-2.939.108-10.125,2.032-30.919,3.375-41.406,3.338C1883.48,4939.023,1878.581,4938.732,1878,4939.2Z" transform="translate(-4997.848 -8976.947)"/>
    <path id="Path_3034" data-name="Path 3034" class="cls-5" d="M2014.686,1673.789c.943-2.976,2.613-31.862,3.084-37.7.218-2.649.871-11.068-1.306-12.084-2.468,1.089-3.012,14.262-3.3,15.024-3.556,1.161-.907-5.262-3.157-11.141-.4-.98-.29-.762-.907-1.089-1.306.762-2.5,5.371-2.867,7.185-1.161,5.552.98,6.06-.218,8.093l-1.27.072c-1.089-2.468-2-16.185-5.661-16.693-4.246,6.169.617,28.632,2.468,37.015.835,3.665,1.633,7.8,2.54,11.468Z" transform="translate(-5112.906 -5785.779)"/>
    <path id="Path_3038" data-name="Path 3038" class="cls-8" d="M4476.11,3944.9c2.177,1.6,1.342,14.552,1.342,17.927,0,6.242.218,12.883-.326,19.088l-7.947.689c-1.379-5.661-10.162-31.281-5.916-35.781,1.6.472,2.541,3.738,3.121,5.48.943,2.867.871,5.952,2.1,6.6,1.27-.4.871-1.016.508-2.323a7.3,7.3,0,0,1-.182-3.448c.145-1.378.726-4.826,1.814-5.806,2.976,1.778.508,9.689,3.666,8.927.326-1.488-.254-4.246.652-8.818C4475.312,3945.776,4475.2,3945.376,4476.11,3944.9Zm-10.6,37.886c-1.488.653-2.4.036-2.9,1.959-.508,1.851.763,2.613,1.343,3.484-1.271,1.488-1.851,2.25.108,3.811-.689,1.089-1.632,2.177-.29,3.3,1.161.943,2.9.254,4.5.436,1.162.109,2.1,1.488,2.831,2.214,1.452,1.379,1.416.907,3.956.835,2.431-.073,2.1-.327,3.229-1.706.327-.4.69-.871,1.053-1.343.653-.835.4-.653,1.851-.835,5.371-.689,4.718-3.484,2.722-4.5.8-1.923,2.032-2.25-.181-3.847.435-.907,2.032-3.23.072-4.645-.762-.545-.689-.327-1.742-.327l-3.412.218c-.181-3.847.254-8.2.291-12.121.108-5.189.544-20.395-.617-24.6-.363-1.27-1.67-3.375-3.229-2.068-1.2,1.016-1.125,2.939-1.851,4.5-.472-.617-.8-1.6-1.307-1.96-3.048-2.431-3.992,4.355-4.246,5.516-.835-1.488-1.162-3.411-2.178-4.79-1.306-1.778-3.084-2.141-4.064.182-1.416,3.411-.69,9.471,0,13.137,1.161,6.242,5.842,20.395,6.024,23.08Z" transform="translate(-7486.763 -8020.279)"/>
    <path id="Path_3040" data-name="Path 3040" class="cls-10" d="M2698.883,4930.472c-.073,1.125-9.581,22.5-11.322,26.637l-2.867,6.6c-.98,2.322-.544,1.923-1.27,1.561.109,2.069.254.8-1.125,4.137-1.306,3.193-4.681,10.125-5.3,12.411,1.96-.8,17.891-13.318,20.83-14.914l-1.887-12.629c1.814-1.852,7.149-5.661,8.383-7.149-.254-2.758-4.827-14.951-4.754-17.128a.8.8,0,0,0-.182.109c-.072.036-.145.109-.218.146C2699.136,4930.29,2698.919,4930.436,2698.883,4930.472Z" transform="translate(-5767.853 -8971.808)"/>
    <path id="Path_3041" data-name="Path 3041" class="cls-8" d="M5481.017,5367.613c-.036-6.5.8-30.556,5.334-32.878,2.5,1.96-.327,10.6.944,12.084,1.415-.109,1.016-1.088,1.2-2.5.217-1.887,2.577-6.6,4.318-6.931.581,5.843-1.633,7.439-.436,8.492,1.234,1.088,1.234-1.851,2.467-4.464.617-1.306,1.887-4.209,3.158-4.572,1.342,2.142-3.412,14.08-4.319,16.693-1.017,3.012-4.428,13.717-5.7,15.786Zm-4.572-1.161c-2.867.472-2.249,2.395-1.669,4.463-2.25,1.561-1.777,1.307-.98,3.52-1.2.508-2.322,1.379-.979,2.9,1.56,1.778,3.267,0,4.5,2.613,1.562,3.266,1.2,2.577,3.593,3.3,1.924.544,1.959.834,3.521-.254,1.088-.762,1.706-1.524,3.157-1.234,1.452.254,2.648.617,3.919-.254s.545-1.851.073-3.012c1.125-.943,2.432-1.814.8-3.229,3.774-3.266.907-4.246.218-4.972a9.544,9.544,0,0,1-3.122-.617l6.061-17.129c1.343-3.919,3.557-9.58,4.173-13.427.291-2,.327-3.048-.944-4.282-2.612-.036-2.684,2.1-4.1,3.52-.218-1.633-.145-2.177-1.416-2.9-2.576-.108-3.193,2.759-4.427,4.283-.036-1.742,0-4.319-.8-5.662-1.015-1.742-2.431-1.2-3.556.254-4.79,6.278-4.247,24.568-4.9,32.66A10.054,10.054,0,0,1,5476.444,5366.452Z" transform="translate(-8461.622 -9360.175)"/>
    <path id="Path_3042" data-name="Path 3042" class="cls-10" d="M1768.076,5067.35c-.943-.291-.435.036-1.56-1.851-.472-.726-.871-1.415-1.27-2.1-.871-1.415-1.669-2.721-2.5-4.137l-14.407-23.842c-.472-.8-.363-.436-.436-1.125-.29-.218-.326-.146-.653-.291,0,1.452-1.633,6.387-2.1,8.093-.617,2.142-2,6.1-2.141,8.093l11.068,6.206-1.016,11.394a63.991,63.991,0,0,1,5.879,3.593c2.068,1.27,3.774,2.358,5.7,3.592,1.959,1.2,3.847,2.36,5.879,3.629a48.084,48.084,0,0,0,5.843,3.521c-1.2-2.5-2.939-4.972-4.391-7.368-.69-1.161-1.379-2.359-2.141-3.557C1769.165,5070.071,1767.858,5068.621,1768.076,5067.35Z" transform="translate(-4867.747 -9072.032)"/>
    <path id="Path_3044" data-name="Path 3044" class="cls-6" d="M4515.321,4005c-.907.472-.8.871-1.161,2.541-.907,4.572-.327,7.33-.653,8.818-3.158.762-.69-7.149-3.666-8.927-1.088.98-1.669,4.427-1.815,5.806a7.312,7.312,0,0,0,.182,3.448c.363,1.306.762,1.923-.508,2.322-1.234-.653-1.161-3.738-2.1-6.6-.581-1.742-1.524-5.008-3.122-5.479-4.246,4.5,4.537,30.12,5.916,35.781l7.947-.689c.544-6.206.327-12.846.327-19.088C4516.664,4019.552,4517.5,4006.6,4515.321,4005Z" transform="translate(-7525.974 -8080.375)"/>
    <path id="Path_3046" data-name="Path 3046" class="cls-6" d="M5714.971,5413.878l6.967,1.705c1.27-2.068,4.681-12.774,5.7-15.786.907-2.613,5.661-14.552,4.318-16.693-1.27.362-2.54,3.266-3.156,4.572-1.234,2.613-1.234,5.552-2.468,4.464-1.2-1.053,1.016-2.649.436-8.492-1.742.327-4.1,5.044-4.318,6.931-.181,1.416.218,2.4-1.2,2.5-1.27-1.487,1.56-10.125-.944-12.084C5715.768,5383.322,5714.934,5407.382,5714.971,5413.878Z" transform="translate(-8695.576 -9406.439)"/>
    <path id="Path_3051" data-name="Path 3051" class="cls-4" d="M4603,5564.692l3.157,14.916c3.883-.436,13.791.181,14.734-1.561.291-1.523-.508-2-1.561-2.5,1.379-.508,2.576-1.923.725-3.774-.036-.036-.072-.109-.108-.145l-.218-.218c.871-.762,1.923-1.887.8-3.194-.254-.326,0-.036-.363-.363l-.436-.363c-.037-.036-.109-.072-.145-.145l.544-.509a3.1,3.1,0,0,0,.472-.507,2.109,2.109,0,0,0,.218-1.778C4617.516,5561.68,4607.391,5564.257,4603,5564.692Z" transform="translate(-7623.959 -9582.04)"/>
    <path id="Path_3052" data-name="Path 3052" class="cls-4" d="M5476,6792.461l2.758,13.609a58.788,58.788,0,0,1,8.383-.183c2.431.073,5.915.291,7.294-1.052.073-1.488-.471-1.488-1.524-2.1.036-.073.072-.109.109-.109a.163.163,0,0,1,.109-.108l.653-.544a1.293,1.293,0,0,0,.544-1.162c.036-1.089-.726-1.379-1.27-1.887,2.1-2.214,1.343-2.214-.436-3.811,1.125-.545,1.524-.762,1.488-2.468C5489.608,6789.921,5480.536,6792.316,5476,6792.461Z" transform="translate(-8465.278 -10765.608)"/>
    <path id="Path_3053" data-name="Path 3053" class="cls-9" d="M2431,4502.669c.544,10.923,14.661,11.321,19.27,6.75a10.6,10.6,0,0,0,3.375-7.149C2444.463,4501.108,2439.963,4500.419,2431,4502.669Z" transform="translate(-5530.78 -8558.556)"/>
    <path id="Path_3057" data-name="Path 3057" class="cls-11" d="M2206.639,10.234c-.726,1.96-.145.327-.617,2.54a12.837,12.837,0,0,0-.109,3.52c.145,1.161.617,6.169.907,6.822,1.089,1.052,1.524-1.633,2.177-1.778.036,0,.145-.036.181-.036.436-.109.617.4.617-1.2a17.98,17.98,0,0,0-.218-2.577c-.29-3.3.435-6.205-.544-8.02a7.025,7.025,0,0,1-.29-3.556c.29-1.669.29-1.052-.218-2.649-.4-1.2-.109-.4.109-1.234a.279.279,0,0,0,.072-.181l.037-1.415L2207.328,0c-1.778,3.629-1.27,2.939-1.125,4.9C2206.24,5.48,2204.933,8.492,2206.639,10.234Z" transform="translate(-5313.713 -4220.714)"/>
    <path id="Path_3058" data-name="Path 3058" class="cls-6" d="M4502.921,5571.959c-.073,1.6,1.2,5.988,1.6,7.838.544,2.359,1.487,5.625,1.777,7.948a5.815,5.815,0,0,0,3.484-.8l-.072-.8-3.158-14.915-.289-1.233-3.3,1.125Z" transform="translate(-7527.51 -9588.582)"/>
    <path id="Path_3059" data-name="Path 3059" class="cls-11" d="M3128.507,484.339c-.254.145-.472.218-.617.327l-.29.181a3.32,3.32,0,0,1-.363.363c-2.5,2.1-2.831,2.54-4.718,5.951-.472.871-2.468,3.012-.327,2.758,1.343-.145.689-.653,1.669-.435.073.036.871.508.871.508l4.9-6.6c2.359-2.468-.218-1.778,3.411-4.935a3.332,3.332,0,0,0,1.016-2.177c1.343-.617.689.363,1.561-1.2-.363-1.452-.617-1.379-1.815-.871a4.378,4.378,0,0,0-2.25,1.56c-.4.69-.073.508-.871,1.052a3.14,3.14,0,0,0-1.052.835A3.419,3.419,0,0,0,3128.507,484.339Z" transform="translate(-6195.953 -4681.247)"/>
    <path id="Path_3060" data-name="Path 3060" class="cls-11" d="M1047.427,532.895c.036-.036.073-.181.073-.145l.254-1.6a3.294,3.294,0,0,1,.145-.581l.218-.762c-.508-.254-.545-.254-.726-.508-.508-.835.363.036-.835-.835l-1.125-1.052c-1.2-1.2-1.234-.871-2.177-2.1a18.442,18.442,0,0,0-1.488-1.851,2.447,2.447,0,0,0-.98-.653l-.544-.109a6.6,6.6,0,0,1-1.96-1.923c-.907-1.343-.073-.907-1.6-1.742-1.089-.581-.29.145-1.488-2.032-1.706.073-1.851.327-1.379,1.851.762,2.468,1.089,2.032,1.56,2.468,1.125.98.073.907,1.633,2.4,1.488,1.452,1.415.363,2.431,1.851a.275.275,0,0,0,.073.145l1.706,2.613a21.328,21.328,0,0,0,3.919,3.447C1045.939,532.387,1046.52,533.693,1047.427,532.895Z" transform="translate(-4184.077 -4718.952)"/>
    <path id="Path_3061" data-name="Path 3061" class="cls-6" d="M5384,6806.923l2.793,13.718a13.517,13.517,0,0,0,3.339-.581l-.036-.835-2.758-13.608-.109-.617-3.193,1.017Z" transform="translate(-8376.617 -10778.764)"/>
    <path id="Path_3062" data-name="Path 3062" class="cls-9" d="M2183.734,4145.958c-3.3,1.56-3.847,10.923-.254,9.108C2186.165,4153.723,2187.181,4144.324,2183.734,4145.958Z" transform="translate(-5289.864 -8216.033)"/>
    <path id="Path_3063" data-name="Path 3063" class="cls-9" d="M3145.3,4059.721c-3.193,1.6-3.847,10.633-.363,9.218C3147.662,4067.813,3148.75,4058.015,3145.3,4059.721Z" transform="translate(-6216.56 -8132.918)"/>
    <path id="Path_3071" data-name="Path 3071" class="cls-8" d="M4088.747,6093.707a1.83,1.83,0,1,0,3.629-.472A1.83,1.83,0,1,0,4088.747,6093.707Z" transform="translate(-7128.359 -10091.276)"/>
    <path id="Path_3072" data-name="Path 3072" class="cls-8" d="M4949.432,7173.259a1.808,1.808,0,1,0,2,3.012C4953.242,7175.073,4951.573,7171.7,4949.432,7173.259Z" transform="translate(-7956.928 -11133.27)"/>
    <path id="Path_3073" data-name="Path 3073" class="cls-8" d="M4414.287,5966.673a1.588,1.588,0,0,0-.908,2.395,1.853,1.853,0,0,0,2.54.8C4417.734,5968.923,4416.646,5965.512,4414.287,5966.673Z" transform="translate(-7440.98 -9970.63)"/>
    <path id="Path_3074" data-name="Path 3074" class="cls-8" d="M5125.171,7155.459a1.81,1.81,0,0,0,1.561,3.266C5128.727,7157.854,5127.566,7154.37,5125.171,7155.459Z" transform="translate(-8126.172 -11116.305)"/>
    <path id="Path_3075" data-name="Path 3075" class="cls-8" d="M4258.7,6037.087c.4,2.032,4.137,1.887,3.52-.908A1.818,1.818,0,0,0,4258.7,6037.087Z" transform="translate(-7292.103 -10036.58)"/>
    <path id="Path_3076" data-name="Path 3076" class="cls-8" d="M5287.134,7125.679a1.8,1.8,0,1,0,1.161,3.411C5290.581,7128.436,5289.42,7124.7,5287.134,7125.679Z" transform="translate(-8282.037 -11087.648)"/>
  </g>
</svg>
