<svg xmlns="http://www.w3.org/2000/svg" viewBox="0 0 170.195 344.48">
  <defs>
    <style>
      .cls-1 {
        fill: #4b4b4d;
      }

      .cls-1, .cls-10, .cls-2, .cls-3, .cls-4, .cls-5, .cls-6, .cls-7, .cls-8, .cls-9 {
        fill-rule: evenodd;
      }

      .cls-2 {
        fill: #fee0c5;
      }

      .cls-3 {
        fill: #889fac;
      }

      .cls-4 {
        fill: #f9ed4c;
      }

      .cls-5 {
        fill: #131313;
      }

      .cls-6 {
        fill: #a45050;
      }

      .cls-7 {
        fill: #443a3d;
      }

      .cls-8 {
        fill: #4c2715;
      }

      .cls-9 {
        fill: #585555;
      }

      .cls-10 {
        fill: #869784;
      }
    </style>
  </defs>
  <g id="Group_7993" data-name="Group 7993" transform="translate(1071.748 4259.055)">
    <path id="Path_3018" data-name="Path 3018" class="cls-1" d="M10253.393,3332.6a42.049,42.049,0,0,1,6.32.991l5.389,1.115c1.178.5,1.55,2.6,2.045,4.089.62,1.8.5,1.921-.558,3.284-1.61,2.044-3.407,3.1-2.912,6.629l3.841,26.145c.682,4.213-.123,3.9-2.23,6.505-1.548,1.92-3.035,3.779-4.521,5.576a58.421,58.421,0,0,1-4.461,5.2l-9.851-12.019c-3.594-4.523-2.54-2.85,1.115-16.108,1.61-5.7,3.345-11.338,4.833-17.1.928-3.469-1.363-5.08-2.541-7.992C10249.117,3336.878,10252.4,3334.709,10253.393,3332.6ZM10227,3329.01c1.983,1.859,7.744,6.319,10.285,7.5-.062,10.408-.682,20.569-.248,31.163.371,9.045.743,21.188,2.788,29.552,6.5,2.106,11.337,4.089,18.9,5.514a123.347,123.347,0,0,0,23.109,2.106c12.887.062,33.7-1.487,45.041-5.08l.619-.619.434-.434a387.155,387.155,0,0,1,1.858-56.812c.31-2.912.558-1.921,4.956-4.708,2.107-1.363,4.09-2.6,6.01-4.089a12.338,12.338,0,0,0-1.734-4.151c-.371-.682-.559-1.177-.991-1.859-.743-1.3-.187-.991-1.425-1.425-1.921,1.859-3.471,3.531-5.328,4.461l.247-2.664c-3.9.186-7.991,1.115-11.895,1.611a231.389,231.389,0,0,1-36.554,1.239c-7.62-.31-15.859-1.177-23.17-2.106l-21.87-3.346-.187,3.16c-1.857-.248-4.336-3.965-5.947-5.018A25.4,25.4,0,0,0,10227,3329.01Z" transform="translate(-11273.179 -7390.353)"/>
    <path id="Path_3023" data-name="Path 3023" class="cls-2" d="M10423.091,2523.465c5.761-1.177,19.577-2.292,24.472.558.186,6.939-5.7,10.037-12.515,10.16C10426.994,2534.307,10422.533,2527.678,10423.091,2523.465Zm29.8-16.046c3.531-3.469,5.328,7.806,2.354,9.665C10452.023,2519.066,10450.475,2509.711,10452.891,2507.419Zm-36.553-.867c3.469-2.726,5.018,7.992,2.044,9.789C10415.16,2518.323,10413.549,2508.782,10416.338,2506.551ZM10405,2537.838l21.869,3.345c7.311.929,15.551,1.8,23.172,2.106a231.439,231.439,0,0,0,36.553-1.239c3.9-.5,7.992-1.425,11.9-1.611-1.116-.124-.372-.124-.868-.558-1.92-1.673-4.4-3.036-6.443-4.647-5.39-4.213-13.2-11.833-14.435-19.392,5.266,1.177,7.682-.372,6.442-6.319-1.115-5.824-6.071-1.239-7.992-.124-1.8-2.292-2.6-12.081-2.973-15.675-2.107-.248-5.948.5-8.364.681-11.771.744-51.979,1.859-53.962-10.408-2.045,2.354-3.594,20.631-3.9,25.091C10405.31,2518.818,10405.248,2528.049,10405,2537.838Z" transform="translate(-11440.15 -6603.333)"/>
    <path id="Path_3028" data-name="Path 3028" class="cls-3" d="M10068.678,5274.56l2.045,10.284c-3.531,1.239-14,2.23-18.152,2.417-5.205.186-15.675.682-13.939-6.381-2.6.434-6.878,2.85-8.551,4.151-2.6,2.044-3.779,5.018-.867,8.116,10.037,10.533,49.936,12.391,63.875,12.391,14.621,0,52.908-1.8,64.184-11.709,7.063-6.257-2.849-10.594-8.177-13.072l1.238,8.921c-5.761.682-41.137,6.877-29.428-8.24,2.478-3.159,5.328-4.894,10.655-4.708-.5-.31.311-.062-1.115-.5l-29.613-2.54c-5.638-.124-11.09-.124-16.666.062C10079.52,5273.878,10073.016,5274.808,10068.678,5274.56Z" transform="translate(-11086.048 -9220.111)"/>
    <path id="Path_3029" data-name="Path 3029" class="cls-4" d="M10668.15,930.283l6.381.062c-.8-14.126-2.974-30.419-3.531-44.731-.186-4.77-.434-11.709,3.842-12.7,3.406,1.115,2.85,4.337,4.4,6.939,4.894-10.842,7.992,3.531,8.487,4.461,1.239-4.151,2.044-9.851,7.063-9.231,5.081,4.709,3.036,20.445,1.673,28.065-.93,5.2-5.576,24.224-5.451,27.384l4.956.186c1.61-4.708,1.733-6.939,4.274-11.523,5.887-10.47,15.736-18.71,16.789-31.968,1.487-17.9-12.824-32.712-30.419-33.889-20.259-1.425-32.464,11.152-35.128,29.242-2.788,19.02,11.214,25.649,15.241,41.2C10667.221,925.7,10667.654,928.858,10668.15,930.283Z" transform="translate(-11671.022 -5073.592)"/>
    <path id="Path_3035" data-name="Path 3035" class="cls-5" d="M10204.1,4574.9c-1.735,7.063,8.735,6.567,13.939,6.381,4.151-.186,14.621-1.177,18.152-2.416l-2.044-10.284-8.488-37.606c5.823.991,11.275,2.6,17.78,3.469a160.713,160.713,0,0,0,40.085,0c5.947-.805,12.763-2.726,18.091-3.222.5,7.063,4.646,36.925,4.213,40.456.5.744.123-.248.434,1.115,0,.125.124.93.124,1.115.124,1.053.186,2.106.248,3.16-1.549-.929-2.789-2.479-4.214-3.531l-3.593-2.106a4.393,4.393,0,0,1-.558-.31c-.062-.062-.248-.062-.31-.186s-.186-.123-.31-.186h-.62c-5.328-.186-8.178,1.549-10.656,4.708-11.709,15.117,23.667,8.921,29.429,8.24l-1.239-8.921c-.93-3.1-1.487-8.983-2.045-12.515-.681-4.275-1.363-8.674-2.106-13.011l-3.841-24.41c-.62-1.425.31-.929-1.362-1.3-11.339,3.594-32.154,5.143-45.041,5.08a123.3,123.3,0,0,1-23.109-2.106c-7.559-1.425-12.391-3.407-18.9-5.514,1.053,13.382,7.249,39.4,7.558,50.492-2.354-2.23-6.442-6.814-12.391-5.39C10208.867,4567.156,10205.956,4571.492,10204.1,4574.9Z" transform="translate(-11251.516 -8514.132)"/>
    <path id="Path_3036" data-name="Path 3036" class="cls-2" d="M11738.584,1497.809c1.24.434.682.124,1.426,1.425.434.682.619,1.177.99,1.859a12.337,12.337,0,0,1,1.736,4.151c9.23-5.576,19.887-17.967,24.656-27.26,16.666-32.526-3.16-68.955-24.162-93.489-1.3-1.487-7.992-9.231-9.727-9.851-2.912-.991-2.975,1.549-2.354,3.531-1.8-.5-1.363-1.053-3.16-.5-.744,1.983-.123,1.859.371,3.593-1.609-.681-1.178-1.115-3.531-.62-.371,2.044.434,3.284.93,4.956-1.8-.557-1.859-1.177-3.965-.743-1.486,3.779,5.2,8.054,9.23,11.771,20.26,18.586,37.793,46.589,25.711,75.522C11751.9,1483.621,11746.7,1489.321,11738.584,1497.809Z" transform="translate(-12675.166 -5562.498)"/>
    <path id="Path_3037" data-name="Path 3037" class="cls-2" d="M9839.843,1563.548a25.379,25.379,0,0,1,4.9-6.01c-.992-2.106-3.037-3.655-4.523-5.7-25.835-35-12.267-64.185,17.6-89.771,2.168-1.859,7.248-5.452,8.426-6.939,2.043-2.6,1.981-5.2-3.1-2.912.99-2.478,3.592-7-1.984-4.523.93-2.788,1.984-4.027-2.23-3.346,1.611-9.231-9.54,2.912-12.08,5.514a149.52,149.52,0,0,0-11.338,13.072c-6.5,8.364-13.629,19.639-17.533,31.473-7.187,21.746-3.841,39.527,9.48,56.812C9829.93,1554.441,9836.807,1561.627,9839.843,1563.548Z" transform="translate(-10886.021 -5624.892)"/>
    <path id="Path_3039" data-name="Path 3039" class="cls-6" d="M10509.649,2275.124c-.991,1.053-.5.743-3.655,1.115-1.363.186-2.788.5-4.151.743-6.134,1.177-17.472,3.841-17.843,10.966,1.982,12.267,42.19,11.152,53.962,10.408,2.417-.186,6.258-.929,8.364-.681a71.612,71.612,0,0,0,14.436-3.222,27.311,27.311,0,0,0,5.947-2.54c2.973-1.735,2.6-1.487,4.274-4.708-1.362-5.7-6.01-7.5-11.9-9.107-5.328-1.425-16.293-2.54-17.533-3.1l-1.486,2.416c0-.062-.124.186-.186.31,1.239,1.239,3.1,3.284.247,5.018-1.733,1.053-5.327-.124-7.062.991-4.09,2.6.867,4.957-11.586,4.709-.93-1.673-3.469-4.709-5.452-5.018-3.346-.5-5.886-.062-7-3.284-.124-1.363,1.24-1.858,1.982-3.965C10510.578,2275.867,10510.145,2275.5,10509.649,2275.124Z" transform="translate(-11514.257 -6407.281)"/>
    <path id="Path_3045" data-name="Path 3045" class="cls-7" d="M10898.723,1177.815c1.734,6.133.991,11.709,2.354,13.01,3.53-.558.187-10.346,3.965-13.506,1.61,1.177,2.726,5.824,3.159,8.116,1.178,6.319-1.672,6.815.559,8.612,1.858-.372,1.734-2.106,1.982-4.275a39.346,39.346,0,0,1,.929-5.514c.743-2.974,1.55-7.682,4.461-8.364,2.912,8.364,1.3,18.524-.31,27.508-1.486,8.054-3.222,17.285-5.391,25.153l-11.338-.062c-1.238-2.664-3.035-34.261-3.593-41.571-.124-2.416-.991-10.966,1.425-12.639C10898.041,1174.965,10897.855,1174.717,10898.723,1177.815Zm-8.488,50.555c-3.469,1.611-2.6,4.708-.619,7.249l-1.549,1.549.434,2.354c.5.372.93.744,1.363,1.053-.743,2.106-2.106,2.6-1.982,3.965,1.115,3.222,3.654,2.788,7,3.284,1.983.31,4.523,3.345,5.453,5.018,12.452.248,7.5-2.106,11.585-4.708,1.734-1.115,5.328.062,7.063-.991,2.851-1.735.991-3.779-.247-5.018.061-.124.186-.372.186-.31l1.486-2.416a3.945,3.945,0,0,0-1.734-2.974c1.61-2.788,3.408-6.01-.619-7.62l-4.957-.186c-.123-3.16,4.523-22.18,5.453-27.384,1.361-7.62,3.406-23.357-1.674-28.065-5.018-.62-5.824,5.08-7.062,9.231-.5-.929-3.594-15.3-8.488-4.461-1.549-2.6-.99-5.824-4.4-6.939-4.275.991-4.027,7.93-3.841,12.7.558,14.311,2.726,30.605,3.531,44.731Z" transform="translate(-11893.107 -5371.678)"/>
    <path id="Path_3047" data-name="Path 3047" class="cls-8" d="M11490,2482.47c.371,3.593,1.178,13.382,2.974,15.674,1.921-1.115,6.878-5.7,7.993.124,1.238,5.948-1.178,7.5-6.443,6.319,1.238,7.559,9.045,15.179,14.435,19.392,2.044,1.611,4.522,2.974,6.443,4.646,1.735-.5.434.31.929-.929l.559-5.576c.929-12.762,1.363-39.9-2.23-50.121-1.674,3.222-1.3,2.974-4.275,4.709a27.311,27.311,0,0,1-5.947,2.54A71.614,71.614,0,0,1,11490,2482.47Z" transform="translate(-12457.931 -6592.076)"/>
    <path id="Path_3048" data-name="Path 3048" class="cls-5" d="M10517.229,3537.538a58.474,58.474,0,0,0,4.46-5.2c1.487-1.8,2.974-3.655,4.522-5.576,2.106-2.6,2.912-2.292,2.23-6.505l-3.841-26.145c-.5-3.531,1.3-4.584,2.911-6.629,1.054-1.363,1.178-1.487.559-3.284-.5-1.487-.867-3.593-2.045-4.089l-5.39-1.115a42.037,42.037,0,0,0-6.319-.991c-.991,2.106-4.275,4.275-3.531,6.319,1.177,2.912,3.469,4.522,2.54,7.992-1.487,5.762-3.222,11.4-4.833,17.1-3.655,13.258-4.709,11.585-1.115,16.108Z" transform="translate(-11534.104 -7535.75)"/>
    <path id="Path_3050" data-name="Path 3050" class="cls-4" d="M11010.773,1278.21l11.338.062c2.168-7.868,3.9-17.1,5.39-25.153,1.611-8.983,3.222-19.144.311-27.508-2.912.682-3.718,5.39-4.461,8.364a39.493,39.493,0,0,0-.93,5.514c-.247,2.168-.123,3.9-1.982,4.275-2.23-1.8.619-2.292-.558-8.612-.434-2.292-1.549-6.939-3.159-8.116-3.779,3.16-.435,12.948-3.965,13.506-1.363-1.3-.62-6.877-2.354-13.01-.867-3.1-.682-2.85-1.8-3.531-2.416,1.673-1.549,10.222-1.425,12.639C11007.737,1243.949,11009.535,1275.546,11010.773,1278.21Z" transform="translate(-12004.788 -5421.395)"/>
    <path id="Path_3056" data-name="Path 3056" class="cls-8" d="M10696.294,3102.249c-.558,4.213,3.9,10.842,11.957,10.718,6.815-.124,12.7-3.222,12.515-10.161C10715.871,3099.957,10702.055,3101.072,10696.294,3102.249Z" transform="translate(-11713.354 -7182.117)"/>
    <path id="Path_3064" data-name="Path 3064" class="cls-9" d="M11155.314,254.1c1.115-.434,1.549-1.053,3.1-2.168l.063-10.532c0-3.036-1.115-1.859-.558-6.01.062-.62.806-9.6-1.983-5.638-2.106,2.912-.93,10.78-1.115,11.585C11153.827,245.368,11154.322,252.678,11155.314,254.1Z" transform="translate(-12143.008 -4487.803)"/>
    <path id="Path_3065" data-name="Path 3065" class="cls-9" d="M11735,555.774c5.886.991,4.274-1.921,7.931-6.939,1.857-2.54,1.239-3.779,2.6-5.514,1.115-1.425.744-.434,1.61-2.478.063-.062.063-.186.124-.248.682-1.425.93-.929,1.487-2.23-.991-2.85-3.655,0-4.274,1.053-1.178,1.859-.683.805-1.8,2.23-.929,1.115-.742,2.23-1.238,3.222-.434.743-2.169,1.549-3.779,4.709A35.2,35.2,0,0,0,11735,555.774Z" transform="translate(-12687.752 -4777.083)"/>
    <path id="Path_3066" data-name="Path 3066" class="cls-9" d="M10374.326,560.013c-1.115.558-1.055.743-.186,2.54l4.025,4.523c1.983,1.115,1.363,0,2.789,1.735,4.522,5.266,3.1,3.036,7.063,5.886.682.5,1.92,1.983,2.539.681.311-.558.063-.558-.061-1.425-.373-2.726,1.672-1.3-1.611-3.407a29.245,29.245,0,0,1-4.709-3.779c-2.168-2.107-3.283-1.363-5.08-3.469-1.549-1.8-1.053-.805-2.539-1.921C10375.564,560.57,10375.688,559.331,10374.326,560.013Z" transform="translate(-11410.592 -4798.359)"/>
    <path id="Path_3069" data-name="Path 3069" class="cls-8" d="M11160.14,2852.027c-2.416,2.292-.867,11.647,2.354,9.665C11165.468,2859.833,11163.671,2848.557,11160.14,2852.027Z" transform="translate(-12147.399 -6947.94)"/>
    <path id="Path_3070" data-name="Path 3070" class="cls-8" d="M10566.336,2841.316c-2.789,2.23-1.178,11.771,2.044,9.789C10571.354,2849.309,10569.8,2838.59,10566.336,2841.316Z" transform="translate(-11590.148 -6938.098)"/>
    <path id="Path_3077" data-name="Path 3077" class="cls-10" d="M11725.178,5324.929c-.557.992-1.92.186-3.408-.124a23.942,23.942,0,0,0-4.77-.806c.125.062.248.062.311.186s.246.124.309.186a4.473,4.473,0,0,0,.559.31l3.592,2.106c1.426,1.053,2.666,2.6,4.213,3.531-.061-1.053-.123-2.106-.246-3.16,0-.186-.125-.991-.125-1.115C11725.3,5324.682,11725.674,5325.673,11725.178,5324.929Z" transform="translate(-12670.867 -9267.383)"/>
  </g>
</svg>
