<svg xmlns="http://www.w3.org/2000/svg" viewBox="0 0 536.162 389.226">
  <defs>
    <style>
      .cls-1, .cls-2 {
        fill: #1f3291;
      }

      .cls-1 {
        stroke: #1f3291;
        stroke-width: 3.005px;
      }

      .cls-1, .cls-2, .cls-3, .cls-4, .cls-5, .cls-6, .cls-7, .cls-8 {
        fill-rule: evenodd;
      }

      .cls-3 {
        fill: #ffca7c;
      }

      .cls-4 {
        fill: #fd5e53;
      }

      .cls-5 {
        fill: #333a3d;
      }

      .cls-6 {
        fill: #ade5eb;
      }

      .cls-7 {
        fill: #96a5ad;
      }

      .cls-8 {
        fill: #fff;
      }

      .cls-9 {
        fill: #ed3237;
      }

      .cls-10 {
        fill: #373435;
      }

      .cls-11 {
        fill: #fefefe;
      }
    </style>
  </defs>
  <g id="te" transform="translate(0.092 57.238)">
    <path id="Path_3122" data-name="Path 3122" class="cls-1" d="M362,2827.418l108.581.075.224-91.595-15.939-.9c-6.885,17.211-23.8,53.8-32.926,73.336-2.469,5.164-2.769,8.456-5.538,10.252-2.245-1.272-1.871-1.721-2.993-4.415-.9-2.245-1.347-2.843-2.469-5.313l-33.225-73.56-15.341.075Z" transform="translate(-334.844 -2499.868)"/>
    <path id="Path_3124" data-name="Path 3124" class="cls-1" d="M1846.08,2854.485c30.756,1.048,22.6,2.919,42.355-14.892l30.008-28.137-3.517-4.565c-1.721-1.8-2.17-2.245-3.817-3.966l-5.612-6.136a13.107,13.107,0,0,0-2.17-2.021c-3.143,1.422-15.041,12.946-18.559,16.164-3.517,3.143-14.966,14.967-17.959,15.191-2.17-8.306.224-31.43-.6-41.906-.973-11.6-13.694-20.729-20.5-20.354C1845.407,2775.536,1844.359,2848.8,1846.08,2854.485Z" transform="translate(-1706.975 -2526.561)"/>
    <path id="Path_3125" data-name="Path 3125" class="cls-2" d="M513.064,1553.555l.3-16.313c4.714-1.272,52.233-4.34,56.423-3.817.9,3.667-.075,4.191-.674,7.633,3.592-1.646,11.3-7.633,14.892-10.851,1.8,1.5,1.122,2.17,2.469,3.816,1.2-2.769,4.191-6.885,7.034-7.408l.6,1.2c2.17,5.388-.973-3.218.524,1.272,2.619,7.932-1.048,19.307,2.395,23.348,1.422-13.32,2.17-31.953-5.837-42.8-8.98-12.048-20.354-11.9-37.566-11.9-13.021,0-26.865-1.122-36.593,12.722-3.891,5.538-5.463,11.075-5.538,19.531C511.493,1536.269,510.221,1549.738,513.064,1553.555Z" transform="translate(-472.887 -1355.166)"/>
    <path id="Path_3126" data-name="Path 3126" class="cls-3" d="M616.379,2285.327c-1.347-1.422-1.2-.9-1.2-4.939,0-1.8.075-3.068-.075-4.939l-7.184.3c-.748,4.116.748,7.633-1.646,10.851-3.068,1.646-31.729,6.286-27.314-11.3l-5.238-.224-.823,4.49c-.075,4.041.374,11.6,1.572,15.116,1.946,5.613,5.987,7.933,10.1,11,30.906,22.9,25.817,19.083,53.355.3,3.667-2.47,8.681-6.136,10.4-10.626,1.2-3.218,1.8-11.225,1.871-15.042l-1.2-5.164-3.143-.149-1.5,4.939c-2.17,9.8-12.871,7.932-19.606,8.007C620.345,2287.946,617.951,2288.47,616.379,2285.327Z" transform="translate(-529.956 -2074.291)"/>
    <path id="Path_3127" data-name="Path 3127" class="cls-1" d="M69.878,2763.7c-7.259-.524-14.817,7.483-17.361,10.851-4.565,6.211-3.367,15.191-3.367,24.246,0,17.96.748,37.416-.15,55.152l20.8-.449Z" transform="translate(-45.266 -2526.395)"/>
    <path id="Path_3129" data-name="Path 3129" class="cls-3" d="M621.913,1958.6l1.122-6.585-13.245.6c-5.837-.15-33.151,1.272-37.79,2.694l.075,13.395,4.265.449c.9-1.048.374-.224,1.048-1.646a16.265,16.265,0,0,0,.524-1.8l27.314-.3L606.5,1969l8.082-.375.9-3.143c2.619-.674,24.47-.973,27.688.3,2.245,3.517-1.422,3.741,5.837,3.143l-.15-21.926c-2.918,1.646-4.116,3.891-6.361,7.034-3.816,5.388-3.068,5.612-6.436,6.66l1.347-8.83c-5.612,2.918-11.075,9.578-15.041,10.4C621.165,1960.1,621.314,1962.116,621.913,1958.6Z" transform="translate(-529.129 -1770.836)"/>
    <path id="Path_3130" data-name="Path 3130" class="cls-4" d="M949.261,3100.227c1.123-1.347,10.327-21.4,10.851-23.348,1.572-5.463-2.469-24.77-3.068-31.729L941.4,3045c-.524,6.885-4.415,25.742-3.218,31.205C938.635,3078.076,947.839,3098.505,949.261,3100.227Z" transform="translate(-867.702 -2786.67)"/>
    <path id="Path_3131" data-name="Path 3131" class="cls-1" d="M1235,2781.675c2.021-1.048.673-.3,2.769-5.014.823-1.8,1.8-4.041,2.694-5.912,2.619-5.762,15.266-32.777,15.415-35.545-9.279-.449-7.782-.674-14.293,3.816-5.837,4.041-4.789,3.667-7.633,11.15-2.769,7.483-2.769,5.613-1.646,14.892C1232.827,2769.028,1233.5,2778.681,1235,2781.675Z" transform="translate(-1139.369 -2499.847)"/>
    <path id="Path_3132" data-name="Path 3132" class="cls-1" d="M642.878,2781.635c1.422-2.694,2.02-12.2,2.469-15.565,1.2-8.232,1.347-9.579-1.5-16.239-3.068-7.408-1.122-6.81-7.558-11.225-6.061-4.191-4.565-4.565-14.293-3.891C622.15,2736.661,641.082,2779.54,642.878,2781.635Z" transform="translate(-575.387 -2499.359)"/>
    <g id="Group_8074" data-name="Group 8074">
      <path id="Path_3123" data-name="Path 3123" class="cls-1" d="M44.116,1555.475l15.341-.075,33.225,73.56c1.122,2.47,1.571,3.068,2.469,5.313,1.122,2.694.748,3.143,2.993,4.415,2.769-1.8,3.068-5.089,5.538-10.252,9.13-19.531,26.042-56.125,32.926-73.336l15.939.9-.225,91.595-108.581-.075Zm-2.918,1.8-.075,89.8-20.8.449c.9-17.735.15-37.192.15-55.152,0-9.055-1.2-18.035,3.367-24.246C26.381,1564.755,33.939,1556.748,41.2,1557.271Zm56.947,76.254c-1.422-1.721-10.626-22.15-11.075-24.021-1.2-5.463,2.694-24.321,3.218-31.205l15.64.15c.6,6.959,4.64,26.266,3.068,31.729C108.472,1612.123,99.268,1632.179,98.145,1633.526Zm57.546,14.368c-1.721-5.687-.674-78.948-.374-90.622,6.81-.374,19.531,8.755,20.5,20.354.823,10.476-1.571,33.6.6,41.906,2.993-.225,14.443-12.048,17.96-15.191,3.517-3.218,15.415-14.742,18.558-16.164a13.108,13.108,0,0,1,2.17,2.021l5.612,6.136c1.646,1.721,2.1,2.17,3.816,3.966l3.517,4.565L198.046,1633C178.29,1650.812,186.447,1648.941,155.691,1647.894Zm85.309-56.2c-.6-2.1,3.592-9.055,8.157-7.483.673,3.293-1.272,4.266-2.769,5.762C243.768,1592.742,243.993,1593.64,241,1591.694Zm-134.623-16.089-16.014-.225a28.4,28.4,0,0,1-3.816-9.429c3.742.973,6.061,3.817,10.776,4.041,5.612.224,7.408-2.245,12.347-3.667Zm5.837,26.191c-1.5-2.993-2.17-12.647-2.694-16.613-1.122-9.279-1.122-7.408,1.646-14.891,2.844-7.483,1.8-7.109,7.633-11.15,6.51-4.49,5.014-4.266,14.293-3.816-.15,2.769-12.8,29.783-15.415,35.545-.9,1.871-1.871,4.116-2.694,5.912C112.887,1601.5,114.234,1600.749,112.214,1601.8Zm-25.667-15.116c-.449,3.367-1.048,12.871-2.469,15.565-1.8-2.1-20.728-44.974-20.878-46.92,9.728-.674,8.232-.3,14.293,3.891,6.436,4.415,4.49,3.816,7.558,11.225C87.893,1577.1,87.743,1578.449,86.546,1586.681Zm6.361-54.4.6-11.749h9.429l.075,10.476c1.571,3.143,3.966,2.619,8.381,2.619,6.735-.075,17.436,1.8,19.606-8.007l1.5-4.939,3.143.15,1.2,5.163c-.075,3.816-.673,11.824-1.871,15.041-1.721,4.49-6.735,8.157-10.4,10.626-27.538,18.783-22.45,22.6-53.355-.3-4.116-3.068-8.157-5.388-10.1-11-1.2-3.517-1.646-11.075-1.571-15.116l.823-4.49,5.238.225C61.178,1538.563,89.839,1533.924,92.907,1532.277Zm-2.17-1.946c-3.367,1.122-14.068,1.2-17.511.3-6.211-1.571-5.238-7.633-5.089-13.47l22.824.449Zm18.633-22.6c-.6,3.517-.748,1.5.449,3.667,3.966-.823,9.429-7.483,15.041-10.4l-1.347,8.831c3.367-1.048,2.619-1.272,6.436-6.66,2.245-3.143,3.442-5.388,6.361-7.034l.15,21.926c-7.259.6-3.592.374-5.837-3.143l-21.552-.075c-5.762-.075-3.742-.3-6.211,1.048,1.347,2.32-1.721,1.8,2.619,1.5,6.361-.374,17.361-2.245,23.123.075.6,3.891.374,7.633-1.422,10.626-4.265,2.694-2.469,2.918-9.5,2.918a84.424,84.424,0,0,1-11.524-.224c-2.32-1.8-1.122-8.755-1.122-11.749-1.5-1.946,2.17-1.8-2.993-1.272l-8.082.374-1.272-3.592-27.314.3a16.24,16.24,0,0,1-.524,1.8c-.673,1.422-.15.6-1.048,1.646l-4.265-.449-.075-13.395c4.64-1.422,31.953-2.844,37.79-2.694,3.293-1.646,9.8-1.2,14.068-1.5l-1.122,5.837A6.5,6.5,0,0,1,109.37,1507.732Zm-52.607,10.626c-2.844-3.816-1.571-17.286-1.571-23.572.075-8.456,1.646-13.994,5.538-19.531,9.728-13.844,23.572-12.722,36.593-12.722,17.211,0,28.586-.15,37.566,11.9,8.007,10.851,7.259,29.484,5.837,42.8-3.442-4.041.225-15.416-2.395-23.348-1.5-4.49,1.646,4.116-.524-1.272l-.6-1.2c-2.844.524-5.837,4.64-7.034,7.409-1.347-1.646-.673-2.32-2.469-3.817-3.592,3.218-11.3,9.2-14.892,10.851.6-3.442,1.571-3.966.673-7.633-4.191-.524-51.709,2.544-56.423,3.816Zm4.64-48.267c-.9,2.021-.075,1.721-2.544,2.844-3.667,6.735-5.912,9.354-6.286,18.708-1.5,39.511,3.218,24.32,4.415,33.6.9,6.885-2.1,19.007,10.252,26.266-1.347,1.048-.075.3-1.871.823-4.49,1.347-18.109-1.946-30.382,3.517-7.633,3.442-15.715,10.177-16.762,19.382L18,1649.764c14.667.973,65.777.15,84.036.15,13.769-.075,27.613,0,41.382,0,11.823,0,31.729,2.02,41.831-1.123,2.17-3.442,37.416-34.049,46.546-43.777,2.619-2.844,2.1-.225,9.279-7.034,4.64-4.415,16.987-10.4,7.633-17.212-4.116-2.993-1.347-3.143-5.912-4.789l-2.694.823-2.17-1.571c-.973,1.272-1.571,1.8-2.918,3.292-.075.075-1.422,1.721-1.422,1.721-.973,1.5.075-.6-.674,1.646l-1.8,3.592c5.538,1.5,3.367.9,4.64-.374,1.5-2.021,4.191-5.388,6.959-6.585l2.02,1.946s-5.837,11-8.755,6.211l-2.395-.524.449,2.544c1.8,1.721,4.415,2.245,5.837,6.81l-1.422,1.422c-3.816,3.816-7.633,6.735-11.374,2.395-1.946-2.32-8.681-8.905-10.252-11.6L219.3,1568.2c.6-3.667.3-3.293,3.742-3.143,1.422,2.919-.224,7.708-.3,11.225,4.415-.3.673,1.123,3.742-1.572l6.735-7.259c6.81-7.409,5.837-8.381,9.878-7.633.748,4.041-3.742,6.884-6.286,9.653-2.17,2.32-5.912,5.912-7.558,8.681-.225,2.918-.449,2.544-.075,5.687l.823-3.068c.748-2.021-.15-.9,1.721-2.395.9-.224.748-.224,1.8-1.272.15-.224,1.2-1.5,1.571-2.02,1.122-2.395-.673-.673,2.619-1.571,1.122-.3.748.224,2.544-.673l-.973-2.469c13.545-11.45,4.041-14.967.15-13.171-2.395,1.123-10.252,10.925-13.245,13.245-.075-3.367.9-6.885-2.694-8.156-3.293-1.2-5.612.524-6.361,2.993-1.122,4.041-2.17,14.817-2.769,19.307-2.918-.15-3.218.6-5.238,2.469-5.014,4.789-27.912,26.491-30.606,27.239v-28.137c.075-10.1-.224-15.715-5.912-22.15-13.021-14.817-24.1-9.279-44.076-11.6,5.089-4.714,8.83-7.109,10.4-15.041.748-4.041-.075-8.381.374-12.123.6-5.163,2.993-2.769,4.191-8.681.9-4.49.449-19.681.225-24.919-.3-7.633-2.769-14.143-6.51-18.708-9.579-11.973-18.708-13.245-36.743-13.245C78.539,1459.69,76.07,1458.642,61.4,1470.092Z" transform="translate(-16.586 -1319.969)"/>
      <path id="Path_3133" data-name="Path 3133" class="cls-5" d="M1074.944,951.578c-1.272-9.653,13.545-11.15,14.218-1.5C1089.76,959.061,1076.066,960.184,1074.944,951.578Zm-53.205-65.7c.748,9.653-11.749,6.959-6.511-1.8C1019.493,883.032,1019.268,883.406,1021.738,885.875Zm3.667,2.919c26.042-.449,9.953,17.735,23.048,26.416,11.449,7.633,33.45-7.783,32.7,18.409l-.225,7.034c-15.565,5.687-7.633,19.531.748,19.905,9.8.374,16.014-13.919,2.245-19.98-.075-9.429,1.422-16.987-5.388-22.6-9.653-7.932-26.116,3.068-32.477-9.728-3.293-6.66,4.34-22.375-20.654-21.926-2.32-2.395-2.918-5.538-7.857-5.388-9.279.225-8.531,14.069.823,13.545C1022.86,894.256,1023.235,891.113,1025.4,888.794Z" transform="translate(-935.24 -784.544)"/>
    </g>
    <path id="Path_3134" data-name="Path 3134" class="cls-1" d="M2692.211,2824.3c-.15-.149-.3-.374-.449-.449l-2.02-2.02c-5.164-3.817-4.714-7.184-2.32-8.082,1.646-2.769,5.388-6.361,7.558-8.68,2.544-2.769,7.034-5.613,6.286-9.654-4.041-.748-3.069.225-9.878,7.633l-6.735,7.259c-3.068,2.694.674,1.272-3.741,1.572.074-3.517,1.721-8.306.3-11.225-3.443-.149-3.143-.524-3.742,3.143L2675,2823.323c1.572,2.694,8.307,9.279,10.252,11.6,3.741,4.34,7.558,1.421,11.375-2.395l1.421-1.422C2696.626,2826.541,2694.007,2826.017,2692.211,2824.3Z" transform="translate(-2474.757 -2555.564)"/>
    <path id="Path_3135" data-name="Path 3135" class="cls-6" d="M708.823,2241.17l.225-12.722L686.223,2228c-.15,5.837-1.123,11.9,5.089,13.469C694.754,2242.368,705.455,2242.293,708.823,2241.17Z" transform="translate(-634.672 -2030.808)"/>
    <path id="Path_3136" data-name="Path 3136" class="cls-6" d="M1187.194,2247.171a84.479,84.479,0,0,0,11.524.225c7.034,0,5.238-.225,9.5-2.918l.9-10.477h-22.225A38.9,38.9,0,0,0,1187.194,2247.171Z" transform="translate(-1097.627 -2036.359)"/>
    <path id="Path_3137" data-name="Path 3137" class="cls-7" d="M168.664,3077.56c-10.1,3.143-30.008,1.123-41.831,1.123-13.769,0-27.613-.075-41.382,0-18.259,0-69.369.823-84.036-.15L1.639,3004c-2.1,3.667-1.871,68.7-.6,75.132,4.265,1.2,130.133.6,148.467.6C155.044,3079.805,165.147,3081.751,168.664,3077.56Z" transform="translate(0 -2748.738)"/>
    <path id="Path_3138" data-name="Path 3138" class="cls-4" d="M937.816,2889.429l16.014.224,3.292-9.279c-4.939,1.422-6.735,3.892-12.347,3.667-4.714-.224-7.034-3.068-10.776-4.041A28.4,28.4,0,0,0,937.816,2889.429Z" transform="translate(-864.04 -2634.018)"/>
    <path id="Path_3139" data-name="Path 3139" class="cls-6" d="M1868.111,1722.56c3.292-3.442,5.089-3.143,8.082.149.673,5.014-1.2,6.51-6.061,6.062l-2.17-1.721Zm-3.068,3.143c1.122,8.606,14.817,7.483,14.218-1.5C1878.587,1714.552,1863.771,1716.049,1865.043,1725.7Z" transform="translate(-1725.339 -1558.668)"/>
    <path id="Path_3140" data-name="Path 3140" class="cls-5" d="M1907.918,1753.339c4.041-1.048,4.639,3.517-.15,3.068Zm-2.769-.673-.15,4.49,2.17,1.721c4.864.449,6.735-1.048,6.061-6.061C1910.238,1749.523,1908.442,1749.224,1905.15,1752.666Z" transform="translate(-1762.378 -1588.775)"/>
    <path id="Path_3141" data-name="Path 3141" class="cls-1" d="M2928,3054.585l.225,1.571c2.918,4.79,8.755-6.211,8.755-6.211l-2.021-1.946C2932.19,3049.2,2929.5,3052.565,2928,3054.585Z" transform="translate(-2708.825 -2789.446)"/>
    <path id="Path_3142" data-name="Path 3142" class="cls-1" d="M2997.292,3128.652c2.993,1.946,2.768,1.048,5.388-1.721,1.5-1.5,3.442-2.47,2.769-5.762C3000.884,3119.6,2996.693,3126.558,2997.292,3128.652Z" transform="translate(-2772.879 -2856.928)"/>
    <path id="Path_3143" data-name="Path 3143" class="cls-1" d="M2824.54,3053.551l-.449-2.544,2.395.523-.225-1.572c-1.272,1.272.9,1.872-4.639.375l1.8-3.592c-2.32-.749-1.2.3-2.17-1.2,1.123-.973.3-.524.973-2.32-1.871,1.5-.973.374-1.721,2.395l-.823,3.068c-.374-3.143-.15-2.769.075-5.687-2.395.9-2.843,4.266,2.32,8.082l2.021,2.021C2824.241,3053.177,2824.391,3053.4,2824.54,3053.551Z" transform="translate(-2607.086 -2784.82)"/>
    <path id="Path_3144" data-name="Path 3144" class="cls-1" d="M2865.34,2988.356c-.374.524-1.422,1.8-1.571,2.021-1.047,1.048-.9,1.048-1.8,1.272-.673,1.8.149,1.347-.973,2.32.973,1.5-.15.449,2.17,1.2.748-2.245-.3-.15.673-1.646,0,0,1.347-1.646,1.422-1.721,1.347-1.5,1.946-2.02,2.919-3.292-1.5-1.646,2.245-1.2-1.347-1.2C2866.538,2988.431,2867.66,2987.982,2865.34,2988.356Z" transform="translate(-2646.839 -2733.244)"/>
    <path id="Path_3145" data-name="Path 3145" class="cls-1" d="M2919,2974.245c2.32-.374,1.2.075,1.5-1.047,3.592,0-.149-.449,1.347,1.2l2.17,1.571,2.693-.823c-.9-2.47-.449-2.021-2.544-3.143-1.8.9-1.421.374-2.543.673C2918.326,2973.571,2920.122,2971.85,2919,2974.245Z" transform="translate(-2700.498 -2719.133)"/>
    <path id="Path_3146" data-name="Path 3146" class="cls-2" d="M1077,2003.5l13.245-.6-1.123,6.585a6.5,6.5,0,0,0,.823-1.646l1.122-5.837C1086.8,2002.3,1080.292,2001.85,1077,2003.5Z" transform="translate(-996.339 -1821.72)"/>
    <path id="Path_3147" data-name="Path 3147" class="cls-6" d="M1942,1793.131c4.79.449,4.191-4.116.15-3.068Z" transform="translate(-1796.609 -1625.498)"/>
    <path id="Path_3149" data-name="Path 3149" class="cls-7" d="M564,1601.844c2.469-1.122,1.646-.823,2.544-2.844Z" transform="translate(-521.728 -1448.878)"/>
    <g id="Group_7999" data-name="Group 7999">
      <path id="Path_3121" data-name="Path 3121" class="cls-8" d="M1899.327,1016.168c-2.444,6.906-.8,41.235-6.145,49.6-6.109,9.632-22.608,39.571-24.288,47.386,0,0,27.119-22.861,43.751-39.973,8.732-8.984,18.719-12.833,22.493-18.108h0c.559-.439,2.15-.42,2.775-.842,5.05-3.464-12.445,3.594.448,3.765,31.462.363,260.006-2.038,270.545-5.673,20.312-7.27,13.884-76.642,13.884-101.359,0-25.989-5.112-67.337-5.112-93.326,0-23.989,2.033-18.323-10.339-32.5-12.218-13.812-68.293-5.175-87.23-5.175-19.244,0-192.542-1.206-203.691,1.156-20.618,4.544-19.959,16.825-19.959,41.724l1.033,119.112C1897.491,1001.58,1894.593,1002.174,1899.327,1016.168Z" transform="translate(-1687.685 -874.532)"/>
      <path id="Path_3128" data-name="Path 3128" class="cls-5" d="M1783.913,230.714c-2.722-9.313-4.391-7.015-4.391-20.078V39.13c0-16.691,1.229-30.721,13.085-33.624,6.411-1.693,260.553-.484,271.706-.484,10.89,0,23.448-1.935,30.473,7.257,7.113,9.434,7.728,26,7.728,41.969V200.477c0,16.449.176,30.6-11.416,35.438-6.059,2.419-253.352,1.21-271.442.968-7.9-.121-8.519,1.814-13.7,6.531l-55.764,50.194c.966-5.2,13.436-25.4,16.949-31.81C1770.214,256.234,1782.508,235.31,1783.913,230.714Zm-7.2-12.579c1.4,14.756,6.85,7.136-1.581,22.013l-29.419,52.734c-15.368,27.214,6.85,3.628,12.646-1.451,8.43-7.5,18.441-16.086,27.223-24.311l27.662-24.916c3.6-2.3,238.95-1.089,249.225-1.089,14.753,0,30.3,3.749,38.464-9.071,7.464-11.611,4.742-97.606,4.742-114.9,0-66.764,6.323-116.474-32.229-116.474H1822.465c-13.085,0-31-4.112-40.045,7.136-8.518,10.523-6.059,35.317-6.059,53.943C1776.361,78.8,1775.131,202.654,1776.712,218.135Z" transform="translate(-1571.429 -56.488)"/>
      <path id="Path_3744" data-name="Path 3744" class="cls-9" d="M14.634-12.363l-.688,3.4h3.779v3.018H13.374L12.246,0H9.023l1.143-5.947H7.324L6.211,0H3.062L4.146-5.947H.659V-8.965H4.717l.688-3.4H1.714v-3.062H5.947l1.128-5.962h3.208L9.155-15.425h2.9L13.2-21.387h3.149l-1.143,5.962h3.516v3.062ZM7.9-8.965h2.871l.688-3.4H8.584Zm18.721-2.373H28.11a4.976,4.976,0,0,0,3.135-.828,2.9,2.9,0,0,0,1.04-2.41,2.97,2.97,0,0,0-.872-2.358,4.084,4.084,0,0,0-2.732-.762H26.616Zm10.254-3.4a6.546,6.546,0,0,1-2.161,5.288,9.241,9.241,0,0,1-6.145,1.831H26.616V0H22.075V-21.416h6.841a9.1,9.1,0,0,1,5.925,1.677A6.116,6.116,0,0,1,36.87-14.736ZM40.913,0V-21.416h4.541V0ZM59.106,0H54.565V-17.637H48.75v-3.779H64.922v3.779H59.106ZM76.714-17.944a4.627,4.627,0,0,0-3.97,1.926,8.962,8.962,0,0,0-1.406,5.369q0,7.163,5.376,7.163a16.994,16.994,0,0,0,5.464-1.128V-.806a15.174,15.174,0,0,1-5.889,1.1q-4.673,0-7.148-2.834t-2.476-8.137a13.288,13.288,0,0,1,1.216-5.852,8.787,8.787,0,0,1,3.494-3.853,10.335,10.335,0,0,1,5.339-1.34,14.411,14.411,0,0,1,6.27,1.509l-1.465,3.691a24.248,24.248,0,0,0-2.417-1A7.21,7.21,0,0,0,76.714-17.944ZM104.282,0H99.756V-9.243H91.274V0H86.733V-21.416h4.541v8.394h8.481v-8.394h4.526Zm5.405,0V-21.416h4.541V0Zm18.193,0H123.34V-17.637h-5.815v-3.779H133.7v3.779h-5.815Z" transform="translate(302.072 -5.749)"/>
      <g id="Group_7997" data-name="Group 7997" transform="translate(232.073 22.251)">
        <path id="Path_3743" data-name="Path 3743" class="cls-10" d="M-145.865-8.6a3.4,3.4,0,0,1-1.258,2.835,5.7,5.7,0,0,1-3.6.992h-1.428V0h-1.411V-12.136h3.146Q-145.865-12.136-145.865-8.6Zm-6.284,2.615h1.27a4.72,4.72,0,0,0,2.714-.606,2.233,2.233,0,0,0,.838-1.942,2.094,2.094,0,0,0-.789-1.793,4.12,4.12,0,0,0-2.457-.589h-1.577Zm12.767-3.279a5.392,5.392,0,0,1,1.087.1l-.191,1.278a4.694,4.694,0,0,0-1-.125,2.425,2.425,0,0,0-1.888.9,3.269,3.269,0,0,0-.784,2.233V0h-1.378V-9.1h1.137l.158,1.685h.066a4,4,0,0,1,1.22-1.37A2.747,2.747,0,0,1-139.383-9.264Zm10.3,4.707A5.019,5.019,0,0,1-130.2-1.083,3.947,3.947,0,0,1-133.3.166a4.1,4.1,0,0,1-2.167-.573,3.78,3.78,0,0,1-1.461-1.644,5.728,5.728,0,0,1-.515-2.507,5.011,5.011,0,0,1,1.112-3.466,3.934,3.934,0,0,1,3.088-1.241,3.849,3.849,0,0,1,3.034,1.27A5,5,0,0,1-129.081-4.557Zm-6.931,0a4.318,4.318,0,0,0,.7,2.656,2.42,2.42,0,0,0,2.05.913A2.436,2.436,0,0,0-131.21-1.9a4.3,4.3,0,0,0,.7-2.66,4.227,4.227,0,0,0-.7-2.635,2.464,2.464,0,0,0-2.071-.9,2.425,2.425,0,0,0-2.042.888A4.274,4.274,0,0,0-136.012-4.557Zm13.58-4.69a3.382,3.382,0,0,1,2.785,1.224,5.374,5.374,0,0,1,.992,3.466,5.413,5.413,0,0,1-1,3.482A3.368,3.368,0,0,1-122.432.166a3.937,3.937,0,0,1-1.623-.328,3.052,3.052,0,0,1-1.233-1.009h-.1L-125.678,0h-.988V-12.916h1.378v3.138q0,1.054-.066,1.893h.066A3.271,3.271,0,0,1-122.432-9.247Zm-.2,1.154a2.406,2.406,0,0,0-2.034.809,4.565,4.565,0,0,0-.623,2.727,4.553,4.553,0,0,0,.639,2.743,2.431,2.431,0,0,0,2.05.826,2.125,2.125,0,0,0,1.893-.926,4.757,4.757,0,0,0,.623-2.66,4.572,4.572,0,0,0-.623-2.648A2.206,2.206,0,0,0-122.632-8.093ZM-114.87,0h-1.378V-12.916h1.378Zm6.765.166a4.18,4.18,0,0,1-3.183-1.229,4.756,4.756,0,0,1-1.166-3.412,5.274,5.274,0,0,1,1.083-3.495,3.6,3.6,0,0,1,2.909-1.295,3.431,3.431,0,0,1,2.706,1.125,4.311,4.311,0,0,1,1,2.968V-4.3h-6.267a3.606,3.606,0,0,0,.809,2.432,2.8,2.8,0,0,0,2.162.83,7.328,7.328,0,0,0,2.905-.614V-.423a7.292,7.292,0,0,1-1.382.452A7.767,7.767,0,0,1-108.105.166Zm-.374-8.276a2.25,2.25,0,0,0-1.747.714,3.291,3.291,0,0,0-.768,1.976h4.756a3.03,3.03,0,0,0-.581-2A2.045,2.045,0,0,0-108.479-8.11ZM-90.815,0V-5.918A2.457,2.457,0,0,0-91.28-7.55a1.8,1.8,0,0,0-1.444-.544,2.332,2.332,0,0,0-1.9.739,3.511,3.511,0,0,0-.614,2.274V0h-1.378V-5.918a2.457,2.457,0,0,0-.465-1.631,1.809,1.809,0,0,0-1.453-.544,2.25,2.25,0,0,0-1.9.776,4.2,4.2,0,0,0-.6,2.544V0h-1.378V-9.1h1.121l.224,1.245H-101A2.708,2.708,0,0,1-99.9-8.89a3.36,3.36,0,0,1,1.59-.374A2.7,2.7,0,0,1-95.521-7.72h.066a2.9,2.9,0,0,1,1.179-1.129,3.657,3.657,0,0,1,1.76-.415,3.081,3.081,0,0,1,2.312.793,3.546,3.546,0,0,1,.768,2.536V0Zm5.661-1.976.125.191q-.216.83-.623,1.93T-86.5,2.191h-1.038q.224-.863.494-2.133t.378-2.034Zm14.194-1.253a2.977,2.977,0,0,1-1.162,2.5,5.039,5.039,0,0,1-3.154.9A7.9,7.9,0,0,1-78.6-.39V-1.751a8.742,8.742,0,0,0,1.627.5,8.56,8.56,0,0,0,1.743.183A3.517,3.517,0,0,0-73.1-1.606a1.757,1.757,0,0,0,.714-1.49A1.913,1.913,0,0,0-72.64-4.13a2.352,2.352,0,0,0-.847-.743,11.845,11.845,0,0,0-1.805-.772,5.763,5.763,0,0,1-2.42-1.436,3.17,3.17,0,0,1-.726-2.167,2.694,2.694,0,0,1,1.054-2.233,4.381,4.381,0,0,1,2.789-.83,8.22,8.22,0,0,1,3.329.664l-.44,1.229a7.522,7.522,0,0,0-2.922-.631,2.828,2.828,0,0,0-1.751.481A1.587,1.587,0,0,0-77.01-9.23,2.048,2.048,0,0,0-76.778-8.2a2.188,2.188,0,0,0,.784.739,9.746,9.746,0,0,0,1.689.743,6.688,6.688,0,0,1,2.627,1.461A2.873,2.873,0,0,1-70.959-3.229Zm10.127-1.328a5.019,5.019,0,0,1-1.121,3.474,3.947,3.947,0,0,1-3.1,1.249,4.1,4.1,0,0,1-2.167-.573A3.78,3.78,0,0,1-68.677-2.05a5.728,5.728,0,0,1-.515-2.507,5.011,5.011,0,0,1,1.112-3.466,3.934,3.934,0,0,1,3.088-1.241,3.849,3.849,0,0,1,3.034,1.27A5,5,0,0,1-60.832-4.557Zm-6.931,0a4.318,4.318,0,0,0,.7,2.656,2.42,2.42,0,0,0,2.05.913A2.436,2.436,0,0,0-62.961-1.9a4.3,4.3,0,0,0,.7-2.66,4.227,4.227,0,0,0-.7-2.635,2.464,2.464,0,0,0-2.071-.9,2.425,2.425,0,0,0-2.042.888A4.274,4.274,0,0,0-67.763-4.557ZM-57.039,0h-1.378V-12.916h1.378Zm4.217-9.1v5.9a2.374,2.374,0,0,0,.506,1.66,2.063,2.063,0,0,0,1.585.548,2.587,2.587,0,0,0,2.088-.78,3.936,3.936,0,0,0,.66-2.548V-9.1H-46.6V0h-1.137l-.2-1.22h-.075A2.746,2.746,0,0,1-49.19-.191,3.948,3.948,0,0,1-50.9.166a3.478,3.478,0,0,1-2.486-.789,3.357,3.357,0,0,1-.826-2.523V-9.1ZM-40.744-.971a4.5,4.5,0,0,0,.706-.054,4.567,4.567,0,0,0,.54-.112V-.083a2.519,2.519,0,0,1-.66.178,4.956,4.956,0,0,1-.784.071q-2.64,0-2.64-2.781V-8.027h-1.3v-.664l1.3-.573L-43-11.206h.8V-9.1h2.64v1.071h-2.64v5.354a1.842,1.842,0,0,0,.39,1.262A1.358,1.358,0,0,0-40.744-.971ZM-36.3,0h-1.378V-9.1H-36.3ZM-37.8-11.563a.915.915,0,0,1,.232-.693.812.812,0,0,1,.581-.22.812.812,0,0,1,.573.224.9.9,0,0,1,.241.689.913.913,0,0,1-.241.693.8.8,0,0,1-.573.228.8.8,0,0,1-.581-.228A.932.932,0,0,1-37.8-11.563Zm12.269,7.006A5.019,5.019,0,0,1-26.65-1.083a3.947,3.947,0,0,1-3.1,1.249,4.1,4.1,0,0,1-2.167-.573A3.78,3.78,0,0,1-33.373-2.05a5.728,5.728,0,0,1-.515-2.507,5.011,5.011,0,0,1,1.112-3.466,3.934,3.934,0,0,1,3.088-1.241,3.849,3.849,0,0,1,3.034,1.27A5,5,0,0,1-25.529-4.557Zm-6.931,0a4.318,4.318,0,0,0,.7,2.656,2.42,2.42,0,0,0,2.05.913A2.436,2.436,0,0,0-27.658-1.9a4.3,4.3,0,0,0,.7-2.66,4.227,4.227,0,0,0-.7-2.635,2.464,2.464,0,0,0-2.071-.9,2.425,2.425,0,0,0-2.042.888A4.274,4.274,0,0,0-32.46-4.557ZM-16.888,0V-5.885a2.374,2.374,0,0,0-.506-1.66,2.063,2.063,0,0,0-1.585-.548,2.615,2.615,0,0,0-2.092.772,3.9,3.9,0,0,0-.664,2.548V0h-1.378V-9.1h1.121l.224,1.245h.066a2.814,2.814,0,0,1,1.187-1.042,3.857,3.857,0,0,1,1.7-.369,3.456,3.456,0,0,1,2.474.793,3.374,3.374,0,0,1,.83,2.536V0Zm5.653-1.976.125.191q-.216.83-.623,1.93t-.847,2.046h-1.038q.224-.863.494-2.133t.378-2.034ZM1.482,0-2.635-10.758H-2.7q.116,1.278.116,3.038V0h-1.3V-12.136h2.125L2.079-2.125h.066L6.022-12.136H8.131V0H6.719V-7.819q0-1.345.116-2.922H6.769L2.619,0ZM16.846,0l-.274-1.295h-.066A3.828,3.828,0,0,1,15.149-.137a4.137,4.137,0,0,1-1.689.3,3.039,3.039,0,0,1-2.121-.7,2.543,2.543,0,0,1-.768-1.984q0-2.756,4.408-2.889l1.544-.05v-.564A2.307,2.307,0,0,0,16.062-7.6a1.9,1.9,0,0,0-1.473-.51,6,6,0,0,0-2.573.7l-.423-1.054a6.475,6.475,0,0,1,1.473-.573,6.381,6.381,0,0,1,1.606-.208,3.465,3.465,0,0,1,2.411.722,3.014,3.014,0,0,1,.784,2.316V0ZM13.734-.971a2.8,2.8,0,0,0,2.021-.706,2.61,2.61,0,0,0,.735-1.976v-.822l-1.378.058a5.012,5.012,0,0,0-2.37.51A1.539,1.539,0,0,0,12.015-2.5a1.42,1.42,0,0,0,.452,1.137A1.878,1.878,0,0,0,13.734-.971ZM24.857-9.264a5.392,5.392,0,0,1,1.087.1l-.191,1.278a4.694,4.694,0,0,0-1-.125,2.425,2.425,0,0,0-1.888.9,3.269,3.269,0,0,0-.784,2.233V0H20.706V-9.1h1.137L22-7.413h.066a4,4,0,0,1,1.22-1.37A2.747,2.747,0,0,1,24.857-9.264Zm4.15,4.607a16.2,16.2,0,0,1,1.087-1.328L33.033-9.1h1.635L30.983-5.221,34.926,0H33.257L30.045-4.3l-1.038.9V0H27.646V-12.916h1.361v6.848q0,.457-.066,1.411ZM40.072.166a4.18,4.18,0,0,1-3.183-1.229,4.756,4.756,0,0,1-1.166-3.412,5.274,5.274,0,0,1,1.083-3.495,3.6,3.6,0,0,1,2.909-1.295,3.431,3.431,0,0,1,2.706,1.125,4.311,4.311,0,0,1,1,2.968V-4.3H37.15a3.606,3.606,0,0,0,.809,2.432,2.8,2.8,0,0,0,2.162.83,7.328,7.328,0,0,0,2.905-.614V-.423a7.292,7.292,0,0,1-1.382.452A7.767,7.767,0,0,1,40.072.166ZM39.7-8.11a2.25,2.25,0,0,0-1.747.714,3.291,3.291,0,0,0-.768,1.976H41.94a3.03,3.03,0,0,0-.581-2A2.045,2.045,0,0,0,39.7-8.11ZM48.7-.971a4.5,4.5,0,0,0,.706-.054,4.567,4.567,0,0,0,.54-.112V-.083A2.519,2.519,0,0,1,49.29.1a4.956,4.956,0,0,1-.784.071q-2.64,0-2.64-2.781V-8.027h-1.3v-.664l1.3-.573.581-1.942h.8V-9.1h2.64v1.071h-2.64v5.354a1.842,1.842,0,0,0,.39,1.262A1.358,1.358,0,0,0,48.7-.971Zm18.22-5.113A6.681,6.681,0,0,1,65.452-1.5a5.18,5.18,0,0,1-4.1,1.668,5.245,5.245,0,0,1-4.138-1.639A6.735,6.735,0,0,1,55.76-6.1,6.651,6.651,0,0,1,57.221-10.7a5.283,5.283,0,0,1,4.15-1.631,5.17,5.17,0,0,1,4.084,1.66A6.674,6.674,0,0,1,66.925-6.084Zm-9.67,0a5.76,5.76,0,0,0,1.05,3.74,3.726,3.726,0,0,0,3.051,1.274A3.69,3.69,0,0,0,64.4-2.341a5.84,5.84,0,0,0,1.029-3.744A5.793,5.793,0,0,0,64.406-9.8a3.674,3.674,0,0,0-3.034-1.266A3.745,3.745,0,0,0,58.3-9.791,5.7,5.7,0,0,0,57.255-6.084Zm16.4,6.25a3.937,3.937,0,0,1-1.623-.328A3.052,3.052,0,0,1,70.8-1.17h-.1A12.2,12.2,0,0,1,70.8.34V4.084H69.424V-9.1h1.121l.191,1.245H70.8a3.2,3.2,0,0,1,1.237-1.079,3.76,3.76,0,0,1,1.619-.332A3.362,3.362,0,0,1,76.45-8.027a5.445,5.445,0,0,1,.984,3.47,5.413,5.413,0,0,1-1,3.482A3.368,3.368,0,0,1,73.657.166Zm-.2-8.259a2.442,2.442,0,0,0-2.017.772A3.972,3.972,0,0,0,70.8-4.864v.307a4.553,4.553,0,0,0,.639,2.743,2.431,2.431,0,0,0,2.05.826,2.132,2.132,0,0,0,1.847-.955,4.527,4.527,0,0,0,.668-2.631,4.357,4.357,0,0,0-.668-2.611A2.2,2.2,0,0,0,73.458-8.093ZM84.074.166a3.937,3.937,0,0,1-1.623-.328A3.052,3.052,0,0,1,81.219-1.17h-.1a12.2,12.2,0,0,1,.1,1.511V4.084H79.841V-9.1h1.121l.191,1.245h.066a3.2,3.2,0,0,1,1.237-1.079,3.76,3.76,0,0,1,1.619-.332,3.362,3.362,0,0,1,2.793,1.237,5.445,5.445,0,0,1,.984,3.47,5.413,5.413,0,0,1-1,3.482A3.368,3.368,0,0,1,84.074.166Zm-.2-8.259a2.442,2.442,0,0,0-2.017.772,3.972,3.972,0,0,0-.639,2.457v.307a4.553,4.553,0,0,0,.639,2.743,2.431,2.431,0,0,0,2.05.826,2.132,2.132,0,0,0,1.847-.955,4.527,4.527,0,0,0,.668-2.631,4.357,4.357,0,0,0-.668-2.611A2.2,2.2,0,0,0,83.875-8.093ZM98.111-4.557A5.019,5.019,0,0,1,96.99-1.083a3.947,3.947,0,0,1-3.1,1.249,4.1,4.1,0,0,1-2.167-.573A3.78,3.78,0,0,1,90.267-2.05a5.728,5.728,0,0,1-.515-2.507,5.011,5.011,0,0,1,1.112-3.466,3.934,3.934,0,0,1,3.088-1.241,3.849,3.849,0,0,1,3.034,1.27A5,5,0,0,1,98.111-4.557Zm-6.931,0a4.318,4.318,0,0,0,.7,2.656,2.42,2.42,0,0,0,2.05.913A2.436,2.436,0,0,0,95.982-1.9a4.3,4.3,0,0,0,.7-2.66,4.227,4.227,0,0,0-.7-2.635,2.464,2.464,0,0,0-2.071-.9,2.425,2.425,0,0,0-2.042.888A4.274,4.274,0,0,0,91.18-4.557Zm13.5-4.707a5.392,5.392,0,0,1,1.087.1l-.191,1.278a4.694,4.694,0,0,0-1-.125,2.425,2.425,0,0,0-1.888.9,3.269,3.269,0,0,0-.784,2.233V0h-1.378V-9.1h1.137l.158,1.685h.066a4,4,0,0,1,1.22-1.37A2.747,2.747,0,0,1,104.677-9.264ZM110.4-.971a4.5,4.5,0,0,0,.706-.054,4.567,4.567,0,0,0,.54-.112V-.083a2.519,2.519,0,0,1-.66.178,4.956,4.956,0,0,1-.784.071q-2.64,0-2.64-2.781V-8.027h-1.3v-.664l1.3-.573.581-1.942h.8V-9.1h2.64v1.071h-2.64v5.354a1.842,1.842,0,0,0,.39,1.262A1.358,1.358,0,0,0,110.4-.971ZM114.762-9.1v5.9a2.374,2.374,0,0,0,.506,1.66,2.063,2.063,0,0,0,1.585.548,2.587,2.587,0,0,0,2.088-.78,3.936,3.936,0,0,0,.66-2.548V-9.1h1.378V0h-1.137l-.2-1.22h-.075a2.746,2.746,0,0,1-1.175,1.029,3.948,3.948,0,0,1-1.714.357,3.478,3.478,0,0,1-2.486-.789,3.357,3.357,0,0,1-.826-2.523V-9.1ZM130.127,0V-5.885a2.374,2.374,0,0,0-.506-1.66,2.063,2.063,0,0,0-1.585-.548,2.615,2.615,0,0,0-2.092.772,3.9,3.9,0,0,0-.664,2.548V0H123.9V-9.1h1.121l.224,1.245h.066A2.814,2.814,0,0,1,126.5-8.894a3.857,3.857,0,0,1,1.7-.369,3.456,3.456,0,0,1,2.474.793,3.374,3.374,0,0,1,.83,2.536V0Zm5.586,0h-1.378V-9.1h1.378Zm-1.494-11.563a.915.915,0,0,1,.232-.693.812.812,0,0,1,.581-.22.812.812,0,0,1,.573.224.9.9,0,0,1,.241.689.913.913,0,0,1-.241.693.8.8,0,0,1-.573.228.8.8,0,0,1-.581-.228A.932.932,0,0,1,134.219-11.563ZM141.574-.971a4.5,4.5,0,0,0,.706-.054,4.567,4.567,0,0,0,.54-.112V-.083a2.519,2.519,0,0,1-.66.178,4.956,4.956,0,0,1-.784.071q-2.64,0-2.64-2.781V-8.027h-1.3v-.664l1.3-.573.581-1.942h.8V-9.1h2.64v1.071h-2.64v5.354a1.842,1.842,0,0,0,.39,1.262A1.358,1.358,0,0,0,141.574-.971ZM143.193-9.1h1.478l1.992,5.188a19.733,19.733,0,0,1,.813,2.565h.066q.108-.423.452-1.448t2.254-6.3h1.478l-3.91,10.359a5.168,5.168,0,0,1-1.357,2.179,2.886,2.886,0,0,1-1.905.643,5.543,5.543,0,0,1-1.245-.141v-1.1a4.8,4.8,0,0,0,1.021.1,2.1,2.1,0,0,0,2.025-1.594L146.862.05Zm10.774,7.122.125.191q-.216.83-.623,1.93t-.847,2.046h-1.038q.224-.863.494-2.133t.378-2.034ZM-144.712,11.952a3.968,3.968,0,0,0-3.158,1.332,5.374,5.374,0,0,0-1.158,3.648,5.481,5.481,0,0,0,1.116,3.681,3.969,3.969,0,0,0,3.183,1.3,10.869,10.869,0,0,0,2.9-.457v1.237a8.921,8.921,0,0,1-3.113.473,5.266,5.266,0,0,1-4.138-1.627,6.7,6.7,0,0,1-1.457-4.624,7.3,7.3,0,0,1,.7-3.287,5.036,5.036,0,0,1,2.025-2.175,6.13,6.13,0,0,1,3.117-.764,7.521,7.521,0,0,1,3.337.7l-.6,1.212A6.432,6.432,0,0,0-144.712,11.952Zm13.173,6.491a5.019,5.019,0,0,1-1.121,3.474,3.947,3.947,0,0,1-3.1,1.249,4.1,4.1,0,0,1-2.167-.573,3.78,3.78,0,0,1-1.461-1.644,5.728,5.728,0,0,1-.515-2.507,5.011,5.011,0,0,1,1.112-3.466,3.934,3.934,0,0,1,3.088-1.241,3.849,3.849,0,0,1,3.034,1.27A5,5,0,0,1-131.538,18.443Zm-6.931,0a4.318,4.318,0,0,0,.7,2.656,2.42,2.42,0,0,0,2.05.913,2.436,2.436,0,0,0,2.054-.909,4.3,4.3,0,0,0,.7-2.66,4.227,4.227,0,0,0-.7-2.635,2.464,2.464,0,0,0-2.071-.9,2.425,2.425,0,0,0-2.042.888A4.274,4.274,0,0,0-138.469,18.443ZM-117.527,23V17.082a2.457,2.457,0,0,0-.465-1.631,1.8,1.8,0,0,0-1.444-.544,2.332,2.332,0,0,0-1.9.739,3.511,3.511,0,0,0-.614,2.274V23h-1.378V17.082a2.457,2.457,0,0,0-.465-1.631,1.809,1.809,0,0,0-1.453-.544,2.25,2.25,0,0,0-1.9.776,4.2,4.2,0,0,0-.6,2.544V23h-1.378V13.9H-128l.224,1.245h.066a2.708,2.708,0,0,1,1.1-1.038,3.36,3.36,0,0,1,1.59-.374,2.7,2.7,0,0,1,2.789,1.544h.066a2.9,2.9,0,0,1,1.179-1.129,3.657,3.657,0,0,1,1.76-.415,3.081,3.081,0,0,1,2.312.793,3.546,3.546,0,0,1,.768,2.536V23Zm8.45.166a3.937,3.937,0,0,1-1.623-.328,3.052,3.052,0,0,1-1.233-1.009h-.1a12.2,12.2,0,0,1,.1,1.511v3.744h-1.378V13.9h1.121l.191,1.245h.066a3.2,3.2,0,0,1,1.237-1.079,3.76,3.76,0,0,1,1.619-.332,3.362,3.362,0,0,1,2.793,1.237,5.445,5.445,0,0,1,.984,3.47,5.413,5.413,0,0,1-1,3.482A3.368,3.368,0,0,1-109.076,23.166Zm-.2-8.259a2.442,2.442,0,0,0-2.017.772,3.972,3.972,0,0,0-.639,2.457v.307a4.553,4.553,0,0,0,.639,2.743,2.431,2.431,0,0,0,2.05.826,2.132,2.132,0,0,0,1.847-.955,4.527,4.527,0,0,0,.668-2.631,4.357,4.357,0,0,0-.668-2.611A2.2,2.2,0,0,0-109.276,14.907Zm10.227,8.259a4.18,4.18,0,0,1-3.183-1.229,4.756,4.756,0,0,1-1.166-3.412,5.274,5.274,0,0,1,1.083-3.495,3.6,3.6,0,0,1,2.909-1.295A3.431,3.431,0,0,1-96.7,14.861a4.311,4.311,0,0,1,1,2.968V18.7h-6.267a3.606,3.606,0,0,0,.809,2.432,2.8,2.8,0,0,0,2.162.83,7.328,7.328,0,0,0,2.905-.614v1.229a7.292,7.292,0,0,1-1.382.452A7.767,7.767,0,0,1-99.049,23.166Zm-.374-8.276a2.25,2.25,0,0,0-1.747.714,3.291,3.291,0,0,0-.768,1.976h4.756a3.03,3.03,0,0,0-.581-2A2.045,2.045,0,0,0-99.423,14.89Zm9.006,7.139a4.5,4.5,0,0,0,.706-.054,4.567,4.567,0,0,0,.54-.112v1.054a2.519,2.519,0,0,1-.66.178,4.956,4.956,0,0,1-.784.071q-2.64,0-2.64-2.781V14.973h-1.3v-.664l1.3-.573.581-1.942h.8V13.9h2.64v1.071h-2.64v5.354a1.842,1.842,0,0,0,.39,1.262A1.358,1.358,0,0,0-90.416,22.029Zm4.441.971h-1.378V13.9h1.378Zm-1.494-11.563a.915.915,0,0,1,.232-.693.812.812,0,0,1,.581-.22.812.812,0,0,1,.573.224.9.9,0,0,1,.241.689.913.913,0,0,1-.241.693.8.8,0,0,1-.573.228.8.8,0,0,1-.581-.228A.932.932,0,0,1-87.469,11.437Zm7.354,10.592a4.5,4.5,0,0,0,.706-.054,4.567,4.567,0,0,0,.54-.112v1.054a2.519,2.519,0,0,1-.66.178,4.956,4.956,0,0,1-.784.071q-2.64,0-2.64-2.781V14.973h-1.3v-.664l1.3-.573.581-1.942h.8V13.9h2.64v1.071h-2.64v5.354a1.842,1.842,0,0,0,.39,1.262A1.358,1.358,0,0,0-80.115,22.029Zm4.441.971h-1.378V13.9h1.378Zm-1.494-11.563a.915.915,0,0,1,.232-.693.812.812,0,0,1,.581-.22.812.812,0,0,1,.573.224.9.9,0,0,1,.241.689.913.913,0,0,1-.241.693.8.8,0,0,1-.573.228.8.8,0,0,1-.581-.228A.932.932,0,0,1-77.168,11.437ZM-70.76,23l-3.453-9.1h1.478l1.959,5.4A25.538,25.538,0,0,1-70,21.755h.066a18.559,18.559,0,0,1,.577-1.822q.486-1.382,2.179-6.031H-65.7L-69.15,23Zm10.368.166a4.18,4.18,0,0,1-3.183-1.229,4.756,4.756,0,0,1-1.166-3.412,5.274,5.274,0,0,1,1.083-3.495,3.6,3.6,0,0,1,2.909-1.295,3.431,3.431,0,0,1,2.706,1.125,4.311,4.311,0,0,1,1,2.968V18.7h-6.267a3.606,3.606,0,0,0,.809,2.432,2.8,2.8,0,0,0,2.162.83,7.328,7.328,0,0,0,2.905-.614v1.229a7.292,7.292,0,0,1-1.382.452A7.767,7.767,0,0,1-60.392,23.166Zm-.374-8.276a2.25,2.25,0,0,0-1.747.714,3.291,3.291,0,0,0-.768,1.976h4.756a3.03,3.03,0,0,0-.581-2A2.045,2.045,0,0,0-60.766,14.89ZM-50.074,23V10.864h1.411V21.722h5.354V23Zm14.211,0-.274-1.295H-36.2a3.828,3.828,0,0,1-1.357,1.158,4.137,4.137,0,0,1-1.689.3,3.039,3.039,0,0,1-2.121-.7,2.543,2.543,0,0,1-.768-1.984q0-2.756,4.408-2.889l1.544-.05v-.564a2.307,2.307,0,0,0-.461-1.581,1.9,1.9,0,0,0-1.473-.51,6,6,0,0,0-2.573.7l-.423-1.054a6.475,6.475,0,0,1,1.473-.573,6.381,6.381,0,0,1,1.606-.208,3.465,3.465,0,0,1,2.411.722,3.014,3.014,0,0,1,.784,2.316V23Zm-3.113-.971a2.8,2.8,0,0,0,2.021-.706,2.61,2.61,0,0,0,.735-1.976v-.822l-1.378.058a5.012,5.012,0,0,0-2.37.51,1.539,1.539,0,0,0-.726,1.407,1.42,1.42,0,0,0,.452,1.137A1.878,1.878,0,0,0-38.976,22.029Zm13.2.971V17.115a2.374,2.374,0,0,0-.506-1.66,2.063,2.063,0,0,0-1.585-.548,2.615,2.615,0,0,0-2.092.772,3.9,3.9,0,0,0-.664,2.548V23H-32V13.9h1.121l.224,1.245h.066a2.814,2.814,0,0,1,1.187-1.042,3.857,3.857,0,0,1,1.7-.369,3.456,3.456,0,0,1,2.474.793,3.374,3.374,0,0,1,.83,2.536V23Zm10.4-1.22h-.075a3.238,3.238,0,0,1-2.855,1.386,3.378,3.378,0,0,1-2.777-1.22,5.371,5.371,0,0,1-.992-3.47,5.462,5.462,0,0,1,1-3.495,3.352,3.352,0,0,1,2.772-1.245,3.308,3.308,0,0,1,2.839,1.345h.108l-.058-.656-.033-.639v-3.7h1.378V23h-1.121Zm-2.756.232a2.509,2.509,0,0,0,2.046-.768,3.88,3.88,0,0,0,.635-2.478v-.291a4.565,4.565,0,0,0-.643-2.76,2.443,2.443,0,0,0-2.054-.826A2.109,2.109,0,0,0-20,15.832a4.685,4.685,0,0,0-.643,2.66,4.491,4.491,0,0,0,.639,2.631A2.165,2.165,0,0,0-18.133,22.012Zm12.85-1.494a2.279,2.279,0,0,1-.946,1.959,4.448,4.448,0,0,1-2.656.689,5.776,5.776,0,0,1-2.822-.573V21.315a6.825,6.825,0,0,0,1.407.523,5.875,5.875,0,0,0,1.448.191,3.285,3.285,0,0,0,1.66-.344,1.139,1.139,0,0,0,.581-1.05,1.14,1.14,0,0,0-.461-.909,7.247,7.247,0,0,0-1.8-.892,9.745,9.745,0,0,1-1.805-.826,2.466,2.466,0,0,1-.8-.8,2.089,2.089,0,0,1-.261-1.071,2.041,2.041,0,0,1,.9-1.756,4.216,4.216,0,0,1,2.482-.643,7.262,7.262,0,0,1,2.872.6l-.49,1.121a6.593,6.593,0,0,0-2.482-.564,2.855,2.855,0,0,0-1.478.307.95.95,0,0,0-.5.847,1.031,1.031,0,0,0,.187.623,1.843,1.843,0,0,0,.6.49,13.449,13.449,0,0,0,1.594.672,5.954,5.954,0,0,1,2.187,1.187A2.093,2.093,0,0,1-5.283,20.518ZM.594,23.166A3.883,3.883,0,0,1-2.465,21.95a5,5,0,0,1-1.083-3.441,5.157,5.157,0,0,1,1.1-3.528A3.96,3.96,0,0,1,.685,13.736,6.218,6.218,0,0,1,2,13.877a4.32,4.32,0,0,1,1.029.332L2.6,15.38a6.479,6.479,0,0,0-1-.3,4.447,4.447,0,0,0-.955-.12q-2.772,0-2.772,3.536a4.211,4.211,0,0,0,.677,2.573,2.354,2.354,0,0,0,2,.9,6.129,6.129,0,0,0,2.333-.49v1.22A4.971,4.971,0,0,1,.594,23.166ZM10.646,23l-.274-1.295h-.066a3.828,3.828,0,0,1-1.357,1.158,4.137,4.137,0,0,1-1.689.3,3.039,3.039,0,0,1-2.121-.7,2.543,2.543,0,0,1-.768-1.984q0-2.756,4.408-2.889l1.544-.05v-.564A2.307,2.307,0,0,0,9.861,15.4a1.9,1.9,0,0,0-1.473-.51,6,6,0,0,0-2.573.7l-.423-1.054a6.475,6.475,0,0,1,1.473-.573,6.381,6.381,0,0,1,1.606-.208,3.465,3.465,0,0,1,2.411.722,3.014,3.014,0,0,1,.784,2.316V23Zm-3.113-.971a2.8,2.8,0,0,0,2.021-.706,2.61,2.61,0,0,0,.735-1.976v-.822l-1.378.058a5.012,5.012,0,0,0-2.37.51A1.539,1.539,0,0,0,5.815,20.5a1.42,1.42,0,0,0,.452,1.137A1.878,1.878,0,0,0,7.533,22.029Zm11.206,1.137a3.937,3.937,0,0,1-1.623-.328,3.052,3.052,0,0,1-1.233-1.009h-.1a12.2,12.2,0,0,1,.1,1.511v3.744H14.506V13.9h1.121l.191,1.245h.066a3.2,3.2,0,0,1,1.237-1.079,3.76,3.76,0,0,1,1.619-.332,3.362,3.362,0,0,1,2.793,1.237,5.445,5.445,0,0,1,.984,3.47,5.413,5.413,0,0,1-1,3.482A3.368,3.368,0,0,1,18.739,23.166Zm-.2-8.259a2.442,2.442,0,0,0-2.017.772,3.972,3.972,0,0,0-.639,2.457v.307a4.553,4.553,0,0,0,.639,2.743,2.431,2.431,0,0,0,2.05.826,2.132,2.132,0,0,0,1.847-.955,4.527,4.527,0,0,0,.668-2.631,4.357,4.357,0,0,0-.668-2.611A2.2,2.2,0,0,0,18.54,14.907Zm10.227,8.259a4.18,4.18,0,0,1-3.183-1.229,4.756,4.756,0,0,1-1.166-3.412A5.274,5.274,0,0,1,25.5,15.031a3.6,3.6,0,0,1,2.909-1.295,3.431,3.431,0,0,1,2.706,1.125,4.311,4.311,0,0,1,1,2.968V18.7H25.844a3.606,3.606,0,0,0,.809,2.432,2.8,2.8,0,0,0,2.162.83,7.328,7.328,0,0,0,2.905-.614v1.229a7.292,7.292,0,0,1-1.382.452A7.767,7.767,0,0,1,28.766,23.166Zm-.374-8.276a2.25,2.25,0,0,0-1.747.714,3.291,3.291,0,0,0-.768,1.976h4.756a3.03,3.03,0,0,0-.581-2A2.045,2.045,0,0,0,28.393,14.89Zm7.512,6.134.125.191q-.216.83-.623,1.93t-.847,2.046H33.523q.224-.863.494-2.133t.378-2.034Zm12.684-4.383h4.125v5.9a13.263,13.263,0,0,1-1.959.465,14.914,14.914,0,0,1-2.308.158,5.593,5.593,0,0,1-4.292-1.639,6.461,6.461,0,0,1-1.536-4.594,6.942,6.942,0,0,1,.76-3.316,5.137,5.137,0,0,1,2.187-2.175,7.085,7.085,0,0,1,3.345-.751,9.142,9.142,0,0,1,3.619.714l-.548,1.245a8.085,8.085,0,0,0-3.163-.7,4.529,4.529,0,0,0-3.461,1.32,5.122,5.122,0,0,0-1.245,3.661,5.235,5.235,0,0,0,1.2,3.727,4.619,4.619,0,0,0,3.524,1.27,10.469,10.469,0,0,0,2.465-.291V17.9H48.589Zm14.684,1.8a5.019,5.019,0,0,1-1.121,3.474,3.947,3.947,0,0,1-3.1,1.249,4.1,4.1,0,0,1-2.167-.573,3.78,3.78,0,0,1-1.461-1.644,5.728,5.728,0,0,1-.515-2.507,5.011,5.011,0,0,1,1.112-3.466,3.934,3.934,0,0,1,3.088-1.241,3.849,3.849,0,0,1,3.034,1.27A5,5,0,0,1,63.273,18.443Zm-6.931,0a4.318,4.318,0,0,0,.7,2.656,2.767,2.767,0,0,0,4.1,0,4.3,4.3,0,0,0,.7-2.66,4.227,4.227,0,0,0-.7-2.635,2.464,2.464,0,0,0-2.071-.9,2.425,2.425,0,0,0-2.042.888A4.274,4.274,0,0,0,56.342,18.443ZM74.047,23H72.636V12.118H68.793V10.864h9.1v1.253H74.047Zm12.127-4.557a5.019,5.019,0,0,1-1.121,3.474,3.947,3.947,0,0,1-3.1,1.249,4.1,4.1,0,0,1-2.167-.573A3.78,3.78,0,0,1,78.33,20.95a5.728,5.728,0,0,1-.515-2.507,5.011,5.011,0,0,1,1.112-3.466,3.934,3.934,0,0,1,3.088-1.241,3.849,3.849,0,0,1,3.034,1.27A5,5,0,0,1,86.175,18.443Zm-6.931,0a4.318,4.318,0,0,0,.7,2.656,2.767,2.767,0,0,0,4.1,0,4.3,4.3,0,0,0,.7-2.66,4.227,4.227,0,0,0-.7-2.635,2.464,2.464,0,0,0-2.071-.9,2.425,2.425,0,0,0-2.042.888A4.274,4.274,0,0,0,79.243,18.443ZM98.584,23,94.467,12.242H94.4q.116,1.278.116,3.038V23h-1.3V10.864h2.125l3.843,10.011h.066l3.876-10.011h2.108V23h-1.411V15.181q0-1.345.116-2.922h-.066L99.721,23Zm15.365,0-.274-1.295h-.066a3.828,3.828,0,0,1-1.357,1.158,4.137,4.137,0,0,1-1.689.3,3.039,3.039,0,0,1-2.121-.7,2.543,2.543,0,0,1-.768-1.984q0-2.756,4.408-2.889l1.544-.05v-.564a2.307,2.307,0,0,0-.461-1.581,1.9,1.9,0,0,0-1.473-.51,6,6,0,0,0-2.573.7l-.423-1.054a6.475,6.475,0,0,1,1.473-.573,6.381,6.381,0,0,1,1.606-.208,3.465,3.465,0,0,1,2.411.722,3.014,3.014,0,0,1,.784,2.316V23Zm-3.113-.971a2.8,2.8,0,0,0,2.021-.706,2.61,2.61,0,0,0,.735-1.976v-.822l-1.378.058a5.012,5.012,0,0,0-2.37.51,1.539,1.539,0,0,0-.726,1.407,1.42,1.42,0,0,0,.452,1.137A1.878,1.878,0,0,0,110.836,22.029Zm11.123-8.292a5.392,5.392,0,0,1,1.087.1l-.191,1.278a4.694,4.694,0,0,0-1-.125,2.425,2.425,0,0,0-1.888.9,3.269,3.269,0,0,0-.784,2.233V23h-1.378V13.9h1.137l.158,1.685h.066a4,4,0,0,1,1.22-1.37A2.747,2.747,0,0,1,121.959,13.736Zm4.15,4.607a16.2,16.2,0,0,1,1.087-1.328l2.938-3.113h1.635l-3.686,3.876L132.028,23H130.36l-3.212-4.3-1.038.9V23h-1.361V10.084h1.361v6.848q0,.457-.066,1.411Zm11.065,4.823a4.18,4.18,0,0,1-3.183-1.229,4.756,4.756,0,0,1-1.166-3.412,5.274,5.274,0,0,1,1.083-3.495,3.6,3.6,0,0,1,2.909-1.295,3.431,3.431,0,0,1,2.706,1.125,4.311,4.311,0,0,1,1,2.968V18.7h-6.267a3.606,3.606,0,0,0,.809,2.432,2.8,2.8,0,0,0,2.162.83,7.328,7.328,0,0,0,2.905-.614v1.229a7.292,7.292,0,0,1-1.382.452A7.767,7.767,0,0,1,137.175,23.166ZM136.8,14.89a2.25,2.25,0,0,0-1.747.714,3.291,3.291,0,0,0-.768,1.976h4.756a3.03,3.03,0,0,0-.581-2A2.045,2.045,0,0,0,136.8,14.89Zm9.006,7.139a4.5,4.5,0,0,0,.706-.054,4.568,4.568,0,0,0,.54-.112v1.054a2.519,2.519,0,0,1-.66.178,4.956,4.956,0,0,1-.784.071q-2.64,0-2.64-2.781V14.973h-1.3v-.664l1.3-.573.581-1.942h.8V13.9h2.64v1.071h-2.64v5.354a1.842,1.842,0,0,0,.39,1.262A1.358,1.358,0,0,0,145.807,22.029Zm4.507-1,.125.191q-.216.83-.623,1.93t-.847,2.046h-1.038q.224-.863.494-2.133t.378-2.034Zm-278.4,21.747a2.977,2.977,0,0,1-1.162,2.5,5.039,5.039,0,0,1-3.154.9,7.9,7.9,0,0,1-3.32-.556V44.249a8.742,8.742,0,0,0,1.627.5,8.56,8.56,0,0,0,1.743.183,3.517,3.517,0,0,0,2.125-.535,1.757,1.757,0,0,0,.714-1.49,1.913,1.913,0,0,0-.253-1.033,2.352,2.352,0,0,0-.847-.743,11.846,11.846,0,0,0-1.805-.772,5.763,5.763,0,0,1-2.42-1.436,3.17,3.17,0,0,1-.726-2.167,2.694,2.694,0,0,1,1.054-2.233,4.381,4.381,0,0,1,2.789-.83,8.22,8.22,0,0,1,3.329.664l-.44,1.229a7.522,7.522,0,0,0-2.922-.631,2.828,2.828,0,0,0-1.751.481,1.587,1.587,0,0,0-.631,1.336A2.048,2.048,0,0,0-133.9,37.8a2.188,2.188,0,0,0,.784.739,9.746,9.746,0,0,0,1.689.743,6.688,6.688,0,0,1,2.627,1.461A2.873,2.873,0,0,1-128.085,42.771Zm5.213,2.258a4.5,4.5,0,0,0,.706-.054,4.567,4.567,0,0,0,.54-.112v1.054a2.519,2.519,0,0,1-.66.178,4.956,4.956,0,0,1-.784.071q-2.64,0-2.64-2.781V37.973h-1.3v-.664l1.3-.573.581-1.942h.8V36.9h2.64v1.071h-2.64v5.354a1.842,1.842,0,0,0,.39,1.262A1.358,1.358,0,0,0-122.872,45.029Zm7.213-8.292a5.392,5.392,0,0,1,1.087.1l-.191,1.278a4.694,4.694,0,0,0-1-.125,2.425,2.425,0,0,0-1.888.9,3.269,3.269,0,0,0-.784,2.233V46h-1.378V36.9h1.137l.158,1.685h.066a4,4,0,0,1,1.22-1.37A2.747,2.747,0,0,1-115.659,36.736ZM-107.615,46l-.274-1.295h-.066a3.828,3.828,0,0,1-1.357,1.158,4.137,4.137,0,0,1-1.689.3,3.039,3.039,0,0,1-2.121-.7,2.543,2.543,0,0,1-.768-1.984q0-2.756,4.408-2.889l1.544-.05v-.564A2.307,2.307,0,0,0-108.4,38.4a1.9,1.9,0,0,0-1.473-.51,6,6,0,0,0-2.573.7l-.423-1.054a6.475,6.475,0,0,1,1.473-.573,6.381,6.381,0,0,1,1.606-.208,3.465,3.465,0,0,1,2.411.722,3.014,3.014,0,0,1,.784,2.316V46Zm-3.113-.971a2.8,2.8,0,0,0,2.021-.706,2.61,2.61,0,0,0,.735-1.976v-.822l-1.378.058a5.012,5.012,0,0,0-2.37.51,1.539,1.539,0,0,0-.726,1.407,1.42,1.42,0,0,0,.452,1.137A1.878,1.878,0,0,0-110.728,45.029Zm9.911,0a4.5,4.5,0,0,0,.706-.054,4.567,4.567,0,0,0,.54-.112v1.054a2.519,2.519,0,0,1-.66.178,4.956,4.956,0,0,1-.784.071q-2.64,0-2.64-2.781V37.973h-1.3v-.664l1.3-.573.581-1.942h.8V36.9h2.64v1.071h-2.64v5.354a1.842,1.842,0,0,0,.39,1.262A1.358,1.358,0,0,0-100.817,45.029Zm6.906,1.137a4.18,4.18,0,0,1-3.183-1.229,4.756,4.756,0,0,1-1.166-3.412,5.274,5.274,0,0,1,1.083-3.495,3.6,3.6,0,0,1,2.909-1.295,3.431,3.431,0,0,1,2.706,1.125,4.311,4.311,0,0,1,1,2.968V41.7h-6.267a3.606,3.606,0,0,0,.809,2.432,2.8,2.8,0,0,0,2.162.83,7.328,7.328,0,0,0,2.905-.614v1.229a7.292,7.292,0,0,1-1.382.452A7.767,7.767,0,0,1-93.911,46.166Zm-.374-8.276a2.25,2.25,0,0,0-1.747.714A3.291,3.291,0,0,0-96.8,40.58h4.756a3.03,3.03,0,0,0-.581-2A2.045,2.045,0,0,0-94.284,37.89Zm13.514-.988v.872l-1.685.2a2.9,2.9,0,0,1,.415.76,2.9,2.9,0,0,1,.183,1.058,2.689,2.689,0,0,1-.913,2.133,3.683,3.683,0,0,1-2.507.8,4.175,4.175,0,0,1-.764-.066,1.356,1.356,0,0,0-.88,1.17.6.6,0,0,0,.307.552,2.244,2.244,0,0,0,1.054.178h1.61a3.606,3.606,0,0,1,2.27.623,2.163,2.163,0,0,1,.793,1.81,2.583,2.583,0,0,1-1.212,2.3,6.486,6.486,0,0,1-3.536.793,4.831,4.831,0,0,1-2.752-.664,2.144,2.144,0,0,1-.967-1.876,2.107,2.107,0,0,1,.531-1.436,2.7,2.7,0,0,1,1.494-.822,1.441,1.441,0,0,1-.585-.49,1.3,1.3,0,0,1-.237-.772,1.465,1.465,0,0,1,.266-.872,2.793,2.793,0,0,1,.838-.722,2.457,2.457,0,0,1-1.15-.988,2.9,2.9,0,0,1-.444-1.594,2.944,2.944,0,0,1,.9-2.3,3.66,3.66,0,0,1,2.54-.809,4.619,4.619,0,0,1,1.287.166Zm-7.255,10.625a1.235,1.235,0,0,0,.623,1.121,3.436,3.436,0,0,0,1.785.382,4.98,4.98,0,0,0,2.569-.519,1.588,1.588,0,0,0,.834-1.407,1.113,1.113,0,0,0-.457-1.025,3.546,3.546,0,0,0-1.718-.286h-1.652a2.176,2.176,0,0,0-1.461.448A1.6,1.6,0,0,0-88.026,47.527Zm.747-7.711a1.852,1.852,0,0,0,.54,1.444,2.154,2.154,0,0,0,1.5.49,1.758,1.758,0,0,0,2.017-1.959,1.809,1.809,0,0,0-2.042-2.05,2.022,2.022,0,0,0-1.494.523A2.106,2.106,0,0,0-87.279,39.816Zm6.931-2.914h1.478l1.992,5.188a19.733,19.733,0,0,1,.813,2.565H-76q.108-.423.452-1.448t2.254-6.3h1.478l-3.91,10.359a5.168,5.168,0,0,1-1.357,2.179,2.886,2.886,0,0,1-1.905.643,5.544,5.544,0,0,1-1.245-.141v-1.1a4.8,4.8,0,0,0,1.021.1,2.1,2.1,0,0,0,2.025-1.594l.506-1.295Zm10.774,7.122.125.191q-.216.83-.623,1.93t-.847,2.046h-1.038q.224-.863.494-2.133t.378-2.034Zm12.684-4.383h4.125v5.9a13.263,13.263,0,0,1-1.959.465,14.914,14.914,0,0,1-2.308.158,5.593,5.593,0,0,1-4.292-1.639,6.461,6.461,0,0,1-1.536-4.594,6.942,6.942,0,0,1,.76-3.316,5.137,5.137,0,0,1,2.187-2.175,7.086,7.086,0,0,1,3.345-.751,9.142,9.142,0,0,1,3.619.714l-.548,1.245a8.085,8.085,0,0,0-3.163-.7,4.529,4.529,0,0,0-3.461,1.32,5.122,5.122,0,0,0-1.245,3.661,5.235,5.235,0,0,0,1.2,3.727,4.619,4.619,0,0,0,3.524,1.27,10.47,10.47,0,0,0,2.465-.291V40.9h-2.714Zm14.684,1.8a5.019,5.019,0,0,1-1.121,3.474,3.947,3.947,0,0,1-3.1,1.249,4.1,4.1,0,0,1-2.167-.573A3.78,3.78,0,0,1-50.05,43.95a5.728,5.728,0,0,1-.515-2.507,5.011,5.011,0,0,1,1.112-3.466,3.934,3.934,0,0,1,3.088-1.241,3.849,3.849,0,0,1,3.034,1.27A5,5,0,0,1-42.205,41.443Zm-6.931,0a4.318,4.318,0,0,0,.7,2.656,2.42,2.42,0,0,0,2.05.913,2.436,2.436,0,0,0,2.054-.909,4.3,4.3,0,0,0,.7-2.66,4.227,4.227,0,0,0-.7-2.635,2.464,2.464,0,0,0-2.071-.9,2.425,2.425,0,0,0-2.042.888A4.274,4.274,0,0,0-49.136,41.443ZM-31.431,46h-1.411V35.118h-3.843V33.864h9.1v1.253h-3.843ZM-19.3,41.443a5.019,5.019,0,0,1-1.121,3.474,3.947,3.947,0,0,1-3.1,1.249,4.1,4.1,0,0,1-2.167-.573,3.78,3.78,0,0,1-1.461-1.644,5.728,5.728,0,0,1-.515-2.507,5.011,5.011,0,0,1,1.112-3.466,3.934,3.934,0,0,1,3.088-1.241,3.849,3.849,0,0,1,3.034,1.27A5,5,0,0,1-19.3,41.443Zm-6.931,0a4.318,4.318,0,0,0,.7,2.656,2.42,2.42,0,0,0,2.05.913,2.436,2.436,0,0,0,2.054-.909,4.3,4.3,0,0,0,.7-2.66,4.227,4.227,0,0,0-.7-2.635,2.464,2.464,0,0,0-2.071-.9,2.425,2.425,0,0,0-2.042.888A4.274,4.274,0,0,0-26.235,41.443Zm19.167-6.491a3.968,3.968,0,0,0-3.158,1.332,5.374,5.374,0,0,0-1.158,3.648,5.481,5.481,0,0,0,1.116,3.681,3.969,3.969,0,0,0,3.183,1.3,10.869,10.869,0,0,0,2.9-.457v1.237a8.921,8.921,0,0,1-3.113.473,5.266,5.266,0,0,1-4.138-1.627A6.7,6.7,0,0,1-12.9,39.916a7.3,7.3,0,0,1,.7-3.287,5.036,5.036,0,0,1,2.025-2.175,6.13,6.13,0,0,1,3.117-.764,7.521,7.521,0,0,1,3.337.7l-.6,1.212A6.432,6.432,0,0,0-7.068,34.952ZM-.452,36.9v5.9a2.374,2.374,0,0,0,.506,1.66,2.063,2.063,0,0,0,1.585.548,2.587,2.587,0,0,0,2.088-.78,3.936,3.936,0,0,0,.66-2.548V36.9H5.765V46H4.628l-.2-1.22H4.354a2.746,2.746,0,0,1-1.175,1.029,3.948,3.948,0,0,1-1.714.357,3.478,3.478,0,0,1-2.486-.789,3.357,3.357,0,0,1-.826-2.523V36.9Zm15.008,6.616a2.279,2.279,0,0,1-.946,1.959,4.448,4.448,0,0,1-2.656.689,5.776,5.776,0,0,1-2.822-.573V44.315a6.825,6.825,0,0,0,1.407.523,5.875,5.875,0,0,0,1.448.191,3.285,3.285,0,0,0,1.66-.344,1.186,1.186,0,0,0,.12-1.959,7.247,7.247,0,0,0-1.8-.892,9.745,9.745,0,0,1-1.805-.826,2.466,2.466,0,0,1-.8-.8,2.089,2.089,0,0,1-.261-1.071,2.041,2.041,0,0,1,.9-1.756,4.216,4.216,0,0,1,2.482-.643,7.262,7.262,0,0,1,2.872.6l-.49,1.121a6.593,6.593,0,0,0-2.482-.564,2.855,2.855,0,0,0-1.478.307.95.95,0,0,0-.5.847,1.031,1.031,0,0,0,.187.623,1.843,1.843,0,0,0,.6.49,13.448,13.448,0,0,0,1.594.672,5.954,5.954,0,0,1,2.187,1.187A2.093,2.093,0,0,1,14.555,43.518Zm5.18,1.511a4.5,4.5,0,0,0,.706-.054,4.567,4.567,0,0,0,.54-.112v1.054a2.519,2.519,0,0,1-.66.178,4.956,4.956,0,0,1-.784.071q-2.64,0-2.64-2.781V37.973h-1.3v-.664l1.3-.573.581-1.942h.8V36.9h2.64v1.071h-2.64v5.354a1.842,1.842,0,0,0,.39,1.262A1.358,1.358,0,0,0,19.735,45.029Zm10.916-3.586a5.019,5.019,0,0,1-1.121,3.474,3.947,3.947,0,0,1-3.1,1.249,4.1,4.1,0,0,1-2.167-.573,3.78,3.78,0,0,1-1.461-1.644,5.728,5.728,0,0,1-.515-2.507A5.011,5.011,0,0,1,23.4,37.977a3.934,3.934,0,0,1,3.088-1.241,3.849,3.849,0,0,1,3.034,1.27A5,5,0,0,1,30.651,41.443Zm-6.931,0a4.318,4.318,0,0,0,.7,2.656,2.42,2.42,0,0,0,2.05.913,2.436,2.436,0,0,0,2.054-.909,4.3,4.3,0,0,0,.7-2.66,4.227,4.227,0,0,0-.7-2.635,2.464,2.464,0,0,0-2.071-.9,2.425,2.425,0,0,0-2.042.888A4.274,4.274,0,0,0,23.719,41.443ZM44.662,46V40.082A2.457,2.457,0,0,0,44.2,38.45a1.8,1.8,0,0,0-1.444-.544,2.332,2.332,0,0,0-1.9.739,3.511,3.511,0,0,0-.614,2.274V46H38.86V40.082A2.457,2.457,0,0,0,38.4,38.45a1.809,1.809,0,0,0-1.453-.544,2.25,2.25,0,0,0-1.9.776,4.2,4.2,0,0,0-.6,2.544V46H33.066V36.9h1.121l.224,1.245h.066a2.708,2.708,0,0,1,1.1-1.038,3.36,3.36,0,0,1,1.59-.374,2.7,2.7,0,0,1,2.789,1.544h.066A2.9,2.9,0,0,1,41.2,37.151a3.657,3.657,0,0,1,1.76-.415,3.081,3.081,0,0,1,2.312.793,3.546,3.546,0,0,1,.768,2.536V46Zm8.06.166a4.18,4.18,0,0,1-3.183-1.229,4.756,4.756,0,0,1-1.166-3.412,5.274,5.274,0,0,1,1.083-3.495,3.6,3.6,0,0,1,2.909-1.295,3.431,3.431,0,0,1,2.706,1.125,4.311,4.311,0,0,1,1,2.968V41.7H49.8a3.606,3.606,0,0,0,.809,2.432,2.8,2.8,0,0,0,2.162.83,7.328,7.328,0,0,0,2.905-.614v1.229a7.292,7.292,0,0,1-1.382.452A7.767,7.767,0,0,1,52.722,46.166Zm-.374-8.276A2.25,2.25,0,0,0,50.6,38.6a3.291,3.291,0,0,0-.768,1.976H54.59a3.03,3.03,0,0,0-.581-2A2.045,2.045,0,0,0,52.349,37.89Zm10.218-1.154a5.392,5.392,0,0,1,1.087.1l-.191,1.278a4.694,4.694,0,0,0-1-.125,2.425,2.425,0,0,0-1.888.9,3.269,3.269,0,0,0-.784,2.233V46H58.417V36.9h1.137l.158,1.685h.066A4,4,0,0,1,61,37.218,2.747,2.747,0,0,1,62.567,36.736Zm14.261,6.035a2.977,2.977,0,0,1-1.162,2.5,5.039,5.039,0,0,1-3.154.9,7.9,7.9,0,0,1-3.32-.556V44.249a8.742,8.742,0,0,0,1.627.5,8.56,8.56,0,0,0,1.743.183,3.517,3.517,0,0,0,2.125-.535A1.757,1.757,0,0,0,75.4,42.9a1.913,1.913,0,0,0-.253-1.033,2.352,2.352,0,0,0-.847-.743,11.845,11.845,0,0,0-1.805-.772,5.763,5.763,0,0,1-2.42-1.436,3.17,3.17,0,0,1-.726-2.167A2.694,2.694,0,0,1,70.4,34.52a4.381,4.381,0,0,1,2.789-.83,8.22,8.22,0,0,1,3.329.664l-.44,1.229a7.522,7.522,0,0,0-2.922-.631,2.828,2.828,0,0,0-1.751.481,1.587,1.587,0,0,0-.631,1.336,2.048,2.048,0,0,0,.232,1.033,2.188,2.188,0,0,0,.784.739,9.746,9.746,0,0,0,1.689.743,6.688,6.688,0,0,1,2.627,1.461A2.873,2.873,0,0,1,76.828,42.771Zm5.213,2.258a4.5,4.5,0,0,0,.706-.054,4.567,4.567,0,0,0,.54-.112v1.054a2.519,2.519,0,0,1-.66.178,4.956,4.956,0,0,1-.784.071q-2.64,0-2.64-2.781V37.973H77.9v-.664l1.3-.573.581-1.942h.8V36.9h2.64v1.071H80.58v5.354a1.842,1.842,0,0,0,.39,1.262A1.358,1.358,0,0,0,82.041,45.029Zm7.213-8.292a5.392,5.392,0,0,1,1.087.1l-.191,1.278a4.694,4.694,0,0,0-1-.125,2.425,2.425,0,0,0-1.888.9,3.269,3.269,0,0,0-.784,2.233V46H85.1V36.9h1.137l.158,1.685h.066a4,4,0,0,1,1.22-1.37A2.747,2.747,0,0,1,89.254,36.736ZM97.3,46l-.274-1.295h-.066A3.828,3.828,0,0,1,95.6,45.863a4.137,4.137,0,0,1-1.689.3,3.039,3.039,0,0,1-2.121-.7,2.543,2.543,0,0,1-.768-1.984q0-2.756,4.408-2.889l1.544-.05v-.564a2.307,2.307,0,0,0-.461-1.581,1.9,1.9,0,0,0-1.473-.51,6,6,0,0,0-2.573.7l-.423-1.054a6.475,6.475,0,0,1,1.473-.573,6.381,6.381,0,0,1,1.606-.208,3.465,3.465,0,0,1,2.411.722,3.014,3.014,0,0,1,.784,2.316V46Zm-3.113-.971a2.8,2.8,0,0,0,2.021-.706,2.61,2.61,0,0,0,.735-1.976v-.822l-1.378.058a5.012,5.012,0,0,0-2.37.51,1.539,1.539,0,0,0-.726,1.407,1.42,1.42,0,0,0,.452,1.137A1.878,1.878,0,0,0,94.185,45.029Zm9.911,0a4.5,4.5,0,0,0,.706-.054,4.567,4.567,0,0,0,.54-.112v1.054a2.519,2.519,0,0,1-.66.178,4.956,4.956,0,0,1-.784.071q-2.64,0-2.64-2.781V37.973h-1.3v-.664l1.3-.573.581-1.942h.8V36.9h2.64v1.071h-2.64v5.354a1.842,1.842,0,0,0,.39,1.262A1.358,1.358,0,0,0,104.1,45.029ZM111,46.166a4.18,4.18,0,0,1-3.183-1.229,4.756,4.756,0,0,1-1.166-3.412,5.274,5.274,0,0,1,1.083-3.495,3.6,3.6,0,0,1,2.909-1.295,3.431,3.431,0,0,1,2.706,1.125,4.311,4.311,0,0,1,1,2.968V41.7H108.08a3.606,3.606,0,0,0,.809,2.432,2.8,2.8,0,0,0,2.162.83,7.328,7.328,0,0,0,2.905-.614v1.229a7.292,7.292,0,0,1-1.382.452A7.767,7.767,0,0,1,111,46.166Zm-.374-8.276a2.25,2.25,0,0,0-1.747.714,3.291,3.291,0,0,0-.768,1.976h4.756a3.03,3.03,0,0,0-.581-2A2.045,2.045,0,0,0,110.629,37.89Zm13.514-.988v.872l-1.685.2a2.959,2.959,0,0,1,.6,1.818,2.689,2.689,0,0,1-.913,2.133,3.683,3.683,0,0,1-2.507.8,4.175,4.175,0,0,1-.764-.066,1.356,1.356,0,0,0-.88,1.17.6.6,0,0,0,.307.552,2.244,2.244,0,0,0,1.054.178h1.61a3.606,3.606,0,0,1,2.27.623,2.163,2.163,0,0,1,.793,1.81,2.583,2.583,0,0,1-1.212,2.3,6.486,6.486,0,0,1-3.536.793,4.831,4.831,0,0,1-2.752-.664,2.144,2.144,0,0,1-.967-1.876,2.107,2.107,0,0,1,.531-1.436,2.7,2.7,0,0,1,1.494-.822A1.441,1.441,0,0,1,117,44.8a1.3,1.3,0,0,1-.237-.772,1.465,1.465,0,0,1,.266-.872,2.793,2.793,0,0,1,.838-.722,2.457,2.457,0,0,1-1.15-.988,2.9,2.9,0,0,1-.444-1.594,2.944,2.944,0,0,1,.9-2.3,3.66,3.66,0,0,1,2.54-.809A4.619,4.619,0,0,1,121,36.9Zm-7.255,10.625a1.235,1.235,0,0,0,.623,1.121,3.436,3.436,0,0,0,1.785.382,4.98,4.98,0,0,0,2.569-.519A1.588,1.588,0,0,0,122.7,47.1a1.113,1.113,0,0,0-.457-1.025,3.546,3.546,0,0,0-1.718-.286h-1.652a2.176,2.176,0,0,0-1.461.448A1.6,1.6,0,0,0,116.887,47.527Zm.747-7.711a1.852,1.852,0,0,0,.54,1.444,2.154,2.154,0,0,0,1.5.49,1.758,1.758,0,0,0,2.017-1.959,1.809,1.809,0,0,0-2.042-2.05,2.022,2.022,0,0,0-1.494.523A2.106,2.106,0,0,0,117.635,39.816Zm6.931-2.914h1.478l1.992,5.188a19.733,19.733,0,0,1,.813,2.565h.066q.108-.423.452-1.448t2.254-6.3H133.1l-3.91,10.359a5.168,5.168,0,0,1-1.357,2.179,2.886,2.886,0,0,1-1.905.643,5.544,5.544,0,0,1-1.245-.141v-1.1a4.8,4.8,0,0,0,1.021.1,2.1,2.1,0,0,0,2.025-1.594l.506-1.295Zm10.774,7.122.125.191q-.216.83-.623,1.93T134,48.191h-1.038q.224-.863.494-2.133t.378-2.034ZM-58.836,69h-1.411V56.864h6.765v1.253h-5.354v4.441h5.03v1.253h-5.03Zm8.533,0h-1.378V59.9H-50.3ZM-51.8,57.437a.915.915,0,0,1,.232-.693.812.812,0,0,1,.581-.22.812.812,0,0,1,.573.224.9.9,0,0,1,.241.689.913.913,0,0,1-.241.693.8.8,0,0,1-.573.228.8.8,0,0,1-.581-.228A.932.932,0,0,1-51.8,57.437ZM-41.155,69V63.115a2.374,2.374,0,0,0-.506-1.66,2.063,2.063,0,0,0-1.585-.548,2.615,2.615,0,0,0-2.092.772A3.9,3.9,0,0,0-46,64.227V69h-1.378V59.9h1.121l.224,1.245h.066a2.814,2.814,0,0,1,1.187-1.042,3.857,3.857,0,0,1,1.7-.369,3.456,3.456,0,0,1,2.474.793,3.374,3.374,0,0,1,.83,2.536V69Zm9.8,0-.274-1.295h-.066a3.828,3.828,0,0,1-1.357,1.158,4.137,4.137,0,0,1-1.689.3,3.039,3.039,0,0,1-2.121-.7,2.543,2.543,0,0,1-.768-1.984q0-2.756,4.408-2.889l1.544-.05v-.564a2.307,2.307,0,0,0-.461-1.581,1.9,1.9,0,0,0-1.473-.51,6,6,0,0,0-2.573.7l-.423-1.054a6.475,6.475,0,0,1,1.473-.573,6.381,6.381,0,0,1,1.606-.208,3.465,3.465,0,0,1,2.411.722,3.014,3.014,0,0,1,.784,2.316V69Zm-3.113-.971a2.8,2.8,0,0,0,2.021-.706,2.61,2.61,0,0,0,.735-1.976v-.822l-1.378.058a5.012,5.012,0,0,0-2.37.51,1.539,1.539,0,0,0-.726,1.407,1.42,1.42,0,0,0,.452,1.137A1.878,1.878,0,0,0-34.465,68.029Zm13.2.971V63.115a2.374,2.374,0,0,0-.506-1.66,2.063,2.063,0,0,0-1.585-.548,2.615,2.615,0,0,0-2.092.772,3.9,3.9,0,0,0-.664,2.548V69h-1.378V59.9h1.121l.224,1.245h.066a2.814,2.814,0,0,1,1.187-1.042,3.857,3.857,0,0,1,1.7-.369,3.456,3.456,0,0,1,2.474.793,3.374,3.374,0,0,1,.83,2.536V69Zm7.844.166a3.883,3.883,0,0,1-3.059-1.216,5,5,0,0,1-1.083-3.441,5.157,5.157,0,0,1,1.1-3.528,3.96,3.96,0,0,1,3.134-1.245,6.218,6.218,0,0,1,1.312.141,4.32,4.32,0,0,1,1.029.332l-.423,1.17a6.479,6.479,0,0,0-1-.3,4.447,4.447,0,0,0-.955-.12q-2.772,0-2.772,3.536a4.211,4.211,0,0,0,.677,2.573,2.354,2.354,0,0,0,2,.9,6.129,6.129,0,0,0,2.333-.49v1.22A4.971,4.971,0,0,1-13.422,69.166ZM-7.587,69H-8.965V59.9h1.378ZM-9.081,57.437a.915.915,0,0,1,.232-.693.812.812,0,0,1,.581-.22.812.812,0,0,1,.573.224.9.9,0,0,1,.241.689.913.913,0,0,1-.241.693.8.8,0,0,1-.573.228.8.8,0,0,1-.581-.228A.932.932,0,0,1-9.081,57.437ZM.93,69,.656,67.705H.589A3.828,3.828,0,0,1-.768,68.863a4.137,4.137,0,0,1-1.689.3,3.039,3.039,0,0,1-2.121-.7,2.543,2.543,0,0,1-.768-1.984q0-2.756,4.408-2.889l1.544-.05v-.564A2.307,2.307,0,0,0,.145,61.4a1.9,1.9,0,0,0-1.473-.51,6,6,0,0,0-2.573.7l-.423-1.054a6.475,6.475,0,0,1,1.473-.573,6.381,6.381,0,0,1,1.606-.208,3.465,3.465,0,0,1,2.411.722,3.014,3.014,0,0,1,.784,2.316V69Zm-3.113-.971a2.8,2.8,0,0,0,2.021-.706,2.61,2.61,0,0,0,.735-1.976v-.822l-1.378.058a5.012,5.012,0,0,0-2.37.51A1.539,1.539,0,0,0-3.9,66.5a1.42,1.42,0,0,0,.452,1.137A1.878,1.878,0,0,0-2.183,68.029ZM6.167,69H4.79V56.084H6.167Zm12.916,0L14.966,58.242H14.9q.116,1.278.116,3.038V69h-1.3V56.864h2.125l3.843,10.011h.066l3.876-10.011h2.108V69H24.321V61.181q0-1.345.116-2.922h-.066L20.221,69Zm17.623-4.557a5.019,5.019,0,0,1-1.121,3.474,3.947,3.947,0,0,1-3.1,1.249,4.1,4.1,0,0,1-2.167-.573,3.78,3.78,0,0,1-1.461-1.644,5.728,5.728,0,0,1-.515-2.507,5.011,5.011,0,0,1,1.112-3.466,3.934,3.934,0,0,1,3.088-1.241,3.849,3.849,0,0,1,3.034,1.27A5,5,0,0,1,36.706,64.443Zm-6.931,0a4.318,4.318,0,0,0,.7,2.656,2.767,2.767,0,0,0,4.1,0,4.3,4.3,0,0,0,.7-2.66,4.227,4.227,0,0,0-.7-2.635,2.464,2.464,0,0,0-2.071-.9,2.425,2.425,0,0,0-2.042.888A4.274,4.274,0,0,0,29.775,64.443ZM45.314,67.78h-.075a3.238,3.238,0,0,1-2.855,1.386,3.378,3.378,0,0,1-2.777-1.22,5.371,5.371,0,0,1-.992-3.47,5.462,5.462,0,0,1,1-3.495,3.352,3.352,0,0,1,2.772-1.245,3.308,3.308,0,0,1,2.839,1.345h.108l-.058-.656-.033-.639v-3.7h1.378V69H45.5Zm-2.756.232a2.509,2.509,0,0,0,2.046-.768,3.88,3.88,0,0,0,.635-2.478v-.291a4.565,4.565,0,0,0-.643-2.76,2.443,2.443,0,0,0-2.054-.826,2.109,2.109,0,0,0-1.855.942,4.685,4.685,0,0,0-.643,2.66,4.491,4.491,0,0,0,.639,2.631A2.165,2.165,0,0,0,42.558,68.012Zm10.824,1.154A4.18,4.18,0,0,1,50.2,67.938a4.756,4.756,0,0,1-1.166-3.412,5.274,5.274,0,0,1,1.083-3.495,3.6,3.6,0,0,1,2.909-1.295,3.431,3.431,0,0,1,2.706,1.125,4.311,4.311,0,0,1,1,2.968V64.7H50.46a3.606,3.606,0,0,0,.809,2.432,2.8,2.8,0,0,0,2.162.83,7.328,7.328,0,0,0,2.905-.614v1.229a7.292,7.292,0,0,1-1.382.452A7.767,7.767,0,0,1,53.382,69.166Zm-.374-8.276a2.25,2.25,0,0,0-1.747.714,3.291,3.291,0,0,0-.768,1.976H55.25a3.03,3.03,0,0,0-.581-2A2.045,2.045,0,0,0,53.009,60.89ZM60.455,69H59.077V56.084h1.378Z" transform="translate(137 16)"/>
      </g>
      <g id="_677139072" transform="translate(246.072 128.251)">
        <g id="Group_7998" data-name="Group 7998" transform="translate(0 0)">
          <rect id="Rectangle_4175" data-name="Rectangle 4175" class="cls-9" width="245.105" height="33.624" rx="16.812" transform="translate(0 1.332)"/>
          <path id="Path_3745" data-name="Path 3745" class="cls-11" d="M6.03-9.448H7.275a4.147,4.147,0,0,0,2.612-.69,2.414,2.414,0,0,0,.867-2.008,2.475,2.475,0,0,0-.726-1.965,3.4,3.4,0,0,0-2.277-.635H6.03Zm8.545-2.832a5.455,5.455,0,0,1-1.8,4.407A7.7,7.7,0,0,1,7.654-6.348H6.03V0H2.246V-17.847h5.7a7.582,7.582,0,0,1,4.938,1.4A5.1,5.1,0,0,1,14.575-12.28Zm2.917-4.9q0-1.819,2.026-1.819t2.026,1.819a1.773,1.773,0,0,1-.507,1.349,2.129,2.129,0,0,1-1.52.482Q17.493-15.344,17.493-17.175ZM21.375,0H17.651V-13.647h3.723ZM31.03-2.722a8.071,8.071,0,0,0,2.344-.427V-.378a8.357,8.357,0,0,1-3.418.623A4.183,4.183,0,0,1,26.7-.885a4.915,4.915,0,0,1-1.019-3.387v-6.58H23.9v-1.575l2.051-1.245,1.074-2.881h2.38v2.905h3.821v2.8H29.407v6.58A1.453,1.453,0,0,0,29.852-3.1,1.758,1.758,0,0,0,31.03-2.722ZM41.675.244Q35.3.244,35.3-6.75a7.461,7.461,0,0,1,1.733-5.316A6.5,6.5,0,0,1,42-13.9a9.472,9.472,0,0,1,4.248.928l-1.1,2.881q-.879-.354-1.636-.58A5.27,5.27,0,0,0,42-10.9Q39.1-10.9,39.1-6.775q0,4,2.905,4a6.624,6.624,0,0,0,1.99-.287,7.184,7.184,0,0,0,1.831-.9V-.769A6,6,0,0,1,44,.024,10.263,10.263,0,0,1,41.675.244ZM61.584,0H57.861V-7.971q0-2.954-2.2-2.954a2.5,2.5,0,0,0-2.258,1.062,6.486,6.486,0,0,0-.7,3.442V0H48.987V-18.994H52.71v3.87q0,.452-.085,2.124l-.085,1.1h.2a4.313,4.313,0,0,1,3.955-2,4.835,4.835,0,0,1,3.65,1.294A5.141,5.141,0,0,1,61.584-8.9ZM88.037,0h-4.81L75.464-13.5h-.11q.232,3.577.232,5.1V0H72.2V-17.847h4.773L84.729-4.48h.085q-.183-3.479-.183-4.919v-8.447h3.406ZM95.2-6.848a5.728,5.728,0,0,0,.665,3.064,2.379,2.379,0,0,0,2.167,1.038,2.341,2.341,0,0,0,2.142-1.031,5.81,5.81,0,0,0,.653-3.07,5.637,5.637,0,0,0-.659-3.04A2.383,2.383,0,0,0,98.01-10.9a2.376,2.376,0,0,0-2.148,1.007A5.632,5.632,0,0,0,95.2-6.848Zm9.436,0a7.334,7.334,0,0,1-1.758,5.212,6.374,6.374,0,0,1-4.9,1.88,6.848,6.848,0,0,1-3.467-.861,5.727,5.727,0,0,1-2.307-2.472,8.306,8.306,0,0,1-.806-3.76,7.293,7.293,0,0,1,1.746-5.2A6.41,6.41,0,0,1,98.059-13.9a6.886,6.886,0,0,1,3.467.854,5.7,5.7,0,0,1,2.307,2.454A8.229,8.229,0,0,1,104.639-6.848ZM118.433,0l-1.05-4.773-1.416-6.03h-.085L113.391,0h-4l-3.882-13.647h3.711L110.791-7.6q.378,1.624.769,4.48h.073a25.084,25.084,0,0,1,.427-2.942l.2-1.038,1.685-6.543h4.1l1.6,6.543q.049.269.153.793t.2,1.117q.1.592.177,1.16t.092.909h.073q.11-.879.391-2.411t.4-2.069l1.636-6.042h3.65L122.485,0Zm13.306-5.92H128.76l-.623-11.926h4.224Zm-3.65,4.175a2.046,2.046,0,0,1,.549-1.55,2.228,2.228,0,0,1,1.6-.525,2.164,2.164,0,0,1,1.569.537,2.041,2.041,0,0,1,.555,1.538,2.041,2.041,0,0,1-.562,1.52,2.125,2.125,0,0,1-1.562.555,2.189,2.189,0,0,1-1.587-.543A2.033,2.033,0,0,1,128.088-1.746Z" transform="translate(50.638 27)"/>
        </g>
      </g>
    </g>
  </g>
</svg>
