<svg xmlns="http://www.w3.org/2000/svg" viewBox="0 0 956.561 1016.739">
  <defs>
    <style>
      .cls-1 {
        fill: #4b4b4d;
      }

      .cls-1, .cls-10, .cls-11, .cls-2, .cls-3, .cls-4, .cls-5, .cls-6, .cls-7, .cls-8, .cls-9 {
        fill-rule: evenodd;
      }

      .cls-2 {
        fill: #889fac;
      }

      .cls-3 {
        fill: #a9abae;
      }

      .cls-4 {
        fill: #fee0c5;
      }

      .cls-5 {
        fill: #f9ed4c;
      }

      .cls-6 {
        fill: #fdfbf2;
      }

      .cls-7 {
        fill: #a45050;
      }

      .cls-8 {
        fill: #443a3d;
      }

      .cls-9 {
        fill: #4c2715;
      }

      .cls-10 {
        fill: #373435;
      }

      .cls-11 {
        fill: #585555;
      }
    </style>
  </defs>
  <g id="Group_8083" data-name="Group 8083" transform="translate(-98.426 -228.258)">
    <path id="Path_3619" data-name="Path 3619" d="M238.809-6.175q8.071,0,12.159,5.08t4.089,14.85q0,9.593-4.3,14.8t-12.089,5.2a15.891,15.891,0,0,1-7.4-1.7,12.957,12.957,0,0,1-5.2-4.814h-.319l-.991,5.805h-2.195v-55.08h3.5V-8.192q0,3.115-.142,5.735L225.818.551h.248a14.049,14.049,0,0,1,5.292-5.1A15.828,15.828,0,0,1,238.809-6.175Zm-.071,3.186q-6.8,0-9.735,3.894t-2.938,12.85v.6q0,8.708,3.062,12.5t9.54,3.788q6.3,0,9.487-4.407t3.186-12.549Q251.34-2.989,238.738-2.989Zm42.514,36.744q-8.389,0-13.08-5.168t-4.69-14.478q0-9.2,4.531-14.744a14.955,14.955,0,0,1,12.212-5.54,13.186,13.186,0,0,1,10.726,4.743q3.929,4.743,3.929,12.885v2.832H267.163q.071,7.929,3.7,12.106t10.389,4.177a32.225,32.225,0,0,0,5.788-.46,35.172,35.172,0,0,0,6.319-1.982v3.186a28.183,28.183,0,0,1-6.018,1.929A33.4,33.4,0,0,1,281.252,33.755ZM280.225-3.06A11.528,11.528,0,0,0,271.3.6q-3.363,3.664-3.929,10.566h23.788q0-6.69-2.9-10.46A9.575,9.575,0,0,0,280.225-3.06ZM-159.6,86.415a57.122,57.122,0,0,1-11.168,15.947q-6.637,6.566-11.558,6.566a6.911,6.911,0,0,1-6-3.345,15.721,15.721,0,0,1-2.248-8.9,30.415,30.415,0,0,1,6.708-19.5q6.708-8.425,15.522-8.425a24.8,24.8,0,0,1,11.575,3.327q.92-3.292,7.5-3.292.425,0,1.381.035a23.984,23.984,0,0,0-3.08,8.425l-.6,3.009a59.323,59.323,0,0,0-1.027,11.752q0,7.752,3.611,7.752,3.823,0,10.46-6.389A92.015,92.015,0,0,0-125.475,77.1l2.761,1.912A78.809,78.809,0,0,1-137.688,98.5q-8.425,7.805-14.478,7.805-7.646,0-7.646-12.743Q-159.812,90.91-159.6,86.415Zm1.664-8.46q-7.434-4.85-12.354-4.85-5.345,0-9.239,6.5a29.425,29.425,0,0,0-3.894,15.416q0,7.151,4.673,7.151,5.062,0,19.363-22.23Q-159.21,79.654-157.936,77.954Zm61.629,17.664q12.743-26.9,22.514-26.9,4.283,0,4.283,6.195,0,2.655-1.841,11.965L-73.475,97.6q6.195-13.027,12.921-20.938t11.611-7.912q5.381,0,5.381,6.3a73.57,73.57,0,0,1-1.593,10.372l-1.1,5.522a42.245,42.245,0,0,0-.991,7.4q0,4.248,3.009,4.248,6.8,0,20.885-25.275l2.973,1.664q-15.363,29.947-26.832,29.947-7.327,0-7.327-9.558a58.858,58.858,0,0,1,1.416-10.23l.991-4.885a46.069,46.069,0,0,0,.991-6.159A1.361,1.361,0,0,0-52.7,76.574q-3.823,0-13.7,15.186-8.956,13.841-8.956,15.823a3.431,3.431,0,0,0,.142.743q-.5.106-1.735.46a5.369,5.369,0,0,1-1.593.177q-3.292,0-3.292-3.15a44.05,44.05,0,0,1,1.062-5.77q.389-1.735.779-3.717l1.487-7.5a80.424,80.424,0,0,0,1.628-9.735q0-2.372-1.735-2.372-3.823,0-11.257,13.7-7.4,13.593-7.4,16.213a2.306,2.306,0,0,0,.566,1.451,9.021,9.021,0,0,1-3.575.85q-3.681,0-3.681-3.965,0-.5,1.062-10.3l.814-7.54a69.129,69.129,0,0,0,.425-7.328q0-4.248-1.735-6.23a20.334,20.334,0,0,1,5.805-1.487q3.115,0,3.115,3.681,0,1.31-.85,9.735Zm73.275-2.3q0,10.372,8.779,10.372,7.611,0,16.779-7.257A73.377,73.377,0,0,0,19.057,77.317l3.009,1.664A65.617,65.617,0,0,1,4.03,100.433q-11.1,8.5-21.044,8.5-6.372,0-10.071-4.106t-3.7-11.221a25.019,25.019,0,0,1,6.708-17.558A21.18,21.18,0,0,1-7.917,68.751a11,11,0,0,1,7.31,2.3,7.629,7.629,0,0,1,2.743,6.159q0,6.336-7.628,11.221A31.813,31.813,0,0,1-23.032,93.317Zm.283-3.4a23.093,23.093,0,0,0,12.69-4.248q5.292-3.858,5.292-8.92,0-4.531-4.035-4.531-4.814,0-8.885,5.168A25.268,25.268,0,0,0-22.749,89.919Zm46.726,5.416Q36.544,68.751,46.562,68.751q7.823,0,7.823,15.575l.071,4.283q0,7.434.761,10.283T58,101.742q3.044,0,6.92-4.85t12.62-19.5l2.973,1.735q-7.788,14.69-13.947,21.806t-11.044,7.115a6.407,6.407,0,0,1-6.319-4.354q-1.823-4.354-1.823-15.08l-.035-3.044a30.657,30.657,0,0,0-.743-8.159q-.743-2.354-2.584-2.354-4.673,0-15.044,18.655-2.549,4.566-3.292,5.876-2.726,4.743-2.726,6.867a3.155,3.155,0,0,0,.46,1.628,9.43,9.43,0,0,1-3.469.85q-3.575,0-3.575-3.965,0-1.133.92-10.195l.779-7.682a75.045,75.045,0,0,0,.531-7.575A9.32,9.32,0,0,0,16.9,73.6q.743-.248,2.478-.85a11.179,11.179,0,0,1,3.5-.779q2.761,0,2.761,4.035,0,2.124-.531,7.292Q25,84.432,24.9,85.459Zm73.558-1.31a6.512,6.512,0,0,1,.956,3.044q0,3.469-5.858,7.664T81.96,108.928a8.134,8.134,0,0,1-6.92-3.788,16.569,16.569,0,0,1-2.673-9.77q0-6.655,3.5-18.938L77.5,70.485H71.518a14.076,14.076,0,0,0-5.982,1.062q2.053-3.752,3.4-4.708a8.166,8.166,0,0,1,4.566-.956h5.345l.708-2.443q1.628-5.451,3.894-7.487t6.8-2.035q.531,0,1.7.071-2.761,3.54-5.735,11.894H104.9a17.467,17.467,0,0,0,7.5-1.274q-.885,3.646-2.354,4.761t-5.469,1.115H84.686q-.354,1.168-.531,1.735Q79.872,86.8,79.872,94.238q0,8.212,5.912,8.212a11.646,11.646,0,0,0,6.637-2.584A15.268,15.268,0,0,0,97.536,94.025ZM140.51,81.954a12.4,12.4,0,0,1,.106,1.522,25.633,25.633,0,0,1-6.938,17.841q-6.938,7.611-16.248,7.611a15.555,15.555,0,0,1-11.593-4.549,16.109,16.109,0,0,1-4.478-11.805,20,20,0,0,1,5.788-14.3,18.276,18.276,0,0,1,13.646-6.053,11.072,11.072,0,0,1,2.549.319,5.835,5.835,0,0,1-.885-2.69,5.353,5.353,0,0,1,1.168-3.257q8.637.708,14.372,8.85a21.458,21.458,0,0,0,12.248,4,18.029,18.029,0,0,0,8.956-2.8l1.77,3.009a19.944,19.944,0,0,1-11.54,3.929A29.154,29.154,0,0,1,140.51,81.954Zm-8.035-3.009a16.323,16.323,0,0,1-5.416-2.832,14.768,14.768,0,0,0-3.009-.389q-6.018,0-10.673,5.416a18.422,18.422,0,0,0-4.655,12.354,12.148,12.148,0,0,0,2.814,8.266A9.152,9.152,0,0,0,118.775,105q5.982,0,10.3-6.035a24.074,24.074,0,0,0,4.319-14.39A17.476,17.476,0,0,0,132.474,78.946Zm27.292,28.85a9.762,9.762,0,0,1-3.858,1.133q-3.611,0-3.611-3.186a60.5,60.5,0,0,1,1.274-8.106l1.77-8.814a63.894,63.894,0,0,0,1.628-11.646,5.133,5.133,0,0,0-1.168-3.434,19.662,19.662,0,0,1,6.053-1.274q2.478,0,2.478,3.15a73.227,73.227,0,0,1-1.77,10.23l-2.018,10.3q6.69-12.991,13.469-20.195t12.3-7.2a5.272,5.272,0,0,1,3.363,1.115,3.343,3.343,0,0,1,1.416,2.708q0,2.478-5.381,6.584-1.345-2.8-3.823-2.8-4.5,0-11.469,9.558a89.241,89.241,0,0,0-7.5,12.266q-3.186,6.319-3.186,9.009Zm78.447-51.225a37.682,37.682,0,0,1,17.8,4.1A30.154,30.154,0,0,1,272.5,88.179a29.43,29.43,0,0,1-1.849,10.983,15.375,15.375,0,0,1-5.183,7,13.078,13.078,0,0,1-7.83,2.392,11.494,11.494,0,0,1-6.235-1.595,9.111,9.111,0,0,1-3.7-4.712q-3.915,6.307-12.4,6.307a16.1,16.1,0,0,1-8.482-2.32,16.349,16.349,0,0,1-6.053-6.488,21.5,21.5,0,0,1,0-18.994A16.435,16.435,0,0,1,226.8,74.26a16.043,16.043,0,0,1,8.518-2.32q7.177,0,11.164,4.785V72.448h9.859V95.936q0,4.64,3.48,4.64,2.537,0,3.951-3.045t1.414-9.207a24.661,24.661,0,0,0-3.371-12.941,23.166,23.166,0,0,0-9.5-8.772,30.378,30.378,0,0,0-14.1-3.154,28.769,28.769,0,0,0-14.1,3.371,23.964,23.964,0,0,0-9.5,9.316,26.852,26.852,0,0,0-3.371,13.484,27.583,27.583,0,0,0,3.335,13.666,23.775,23.775,0,0,0,9.388,9.352,28.2,28.2,0,0,0,13.956,3.371,31.78,31.78,0,0,0,14.282-3.19l2.32,6.67a30.143,30.143,0,0,1-7.721,2.574,44.489,44.489,0,0,1-8.881.906,37.369,37.369,0,0,1-18.2-4.314,30.794,30.794,0,0,1-12.252-11.926,33.865,33.865,0,0,1-4.35-17.109,33.112,33.112,0,0,1,4.386-16.964,30.824,30.824,0,0,1,12.361-11.817A38.205,38.205,0,0,1,238.213,56.571Zm-.652,43.643a8.64,8.64,0,0,0,6.525-2.646,10.2,10.2,0,0,0,2.537-7.358,9.962,9.962,0,0,0-2.537-7.25c-1.692-1.74-6.525-2.61-6.525-2.61s-4.881.882-6.525,2.646a10.165,10.165,0,0,0-2.465,7.213,10.406,10.406,0,0,0,2.465,7.322A8.438,8.438,0,0,0,237.561,100.214ZM351.018,68.46q7.322,0,11.636,4.314t4.314,12.941v22.329H355.657V87.454q0-4.64-1.921-6.923a6.755,6.755,0,0,0-5.473-2.284,8.065,8.065,0,0,0-6.307,2.574q-2.32,2.574-2.32,7.648v19.574H328.326V87.454q0-9.207-7.395-9.207a7.978,7.978,0,0,0-6.235,2.574q-2.32,2.574-2.32,7.648v19.574H301.068v-39h10.8v4.495a14.274,14.274,0,0,1,5.328-3.77,17.935,17.935,0,0,1,6.923-1.3,16.768,16.768,0,0,1,7.467,1.631,13.224,13.224,0,0,1,5.365,4.749,16,16,0,0,1,6.053-4.712A19.1,19.1,0,0,1,351.018,68.46Zm64.739,20.226q0,.217-.217,3.045H386.033a9.189,9.189,0,0,0,3.77,5.727,12.486,12.486,0,0,0,7.395,2.1,14.973,14.973,0,0,0,5.4-.906,13.082,13.082,0,0,0,4.386-2.864L413,102.316q-5.51,6.307-16.094,6.307a25.46,25.46,0,0,1-11.672-2.574,18.866,18.866,0,0,1-7.83-7.141,19.675,19.675,0,0,1-2.755-10.367,19.931,19.931,0,0,1,2.719-10.331,19.046,19.046,0,0,1,7.467-7.177,23.118,23.118,0,0,1,20.988-.109,17.991,17.991,0,0,1,7.286,7.068A21.077,21.077,0,0,1,415.757,88.687ZM395.53,77.015a9.74,9.74,0,0,0-6.452,2.175,9.259,9.259,0,0,0-3.19,5.945H405.1a9.351,9.351,0,0,0-3.19-5.908A9.534,9.534,0,0,0,395.53,77.015ZM447,68.46q7.25,0,11.708,4.35t4.458,12.9v22.329H451.86V87.454q0-4.64-2.03-6.923a7.444,7.444,0,0,0-5.872-2.284,9,9,0,0,0-6.815,2.646q-2.537,2.646-2.537,7.866v19.284H423.3v-39h10.8v4.567a15,15,0,0,1,5.582-3.806A19.449,19.449,0,0,1,447,68.46Zm51.545,37.7a11.625,11.625,0,0,1-4.1,1.849,20.709,20.709,0,0,1-5.111.616q-6.96,0-10.766-3.552t-3.806-10.439V78.61h-6.017v-8.7h6.017v-9.5h11.309v9.5h9.714v8.7h-9.714V94.486a5.324,5.324,0,0,0,1.269,3.806,4.7,4.7,0,0,0,3.589,1.341,7.268,7.268,0,0,0,4.567-1.45Zm23.706,2.465A23.387,23.387,0,0,1,511.2,106.05a19.132,19.132,0,0,1-7.648-7.141,20.884,20.884,0,0,1,0-20.734,19.132,19.132,0,0,1,7.648-7.141,24.955,24.955,0,0,1,22.075,0,19.191,19.191,0,0,1,7.612,7.141,20.884,20.884,0,0,1,0,20.734,19.191,19.191,0,0,1-7.612,7.141A23.172,23.172,0,0,1,522.254,108.623Zm0-9.28a9.42,9.42,0,0,0,7.141-2.936,10.945,10.945,0,0,0,2.791-7.866,10.945,10.945,0,0,0-2.791-7.866,9.42,9.42,0,0,0-7.141-2.936,9.536,9.536,0,0,0-7.177,2.936,10.862,10.862,0,0,0-2.827,7.866,10.862,10.862,0,0,0,2.827,7.866A9.536,9.536,0,0,0,522.254,99.344Zm39.728-25.156a12.577,12.577,0,0,1,5.473-4.277,20.315,20.315,0,0,1,7.938-1.45V78.9q-1.885-.145-2.537-.145a10.367,10.367,0,0,0-7.612,2.719q-2.755,2.719-2.755,8.156v18.414H551.18v-39h10.8Zm58,7.467a13.382,13.382,0,0,1,6.815,4.6,12.691,12.691,0,0,1,2.465,7.938,11.728,11.728,0,0,1-5.184,10.258q-5.184,3.589-15.115,3.589H582.716V57.3H607.51q9.28,0,14.246,3.552a11.244,11.244,0,0,1,4.966,9.642,12.195,12.195,0,0,1-6.742,11.164ZM594.388,66.14V78.1H606.06q4.35,0,6.6-1.522a5.078,5.078,0,0,0,2.247-4.495,4.989,4.989,0,0,0-2.247-4.459q-2.247-1.486-6.6-1.486ZM608.09,99.2q4.64,0,7-1.522a5.214,5.214,0,0,0,2.356-4.712q0-6.307-9.352-6.307h-13.7V99.2ZM653.11,68.46q9.062,0,13.919,4.314t4.857,13.013v22.256H661.3v-4.857q-3.19,5.437-11.889,5.437a18.453,18.453,0,0,1-7.793-1.522,11.621,11.621,0,0,1-5.038-4.2,10.944,10.944,0,0,1-1.74-6.09,10.162,10.162,0,0,1,4.1-8.555q4.1-3.117,12.651-3.117h8.99a7.207,7.207,0,0,0-2.247-5.691q-2.247-1.994-6.742-1.994a19.686,19.686,0,0,0-6.126.979,16.208,16.208,0,0,0-5.111,2.646l-4.06-7.9a24.5,24.5,0,0,1,7.648-3.48A34.262,34.262,0,0,1,653.11,68.46Zm-.87,32.551a9.849,9.849,0,0,0,5.147-1.341,7.339,7.339,0,0,0,3.19-3.951V91.732H652.82q-6.96,0-6.96,4.567a4.067,4.067,0,0,0,1.7,3.444A7.674,7.674,0,0,0,652.24,101.011ZM705.162,68.46a19.877,19.877,0,0,1,9.9,2.5,17.959,17.959,0,0,1,7,7.032,21.229,21.229,0,0,1,2.537,10.548,21.229,21.229,0,0,1-2.537,10.548,17.959,17.959,0,0,1-7,7.032,19.877,19.877,0,0,1-9.9,2.5q-8.047,0-12.252-5.075v4.495h-10.8V54.251h11.309V73.172Q697.7,68.46,705.162,68.46ZM703.2,99.344a9.42,9.42,0,0,0,7.141-2.936,10.945,10.945,0,0,0,2.791-7.866,10.945,10.945,0,0,0-2.791-7.866,10.152,10.152,0,0,0-14.282,0,10.945,10.945,0,0,0-2.791,7.866,10.945,10.945,0,0,0,2.791,7.866A9.42,9.42,0,0,0,703.2,99.344ZM747.21,68.46q9.062,0,13.919,4.314t4.857,13.013v22.256H755.4v-4.857q-3.19,5.437-11.889,5.437a18.452,18.452,0,0,1-7.793-1.522,11.621,11.621,0,0,1-5.039-4.2,10.944,10.944,0,0,1-1.74-6.09,10.162,10.162,0,0,1,4.1-8.555q4.1-3.117,12.651-3.117h8.99a7.207,7.207,0,0,0-2.247-5.691q-2.247-1.994-6.742-1.994a19.686,19.686,0,0,0-6.126.979,16.208,16.208,0,0,0-5.111,2.646l-4.06-7.9a24.5,24.5,0,0,1,7.648-3.48A34.262,34.262,0,0,1,747.21,68.46Zm-.87,32.551a9.849,9.849,0,0,0,5.147-1.341,7.339,7.339,0,0,0,3.19-3.951V91.732H746.92q-6.96,0-6.96,4.567a4.067,4.067,0,0,0,1.7,3.444A7.674,7.674,0,0,0,746.34,101.011Z" transform="translate(289 1122.019)"/>
    <g id="Group_7992" data-name="Group 7992" transform="translate(277.351 228.258)">
      <path id="Path_3011" data-name="Path 3011" class="cls-1" d="M1320.137,5005.86c-.544-6.441,8.437-6.986,9.072-1.181C1329.844,5011.395,1320.59,5011.3,1320.137,5005.86Zm15.513-4.81c-1.271-6.349,7.711-7.438,8.8-2.267C1345.992,5005.77,1336.647,5006.132,1335.65,5001.051Zm16.783-11.156c5.9-2.9,8.618,5.623,4.082,7.981a4.633,4.633,0,0,1-6.35-2C1348.169,4991.616,1351.525,4990.438,1352.433,4989.895Zm-103.964-94.622c-.182,5.444,11.249,35.925,11.884,42.82-3.084,3.719-16.42,13.245-20.956,17.87l4.718,31.573c-7.348,3.99-47.174,35.287-52.073,37.284,1.542-5.715,9.979-23.042,13.245-31.026,3.448-8.347,3.084-5.171,2.813-10.343.272-4.445-5.08-26.761-6.35-32.748-1.905-8.8-3.357-8.346.816-15.423,2.268-3.72,5.625-8.255,7.258-11.975-1.361-2.631-6.079-8.255-7.984-10.251l-31.3,4.172c-1.27.546-2.9,5.717-3.72,8.527-1.088,3.266,0,3.357,3.357,7.258,8.528,9.979,8.165,8.8,6.895,14.879-1.27,6.8-7.439,35.652-7.076,40.188-.544,3.175,2.721,6.8,4.354,9.616,1.905,2.993,3.629,5.987,5.353,8.89,3.629,5.987,7.983,12.158,10.977,18.416-4.173-1.724-10.8-6.349-14.606-8.8-5.08-3.174-9.8-6.077-14.7-9.07-4.808-3.086-9.072-5.807-14.243-8.981-4.082-2.54-10.614-7.168-14.7-8.981l2.54-28.486-27.669-15.512c.363-4.991,3.81-14.879,5.353-20.231,1.179-4.264,5.262-16.6,5.262-20.23-11.068-.727-21.773-1.179-32.841-2.45-7.8-.815-24.041-2.448-30.573-4.626-2.268.546-1.36-.908-3.084,5.807-.635,2.539-1.179,4.626-1.814,7.166-1.089,5.081-2.086,9.888-2.9,14.968-12.156,76.113,13.608,132.633,103.6,138.167,41.277,2.539,83.462-10.251,117.663-23.226,26.49-10.068,49.351-19.5,75.025-30.754,4.354-1.905,7.983-3.537,12.338-5.441l9.072-3.992c2.722-1.36,2-.181,1.724-2.631-.726-5.807-3.084-13.972-4.445-19.867-1-4.628-4.173-15.6-3.992-19.6l-1.269-2.086c-12.7,6.352-25.4,13.518-38.375,20.412-33.657,17.781-87.635,43.907-122.561,54.977-64.321,20.321-130.908-5.625-129.366-78.563.091-3.448-.635-11.341,2.087-13.337,2.631,1.543,1.179,3.085.816,9.98a98.685,98.685,0,0,0,2.812,30.572c9.8,36.831,43.273,54.431,80.1,55.429,35.381,1,72.757-17.779,103.965-31.57,7.167-3.083,26.49-13.063,31.026-14.6-.725-3.447-2.54-7.622-3.628-10.978-1.27-3.721-2.449-7.438-3.538-11.34a313.009,313.009,0,0,1-11.34-62.869l-.635-10.16c-.454-3.085.363-2.087-2.177-2.268Z" transform="translate(-949.186 -4448.029)"/>
      <path id="Path_3012" data-name="Path 3012" class="cls-2" d="M736.824,8275.977c-4.264,2.354-3.448,3.9-13.517,5.078-16.511,2.084-34.473-1.27-50.712-2.811l1.089-17.6c-.726,1.271.816-1.27-.544,1-.635,1.27-.363.818-.816,1.27l-17.6-1.9,3.175,36.375c1.089-.268,5.625-4.713,10.8-7.436a24.47,24.47,0,0,1,16.057-2.719c7.076,1.268,22.226,11.156,16.964,18.592-7.53,10.617-64.773,10.254-65.408,8.984-.091-.182-.363-.088-.635-.182l-.453-55.793-17.418-1c.181,9.8,1.27,77.02-.726,80.834l-3.81-1c-8.528-.09-20.14-1.994-28.939-2.812l-145.967-14.6c-7.167-.725-54.794-5.08-57.788-6.26l-1.452-11.248,218,11.883-6.895-57.789c-6.26-1.09-20.23-.635-27.125-.543-27.488.271-50.258,1.453-77.837,4.082-27.306,2.539-110.042,13.969-124.557,38.736-19.5,33.295,89.63,49.258,107.865,51.621,63.957,8.254,141.794,8.527,205.388-1,28.123-4.172,63.776-10.8,85.548-22.951,5.715-3.178,12.156-7.715,15.059-12.34,11.884-18.871-20.231-31.3-33.929-36.285C736.915,8276.791,737.187,8277.244,736.824,8275.977Z" transform="translate(-325.867 -7507.129)"/>
      <path id="Path_3013" data-name="Path 3013" class="cls-1" d="M1495.054,6636.563l.454,55.792c.272.09.544,0,.635.182.635,1.27,57.879,1.633,65.409-8.98,5.261-7.44-9.888-17.329-16.965-18.6a24.458,24.458,0,0,0-16.057,2.723c-5.171,2.721-9.707,7.167-10.8,7.438l-3.175-36.378-5.262-57.97c-6.078-3.447-63.775-22.407-67.495-25.311,15.6-1.36,24.948-.725,40.1-6.259,3.266-1.181,6.894-4.175,10.342-3.084l45,16.511-3.719,75.75-1.089,17.6c16.239,1.543,34.2,4.9,50.712,2.813,10.07-1.179,9.253-2.721,13.517-5.079.453-6.169-1.542-8.893-4.718-12.429a24.535,24.535,0,0,0-25.855-7.258c-5.443,1.632-7.893,4.173-11.793,5.807l-2.813-87.816c-1.36-1.542-44.634-29.03-47.537-30.119v-41c-2.087-.092-19.958,6.53-23.859,7.71-8.256,2.54-16.148,4.989-24.857,7.258-35.925,9.253-75.207,11.794-110.95-.09-27.76-9.163-33.566-19.868-40.279-23.77.635,7.167,13.245,86.272,16.51,94.438l174,23.86Z" transform="translate(-1185.702 -5884.863)"/>
      <path id="Path_3014" data-name="Path 3014" class="cls-3" d="M264.355,5119.706l6.895,57.787-218-11.884,1.452,11.249c2.994,1.178,50.621,5.533,57.788,6.261l145.967,14.605c8.8.816,20.412,2.722,28.939,2.811l3.81.272.181-111.674L97.7,5064.457c-.816-5.353,2.994-67.222,3.538-78.38.272-6.532.635-13.154.907-19.6.454-7.349-1.724-9.8-4.173-15.784l-36.2-86.819c-4.082-9.889-8.165-19.143-11.975-28.94-3.447-8.89-8.074-20.683-12.247-28.937L0,4827.318c.544,2.813,29.03,52.254,33.022,59.329l41.731,73.574c2,3.629,7.53,11.248,6.985,15.239-3.447,23.588-9.526,53.616-13.7,78.291-1.089,6.079-6.713,35.382-6.622,39.1l201.033,14.061Z" transform="translate(0 -4370.004)"/>
      <path id="Path_3015" data-name="Path 3015" class="cls-4" d="M1275.3,3613.624c22.408-5.625,33.657-3.9,56.609-1-.091,7.894-4.718,14.153-8.437,17.872C1311.954,3641.928,1276.665,3640.93,1275.3,3613.624Zm-15.876-35.472c8.618-4.082,6.078,19.414-.635,22.771C1249.812,3605.459,1251.172,3582.054,1259.428,3578.152Zm87.181-7.8c8.619-4.264,5.9,20.23-.907,23.043C1336.992,3596.932,1338.626,3574.343,1346.609,3570.351Zm-128-26.128c.635,6.17-3.9,31.027-5.987,36.38-2.449-.907-16.329-14.879-19.051.726-2.268,13.244,3.447,17.055,15.059,13.789-.816,15.06-22.226,35.925-33.657,44.906-1.905,1.451-14.424,9.888-14.969,10.886l.09.271c6.532,2.178,22.771,3.811,30.573,4.628,11.068,1.27,21.773,1.724,32.841,2.448.816.363.907.183,1.633.726,1.451-1.18,13.7-.452,16.329-.362,26.218.092,78.2-3.265,103.511-8.346,1.633-.363,6.078-1.814,7.348-.272.091-.091.635-.453.726-.544.181-.092.363-.272.544-.363a1.985,1.985,0,0,1,.453-.271l17.146-3.448c1-.816-1.27-.182,1.814-1.179.635-21.319-.725-44.452-2.177-65.408-.635-9.979-4.718-52.255-8.8-57.788-.091,18.325-43,23.133-61.326,24.947a358.1,358.1,0,0,1-42,1.179C1248.269,3546.945,1222.142,3544.042,1218.6,3544.223Z" transform="translate(-1054.766 -3201.578)"/>
      <path id="Path_3017" data-name="Path 3017" class="cls-5" d="M1503.917,1219.985l12.156-.091c-2.268-26.762-26.49-93.894-12.429-122.743,3.719-7.621,9.616-5.625,13.427.181,3.084,4.718,4.354,11.522,6.26,17.056,2.631-5.806,2-11.794,6.622-17.146,5.9-6.713,10.977.816,12.61,6.8,2.722-3.992,2.45-10.886,7.076-14.969,5.171-4.627,9.616,2.268,10.7,7.71,2.631,12.61.544,28.214-.363,41.278-.544,8.527-6.441,80.377-6.168,81.193l14.787-.091c0-18.144,13.427-40.007,21.591-52.164,10.524-15.694,19.868-32.84,16.148-57.334-6.169-40.007-33.838-71.124-80.377-67.132-40.914,3.538-72.212,35.381-70.035,77.474C1457.923,1159.748,1498.474,1180.976,1503.917,1219.985Z" transform="translate(-1323.749 -947.647)"/>
      <path id="Path_3022" data-name="Path 3022" class="cls-6" d="M4143.834,3712.586l4.9-.182c-.453-6.713-12.156-42.094-15.06-57.7-1.724-9.161-3.538-24.312,0-32.839,2.449-5.807,6.9-4.9,10.161-.454,2.54,3.448,3.356,8.256,5.444,11.975.634-2.9,2.992-19.867,10.611-13.789,1.272.907,2.087,3.356,3.267,4.9,1.814-3.9,1.634-8.709,4.629-11.249,3.9-3.265,7.164,2,8.071,5.172,2.9,10.522,1.816,48.534,1.543,61.507-.09,9.8-1.18,20.684-.725,30.3l8.526-.544,2.813-1c1.813-37.1,31.39-47.446,22.135-84.731-14.424-57.969-76.2-52.345-99.335-23.769-7.713,9.525-14.244,26.4-11.251,42.819,4.445,24.767,27.579,39.372,36.469,59.239,1.272,2.632,2.813,8.256,3.991,10.343Z" transform="translate(-3726.981 -3254.545)"/>
      <path id="Path_3024" data-name="Path 3024" class="cls-1" d="M3713.737,6459.3c5.353-3.9,9.524,4.536,4.989,7.53C3713.919,6469.827,3708.112,6463.386,3713.737,6459.3Zm16.238-2.086c5.987-2.724,8.891,5.985,3.9,8.163C3728.252,6467.921,3724.623,6459.665,3729.976,6457.218Zm15.24-2.812c5.716-2.45,8.619,6.893,2.9,8.527C3742.676,6464.475,3739.139,6457.034,3745.216,6454.405Zm12.7,9.616-6.985-34.293c-1-1.632-.907-2.359-1.18-4.355-5.987,1.091-11.884,3-18.506,3.993-19.324,2.9-40.553,1.542-58.424-4.9a105.9,105.9,0,0,1-28.668-15.241c-6.35-4.627-18.506-15.785-21.953-22.228l-34.2,13.245c1.361,4.445,9.889,16.149,12.429,19.414,39.189,51.62,91.626,61.325,152.952,47.355C3759.641,6465.562,3758.371,6466.38,3757.917,6464.021Z" transform="translate(-3262.5 -5807.575)"/>
      <path id="Path_3025" data-name="Path 3025" class="cls-7" d="M1188,3235.852c2.813,4.627.182,5.443,8.981,11.068,10.887,6.985,34.836,12.609,47.083,13.607,3.538-.181,29.665,2.723,40.1,2.9a358.1,358.1,0,0,0,42-1.179c18.325-1.814,61.235-6.623,61.326-24.948-.907-10.523-12.973-15.967-22.589-19.232a153.1,153.1,0,0,0-35.29-7.439c-1,4.627-2.087,5.625-3.81,8.437,2.268,2.54,6.441,4.989,3.175,9.8-1.724,2.631-5.352,4.536-10.07,4.808-7.711.636-6.8-.635-10.7,4.083l-7.348,7.8c-4.263.182-15.332.726-17.872-1.452-1.724-1.451-7.348-8.165-8.8-10.07-5.443-.363-12.973.726-16.42-2.177-5.352-4.536-1.542-7.529,1.361-10.977-.907-1.541-3.357-2.631-3.719-5.534-.272-2.994,2-4.536,2.812-6.35-14.424,1.361-28.576,2.9-41.912,6.441-6.078,1.633-12.7,3.9-17.6,6.713C1192.718,3225.6,1189.905,3227.96,1188,3235.852Z" transform="translate(-1080.226 -2917.883)"/>
      <path id="Path_3027" data-name="Path 3027" class="cls-6" d="M5434.879,5110.031c2.449.453,5.169,1.724,7.8,1.359,1.632-20.229.272-65.952,12.247-81.647,2.812-3.627,6.352-4.987,8.891-.635,2,3.358,1.9,9.8,2,14.152,3.084-3.81,4.626-10.976,11.067-10.7,3.175,1.815,2.994,3.176,3.537,7.257,3.539-3.536,3.721-8.889,10.251-8.8,3.176,3.083,3.086,5.715,2.359,10.7-1.541,9.615-7.074,23.769-10.432,33.567l-15.151,42.819c2.632.726,5.172,1.724,7.8,1.542l2.358.636c2.63-10.614,15.239-23.407,21.318-28.668,8.437-7.348,17.417-15.331,21.047-28.849,6.985-25.493-3.266-55.521-32.479-64.5-13.516-4.175-30.026-2.994-41.911,3.082-10.614,5.445-18.507,15.062-23.133,26.764-5.717,14.334-2.178,27.942,2.629,40.915,2.27,6.169,4.628,11.792,6.623,18.325C5435.877,5100.777,5433.519,5102.139,5434.879,5110.031Z" transform="translate(-4927.848 -4542.583)"/>
      <path id="Path_3030" data-name="Path 3030" class="cls-8" d="M1976.6,1674.11l-26.49.363c-2.268-9.162-4.263-19.5-6.35-28.667-4.626-20.956-16.783-77.111-6.169-92.534,9.163,1.27,11.431,35.562,14.153,41.731l3.174-.181c2.994-5.08-2.358-6.351.545-20.23.907-4.536,3.9-16.057,7.167-17.962,1.542.816,1.271.272,2.268,2.722,5.625,14.7-1,30.753,7.892,27.85.726-1.905,2.087-34.836,8.256-37.558,5.443,2.54,3.811,23.587,3.266,30.209C1983.136,1594.458,1978.963,1666.671,1976.6,1674.11Zm-44.271.544c-2.177,2-5.171,3.538-5.353,8.074-.09,4.536,3.176,7.258,4.536,9.526l-1.36,1.18c-.817,1.814-3.085,3.356-2.812,6.35.363,2.9,2.813,3.991,3.72,5.534-2.9,3.447-6.713,6.441-1.361,10.977,3.448,2.9,10.978,1.814,16.42,2.177,1.451,1.9,7.076,8.618,8.8,10.07,2.541,2.177,13.608,1.633,17.872,1.451l7.349-7.8c3.9-4.718,2.994-3.448,10.705-4.082,4.717-.272,8.346-2.177,10.069-4.808,3.266-4.809-.907-7.258-3.175-9.8,1.723-2.812,2.812-3.81,3.81-8.437-.726-2.812-1.452-2.177-3.81-3.992,1-2.631,3.9-4.626,4.173-8.981.272-4.717-2.268-6.169-4.9-8.255l-14.787.091c-.272-.816,5.625-72.666,6.168-81.194.907-13.064,2.994-28.667.363-41.278-1.089-5.443-5.534-12.338-10.705-7.711-4.626,4.082-4.354,10.977-7.076,14.969-1.634-5.987-6.714-13.517-12.61-6.8-4.627,5.352-3.992,11.34-6.622,17.146-1.906-5.534-3.176-12.337-6.26-17.055-3.811-5.806-9.708-7.8-13.427-.181-14.062,28.848,10.161,95.98,12.428,122.742Z" transform="translate(-1752.167 -1402.316)"/>
      <path id="Path_3031" data-name="Path 3031" class="cls-9" d="M1116.245,3636.36c.544-1,13.064-9.435,14.969-10.887,11.431-8.98,32.84-29.846,33.657-44.905-11.612,3.267-17.328-.544-15.06-13.789,2.722-15.6,16.6-1.633,19.051-.727,2.086-5.353,6.622-30.209,5.988-36.377-12.247-1-36.2-6.623-47.083-13.608-8.8-5.625-6.169-6.441-8.982-11.067-8.255,41.912-8.346,84.822-4.263,127.642C1114.885,3636.18,1115.338,3635.726,1116.245,3636.36Z" transform="translate(-1011.01 -3187.03)"/>
      <path id="Path_3033" data-name="Path 3033" class="cls-6" d="M1878,4945.01c.181,1.723-.09.815,1.088,2.813l36.016,59.6c2.086,3.537,4.083,6.8,6.26,10.342,1,1.723,2,3.444,3.175,5.262,2.812,4.717,1.542,3.9,3.9,4.627-.363-4.537,5.806-33.388,7.076-40.189,1.27-6.078,1.633-4.9-6.9-14.879-3.356-3.9-4.445-3.99-3.356-7.258.817-2.812,2.449-7.983,3.719-8.527l31.3-4.172c1.905,2,6.623,7.619,7.983,10.249-1.633,3.722-4.99,8.257-7.257,11.978-4.173,7.076-2.722,6.62-.817,15.421,1.27,5.987,6.623,28.306,6.35,32.751,1.815.906.726,1.9,3.176-3.9l7.167-16.512c4.354-10.342,28.123-63.775,28.3-66.588-1.27-1.544-5.715-.09-7.348.271-25.311,5.08-77.292,8.437-103.51,8.346C1891.7,4944.556,1879.451,4943.83,1878,4945.01Z" transform="translate(-1707.629 -4487.604)"/>
      <path id="Path_3034" data-name="Path 3034" class="cls-5" d="M2040.628,1748.466c2.358-7.439,6.532-79.651,7.71-94.257.544-6.622,2.178-27.669-3.265-30.209-6.169,2.721-7.53,35.653-8.256,37.557-8.89,2.9-2.268-13.154-7.893-27.851-1-2.449-.726-1.905-2.268-2.721-3.266,1.905-6.259,13.427-7.167,17.962-2.9,13.88,2.449,15.15-.544,20.231l-3.175.181c-2.721-6.168-4.989-40.46-14.152-41.73-10.614,15.422,1.542,71.577,6.169,92.533,2.086,9.163,4.082,19.5,6.35,28.667Z" transform="translate(-1816.188 -1476.671)"/>
      <path id="Path_3038" data-name="Path 3038" class="cls-8" d="M4499.316,3948.3c5.442,3.992,3.355,36.379,3.355,44.815,0,15.6.544,32.205-.815,47.718l-19.867,1.724c-3.447-14.151-25.4-78.2-14.788-89.449,3.991,1.18,6.351,9.345,7.8,13.7,2.358,7.167,2.176,14.878,5.262,16.511,3.175-1,2.177-2.54,1.271-5.806a18.248,18.248,0,0,1-.454-8.619c.363-3.446,1.815-12.064,4.536-14.514,7.438,4.444,1.27,24.222,9.163,22.316.815-3.721-.636-10.614,1.631-22.045C4497.32,3950.477,4497.046,3949.478,4499.316,3948.3Zm-26.49,94.711c-3.72,1.633-5.987.091-7.258,4.9-1.27,4.627,1.906,6.532,3.357,8.709-3.176,3.72-4.627,5.625.271,9.526-1.723,2.721-4.081,5.443-.725,8.255,2.9,2.358,7.257.635,11.247,1.089,2.9.272,5.263,3.719,7.076,5.533,3.629,3.448,3.539,2.269,9.89,2.087,6.078-.182,5.261-.817,8.073-4.264.817-1,1.726-2.177,2.632-3.356,1.632-2.087,1-1.634,4.626-2.087,13.427-1.724,11.794-8.709,6.8-11.249,2-4.808,5.08-5.624-.453-9.616,1.088-2.268,5.079-8.073.181-11.611-1.905-1.362-1.724-.817-4.354-.817l-8.528.545c-.453-9.616.636-20.5.728-30.3.27-12.974,1.359-50.984-1.543-61.509-.907-3.175-4.175-8.437-8.073-5.17-2.994,2.54-2.813,7.348-4.627,11.248-1.18-1.541-2-3.991-3.267-4.9-7.619-6.078-9.979,10.886-10.614,13.789-2.087-3.719-2.9-8.527-5.443-11.975-3.266-4.445-7.71-5.353-10.159.454-3.539,8.527-1.726,23.677,0,32.84,2.9,15.6,14.6,50.983,15.059,57.7Z" transform="translate(-4055.971 -3584.969)"/>
      <path id="Path_3040" data-name="Path 3040" class="cls-10" d="M2731.7,4931.179c-.182,2.813-23.95,56.246-28.3,66.589l-7.167,16.51c-2.449,5.8-1.361,4.809-3.176,3.9.272,5.172.635,1.994-2.812,10.342-3.266,7.982-11.7,25.31-13.244,31.024,4.9-1.994,44.724-33.293,52.072-37.283l-4.717-31.57c4.536-4.629,17.872-14.152,20.957-17.873-.636-6.9-12.066-37.376-11.885-42.818a1.993,1.993,0,0,0-.454.271c-.181.091-.363.272-.544.364C2732.338,4930.725,2731.794,4931.089,2731.7,4931.179Z" transform="translate(-2434.145 -4482.757)"/>
      <path id="Path_3041" data-name="Path 3041" class="cls-8" d="M5494.231,5419.54c-.091-16.238,2-76.386,13.335-82.191,6.26,4.9-.816,26.49,2.359,30.209,3.538-.272,2.539-2.721,2.994-6.26.544-4.717,6.441-16.511,10.8-17.327,1.452,14.606-4.083,18.6-1.089,21.229,3.084,2.721,3.084-4.626,6.168-11.159,1.543-3.266,4.717-10.523,7.895-11.43,3.355,5.354-8.529,35.2-10.8,41.73-2.542,7.529-11.069,34.292-14.243,39.463Zm-11.431-2.9c-7.166,1.18-5.622,5.986-4.173,11.158-5.626,3.9-4.443,3.267-2.45,8.8-2.992,1.27-5.8,3.447-2.448,7.258,3.9,4.445,8.166,0,11.247,6.531,3.9,8.165,2.994,6.441,8.982,8.256,4.81,1.36,4.9,2.086,8.8-.635,2.721-1.906,4.264-3.81,7.893-3.085,3.629.636,6.621,1.543,9.8-.635s1.362-4.627.182-7.53c2.813-2.358,6.079-4.534,2-8.073,9.435-8.165,2.268-10.614.546-12.429-2.634.182-5.172-.816-7.8-1.541l15.15-42.821c3.358-9.8,8.892-23.949,10.432-33.565.728-4.989.816-7.619-2.359-10.705-6.53-.091-6.71,5.262-10.25,8.8-.544-4.082-.362-5.443-3.538-7.258-6.44-.271-7.983,6.9-11.066,10.706-.091-4.355,0-10.8-2-14.153-2.538-4.354-6.078-2.993-8.891.636-11.974,15.693-10.615,61.416-12.245,81.646C5487.971,5418.36,5485.251,5417.09,5482.8,5416.636Z" transform="translate(-4975.772 -4849.188)"/>
      <path id="Path_3042" data-name="Path 3042" class="cls-10" d="M1805.687,5117.371c-2.358-.727-1.088.091-3.9-4.626-1.18-1.815-2.177-3.537-3.175-5.263-2.177-3.537-4.173-6.8-6.26-10.341l-36.016-59.6c-1.179-2-.907-1.09-1.089-2.812-.726-.546-.816-.363-1.632-.728,0,3.629-4.083,15.968-5.262,20.231-1.542,5.354-4.99,15.242-5.353,20.23l27.669,15.514-2.541,28.483c4.083,1.814,10.614,6.442,14.7,8.982,5.17,3.174,9.435,5.895,14.243,8.98,4.9,2.994,9.616,5.9,14.7,9.073,3.81,2.448,10.433,7.076,14.606,8.8-2.994-6.26-7.348-12.43-10.977-18.419-1.724-2.9-3.447-5.9-5.353-8.891C1808.408,5124.173,1805.143,5120.546,1805.687,5117.371Z" transform="translate(-1584.876 -4577.318)"/>
      <path id="Path_3044" data-name="Path 3044" class="cls-6" d="M4536.313,4005c-2.267,1.179-2,2.178-2.9,6.351-2.268,11.431-.816,18.324-1.632,22.044-7.894,1.906-1.725-17.871-9.163-22.316-2.721,2.449-4.174,11.068-4.537,14.515a18.274,18.274,0,0,0,.454,8.619c.907,3.266,1.905,4.808-1.27,5.8-3.085-1.632-2.9-9.343-5.261-16.511-1.451-4.354-3.812-12.519-7.8-13.7-10.613,11.249,11.341,75.3,14.788,89.449l19.867-1.724c1.361-15.513.816-32.114.816-47.718C4539.67,4041.379,4541.758,4008.991,4536.313,4005Z" transform="translate(-4092.969 -3641.671)"/>
      <path id="Path_3046" data-name="Path 3046" class="cls-6" d="M5714.973,5463.192l17.417,4.262c3.174-5.17,11.7-31.933,14.242-39.462,2.267-6.533,14.152-36.377,10.795-41.729-3.174.905-6.349,8.163-7.891,11.429-3.086,6.532-3.086,13.88-6.171,11.159-2.994-2.632,2.539-6.622,1.089-21.229-4.354.816-10.249,12.61-10.795,17.327-.453,3.538.546,5.987-2.994,6.26-3.174-3.719,3.9-25.311-2.359-30.209C5716.966,5386.805,5714.88,5446.952,5714.973,5463.192Z" transform="translate(-5196.512 -4892.838)"/>
      <path id="Path_3051" data-name="Path 3051" class="cls-4" d="M4603,5566.911l7.892,37.287c9.708-1.089,34.475.453,36.833-3.9.727-3.809-1.271-4.989-3.9-6.259,3.447-1.271,6.44-4.808,1.813-9.435-.089-.091-.18-.272-.27-.362l-.545-.545c2.177-1.905,4.808-4.718,2-7.984-.636-.815,0-.09-.907-.906l-1.089-.907c-.091-.091-.273-.181-.362-.362l1.36-1.272A7.8,7.8,0,0,0,4647,5571c.907-1.271.907-2.632.545-4.446C4639.287,5559.383,4613.976,5565.824,4603,5566.911Z" transform="translate(-4185.419 -5058.523)"/>
      <path id="Path_3052" data-name="Path 3052" class="cls-4" d="M5476,6794.129l6.895,34.021a146.959,146.959,0,0,1,20.956-.457c6.078.184,14.787.729,18.234-2.629.182-3.721-1.178-3.721-3.81-5.262.09-.182.181-.273.272-.273a.406.406,0,0,1,.271-.27l1.632-1.359a3.233,3.233,0,0,0,1.361-2.906c.091-2.723-1.815-3.447-3.175-4.717,5.263-5.533,3.356-5.533-1.089-9.525,2.813-1.361,3.81-1.9,3.72-6.17C5510.02,6787.779,5487.339,6793.768,5476,6794.129Z" transform="translate(-4979.222 -6175.244)"/>
      <path id="Path_3053" data-name="Path 3053" class="cls-9" d="M2431,4504.89c1.359,27.306,36.649,28.3,48.171,16.874,3.719-3.721,8.346-9.98,8.437-17.873C2464.657,4500.989,2453.406,4499.265,2431,4504.89Z" transform="translate(-2210.462 -4092.842)"/>
      <path id="Path_3057" data-name="Path 3057" class="cls-11" d="M2207.958,25.583c-1.814,4.9-.363.816-1.543,6.35a32.083,32.083,0,0,0-.271,8.8c.362,2.9,1.542,15.422,2.268,17.055,2.722,2.631,3.811-4.082,5.444-4.445.09,0,.362-.091.453-.091,1.089-.272,1.542,1,1.542-2.994.091-2.722-.272-3.084-.544-6.441-.726-8.255,1.088-15.513-1.361-20.049-.817-1.452-1.27-5.625-.725-8.89.725-4.173.725-2.631-.545-6.622-1-2.994-.272-1,.272-3.084a.7.7,0,0,0,.181-.454l.092-3.538L2209.682,0c-4.445,9.072-3.176,7.348-2.812,12.247C2206.96,13.7,2203.694,21.228,2207.958,25.583Z" transform="translate(-2005.654)"/>
      <path id="Path_3058" data-name="Path 3058" class="cls-6" d="M4502.925,5574.9c-.184,3.992,2.992,14.969,3.991,19.6,1.359,5.9,3.718,14.063,4.443,19.868,2.178.633,6.623-.727,8.71-2l-.181-2-7.895-37.284-.723-3.083-8.257,2.811Z" transform="translate(-4094.418 -5064.696)"/>
      <path id="Path_3059" data-name="Path 3059" class="cls-11" d="M3139.435,494.034c-.635.363-1.179.544-1.542.817l-.726.453a8.314,8.314,0,0,1-.907.907c-6.26,5.262-7.077,6.35-11.794,14.878-1.179,2.177-6.169,7.53-.816,6.895,3.357-.363,1.724-1.633,4.173-1.089.181.091,2.177,1.27,2.177,1.27l12.247-16.511c5.9-6.169-.544-4.445,8.527-12.338,1.724-1.542,2-2.9,2.54-5.443,3.357-1.542,1.724.907,3.9-2.994-.907-3.629-1.543-3.447-4.537-2.177-2.177.817-4.445,2-5.625,3.9-1,1.724-.181,1.27-2.178,2.631a7.85,7.85,0,0,0-2.63,2.087C3140.614,489.135,3139.254,490.95,3139.435,494.034Z" transform="translate(-2838.066 -434.521)"/>
      <path id="Path_3060" data-name="Path 3060" class="cls-11" d="M1068.187,556.735c.091-.091.182-.454.182-.363l.635-3.992a8.227,8.227,0,0,1,.363-1.451l.545-1.905c-1.27-.635-1.361-.635-1.814-1.27-1.27-2.086.907.091-2.086-2.086l-2.812-2.631c-2.994-2.994-3.084-2.177-5.443-5.262a46.124,46.124,0,0,0-3.719-4.627,6.117,6.117,0,0,0-2.45-1.633l-1.361-.272c-1.542-.544-3.991-3.538-4.9-4.808-2.268-3.356-.182-2.268-3.991-4.354-2.722-1.452-.726.363-3.72-5.08-4.264.181-4.627.817-3.447,4.627,1.905,6.169,2.721,5.08,3.9,6.169,2.812,2.449.182,2.268,4.082,5.987,3.719,3.629,3.538.907,6.078,4.627a.689.689,0,0,0,.182.363l4.264,6.532c2.812,3.628,5.987,5.534,9.8,8.618C1064.468,555.465,1065.919,558.731,1068.187,556.735Z" transform="translate(-939.82 -470.098)"/>
      <path id="Path_3061" data-name="Path 3061" class="cls-6" d="M5384,6809.809l6.983,34.293c2.994.088,5.353-.818,8.347-1.451l-.091-2.09-6.894-34.018-.273-1.543-7.982,2.541Z" transform="translate(-4895.568 -6187.656)"/>
      <path id="Path_3062" data-name="Path 3062" class="cls-9" d="M2187.816,4146.243c-8.256,3.9-9.617,27.306-.636,22.769C2193.893,4165.656,2196.433,4142.16,2187.816,4146.243Z" transform="translate(-1983.153 -3769.666)"/>
      <path id="Path_3063" data-name="Path 3063" class="cls-9" d="M3149.352,4060.019c-7.983,3.99-9.616,26.58-.907,23.042C3155.249,4080.25,3157.97,4055.755,3149.352,4060.019Z" transform="translate(-2857.509 -3691.246)"/>
      <path id="Path_3071" data-name="Path 3071" class="cls-8" d="M4088.761,6096.83c.454,5.443,9.708,5.533,9.072-1.18C4097.2,6089.845,4088.217,6090.388,4088.761,6096.83Z" transform="translate(-3717.811 -5538.999)"/>
      <path id="Path_3072" data-name="Path 3072" class="cls-8" d="M4950.819,7173.865c-5.625,4.082.182,10.523,4.99,7.529C4960.346,7178.4,4956.172,7169.965,4950.819,7173.865Z" transform="translate(-4499.583 -6522.139)"/>
      <path id="Path_3073" data-name="Path 3073" class="cls-8" d="M4416.023,5967.03c-.908.543-4.267,1.722-2.27,5.985a4.631,4.631,0,0,0,6.35,2C4424.64,5972.653,4421.919,5964.126,4416.023,5967.03Z" transform="translate(-4012.775 -5425.164)"/>
      <path id="Path_3074" data-name="Path 3074" class="cls-8" d="M5126.742,7155.771c-5.352,2.449-1.723,10.705,3.9,8.164C5135.631,7161.76,5132.73,7153.049,5126.742,7155.771Z" transform="translate(-4659.267 -6506.133)"/>
      <path id="Path_3075" data-name="Path 3075" class="cls-8" d="M4258.77,6040.415c1,5.079,10.342,4.716,8.8-2.27C4266.48,6032.974,4257.5,6034.063,4258.77,6040.415Z" transform="translate(-3872.306 -5487.389)"/>
      <path id="Path_3076" data-name="Path 3076" class="cls-8" d="M5289.047,7125.923c-6.08,2.629-2.542,10.068,2.9,8.527C5297.665,7132.815,5294.762,7123.472,5289.047,7125.923Z" transform="translate(-4806.33 -6479.096)"/>
    </g>
  </g>
</svg>
