<svg xmlns="http://www.w3.org/2000/svg" viewBox="0 0 961.705 1016.105">
  <defs>
    <style>
      .cls-1 {
        fill: #4b4b4d;
      }

      .cls-1, .cls-10, .cls-2, .cls-3, .cls-4, .cls-5, .cls-6, .cls-7, .cls-8, .cls-9 {
        fill-rule: evenodd;
      }

      .cls-2 {
        fill: #fee0c5;
      }

      .cls-3 {
        fill: #889fac;
      }

      .cls-4 {
        fill: #f9ed4c;
      }

      .cls-5 {
        fill: #131313;
      }

      .cls-6 {
        fill: #a45050;
      }

      .cls-7 {
        fill: #443a3d;
      }

      .cls-8 {
        fill: #4c2715;
      }

      .cls-9 {
        fill: #585555;
      }

      .cls-10 {
        fill: #869784;
      }
    </style>
  </defs>
  <g id="Group_8084" data-name="Group 8084" transform="translate(-1288.941 -108.32)">
    <path id="Path_3620" data-name="Path 3620" d="M238-6.375q7.969,0,12.006,5.016T254.046,13.3q0,9.472-4.247,14.61t-11.936,5.138a15.691,15.691,0,0,1-7.305-1.678,12.794,12.794,0,0,1-5.138-4.754h-.315l-.979,5.732H221.96V-22.033h3.46V-8.367q0,3.076-.14,5.662l-.1,2.971h.245a13.872,13.872,0,0,1,5.225-5.033A15.629,15.629,0,0,1,238-6.375Zm-.07,3.146q-6.711,0-9.612,3.845t-2.9,12.688V13.9q0,8.6,3.023,12.338t9.42,3.74q6.222,0,9.367-4.352t3.146-12.391Q250.376-3.229,237.934-3.229Zm41.978,36.28q-8.284,0-12.915-5.1t-4.631-14.3q0-9.088,4.474-14.558A14.767,14.767,0,0,1,278.9-6.375a13.02,13.02,0,0,1,10.591,4.684q3.88,4.684,3.88,12.723v2.8H266q.07,7.829,3.652,11.954t10.259,4.124a31.819,31.819,0,0,0,5.715-.454,34.727,34.727,0,0,0,6.239-1.957V30.64a27.827,27.827,0,0,1-5.942,1.9A32.979,32.979,0,0,1,279.911,33.052ZM278.9-3.3A11.383,11.383,0,0,0,270.09.319q-3.32,3.618-3.88,10.433H289.7q0-6.606-2.866-10.328A9.454,9.454,0,0,0,278.9-3.3ZM-163.476,85.047A56.4,56.4,0,0,1-174.5,100.793q-6.554,6.484-11.412,6.484a6.823,6.823,0,0,1-5.924-3.3,15.523,15.523,0,0,1-2.219-8.79,30.031,30.031,0,0,1,6.623-19.259q6.623-8.319,15.327-8.319a24.485,24.485,0,0,1,11.429,3.286q.909-3.251,7.41-3.251.419,0,1.363.035a23.681,23.681,0,0,0-3.041,8.319l-.594,2.971a58.574,58.574,0,0,0-1.014,11.6q0,7.655,3.565,7.655,3.775,0,10.328-6.309a90.854,90.854,0,0,0,12.88-16.061l2.726,1.887A77.814,77.814,0,0,1-141.84,96.983q-8.319,7.707-14.3,7.707-7.55,0-7.55-12.583Q-163.686,89.486-163.476,85.047Zm1.643-8.354q-7.34-4.788-12.2-4.788-5.278,0-9.123,6.414A29.054,29.054,0,0,0-187,93.541q0,7.06,4.614,7.06,5,0,19.119-21.95Q-163.091,78.371-161.833,76.694Zm60.852,17.441Q-88.4,67.571-78.752,67.571q4.229,0,4.229,6.117,0,2.621-1.818,11.814l-2.1,10.591Q-72.32,83.23-65.679,75.418t11.464-7.812q5.313,0,5.313,6.221a72.641,72.641,0,0,1-1.573,10.241l-1.084,5.453a41.715,41.715,0,0,0-.979,7.305q0,4.194,2.971,4.194,6.711,0,20.622-24.956l2.936,1.643q-15.169,29.57-26.494,29.57-7.235,0-7.235-9.437a58.117,58.117,0,0,1,1.4-10.1l.979-4.823a45.485,45.485,0,0,0,.979-6.082,1.344,1.344,0,0,0-1.538-1.5q-3.775,0-13.527,14.995-8.843,13.666-8.843,15.624a3.387,3.387,0,0,0,.14.734q-.489.1-1.713.454a5.3,5.3,0,0,1-1.573.175q-3.251,0-3.251-3.111a43.5,43.5,0,0,1,1.049-5.7q.384-1.713.769-3.67l1.468-7.41a79.409,79.409,0,0,0,1.608-9.612q0-2.342-1.713-2.342Q-87.28,75.47-94.62,89q-7.3,13.422-7.305,16.008a2.277,2.277,0,0,0,.559,1.433,8.907,8.907,0,0,1-3.53.839q-3.635,0-3.635-3.915,0-.489,1.049-10.171l.8-7.445a68.248,68.248,0,0,0,.419-7.235q0-4.194-1.713-6.152a20.077,20.077,0,0,1,5.732-1.468q3.076,0,3.076,3.635,0,1.293-.839,9.612Zm72.351-2.272q0,10.241,8.668,10.241,7.515,0,16.567-7.165A72.452,72.452,0,0,0,12.928,76.065L15.9,77.707A64.789,64.789,0,0,1-1.909,98.888q-10.958,8.389-20.779,8.389-6.291,0-9.944-4.054t-3.653-11.08a24.7,24.7,0,0,1,6.623-17.336,20.913,20.913,0,0,1,15.956-7.2,10.865,10.865,0,0,1,7.218,2.272A7.533,7.533,0,0,1-3.779,75.96q0,6.256-7.532,11.08A31.412,31.412,0,0,1-28.63,91.863Zm.28-3.355a22.8,22.8,0,0,0,12.53-4.194q5.225-3.81,5.225-8.808,0-4.474-3.985-4.474-4.753,0-8.773,5.1A24.949,24.949,0,0,0-28.35,88.508Zm46.137,5.348q12.408-26.249,22.3-26.249,7.724,0,7.724,15.379l.07,4.229q0,7.34.751,10.154t2.744,2.814q3.006,0,6.833-4.788t12.46-19.259l2.936,1.713Q65.916,92.352,59.834,99.378T48.929,106.4a6.326,6.326,0,0,1-6.239-4.3q-1.8-4.3-1.8-14.89l-.035-3.006a30.27,30.27,0,0,0-.734-8.056q-.734-2.324-2.551-2.324-4.614,0-14.855,18.42-2.517,4.509-3.251,5.8-2.691,4.684-2.691,6.781a3.115,3.115,0,0,0,.454,1.608,9.311,9.311,0,0,1-3.425.839q-3.53,0-3.53-3.915,0-1.118.909-10.066l.769-7.585a74.1,74.1,0,0,0,.524-7.48A9.2,9.2,0,0,0,10.8,72.395q.734-.245,2.447-.839a11.038,11.038,0,0,1,3.46-.769q2.726,0,2.726,3.985,0,2.1-.524,7.2-.1,1.118-.21,2.132Zm72.631-1.293a6.43,6.43,0,0,1,.944,3.006q0,3.425-5.785,7.567t-10.538,4.142a8.032,8.032,0,0,1-6.833-3.74,16.359,16.359,0,0,1-2.639-9.647q0-6.571,3.46-18.7l1.608-5.872H64.727a13.9,13.9,0,0,0-5.907,1.049q2.027-3.7,3.355-4.649a8.063,8.063,0,0,1,4.509-.944h5.278l.7-2.412q1.608-5.383,3.845-7.392t6.711-2.01q.524,0,1.678.07-2.726,3.5-5.662,11.744H97.687a17.247,17.247,0,0,0,7.41-1.258q-.874,3.6-2.324,4.7t-5.4,1.1H77.73q-.35,1.153-.524,1.713-4.229,14.4-4.229,21.74,0,8.109,5.837,8.109a11.5,11.5,0,0,0,6.554-2.552A15.075,15.075,0,0,0,90.417,92.562Zm12.024-.7q0,10.241,8.668,10.241,7.515,0,16.567-7.165A72.452,72.452,0,0,0,144,76.065l2.971,1.643a64.79,64.79,0,0,1-17.808,21.181q-10.958,8.389-20.779,8.389-6.291,0-9.944-4.054t-3.653-11.08a24.7,24.7,0,0,1,6.623-17.336,20.913,20.913,0,0,1,15.956-7.2,10.865,10.865,0,0,1,7.218,2.272,7.533,7.533,0,0,1,2.709,6.082q0,6.256-7.532,11.08A31.412,31.412,0,0,1,102.441,91.863Zm.28-3.355a22.8,22.8,0,0,0,12.53-4.194q5.225-3.81,5.225-8.808,0-4.474-3.985-4.474-4.754,0-8.773,5.1A24.949,24.949,0,0,0,102.721,88.508Zm41.593,3.355q0,10.241,8.668,10.241,7.515,0,16.567-7.165a72.452,72.452,0,0,0,16.323-18.874l2.971,1.643a64.79,64.79,0,0,1-17.808,21.181q-10.958,8.389-20.779,8.389-6.291,0-9.944-4.054t-3.653-11.08a24.7,24.7,0,0,1,6.623-17.336,20.913,20.913,0,0,1,15.956-7.2,10.866,10.866,0,0,1,7.218,2.272,7.533,7.533,0,0,1,2.709,6.082q0,6.256-7.532,11.08A31.412,31.412,0,0,1,144.314,91.863Zm.28-3.355a22.8,22.8,0,0,0,12.53-4.194q5.225-3.81,5.225-8.808,0-4.474-3.985-4.474-4.753,0-8.773,5.1A24.949,24.949,0,0,0,144.593,88.508ZM246.528,55.58A37.207,37.207,0,0,1,264.1,59.624,29.775,29.775,0,0,1,280.387,86.79a29.06,29.06,0,0,1-1.825,10.845,15.181,15.181,0,0,1-5.118,6.908,12.913,12.913,0,0,1-7.731,2.362,11.348,11.348,0,0,1-6.156-1.575,9,9,0,0,1-3.651-4.653q-3.865,6.228-12.241,6.228a15.9,15.9,0,0,1-8.375-2.291,16.143,16.143,0,0,1-5.977-6.407,21.229,21.229,0,0,1,0-18.755,16.228,16.228,0,0,1,5.941-6.407,15.841,15.841,0,0,1,8.411-2.291q7.087,0,11.024,4.724V71.256h9.735V94.449q0,4.581,3.436,4.581,2.505,0,3.9-3.006t1.4-9.091a24.349,24.349,0,0,0-3.329-12.777,22.874,22.874,0,0,0-9.377-8.661,30,30,0,0,0-13.923-3.114,28.406,28.406,0,0,0-13.923,3.329,23.662,23.662,0,0,0-9.377,9.2A26.513,26.513,0,0,0,219.9,88.221a27.235,27.235,0,0,0,3.293,13.493,23.474,23.474,0,0,0,9.27,9.234,27.848,27.848,0,0,0,13.78,3.329,31.379,31.379,0,0,0,14.1-3.15l2.291,6.586a29.762,29.762,0,0,1-7.624,2.541,43.926,43.926,0,0,1-8.769.895,36.9,36.9,0,0,1-17.967-4.259,30.405,30.405,0,0,1-12.1-11.775,33.438,33.438,0,0,1-4.295-16.893,32.694,32.694,0,0,1,4.331-16.75,30.435,30.435,0,0,1,12.2-11.668A37.724,37.724,0,0,1,246.528,55.58Zm-.644,43.093a8.531,8.531,0,0,0,6.442-2.613,10.068,10.068,0,0,0,2.505-7.266,9.836,9.836,0,0,0-2.505-7.158,8.592,8.592,0,0,0-6.442-2.577,8.388,8.388,0,0,0-6.442,2.613,10.037,10.037,0,0,0-2.434,7.122,10.275,10.275,0,0,0,2.434,7.23A8.332,8.332,0,0,0,245.884,98.672ZM357.91,67.319q7.23,0,11.489,4.259t4.259,12.777V106.4H362.492V86.074q0-4.581-1.9-6.836a6.67,6.67,0,0,0-5.4-2.255,7.964,7.964,0,0,0-6.228,2.541q-2.291,2.541-2.291,7.552V106.4H335.505V86.074q0-9.091-7.3-9.091a7.878,7.878,0,0,0-6.156,2.541q-2.291,2.541-2.291,7.552V106.4H308.59V67.892h10.666V72.33a14.1,14.1,0,0,1,5.261-3.722,17.709,17.709,0,0,1,6.836-1.288,16.557,16.557,0,0,1,7.373,1.611,13.057,13.057,0,0,1,5.3,4.689A15.8,15.8,0,0,1,350,68.966,18.857,18.857,0,0,1,357.91,67.319Zm63.923,19.971q0,.215-.215,3.006H392.485a9.073,9.073,0,0,0,3.722,5.655,12.329,12.329,0,0,0,7.3,2.076,14.784,14.784,0,0,0,5.333-.895,12.916,12.916,0,0,0,4.331-2.827l5.941,6.442q-5.44,6.228-15.891,6.228a25.138,25.138,0,0,1-11.525-2.541,18.628,18.628,0,0,1-7.731-7.051,19.427,19.427,0,0,1-2.72-10.236,19.68,19.68,0,0,1,2.684-10.2A18.806,18.806,0,0,1,391.3,69.86a22.827,22.827,0,0,1,20.723-.107,17.765,17.765,0,0,1,7.194,6.979A20.812,20.812,0,0,1,421.833,87.291ZM401.862,75.766a9.617,9.617,0,0,0-6.371,2.147,9.142,9.142,0,0,0-3.15,5.87h18.969a9.233,9.233,0,0,0-3.15-5.834A9.414,9.414,0,0,0,401.862,75.766Zm50.823-8.447q7.158,0,11.561,4.295t4.4,12.742V106.4H457.481V86.074q0-4.581-2-6.836a7.351,7.351,0,0,0-5.8-2.255A8.887,8.887,0,0,0,442.95,79.6q-2.505,2.613-2.505,7.767V106.4H429.278V67.892h10.666V72.4a14.809,14.809,0,0,1,5.512-3.758A19.2,19.2,0,0,1,452.685,67.319Zm50.895,37.223a11.479,11.479,0,0,1-4.044,1.825,20.449,20.449,0,0,1-5.047.608q-6.872,0-10.63-3.508T480.1,93.16V77.341H474.16v-8.59H480.1V59.374h11.167v9.377h9.592v8.59h-9.592V93.017a5.257,5.257,0,0,0,1.253,3.758,4.643,4.643,0,0,0,3.543,1.324,7.177,7.177,0,0,0,4.51-1.432Zm23.407,2.434a23.092,23.092,0,0,1-10.916-2.541,18.891,18.891,0,0,1-7.552-7.051,20.62,20.62,0,0,1,0-20.473,18.891,18.891,0,0,1,7.552-7.051,24.64,24.64,0,0,1,21.8,0,18.949,18.949,0,0,1,7.516,7.051,20.62,20.62,0,0,1,0,20.473,18.949,18.949,0,0,1-7.516,7.051A22.88,22.88,0,0,1,526.988,106.976Zm0-9.163a9.3,9.3,0,0,0,7.051-2.9,10.807,10.807,0,0,0,2.756-7.767,10.807,10.807,0,0,0-2.756-7.767,9.3,9.3,0,0,0-7.051-2.9,9.416,9.416,0,0,0-7.087,2.9,10.725,10.725,0,0,0-2.792,7.767,10.725,10.725,0,0,0,2.792,7.767A9.416,9.416,0,0,0,526.988,97.813Zm39.227-24.839a12.418,12.418,0,0,1,5.4-4.223,20.058,20.058,0,0,1,7.838-1.432V77.627q-1.861-.143-2.505-.143a10.236,10.236,0,0,0-7.516,2.684q-2.72,2.684-2.72,8.053V106.4H555.549V67.892h10.666Zm57.266,7.373a13.213,13.213,0,0,1,6.729,4.545,12.53,12.53,0,0,1,2.434,7.838,11.58,11.58,0,0,1-5.118,10.129Q622.407,106.4,612.6,106.4H586.687V56.3h24.481q9.163,0,14.066,3.508a11.1,11.1,0,0,1,4.9,9.52,12.041,12.041,0,0,1-6.657,11.024ZM598.212,65.029V76.84h11.525q4.295,0,6.514-1.5A5.014,5.014,0,0,0,618.47,70.9a4.926,4.926,0,0,0-2.219-4.4q-2.219-1.467-6.514-1.467ZM611.741,97.67q4.581,0,6.908-1.5a5.148,5.148,0,0,0,2.326-4.653q0-6.228-9.234-6.228H598.212V97.67Zm44.453-30.351q8.948,0,13.744,4.259t4.8,12.849V106.4H664.282v-4.8q-3.15,5.369-11.74,5.369a18.22,18.22,0,0,1-7.7-1.5,11.475,11.475,0,0,1-4.975-4.152,10.806,10.806,0,0,1-1.718-6.013,10.034,10.034,0,0,1,4.044-8.447q4.044-3.078,12.491-3.078h8.876a7.117,7.117,0,0,0-2.219-5.619Q659.128,76.2,654.69,76.2a19.437,19.437,0,0,0-6.049.966,16,16,0,0,0-5.047,2.613l-4.009-7.8a24.187,24.187,0,0,1,7.552-3.436A33.829,33.829,0,0,1,656.193,67.319Zm-.859,32.14a9.725,9.725,0,0,0,5.082-1.324,7.247,7.247,0,0,0,3.15-3.9V90.3h-7.659q-6.872,0-6.872,4.51a4.016,4.016,0,0,0,1.682,3.4A7.578,7.578,0,0,0,655.334,99.46Zm52.255-32.14a19.626,19.626,0,0,1,9.771,2.47,17.733,17.733,0,0,1,6.908,6.943,20.963,20.963,0,0,1,2.505,10.415,20.963,20.963,0,0,1-2.505,10.415,17.733,17.733,0,0,1-6.908,6.943,19.626,19.626,0,0,1-9.771,2.47q-7.946,0-12.1-5.011V106.4H684.826V53.289h11.167V71.972Q700.216,67.319,707.589,67.319Zm-1.933,30.494a9.3,9.3,0,0,0,7.051-2.9,10.807,10.807,0,0,0,2.756-7.767,10.807,10.807,0,0,0-2.756-7.767,10.024,10.024,0,0,0-14.1,0,10.807,10.807,0,0,0-2.756,7.767,10.807,10.807,0,0,0,2.756,7.767A9.3,9.3,0,0,0,705.657,97.813Zm43.45-30.494q8.948,0,13.744,4.259t4.8,12.849V106.4H757.2v-4.8q-3.15,5.369-11.74,5.369a18.22,18.22,0,0,1-7.7-1.5,11.474,11.474,0,0,1-4.975-4.152,10.805,10.805,0,0,1-1.718-6.013,10.034,10.034,0,0,1,4.044-8.447q4.044-3.078,12.491-3.078h8.876a7.116,7.116,0,0,0-2.219-5.619Q752.042,76.2,747.6,76.2a19.438,19.438,0,0,0-6.049.966,16,16,0,0,0-5.047,2.613l-4.009-7.8a24.186,24.186,0,0,1,7.552-3.436A33.83,33.83,0,0,1,749.107,67.319Zm-.859,32.14a9.725,9.725,0,0,0,5.082-1.324,7.246,7.246,0,0,0,3.15-3.9V90.3h-7.659q-6.872,0-6.872,4.51a4.016,4.016,0,0,0,1.682,3.4A7.578,7.578,0,0,0,748.248,99.46Z" transform="translate(1483 1003.277)"/>
    <g id="Group_7993" data-name="Group 7993" transform="translate(1558.137 108.321)">
      <path id="Path_3018" data-name="Path 3018" class="cls-1" d="M10292.146,3346.7c5.354.153,10.555,1.53,15.6,2.447l13.3,2.752c2.908,1.224,3.826,6.424,5.047,10.093,1.531,4.435,1.227,4.74-1.375,8.105-3.975,5.046-8.41,7.646-7.187,16.363l9.48,64.534c1.684,10.4-.3,9.634-5.506,16.057-3.82,4.74-7.492,9.328-11.16,13.763-3.672,4.282-6.73,8.87-11.012,12.846L10275.02,3464c-8.869-11.163-6.27-7.034,2.754-39.76,3.977-14.069,8.258-27.985,11.932-42.208,2.289-8.564-3.367-12.539-6.271-19.727C10281.594,3357.256,10289.705,3351.9,10292.146,3346.7Zm-65.146-8.869c4.9,4.588,19.117,15.6,25.389,18.5-.154,25.69-1.682,50.771-.611,76.92.918,22.327,1.832,52.3,6.881,72.945,16.057,5.2,27.986,10.094,46.643,13.611a304.423,304.423,0,0,0,57.041,5.2c31.811.153,83.191-3.671,111.176-12.541l1.527-1.529c.156-.153.918-.918,1.074-1.071a955.735,955.735,0,0,1,4.586-140.232c.764-7.187,1.375-4.74,12.232-11.622,5.2-3.365,10.1-6.423,14.834-10.093-.611-4.128-2.447-6.729-4.281-10.246-.914-1.682-1.377-2.906-2.445-4.588-1.836-3.211-.461-2.447-3.516-3.518-4.742,4.588-8.568,8.717-13.154,11.01l.611-6.575c-9.633.458-19.725,2.752-29.361,3.976-31.348,3.671-58.113,4.129-90.227,3.059-18.809-.765-39.146-2.906-57.193-5.2l-53.98-8.258-.459,7.8c-4.586-.612-10.705-9.787-14.682-12.386C10236.176,3325.142,10228.381,3334.47,10227,3337.835Z" transform="translate(-10163.886 -2849.813)"/>
      <path id="Path_3023" data-name="Path 3023" class="cls-2" d="M10449.656,2581.414c14.22-2.906,48.325-5.659,60.405,1.376.458,17.127-14.067,24.774-30.891,25.08C10459.291,2608.176,10448.279,2591.813,10449.656,2581.414Zm73.557-39.607c8.717-8.564,13.15,19.268,5.812,23.856C10521.073,2570.555,10517.248,2547.464,10523.213,2541.807Zm-90.224-2.142c8.562-6.729,12.385,19.728,5.045,24.163C10430.081,2568.721,10426.1,2545.17,10432.989,2539.665ZM10405,2616.892l53.981,8.258c18.043,2.293,38.384,4.435,57.2,5.2,32.114,1.07,58.874.612,90.227-3.057,9.631-1.225,19.726-3.518,29.361-3.977-2.756-.306-.918-.306-2.143-1.375-4.739-4.13-10.856-7.494-15.9-11.47-13.3-10.4-32.572-29.208-35.631-47.866,13,2.906,18.96-.917,15.9-15.6-2.753-14.375-14.985-3.058-19.728-.306-4.434-5.658-6.422-29.82-7.337-38.69-5.2-.612-14.683,1.224-20.646,1.683-29.058,1.835-128.3,4.588-133.2-25.692-5.049,5.812-8.87,50.925-9.634,61.935C10405.765,2569.945,10405.614,2592.73,10405,2616.892Z" transform="translate(-10314.666 -2139.116)"/>
      <path id="Path_3028" data-name="Path 3028" class="cls-3" d="M10129.126,5275.96l5.05,25.385c-8.717,3.06-34.562,5.506-44.808,5.965-12.848.458-38.689,1.682-34.406-15.752-6.425,1.072-16.979,7.034-21.106,10.248-6.422,5.045-9.329,12.386-2.142,20.033,24.775,26,123.259,30.585,157.667,30.585,36.089,0,130.595-4.435,158.427-28.9,17.436-15.445-7.03-26.15-20.184-32.268l3.057,22.021c-14.22,1.683-101.539,16.975-72.637-20.34,6.114-7.8,13.151-12.08,26.3-11.621-1.222-.765.767-.154-2.752-1.225l-73.095-6.269c-13.915-.306-27.374-.306-41.139.153C10155.889,5274.278,10139.835,5276.572,10129.126,5275.96Z" transform="translate(-9994.903 -4502.125)"/>
      <path id="Path_3029" data-name="Path 3029" class="cls-4" d="M10693.159,1043.43l15.749.153c-1.985-34.867-7.34-75.086-8.714-110.412-.46-11.775-1.07-28.9,9.482-31.349,8.407,2.753,7.034,10.7,10.857,17.128,12.078-26.762,19.726,8.717,20.948,11.01,3.059-10.246,5.046-24.315,17.433-22.786,12.542,11.622,7.493,50.465,4.13,69.275-2.3,12.846-13.764,59.794-13.457,67.593l12.235.459c3.975-11.622,4.278-17.127,10.55-28.444,14.532-25.844,38.842-46.183,41.44-78.909,3.671-44.2-31.652-80.744-75.084-83.65-50.007-3.517-80.131,27.526-86.709,72.18-6.881,46.948,27.681,63.311,37.621,101.695C10690.864,1032.113,10691.936,1039.913,10693.159,1043.43Z" transform="translate(-10523.147 -757.728)"/>
      <path id="Path_3035" data-name="Path 3035" class="cls-5" d="M10204.382,4654.044c-4.283,17.434,21.561,16.21,34.408,15.752,10.245-.458,36.089-2.9,44.807-5.964l-5.046-25.385-20.954-92.825c14.374,2.446,27.833,6.421,43.89,8.563a396.767,396.767,0,0,0,98.943,0c14.679-1.987,31.5-6.729,44.654-7.953,1.223,17.435,11.469,91.145,10.4,99.86,1.224,1.836.3-.611,1.069,2.752,0,.308.307,2.295.307,2.753.3,2.6.458,5.2.613,7.8-3.823-2.293-6.886-6.118-10.4-8.716l-8.867-5.2a10.785,10.785,0,0,1-1.375-.766c-.155-.152-.614-.152-.765-.459s-.459-.3-.764-.457h-1.533c-13.15-.458-20.185,3.822-26.3,11.621-28.9,37.314,58.418,22.021,72.641,20.339l-3.06-22.02c-2.295-7.647-3.672-22.174-5.049-30.891-1.679-10.553-3.364-21.41-5.2-32.115l-9.481-60.253c-1.53-3.517.764-2.292-3.362-3.211-27.989,8.871-79.369,12.694-111.178,12.539a304.334,304.334,0,0,1-57.041-5.2c-18.658-3.517-30.584-8.411-46.641-13.609,2.6,33.031,17.894,97.26,18.654,124.632-5.81-5.5-15.9-16.82-30.585-13.3C10216.152,4634.929,10208.968,4645.633,10204.382,4654.044Z" transform="translate(-10144.325 -3864.609)"/>
      <path id="Path_3036" data-name="Path 3036" class="cls-2" d="M11763.547,1678.984c3.064,1.071,1.685.306,3.521,3.517,1.07,1.682,1.527,2.906,2.444,4.588,1.837,3.517,3.671,6.117,4.285,10.246,22.785-13.763,49.087-44.348,60.861-67.287,41.137-80.285-7.8-170.2-59.64-230.763-3.213-3.67-19.727-22.786-24.008-24.315-7.19-2.447-7.345,3.823-5.811,8.717-4.436-1.224-3.367-2.6-7.8-1.224-1.836,4.894-.3,4.588.918,8.87-3.973-1.682-2.908-2.752-8.718-1.529-.914,5.046,1.072,8.1,2.3,12.234-4.437-1.376-4.592-2.906-9.787-1.835-3.67,9.328,12.842,19.88,22.783,29.056,50.007,45.877,93.286,115,63.463,186.414C11796.428,1643.964,11783.58,1658.033,11763.547,1678.984Z" transform="translate(-11429.913 -1199.221)"/>
      <path id="Path_3037" data-name="Path 3037" class="cls-2" d="M9877.392,1743.584c1.375-3.365,9.176-12.693,12.083-14.834-2.449-5.2-7.5-9.022-11.166-14.069-63.77-86.4-30.278-158.43,43.432-221.588,5.352-4.588,17.892-13.457,20.8-17.128,5.042-6.423,4.89-12.845-7.648-7.187,2.445-6.117,8.867-17.281-4.9-11.164,2.295-6.882,4.9-9.941-5.5-8.258,3.978-22.785-23.549,7.188-29.818,13.61a369.194,369.194,0,0,0-27.986,32.267c-16.057,20.645-33.64,48.477-43.277,77.686-17.739,53.676-9.482,97.566,23.4,140.232C9852.921,1721.1,9869.9,1738.844,9877.392,1743.584Z" transform="translate(-9814.274 -1255.564)"/>
      <path id="Path_3039" data-name="Path 3039" class="cls-6" d="M10547.312,2275.306c-2.446,2.6-1.222,1.834-9.021,2.753-3.365.458-6.882,1.223-10.247,1.834-15.141,2.906-43.126,9.481-44.043,27.068,4.895,30.279,104.142,27.526,133.2,25.691,5.965-.459,15.445-2.294,20.646-1.682a176.7,176.7,0,0,0,35.631-7.952c5.506-1.835,10.245-3.518,14.682-6.269,7.337-4.283,6.421-3.67,10.549-11.623-3.362-14.069-14.834-18.5-29.36-22.481-13.153-3.516-40.218-6.27-43.279-7.646l-3.669,5.964c0-.153-.306.458-.459.764,3.062,3.058,7.647,8.106.611,12.387-4.278,2.6-13.149-.306-17.43,2.446-10.1,6.424,2.14,12.234-28.6,11.623-2.294-4.128-8.562-11.623-13.459-12.386-8.256-1.224-14.526-.154-17.279-8.106-.307-3.364,3.061-4.587,4.893-9.787C10549.6,2277.141,10548.535,2276.224,10547.312,2275.306Z" transform="translate(-10381.585 -1962.078)"/>
      <path id="Path_3045" data-name="Path 3045" class="cls-7" d="M10914.656,1187.822c4.28,15.14,2.446,28.9,5.81,32.114,8.717-1.376.462-25.538,9.788-33.338,3.976,2.905,6.729,14.375,7.8,20.033,2.906,15.6-4.125,16.822,1.377,21.256,4.589-.917,4.281-5.2,4.9-10.552a97.267,97.267,0,0,1,2.292-13.61c1.834-7.34,3.825-18.963,11.012-20.645,7.188,20.645,3.213,45.724-.765,67.9-3.67,19.88-7.953,42.666-13.306,62.088l-27.988-.153c-3.055-6.576-7.489-84.567-8.866-102.613-.306-5.964-2.445-27.067,3.517-31.2C10912.972,1180.787,10912.515,1180.176,10914.656,1187.822Zm-20.952,124.786c-8.562,3.976-6.422,11.622-1.527,17.892l-3.826,3.823,1.072,5.811c1.223.918,2.294,1.836,3.364,2.6-1.833,5.2-5.2,6.423-4.892,9.787,2.75,7.952,9.018,6.882,17.276,8.105,4.9.765,11.166,8.258,13.462,12.387,30.736.612,18.5-5.2,28.595-11.622,4.281-2.753,13.151.153,17.435-2.447,7.036-4.282,2.444-9.328-.612-12.387.15-.306.457-.917.457-.765l3.672-5.964c-.612-4.282-1.835-5.047-4.282-7.34,3.974-6.881,8.411-14.833-1.528-18.81l-12.236-.459c-.3-7.8,11.165-54.747,13.46-67.593,3.362-18.809,8.409-57.653-4.131-69.275-12.386-1.529-14.377,12.54-17.433,22.786-1.225-2.294-8.872-37.773-20.953-11.01-3.822-6.423-2.442-14.375-10.856-17.128-10.554,2.447-9.939,19.574-9.479,31.35,1.375,35.325,6.728,75.545,8.715,110.411Z" transform="translate(-10723.697 -1026.907)"/>
      <path id="Path_3047" data-name="Path 3047" class="cls-8" d="M11490,2497.845c.917,8.87,2.908,33.032,7.34,38.69,4.741-2.753,16.979-14.069,19.731.306,3.057,14.68-2.907,18.5-15.9,15.6,3.056,18.657,22.324,37.466,35.629,47.866,5.045,3.976,11.164,7.339,15.906,11.469,4.283-1.223,1.069.764,2.292-2.293l1.377-13.763c2.292-31.5,3.367-98.484-5.506-123.717-4.13,7.952-3.213,7.341-10.553,11.623-4.434,2.753-9.174,4.434-14.68,6.27A176.815,176.815,0,0,1,11490,2497.845Z" transform="translate(-11233.742 -2128.953)"/>
      <path id="Path_3048" data-name="Path 3048" class="cls-5" d="M10534.957,3624.962c4.281-3.976,7.338-8.564,11.009-12.845,3.673-4.436,7.341-9.022,11.163-13.764,5.2-6.423,7.188-5.657,5.506-16.057l-9.479-64.534c-1.227-8.717,3.209-11.316,7.183-16.363,2.6-3.364,2.909-3.67,1.382-8.105-1.225-3.67-2.143-8.869-5.051-10.093l-13.3-2.752c-5.047-.917-10.246-2.294-15.6-2.447-2.448,5.2-10.554,10.552-8.718,15.6,2.906,7.188,8.563,11.163,6.27,19.727-3.671,14.222-7.953,28.138-11.931,42.207-9.021,32.726-11.622,28.6-2.75,39.762Z" transform="translate(-10399.51 -2981.11)"/>
      <path id="Path_3050" data-name="Path 3050" class="cls-4" d="M11016.42,1357.81l27.985.153c5.352-19.421,9.635-42.207,13.3-62.087,3.978-22.174,7.952-47.254.766-67.9-7.189,1.682-9.178,13.3-11.011,20.645a97.555,97.555,0,0,0-2.295,13.61c-.608,5.353-.3,9.634-4.892,10.552-5.507-4.435,1.527-5.658-1.378-21.256-1.07-5.658-3.823-17.128-7.8-20.033-9.329,7.8-1.072,31.961-9.787,33.337-3.363-3.211-1.53-16.975-5.812-32.114-2.14-7.646-1.68-7.035-4.433-8.717-5.966,4.129-3.826,25.233-3.517,31.2C11008.927,1273.242,11013.363,1351.234,11016.42,1357.81Z" transform="translate(-10824.545 -1071.802)"/>
      <path id="Path_3056" data-name="Path 3056" class="cls-8" d="M10696.364,3104.068c-1.378,10.4,9.634,26.762,29.514,26.457,16.822-.306,31.347-7.953,30.891-25.08C10744.688,3098.41,10710.583,3101.163,10696.364,3104.068Z" transform="translate(-10561.374 -2661.772)"/>
      <path id="Path_3064" data-name="Path 3064" class="cls-9" d="M11156.837,291.333c2.754-1.07,3.824-2.6,7.646-5.352l.155-26c0-7.493-2.753-4.588-1.376-14.834.151-1.529,1.989-23.7-4.9-13.916-5.2,7.188-2.294,26.609-2.753,28.6C11153.165,269.771,11154.389,287.816,11156.837,291.333Z" transform="translate(-10949.359 -228.749)"/>
      <path id="Path_3065" data-name="Path 3065" class="cls-9" d="M11735,583.144c14.529,2.447,10.551-4.741,19.576-17.127,4.584-6.27,3.059-9.328,6.42-13.61,2.753-3.517,1.839-1.07,3.977-6.117.154-.153.154-.459.3-.612,1.683-3.517,2.3-2.294,3.672-5.505-2.447-7.035-9.023,0-10.552,2.6-2.905,4.588-1.685,1.988-4.437,5.505-2.291,2.753-1.832,5.505-3.057,7.952-1.069,1.835-5.353,3.823-9.328,11.622C11740.048,570.6,11735.3,580.544,11735,583.144Z" transform="translate(-11441.277 -489.974)"/>
      <path id="Path_3066" data-name="Path 3066" class="cls-9" d="M10375.56,560.3c-2.754,1.376-2.605,1.835-.459,6.27l9.937,11.164c4.9,2.753,3.364,0,6.885,4.282,11.163,13,7.645,7.493,17.433,14.528,1.682,1.223,4.738,4.894,6.267,1.682.768-1.376.153-1.376-.15-3.517-.919-6.729,4.129-3.211-3.977-8.411a72.189,72.189,0,0,1-11.624-9.328c-5.351-5.2-8.1-3.365-12.539-8.564-3.824-4.435-2.6-1.988-6.267-4.741C10378.616,561.679,10378.921,558.62,10375.56,560.3Z" transform="translate(-10287.976 -509.188)"/>
      <path id="Path_3069" data-name="Path 3069" class="cls-8" d="M11161.874,2852.994c-5.964,5.658-2.142,28.75,5.813,23.856C11175.025,2872.262,11170.589,2844.43,11161.874,2852.994Z" transform="translate(-10953.327 -2450.305)"/>
      <path id="Path_3070" data-name="Path 3070" class="cls-8" d="M10568.44,2841.965c-6.886,5.5-2.908,29.056,5.045,24.162C10580.826,2861.692,10577,2835.236,10568.44,2841.965Z" transform="translate(-10450.118 -2441.417)"/>
      <path id="Path_3077" data-name="Path 3077" class="cls-10" d="M11737.187,5326.294c-1.373,2.448-4.738.46-8.412-.3-4.125-.919-7.337-1.836-11.773-1.989.312.153.614.153.767.458s.609.307.762.458a11.28,11.28,0,0,0,1.38.766l8.865,5.2c3.52,2.6,6.581,6.424,10.4,8.717-.148-2.6-.3-5.2-.607-7.8,0-.458-.308-2.448-.308-2.753C11737.5,5325.683,11738.411,5328.13,11737.187,5326.294Z" transform="translate(-11426.03 -4544.812)"/>
    </g>
  </g>
</svg>
