<svg id="Group_8081" data-name="Group 8081" xmlns="http://www.w3.org/2000/svg" viewBox="0 0 500.117 1095.765">
  <defs>
    <style>
      .cls-1 {
        fill: #4b4b4d;
      }

      .cls-1, .cls-10, .cls-2, .cls-3, .cls-4, .cls-5, .cls-6, .cls-7, .cls-8, .cls-9 {
        fill-rule: evenodd;
      }

      .cls-2 {
        fill: #fee0c5;
      }

      .cls-3 {
        fill: #889fac;
      }

      .cls-4 {
        fill: #f9ed4c;
      }

      .cls-5 {
        fill: #131313;
      }

      .cls-6 {
        fill: #a45050;
      }

      .cls-7 {
        fill: #443a3d;
      }

      .cls-8 {
        fill: #4c2715;
      }

      .cls-9 {
        fill: #585555;
      }

      .cls-10 {
        fill: #869784;
      }
    </style>
  </defs>
  <path id="Path_3618" data-name="Path 3618" d="M-99.394,26.812H-111V-41.94h18.1L-72.149,1.239-51.4-41.94h18V26.812H-45v-53.7l-24,47.7h-6.492l-23.9-47.7ZM32.8,5.468H-8.217A11.923,11.923,0,0,0-3,14.665,18.3,18.3,0,0,0,8.012,18.156q9.836,0,14.95-6.2l6.295,6.885Q20.8,27.6,7.226,27.6a26.222,26.222,0,0,1-18.737-7.328Q-19.233,12.943-19.233.6t7.869-19.622A26.408,26.408,0,0,1,7.176-26.3a26.846,26.846,0,0,1,18.147,6.442Q32.8-13.416,32.8-2.105ZM-8.217-3.187h30q0-6.59-4.131-10.131a15.1,15.1,0,0,0-10.18-3.541A17.427,17.427,0,0,0-3.4-13.17,11.909,11.909,0,0,0-8.217-3.187ZM55.912-1.515V26.812H44.9V-25.514H55.912v9.541a19.6,19.6,0,0,1,7.328-7.574A19.511,19.511,0,0,1,73.322-26.3q8.852,0,14.311,5.41T93.091-5.253V26.812H82.075V-1.909q0-14.459-12-14.459a14.414,14.414,0,0,0-9.934,3.787Q55.912-8.794,55.912-1.515ZM121.32-16.662V9.894a8.63,8.63,0,0,0,1.967,5.951,6.986,6.986,0,0,0,5.508,2.213q3.541,0,6.787-3.443l4.524,7.77A18.779,18.779,0,0,1,127.271,27.6a16.517,16.517,0,0,1-12-4.869Q110.3,17.861,110.3,9.6V-16.662h-6.59v-8.852h6.59V-41.94H121.32v16.426h13.77v8.852Zm76.227,22.13H156.532a11.923,11.923,0,0,0,5.213,9.2,18.3,18.3,0,0,0,11.016,3.492q9.836,0,14.95-6.2l6.295,6.885Q185.547,27.6,171.974,27.6a26.222,26.222,0,0,1-18.737-7.328Q145.516,12.943,145.516.6t7.869-19.622a26.408,26.408,0,0,1,18.54-7.278,26.846,26.846,0,0,1,18.147,6.442q7.475,6.442,7.475,17.754ZM156.532-3.187h30q0-6.59-4.131-10.131a15.1,15.1,0,0,0-10.18-3.541,17.427,17.427,0,0,0-10.868,3.688A11.909,11.909,0,0,0,156.532-3.187Zm101.8,8.655H217.317a11.923,11.923,0,0,0,5.213,9.2,18.3,18.3,0,0,0,11.016,3.492q9.836,0,14.95-6.2l6.295,6.885Q246.332,27.6,232.759,27.6a26.222,26.222,0,0,1-18.737-7.328Q206.3,12.943,206.3.6t7.869-19.622A26.408,26.408,0,0,1,232.71-26.3a26.846,26.846,0,0,1,18.147,6.442q7.475,6.442,7.475,17.754ZM217.317-3.187h30q0-6.59-4.131-10.131A15.1,15.1,0,0,0,233-16.859a17.427,17.427,0,0,0-10.868,3.688A11.909,11.909,0,0,0,217.317-3.187Z" transform="translate(189.82 41.94)"/>
  <g id="Group_7993" data-name="Group 7993" transform="translate(0 83.505)">
    <path id="Path_3018" data-name="Path 3018" class="cls-1" d="M10304.555,3351.218c6.371.183,12.564,1.82,18.572,2.913l15.838,3.277c3.459,1.456,4.553,7.646,6.008,12.015,1.82,5.28,1.457,5.644-1.641,9.649-4.732,6.008-10.012,9.1-8.557,19.481l11.285,76.826c2,12.379-.359,11.469-6.553,19.115-4.549,5.644-8.92,11.106-13.289,16.385-4.369,5.1-8.01,10.56-13.105,15.293l-28.945-35.318c-10.562-13.291-7.467-8.375,3.275-47.333,4.73-16.75,9.83-33.316,14.2-50.248,2.725-10.194-4.01-14.928-7.471-23.484C10291.99,3363.78,10301.646,3357.408,10304.555,3351.218ZM10227,3340.659c5.828,5.462,22.76,18.57,30.225,22.029-.186,30.583-2,60.44-.729,91.572,1.088,26.58,2.182,62.263,8.189,86.84,19.117,6.189,33.316,12.015,55.525,16.2a362.544,362.544,0,0,0,67.91,6.189c37.865.183,99.033-4.37,132.35-14.929l1.822-1.82c.18-.182,1.09-1.093,1.273-1.275a1138.278,1138.278,0,0,1,5.461-166.942c.908-8.556,1.637-5.643,14.563-13.835,6.193-4.006,12.02-7.647,17.66-12.017-.73-4.915-2.918-8.01-5.1-12.2-1.09-2-1.643-3.459-2.912-5.461-2.182-3.823-.549-2.913-4.189-4.187-5.643,5.461-10.2,10.377-15.656,13.107l.729-7.827c-11.471.546-23.482,3.276-34.955,4.732-37.32,4.37-69.18,4.917-107.412,3.642-22.391-.91-46.6-3.459-68.086-6.19l-64.264-9.831-.551,9.284c-5.459-.728-12.74-11.65-17.475-14.746C10237.922,3325.549,10228.643,3336.654,10227,3340.659Z" transform="translate(-10151.863 -2759.68)"/>
    <path id="Path_3023" data-name="Path 3023" class="cls-2" d="M10458.16,2599.968c16.93-3.459,57.527-6.737,71.91,1.639.545,20.39-16.748,29.493-36.775,29.856C10469.629,2631.827,10456.521,2612.348,10458.16,2599.968Zm87.566-47.151c10.375-10.2,15.656,22.938,6.92,28.4C10543.178,2587.042,10538.627,2559.552,10545.727,2552.816Zm-107.412-2.549c10.2-8.01,14.744,23.485,6.008,28.764C10434.855,2584.858,10430.121,2556.822,10438.314,2550.267ZM10405,2642.2l64.262,9.831c21.484,2.73,45.7,5.279,68.09,6.189,38.232,1.274,70.09.728,107.412-3.64,11.467-1.458,23.484-4.188,34.957-4.733-3.281-.366-1.094-.366-2.553-1.64-5.641-4.915-12.924-8.92-18.936-13.654-15.836-12.38-38.773-34.772-42.414-56.983,15.473,3.459,22.572-1.092,18.93-18.568-3.275-17.114-17.838-3.642-23.484-.364-5.277-6.736-7.645-35.5-8.736-46.061-6.191-.728-17.479,1.457-24.578,2-34.59,2.185-152.744,5.462-158.566-30.584-6.01,6.918-10.562,60.624-11.471,73.731C10405.908,2586.314,10405.729,2613.439,10405,2642.2Z" transform="translate(-10297.457 -2073.424)"/>
    <path id="Path_3028" data-name="Path 3028" class="cls-3" d="M10148.484,5276.407l6.008,30.222c-10.377,3.642-41.146,6.553-53.342,7.1-15.291.547-46.061,2-40.963-18.751-7.646,1.276-20.209,8.374-25.125,12.2-7.645,6.006-11.105,14.745-2.547,23.85,29.494,30.951,146.738,36.41,187.7,36.41,42.963,0,155.473-5.279,188.6-34.407,20.76-18.389-8.369-31.132-24.025-38.413l3.641,26.215c-16.928,2-120.883,20.209-86.477-24.214,7.285-9.282,15.656-14.382,31.311-13.835-1.453-.91.912-.184-3.275-1.457l-87.02-7.464c-16.566-.364-32.588-.364-48.971.182C10180.342,5274.405,10161.229,5277.136,10148.484,5276.407Z" transform="translate(-9988.692 -4355.176)"/>
    <path id="Path_3029" data-name="Path 3029" class="cls-4" d="M10701.163,1079.659l18.75.182c-2.363-41.508-8.74-89.388-10.379-131.442-.543-14.018-1.271-34.408,11.291-37.321,10.01,3.277,8.377,12.743,12.926,20.39,14.379-31.859,23.482,10.377,24.941,13.108,3.641-12.2,6-28.946,20.75-27.126,14.934,13.836,8.926,60.078,4.916,82.47-2.732,15.292-16.387,71.183-16.018,80.468l14.563.546c4.734-13.836,5.1-20.39,12.561-33.862,17.3-30.767,46.242-54.98,49.338-93.939,4.369-52.613-37.686-96.124-89.389-99.583-59.533-4.187-95.395,32.769-103.221,85.929-8.2,55.89,32.951,75.37,44.781,121.065C10698.433,1066.187,10699.706,1075.472,10701.163,1079.659Z" transform="translate(-10498.771 -739.538)"/>
    <path id="Path_3035" data-name="Path 3035" class="cls-5" d="M10204.469,4679.387c-5.1,20.753,25.67,19.3,40.961,18.751,12.2-.546,42.963-3.458,53.342-7.1l-6.006-30.219-24.943-110.508c17.111,2.912,33.131,7.644,52.248,10.194a472.173,472.173,0,0,0,117.789,0c17.475-2.366,37.5-8.011,53.16-9.467,1.455,20.755,13.656,108.507,12.379,118.882,1.457,2.184.363-.729,1.277,3.277,0,.365.363,2.731.363,3.277.365,3.094.545,6.189.729,9.285-4.553-2.731-8.2-7.284-12.383-10.377l-10.557-6.191a12.889,12.889,0,0,1-1.641-.911c-.184-.181-.727-.181-.91-.546s-.543-.362-.908-.546h-1.822c-15.656-.544-24.029,4.551-31.312,13.836-34.408,44.421,69.545,26.216,86.475,24.213l-3.641-26.216c-2.732-9.1-4.369-26.4-6.01-36.773-2-12.563-4-25.489-6.187-38.232l-11.287-71.73c-1.822-4.187.908-2.729-4-3.823-33.32,10.561-94.486,15.112-132.354,14.928a362.222,362.222,0,0,1-67.908-6.19c-22.213-4.187-36.41-10.012-55.523-16.2,3.092,39.324,21.3,115.786,22.207,148.372-6.914-6.554-18.932-20.024-36.41-15.837C10218.482,4656.628,10209.93,4669.372,10204.469,4679.387Z" transform="translate(-10132.974 -3739.581)"/>
    <path id="Path_3036" data-name="Path 3036" class="cls-2" d="M11771.539,1737c3.646,1.274,2,.364,4.189,4.188,1.275,2,1.82,3.459,2.91,5.462,2.186,4.186,4.369,7.281,5.1,12.2,27.123-16.385,58.438-52.8,72.451-80.1,48.979-95.578-9.283-202.625-71-274.718-3.826-4.369-23.488-27.126-28.582-28.946-8.561-2.913-8.744,4.551-6.918,10.377-5.279-1.457-4-3.1-9.285-1.457-2.186,5.826-.363,5.461,1.092,10.559-4.73-2-3.461-3.277-10.379-1.821-1.09,6.008,1.273,9.649,2.732,14.564-5.279-1.638-5.463-3.458-11.65-2.184-4.367,11.105,15.291,23.667,27.123,34.59,59.535,54.616,111.057,136.9,75.551,221.922C11810.68,1695.3,11795.389,1712.054,11771.539,1737Z" transform="translate(-11374.354 -1165.849)"/>
    <path id="Path_3037" data-name="Path 3037" class="cls-2" d="M9889.41,1801.231c1.637-4.005,10.924-15.11,14.387-17.659-2.914-6.19-8.924-10.741-13.293-16.749-75.916-102.861-36.045-188.607,51.705-263.8,6.371-5.462,21.3-16.021,24.76-20.39,6-7.646,5.82-15.292-9.1-8.556,2.91-7.283,10.555-20.573-5.832-13.29,2.732-8.193,5.832-11.834-6.555-9.831,4.736-27.125-28.033,8.557-35.5,16.2a439.329,439.329,0,0,0-33.314,38.414c-19.115,24.577-40.049,57.71-51.523,92.483-21.117,63.9-11.285,116.149,27.859,166.943C9860.283,1774.47,9880.488,1795.587,9889.41,1801.231Z" transform="translate(-9814.272 -1220.255)"/>
    <path id="Path_3039" data-name="Path 3039" class="cls-6" d="M10559.371,2275.365c-2.912,3.094-1.455,2.183-10.742,3.276-4.006.545-8.191,1.457-12.2,2.184-18.023,3.459-51.34,11.288-52.43,32.224,5.824,36.047,123.977,32.77,158.568,30.585,7.1-.546,18.389-2.731,24.576-2a210.388,210.388,0,0,0,42.42-9.467c6.553-2.185,12.2-4.187,17.477-7.463,8.734-5.1,7.645-4.369,12.559-13.836-4-16.749-17.658-22.029-34.953-26.762-15.656-4.187-47.879-7.464-51.52-9.1l-4.369,7.1c0-.182-.365.546-.547.911,3.641,3.641,9.105,9.649.727,14.747-5.092,3.094-15.654-.364-20.75,2.911-12.018,7.647,2.549,14.565-34.047,13.837-2.73-4.915-10.193-13.837-16.021-14.747-9.828-1.456-17.293-.182-20.57-9.649-.363-4,3.645-5.46,5.824-11.651C10562.1,2277.548,10560.826,2276.457,10559.371,2275.365Z" transform="translate(-10362.078 -1902.473)"/>
    <path id="Path_3045" data-name="Path 3045" class="cls-7" d="M10919.756,1191.026c5.1,18.023,2.91,34.408,6.918,38.231,10.375-1.638.549-30.4,11.648-39.687,4.732,3.459,8.012,17.113,9.285,23.849,3.461,18.569-4.912,20.026,1.643,25.305,5.459-1.092,5.094-6.19,5.824-12.561a116.25,116.25,0,0,1,2.729-16.2c2.184-8.739,4.555-22.574,13.109-24.577,8.559,24.577,3.826,54.434-.912,80.831-4.363,23.667-9.465,50.793-15.838,73.914l-33.318-.182c-3.637-7.828-8.916-100.675-10.557-122.158-.363-7.1-2.912-32.223,4.186-37.138C10917.752,1182.651,10917.207,1181.923,10919.756,1191.026Zm-24.945,148.555c-10.191,4.733-7.645,13.836-1.818,21.3l-4.549,4.552,1.273,6.918c1.457,1.092,2.73,2.185,4.006,3.094-2.184,6.19-6.193,7.646-5.828,11.651,3.279,9.467,10.738,8.193,20.572,9.649,5.826.91,13.289,9.831,16.021,14.747,36.592.728,22.027-6.19,34.043-13.836,5.1-3.278,15.656.182,20.754-2.913,8.377-5.1,2.91-11.105-.727-14.747.18-.364.547-1.093.547-.91l4.367-7.1c-.727-5.1-2.18-6.008-5.1-8.738,4.73-8.193,10.014-17.659-1.822-22.393l-14.564-.546c-.363-9.285,13.293-65.175,16.023-80.468,4-22.392,10.01-68.634-4.918-82.47-14.744-1.82-17.115,14.929-20.752,27.126-1.461-2.731-10.561-44.967-24.945-13.107-4.551-7.647-2.91-17.114-12.926-20.391-12.561,2.913-11.834,23.3-11.283,37.321,1.637,42.055,8.008,89.935,10.373,131.443Z" transform="translate(-10692.42 -999.46)"/>
    <path id="Path_3047" data-name="Path 3047" class="cls-8" d="M11490,2502.768c1.092,10.559,3.463,39.323,8.74,46.059,5.645-3.277,20.211-16.748,23.488.365,3.635,17.477-3.461,22.027-18.934,18.568,3.637,22.211,26.578,44.6,42.416,56.983,6,4.733,13.289,8.738,18.932,13.653,5.1-1.457,1.275.91,2.729-2.729l1.643-16.386c2.73-37.5,4.006-117.243-6.553-147.281-4.92,9.467-3.826,8.738-12.564,13.837-5.279,3.276-10.924,5.278-17.477,7.463A210.379,210.379,0,0,1,11490,2502.768Z" transform="translate(-11184.929 -2063.61)"/>
    <path id="Path_3048" data-name="Path 3048" class="cls-5" d="M10540.631,3652.954c5.1-4.734,8.736-10.2,13.105-15.293,4.371-5.28,8.738-10.741,13.291-16.386,6.188-7.646,8.557-6.735,6.553-19.116l-11.285-76.827c-1.459-10.376,3.822-13.471,8.555-19.479,3.1-4,3.459-4.369,1.641-9.649-1.457-4.37-2.549-10.559-6.01-12.015l-15.836-3.278c-6.01-1.091-12.2-2.73-18.572-2.912-2.912,6.19-12.562,12.562-10.375,18.568,3.459,8.559,10.193,13.29,7.463,23.486-4.369,16.93-9.465,33.5-14.2,50.247-10.74,38.959-13.836,34.043-3.277,47.334Z" transform="translate(-10379.384 -2886.462)"/>
    <path id="Path_3050" data-name="Path 3050" class="cls-4" d="M11018.227,1383.3l33.318.182c6.369-23.121,11.469-50.247,15.836-73.914,4.736-26.4,9.467-56.255.914-80.832-8.559,2-10.926,15.839-13.111,24.577a115.972,115.972,0,0,0-2.73,16.2c-.725,6.372-.361,11.469-5.826,12.562-6.555-5.279,1.82-6.736-1.639-25.305-1.271-6.736-4.551-20.39-9.281-23.849-11.107,9.285-1.277,38.049-11.65,39.687-4.008-3.823-1.824-20.208-6.92-38.231-2.549-9.1-2-8.375-5.281-10.377-7.1,4.916-4.549,30.039-4.186,37.139C11009.3,1282.621,11014.588,1375.468,11018.227,1383.3Z" transform="translate(-10789.805 -1042.812)"/>
    <path id="Path_3056" data-name="Path 3056" class="cls-8" d="M10696.385,3104.65c-1.639,12.38,11.471,31.859,35.135,31.5,20.027-.365,37.32-9.468,36.775-29.857C10753.912,3097.914,10713.313,3101.191,10696.385,3104.65Z" transform="translate(-10535.682 -2578.106)"/>
    <path id="Path_3064" data-name="Path 3064" class="cls-9" d="M11157.322,303.254c3.277-1.274,4.551-3.1,9.1-6.372l.186-30.949c0-8.921-3.279-5.462-1.641-17.659.184-1.82,2.369-28.218-5.828-16.567-6.189,8.557-2.73,31.677-3.275,34.044C11152.951,277.585,11154.406,299.067,11157.322,303.254Z" transform="translate(-10910.325 -228.749)"/>
    <path id="Path_3065" data-name="Path 3065" class="cls-9" d="M11735,591.908c17.3,2.913,12.561-5.644,23.307-20.39,5.459-7.464,3.641-11.105,7.646-16.2,3.277-4.187,2.188-1.275,4.73-7.282.184-.182.184-.546.365-.728,2-4.187,2.73-2.731,4.369-6.554-2.912-8.374-10.742,0-12.561,3.095-3.461,5.462-2.006,2.367-5.283,6.554-2.729,3.277-2.18,6.554-3.637,9.467-1.273,2.185-6.377,4.551-11.105,13.836C11741.012,576.979,11735.363,588.813,11735,591.908Z" transform="translate(-11385.325 -480.991)"/>
    <path id="Path_3066" data-name="Path 3066" class="cls-9" d="M10375.949,560.4c-3.277,1.638-3.1,2.185-.543,7.464l11.826,13.29c5.83,3.277,4.006,0,8.2,5.1,13.289,15.475,9.1,8.92,20.752,17.295,2,1.456,5.643,5.826,7.461,2,.912-1.638.182-1.638-.176-4.187-1.1-8.01,4.912-3.823-4.738-10.013a86.038,86.038,0,0,1-13.836-11.105c-6.371-6.19-9.648-4.005-14.926-10.195-4.553-5.28-3.1-2.367-7.463-5.644C10379.586,562.034,10379.951,558.393,10375.949,560.4Z" transform="translate(-10271.685 -499.544)"/>
    <path id="Path_3069" data-name="Path 3069" class="cls-8" d="M11162.427,2853.3c-7.1,6.735-2.549,34.226,6.916,28.4C11178.083,2876.242,11172.8,2843.108,11162.427,2853.3Z" transform="translate(-10914.158 -2373.911)"/>
    <path id="Path_3070" data-name="Path 3070" class="cls-8" d="M10569.111,2842.172c-8.2,6.553-3.461,34.59,6.006,28.764C10583.857,2865.657,10579.3,2834.162,10569.111,2842.172Z" transform="translate(-10428.254 -2365.329)"/>
    <path id="Path_3077" data-name="Path 3077" class="cls-10" d="M11741.032,5326.729c-1.641,2.917-5.645.547-10.02-.362-4.91-1.093-8.734-2.185-14.014-2.367.369.183.729.183.912.547s.723.364.906.545a13.311,13.311,0,0,0,1.643.911l10.553,6.19c4.189,3.094,7.836,7.646,12.381,10.375-.176-3.095-.359-6.187-.721-9.283,0-.546-.369-2.912-.369-3.277C11741.4,5326,11742.489,5328.916,11741.032,5326.729Z" transform="translate(-11370.604 -4396.393)"/>
  </g>
</svg>
