<svg id="Group_8082" data-name="Group 8082" xmlns="http://www.w3.org/2000/svg" viewBox="0 0 701.115 1095.957">
  <defs>
    <style>
      .cls-1 {
        fill: #4b4b4d;
      }

      .cls-1, .cls-10, .cls-11, .cls-2, .cls-3, .cls-4, .cls-5, .cls-6, .cls-7, .cls-8, .cls-9 {
        fill-rule: evenodd;
      }

      .cls-2 {
        fill: #889fac;
      }

      .cls-3 {
        fill: #a9abae;
      }

      .cls-4 {
        fill: #fee0c5;
      }

      .cls-5 {
        fill: #f9ed4c;
      }

      .cls-6 {
        fill: #fdfbf2;
      }

      .cls-7 {
        fill: #a45050;
      }

      .cls-8 {
        fill: #443a3d;
      }

      .cls-9 {
        fill: #4c2715;
      }

      .cls-10 {
        fill: #373435;
      }

      .cls-11 {
        fill: #585555;
      }
    </style>
  </defs>
  <path id="Path_3617" data-name="Path 3617" d="M-93.664,26.812H-105.27V-41.94h18.1L-66.419,1.239-45.665-41.94h18V26.812H-39.272v-53.7l-24,47.7h-6.492l-23.9-47.7ZM38.528,5.468H-2.487a11.923,11.923,0,0,0,5.213,9.2,18.3,18.3,0,0,0,11.016,3.492q9.836,0,14.95-6.2l6.295,6.885Q26.529,27.6,12.956,27.6A26.222,26.222,0,0,1-5.782,20.271Q-13.5,12.943-13.5.6t7.869-19.622A26.408,26.408,0,0,1,12.906-26.3a26.846,26.846,0,0,1,18.147,6.442q7.475,6.442,7.475,17.754ZM-2.487-3.187h30q0-6.59-4.131-10.131A15.1,15.1,0,0,0,13.2-16.859,17.427,17.427,0,0,0,2.333-13.17,11.909,11.909,0,0,0-2.487-3.187ZM61.642-1.515V26.812H50.626V-25.514H61.642v9.541a19.6,19.6,0,0,1,7.328-7.574A19.511,19.511,0,0,1,79.052-26.3q8.852,0,14.311,5.41T98.821-5.253V26.812H87.805V-1.909q0-14.459-12-14.459a14.414,14.414,0,0,0-9.934,3.787Q61.642-8.794,61.642-1.515ZM127.05-16.662V9.894a8.63,8.63,0,0,0,1.967,5.951,6.986,6.986,0,0,0,5.508,2.213q3.541,0,6.787-3.443l4.524,7.77A18.779,18.779,0,0,1,133,27.6a16.517,16.517,0,0,1-12-4.869q-4.967-4.869-4.967-13.131V-16.662h-6.59v-8.852h6.59V-41.94H127.05v16.426h13.77v8.852Zm39.343,29.7a16.135,16.135,0,0,0,11.9,4.721,15.885,15.885,0,0,0,11.852-4.77A16.9,16.9,0,0,0,194.818.649,16.9,16.9,0,0,0,190.146-11.7a15.885,15.885,0,0,0-11.852-4.77,15.885,15.885,0,0,0-11.852,4.77A16.9,16.9,0,0,0,161.77.649,17.166,17.166,0,0,0,166.393,13.042Zm31.573,6.787Q190.1,27.6,178.294,27.6a26.778,26.778,0,0,1-19.671-7.819A25.937,25.937,0,0,1,150.754.649a25.937,25.937,0,0,1,7.869-19.131,28.654,28.654,0,0,1,39.343,0A25.937,25.937,0,0,1,205.834.649,26.1,26.1,0,0,1,197.966,19.828Zm47.8-35.015q-8.164,0-12.295,5.311T229.342,4.386V26.812H218.326V-25.514h11.016V-14.99a22.8,22.8,0,0,1,7.229-8.065,17.416,17.416,0,0,1,9.688-3.246l.1,11.114Z" transform="translate(283.509 41.94)"/>
  <g id="Group_7992" data-name="Group 7992" transform="translate(0 93.341)">
    <path id="Path_3011" data-name="Path 3011" class="cls-1" d="M1369.824,5026.374c-.642-7.6,9.954-8.242,10.7-1.394C1381.277,5032.9,1370.36,5032.794,1369.824,5026.374Zm18.3-5.675c-1.5-7.49,9.1-8.777,10.382-2.675C1400.33,5026.269,1389.3,5026.7,1388.128,5020.7Zm19.8-13.162c6.957-3.428,10.168,6.636,4.816,9.416a5.466,5.466,0,0,1-7.492-2.354C1402.9,5009.568,1406.859,5008.178,1407.93,5007.537ZM1285.266,4895.9c-.214,6.423,13.272,42.385,14.021,50.521-3.639,4.389-19.373,15.63-24.725,21.086l5.566,37.252c-8.67,4.706-55.659,41.632-61.438,43.988,1.819-6.741,11.774-27.186,15.627-36.606,4.067-9.846,3.639-6.1,3.318-12.2.321-5.244-5.994-31.575-7.492-38.639-2.248-10.382-3.961-9.846.964-18.2,2.675-4.388,6.636-9.739,8.563-14.128-1.605-3.1-7.172-9.741-9.419-12.094l-36.928,4.922c-1.5.644-3.425,6.743-4.389,10.061-1.284,3.853,0,3.96,3.96,8.564,10.062,11.772,9.633,10.382,8.135,17.554-1.5,8.026-8.777,42.064-8.349,47.416-.642,3.746,3.211,8.026,5.138,11.347,2.248,3.531,4.281,7.064,6.315,10.49,4.282,7.062,9.419,14.344,12.951,21.729-4.924-2.034-12.738-7.491-17.233-10.385-5.994-3.742-11.56-7.17-17.339-10.7-5.673-3.641-10.7-6.852-16.805-10.6-4.816-3-12.523-8.457-17.339-10.6l3-33.61-32.646-18.3c.428-5.892,4.495-17.557,6.315-23.871,1.391-5.031,6.208-19.591,6.208-23.87-13.058-.856-25.689-1.392-38.747-2.892-9.205-.962-28.365-2.888-36.072-5.457-2.676.645-1.605-1.071-3.639,6.852-.75,3-1.392,5.457-2.141,8.454-1.285,5.994-2.462,11.666-3.425,17.661-14.343,89.8,16.055,156.488,122.235,163.018,48.7,3,98.474-12.1,138.826-27.4,31.255-11.882,58.228-23.013,88.52-36.289,5.137-2.246,9.419-4.172,14.557-6.419l10.7-4.71c3.211-1.605,2.355-.213,2.033-3.1-.856-6.85-3.639-16.484-5.245-23.441-1.177-5.459-4.923-18.41-4.71-23.12l-1.5-2.46c-14.986,7.492-29.971,15.946-45.277,24.082-39.71,20.979-103.4,51.806-144.606,64.865-75.89,23.977-154.453-6.637-152.634-92.693.107-4.069-.749-13.382,2.462-15.736,3.1,1.82,1.391,3.64.963,11.774a116.447,116.447,0,0,0,3.318,36.072c11.56,43.457,51.056,64.22,94.513,65.4,41.745,1.179,85.844-20.978,122.664-37.249,8.456-3.637,31.255-15.413,36.606-17.231-.856-4.068-3-8.994-4.281-12.953-1.5-4.388-2.89-8.775-4.174-13.38a369.293,369.293,0,0,1-13.38-74.175l-.749-11.988c-.535-3.64.428-2.463-2.569-2.676Z" transform="translate(-932.152 -4368.209)"/>
    <path id="Path_3012" data-name="Path 3012" class="cls-2" d="M804.894,8279.547c-5.031,2.776-4.068,4.6-15.949,5.99-19.48,2.463-40.674-1.5-59.833-3.313l1.284-20.77c-.856,1.5.963-1.5-.643,1.18-.749,1.5-.428.966-.963,1.5l-20.765-2.247,3.746,42.918c1.285-.317,6.636-5.562,12.737-8.773a28.851,28.851,0,0,1,18.945-3.209c8.349,1.5,26.224,13.163,20.016,21.937-8.884,12.528-76.424,12.1-77.173,10.6-.107-.213-.428-.1-.75-.213l-.535-65.827-20.551-1.179c.214,11.561,1.5,90.874-.856,95.374l-4.5-1.182c-10.061-.107-23.762-2.354-34.145-3.318l-172.222-17.23c-8.456-.856-64.65-6-68.182-7.383l-1.713-13.274,257.208,14.02-8.135-68.183c-7.385-1.287-23.869-.75-32-.64-32.432.32-59.3,1.714-91.837,4.815-32.218,3-129.835,16.48-146.961,45.7-23.013,39.285,105.752,58.12,127.266,60.908,75.461,9.74,167.3,10.061,242.33-1.18,33.181-4.923,75.247-12.739,100.935-27.075,6.743-3.753,14.343-9.1,17.768-14.562,14.022-22.267-23.87-36.929-40.032-42.812C805,8280.509,805.322,8281.042,804.894,8279.547Z" transform="translate(-320.02 -7372.41)"/>
    <path id="Path_3013" data-name="Path 3013" class="cls-1" d="M1529.418,6666.163l.535,65.828c.321.105.642,0,.749.214.749,1.5,68.289,1.926,77.173-10.6,6.208-8.778-11.667-20.444-20.016-21.941a28.861,28.861,0,0,0-18.945,3.211c-6.1,3.209-11.453,8.457-12.738,8.775l-3.746-42.92-6.208-68.4c-7.171-4.066-75.246-26.437-79.635-29.864,18.41-1.6,29.435-.854,47.31-7.383,3.853-1.394,8.134-4.927,12.2-3.639l53.091,19.48L1574.8,6668.3l-1.284,20.764c19.16,1.82,40.353,5.779,59.833,3.318,11.881-1.392,10.917-3.21,15.948-5.992.535-7.278-1.82-10.492-5.566-14.665a28.946,28.946,0,0,0-30.5-8.563c-6.423,1.927-9.312,4.924-13.915,6.852l-3.319-103.611c-1.605-1.82-52.662-34.252-56.087-35.537V6482.49c-2.462-.107-23.549,7.705-28.15,9.1-9.741,3-19.052,5.887-29.328,8.563-42.387,10.918-88.734,13.914-130.906-.105-32.753-10.812-39.6-23.44-47.524-28.045.749,8.455,15.627,101.79,19.48,111.424l205.3,28.152Z" transform="translate(-1164.423 -5779.256)"/>
    <path id="Path_3014" data-name="Path 3014" class="cls-3" d="M311.9,5176.131l8.135,68.182L62.83,5230.291l1.713,13.272c3.532,1.39,59.726,6.528,68.182,7.387l172.221,17.233c10.383.962,24.083,3.211,34.145,3.317l4.5.318.214-131.76-228.523-29.115c-.963-6.313,3.532-79.312,4.174-92.478.321-7.707.749-15.521,1.07-23.12.535-8.67-2.034-11.56-4.924-18.623L72.892,4874.288c-4.817-11.666-9.633-22.586-14.129-34.146-4.067-10.489-9.526-24.4-14.45-34.142L0,4831.153c.642,3.318,34.252,61.653,38.961,70L88.2,4987.961c2.355,4.282,8.884,13.271,8.242,17.98-4.067,27.83-11.239,63.26-16.162,92.374-1.284,7.17-7.921,41.744-7.814,46.133l237.193,16.589Z" transform="translate(0 -4291.583)"/>
    <path id="Path_3015" data-name="Path 3015" class="cls-4" d="M1296.043,3630.284c26.438-6.636,39.711-4.6,66.791-1.178-.107,9.313-5.566,16.7-9.954,21.087C1339.286,3663.679,1297.648,3662.5,1296.043,3630.284Zm-18.732-41.852c10.168-4.816,7.171,22.906-.749,26.867C1265.966,3620.651,1267.571,3593.035,1277.312,3588.432Zm102.862-9.2c10.169-5.031,6.958,23.869-1.07,27.188C1368.827,3610.59,1370.754,3583.936,1380.173,3579.227ZM1229.145,3548.4c.75,7.28-4.6,36.608-7.064,42.923-2.89-1.07-19.267-17.554-22.478.857-2.676,15.626,4.067,20.122,17.768,16.269-.963,17.768-26.224,42.387-39.71,52.983-2.248,1.712-17.018,11.667-17.661,12.845l.107.32c7.707,2.57,26.866,4.5,36.071,5.46,13.059,1.5,25.689,2.034,38.748,2.889.963.429,1.07.215,1.927.856,1.712-1.392,16.162-.534,19.266-.427,30.934.108,92.266-3.853,122.129-9.847,1.926-.429,7.171-2.14,8.67-.321.107-.107.749-.535.856-.643.214-.108.429-.321.642-.428a2.338,2.338,0,0,1,.535-.322l20.23-4.067c1.177-.963-1.5-.214,2.14-1.391.75-25.154-.856-52.447-2.569-77.172-.749-11.774-5.566-61.654-10.382-68.183-.107,21.622-50.736,27.294-72.356,29.434-16.056,1.605-32.968,1.713-49.558,1.391C1264.146,3551.612,1233.32,3548.186,1229.145,3548.4Z" transform="translate(-1035.838 -3144.125)"/>
    <path id="Path_3017" data-name="Path 3017" class="cls-5" d="M1512.568,1251.964l14.343-.108c-2.676-31.576-31.255-110.782-14.664-144.82,4.388-8.991,11.345-6.637,15.842.214,3.639,5.566,5.138,13.594,7.386,20.123,3.1-6.851,2.354-13.915,7.813-20.23,6.957-7.921,12.951.963,14.878,8.028,3.211-4.71,2.89-12.844,8.349-17.661,6.1-5.459,11.346,2.676,12.63,9.1,3.1,14.878.642,33.289-.428,48.7-.642,10.061-7.6,94.834-7.278,95.8l17.447-.107c0-21.407,15.842-47.2,25.474-61.546,12.416-18.517,23.44-38.747,19.052-67.647-7.279-47.2-39.924-83.917-94.834-79.207-48.274,4.175-85.2,41.744-82.632,91.409C1458.3,1180.892,1506.146,1205.938,1512.568,1251.964Z" transform="translate(-1299.994 -930.641)"/>
    <path id="Path_3022" data-name="Path 3022" class="cls-6" d="M4151.931,3736.568l5.779-.215c-.533-7.919-14.343-49.664-17.768-68.075-2.034-10.81-4.176-28.686,0-38.747,2.89-6.85,8.136-5.779,11.988-.535,3,4.067,3.96,9.741,6.423,14.128.749-3.425,3.531-23.44,12.521-16.27,1.5,1.071,2.462,3.96,3.854,5.78,2.14-4.6,1.927-10.275,5.461-13.272,4.6-3.853,8.453,2.354,9.522,6.1,3.429,12.416,2.144,57.264,1.821,72.569-.1,11.561-1.391,24.405-.854,35.751l10.06-.642,3.318-1.178c2.141-43.777,37.037-55.979,26.117-99.972-17.02-68.4-89.908-61.759-117.2-28.044-9.1,11.24-16.806,31.148-13.274,50.521,5.245,29.221,32.54,46.453,43.03,69.895,1.5,3.105,3.317,9.741,4.709,12.2Z" transform="translate(-3660.098 -3196.14)"/>
    <path id="Path_3024" data-name="Path 3024" class="cls-1" d="M3736.352,6472.308c6.315-4.6,11.238,5.354,5.887,8.884C3736.567,6484.724,3729.717,6477.124,3736.352,6472.308Zm19.159-2.461c7.064-3.214,10.491,7.063,4.6,9.633C3753.478,6482.476,3749.2,6472.734,3755.511,6469.847Zm17.982-3.318c6.743-2.891,10.17,8.134,3.425,10.063C3770.5,6478.408,3766.323,6469.63,3773.493,6466.528Zm14.986,11.346-8.243-40.459c-1.176-1.927-1.07-2.785-1.391-5.141-7.064,1.287-14.021,3.533-21.835,4.712-22.8,3.426-47.846,1.818-68.931-5.778a124.989,124.989,0,0,1-33.825-17.984c-7.493-5.46-21.834-18.625-25.9-26.226L3588,6402.626c1.606,5.244,11.668,19.054,14.665,22.907,46.239,60.9,108.106,72.354,180.463,55.872C3790.512,6479.691,3789.014,6480.657,3788.479,6477.874Z" transform="translate(-3203.953 -5703.355)"/>
    <path id="Path_3025" data-name="Path 3025" class="cls-7" d="M1188,3240.682c3.318,5.458.214,6.422,10.6,13.059,12.845,8.242,41.1,14.877,55.552,16.055,4.175-.214,35,3.213,47.31,3.425,16.59.322,33.5.214,49.558-1.392,21.621-2.14,72.25-7.813,72.357-29.435-1.07-12.416-15.306-18.839-26.652-22.691-11.452-3.96-28.15-7.813-41.637-8.777-1.177,5.459-2.462,6.637-4.5,9.954,2.676,3,7.6,5.888,3.746,11.561-2.033,3.1-6.315,5.351-11.881,5.672-9.1.75-8.028-.748-12.63,4.817l-8.669,9.205c-5.031.215-18.089.856-21.086-1.713-2.033-1.711-8.67-9.632-10.383-11.88-6.422-.428-15.306.856-19.374-2.568-6.315-5.352-1.819-8.885,1.605-12.952-1.07-1.818-3.96-3.1-4.388-6.529-.321-3.531,2.354-5.352,3.318-7.492-17.018,1.605-33.717,3.426-49.451,7.6-7.171,1.926-14.985,4.6-20.765,7.921C1193.566,3228.587,1190.248,3231.371,1188,3240.682Z" transform="translate(-1060.841 -2865.52)"/>
    <path id="Path_3027" data-name="Path 3027" class="cls-6" d="M5437.644,5130.577c2.891.535,6.1,2.035,9.205,1.605,1.924-23.867.32-77.815,14.448-96.333,3.318-4.278,7.494-5.884,10.491-.748,2.354,3.961,2.246,11.56,2.354,16.7,3.64-4.5,5.458-12.95,13.059-12.63,3.744,2.142,3.531,3.747,4.173,8.563,4.175-4.173,4.391-10.486,12.095-10.38,3.747,3.638,3.64,6.741,2.783,12.629-1.818,11.343-8.347,28.043-12.308,39.6l-17.877,50.521c3.1.854,6.1,2.034,9.207,1.82l2.782.748c3.1-12.522,17.982-27.615,25.153-33.822,9.956-8.671,20.552-18.091,24.833-34.038,8.242-30.079-3.854-65.508-38.319-76.1-15.947-4.925-35.428-3.533-49.451,3.637-12.521,6.425-21.834,17.771-27.293,31.578-6.744,16.912-2.569,32.967,3.1,48.273,2.677,7.279,5.46,13.913,7.814,21.621C5438.821,5119.66,5436.039,5121.267,5437.644,5130.577Z" transform="translate(-4839.417 -4461.065)"/>
    <path id="Path_3030" data-name="Path 3030" class="cls-8" d="M1985.531,1697.832l-31.255.428c-2.675-10.81-5.03-23.012-7.492-33.823-5.459-24.725-19.8-90.981-7.279-109.178,10.81,1.5,13.486,41.959,16.7,49.237l3.745-.214c3.532-5.994-2.783-7.493.643-23.869,1.07-5.352,4.6-18.945,8.455-21.193,1.82.963,1.5.321,2.676,3.211,6.636,17.34-1.177,36.285,9.312,32.86.856-2.248,2.462-41.1,9.741-44.313,6.422,3,4.5,27.829,3.853,35.642C1993.237,1603.854,1988.313,1689.055,1985.531,1697.832Zm-52.234.643c-2.568,2.354-6.1,4.174-6.315,9.526-.107,5.352,3.747,8.563,5.352,11.239l-1.6,1.392c-.964,2.14-3.64,3.96-3.318,7.492.428,3.425,3.318,4.709,4.388,6.529-3.425,4.067-7.921,7.6-1.606,12.951,4.068,3.426,12.952,2.141,19.374,2.569,1.712,2.247,8.349,10.168,10.382,11.881,3,2.569,16.055,1.926,21.086,1.712l8.67-9.205c4.6-5.566,3.532-4.068,12.63-4.816,5.566-.321,9.848-2.569,11.881-5.672,3.853-5.674-1.07-8.563-3.746-11.56,2.033-3.319,3.317-4.5,4.5-9.955-.856-3.318-1.713-2.569-4.5-4.71,1.177-3.1,4.6-5.458,4.924-10.6.321-5.566-2.676-7.278-5.78-9.74l-17.447.107c-.321-.963,6.636-85.736,7.279-95.8,1.07-15.413,3.532-33.823.428-48.7-1.285-6.422-6.529-14.557-12.63-9.1-5.459,4.817-5.138,12.952-8.349,17.662-1.927-7.064-7.921-15.949-14.878-8.028-5.459,6.314-4.71,13.379-7.813,20.229-2.248-6.529-3.747-14.557-7.386-20.123-4.5-6.85-11.453-9.205-15.841-.214-16.591,34.037,11.988,113.244,14.664,144.82Z" transform="translate(-1720.724 -1377.151)"/>
    <path id="Path_3031" data-name="Path 3031" class="cls-9" d="M1117.03,3659.988c.643-1.177,15.414-11.131,17.661-12.845,13.487-10.6,38.747-35.214,39.711-52.982-13.7,3.854-20.444-.641-17.768-16.27,3.211-18.41,19.588-1.927,22.478-.857,2.461-6.314,7.813-35.643,7.064-42.92-14.45-1.178-42.707-7.813-55.552-16.057-10.383-6.635-7.278-7.6-10.6-13.058-9.74,49.451-9.847,100.079-5.031,150.6C1115.425,3659.774,1115.96,3659.239,1117.03,3659.988Z" transform="translate(-992.867 -3129.837)"/>
    <path id="Path_3033" data-name="Path 3033" class="cls-6" d="M1878,4946.75c.214,2.032-.107.962,1.285,3.318l42.493,70.324c2.462,4.173,4.817,8.027,7.386,12.2,1.177,2.033,2.354,4.064,3.746,6.209,3.319,5.564,1.821,4.6,4.6,5.458-.428-5.354,6.851-39.392,8.35-47.418,1.5-7.172,1.927-5.778-8.135-17.555-3.961-4.6-5.245-4.707-3.961-8.563.964-3.318,2.891-9.418,4.389-10.061l36.927-4.923c2.248,2.356,7.813,8.99,9.419,12.094-1.927,4.391-5.887,9.74-8.562,14.131-4.924,8.349-3.211,7.812-.964,18.2,1.5,7.064,7.813,33.4,7.492,38.642,2.141,1.068.857,2.244,3.747-4.6l8.456-19.482c5.137-12.2,33.181-75.246,33.4-78.564-1.5-1.821-6.743-.106-8.67.32-29.864,5.994-91.2,9.954-122.129,9.846C1894.162,4946.214,1879.712,4945.356,1878,4946.75Z" transform="translate(-1676.985 -4407.074)"/>
    <path id="Path_3034" data-name="Path 3034" class="cls-5" d="M2048.4,1770.854c2.783-8.777,7.707-93.978,9.1-111.211.642-7.813,2.569-32.645-3.853-35.643-7.278,3.211-8.884,42.065-9.741,44.313-10.488,3.425-2.675-15.52-9.311-32.86-1.177-2.89-.857-2.248-2.676-3.211-3.853,2.248-7.386,15.842-8.456,21.193-3.425,16.377,2.89,17.875-.642,23.87l-3.747.213c-3.21-7.279-5.887-47.738-16.7-49.236-12.524,18.2,1.819,84.451,7.278,109.177,2.462,10.811,4.817,23.013,7.493,33.824Z" transform="translate(-1783.595 -1450.172)"/>
    <path id="Path_3038" data-name="Path 3038" class="cls-8" d="M4506.272,3949.316c6.422,4.71,3.959,42.922,3.959,52.877,0,18.41.643,38-.961,56.3l-23.441,2.034c-4.066-16.7-29.972-92.265-17.447-105.539,4.709,1.392,7.493,11.026,9.206,16.163,2.782,8.456,2.566,17.555,6.208,19.48,3.745-1.177,2.567-3,1.5-6.85s-1.071-5.887-.535-10.169c.428-4.065,2.141-14.236,5.351-17.125,8.777,5.245,1.5,28.579,10.812,26.331.962-4.389-.749-12.524,1.925-26.009C4503.917,3951.885,4503.6,3950.707,4506.272,3949.316Zm-31.256,111.747c-4.388,1.926-7.062.106-8.562,5.78-1.5,5.458,2.25,7.706,3.962,10.274-3.747,4.389-5.459,6.637.32,11.24-2.032,3.21-4.814,6.422-.854,9.74,3.423,2.782,8.563.749,13.27,1.285,3.427.321,6.209,4.388,8.35,6.528,4.28,4.068,4.175,2.677,11.669,2.462,7.17-.215,6.206-.965,9.524-5.03.964-1.177,2.035-2.569,3.105-3.96,1.926-2.463,1.176-1.928,5.458-2.463,15.841-2.033,13.915-10.276,8.027-13.272,2.356-5.673,5.994-6.636-.533-11.346,1.283-2.675,5.991-9.525.212-13.7-2.247-1.605-2.032-.963-5.136-.963l-10.063.641c-.534-11.345.75-24.19.858-35.749.318-15.308,1.6-60.156-1.82-72.57-1.07-3.747-4.926-9.956-9.525-6.1-3.533,3-3.32,8.67-5.46,13.273-1.392-1.819-2.354-4.71-3.854-5.78-8.99-7.173-11.774,12.843-12.522,16.269-2.463-4.388-3.427-10.06-6.425-14.129-3.851-5.243-9.095-6.314-11.985.537-4.175,10.061-2.036,27.936,0,38.748,3.423,18.411,17.231,60.153,17.768,68.075Z" transform="translate(-3983.186 -3520.635)"/>
    <path id="Path_3040" data-name="Path 3040" class="cls-10" d="M2741.542,4931.391c-.213,3.318-28.257,66.362-33.395,78.564l-8.457,19.48c-2.89,6.849-1.605,5.673-3.747,4.6.322,6.1.75,2.354-3.318,12.2-3.853,9.417-13.807,29.861-15.626,36.6,5.78-2.352,52.769-39.278,61.438-43.988l-5.565-37.248c5.352-5.462,21.085-16.7,24.726-21.087-.75-8.137-14.236-44.1-14.022-50.521a2.333,2.333,0,0,0-.535.319c-.214.106-.428.321-.643.43C2742.292,4930.854,2741.649,4931.284,2741.542,4931.391Z" transform="translate(-2390.463 -4402.312)"/>
    <path id="Path_3041" data-name="Path 3041" class="cls-8" d="M5498.192,5435.106c-.106-19.159,2.354-90.125,15.734-96.976,7.385,5.781-.964,31.256,2.784,35.642,4.172-.319,3-3.21,3.53-7.384.642-5.565,7.6-19.481,12.737-20.445,1.716,17.235-4.816,21.941-1.282,25.047,3.639,3.21,3.639-5.458,7.277-13.165,1.82-3.853,5.563-12.416,9.313-13.486,3.959,6.316-10.063,41.529-12.738,49.237-3,8.883-13.059,40.459-16.8,46.561Zm-13.486-3.425c-8.455,1.39-6.633,7.063-4.924,13.164-6.638,4.6-5.243,3.853-2.891,10.382-3.529,1.5-6.848,4.067-2.891,8.563,4.6,5.246,9.636,0,13.271,7.707,4.606,9.634,3.533,7.6,10.6,9.74,5.675,1.605,5.779,2.461,10.383-.75,3.21-2.246,5.032-4.5,9.313-3.639,4.281.75,7.813,1.819,11.56-.75s1.607-5.459.215-8.884c3.317-2.782,7.172-5.35,2.355-9.526,11.13-9.633,2.675-12.523.642-14.663-3.1.215-6.1-.964-9.206-1.817l17.876-50.525c3.961-11.558,10.49-28.256,12.308-39.6.857-5.886.965-8.989-2.784-12.631-7.705-.106-7.916,6.209-12.093,10.383-.643-4.817-.427-6.422-4.176-8.563-7.6-.32-9.419,8.135-13.057,12.631-.106-5.138,0-12.738-2.356-16.7-2.993-5.138-7.171-3.53-10.489.75-14.127,18.517-12.523,72.464-14.446,96.331C5490.8,5433.714,5487.6,5432.215,5484.706,5431.682Z" transform="translate(-4886.479 -4762.168)"/>
    <path id="Path_3042" data-name="Path 3042" class="cls-10" d="M1816.962,5132.367c-2.783-.856-1.284.106-4.6-5.458-1.392-2.142-2.569-4.174-3.746-6.209-2.569-4.174-4.924-8.026-7.385-12.2l-42.493-70.322c-1.392-2.356-1.071-1.286-1.285-3.316-.856-.646-.963-.431-1.926-.86,0,4.283-4.817,18.84-6.208,23.869-1.82,6.318-5.887,17.985-6.315,23.872l32.646,18.3-3,33.606c4.817,2.142,12.523,7.6,17.34,10.6,6.1,3.743,11.132,6.954,16.8,10.6,5.78,3.532,11.346,6.959,17.339,10.705,4.5,2.89,12.309,8.349,17.233,10.384-3.533-7.386-8.67-14.666-12.952-21.732-2.034-3.425-4.068-6.955-6.315-10.489C1820.173,5140.393,1816.32,5136.115,1816.962,5132.367Z" transform="translate(-1556.435 -4495.176)"/>
    <path id="Path_3044" data-name="Path 3044" class="cls-6" d="M4542.605,4005c-2.673,1.39-2.355,2.568-3.424,7.493-2.677,13.486-.964,21.62-1.926,26.009-9.314,2.248-2.035-21.086-10.812-26.331-3.209,2.889-4.922,13.058-5.353,17.126-.535,4.281-.535,6.314.538,10.168s2.246,5.674-1.5,6.85c-3.639-1.927-3.424-11.023-6.207-19.48-1.713-5.137-4.5-14.771-9.207-16.162-12.522,13.272,13.38,88.84,17.448,105.538l23.44-2.033c1.607-18.3.964-37.892.964-56.3C4546.566,4047.921,4549.028,4009.709,4542.605,4005Z" transform="translate(-4019.52 -3576.32)"/>
    <path id="Path_3046" data-name="Path 3046" class="cls-6" d="M5714.972,5477.976l20.551,5.028c3.745-6.1,13.8-37.677,16.8-46.56,2.675-7.707,16.7-42.92,12.735-49.235-3.744,1.068-7.49,9.632-9.309,13.484-3.643,7.708-3.643,16.377-7.279,13.167-3.533-3.105,3-7.814,1.283-25.047-5.137.962-12.093,14.879-12.737,20.442-.534,4.176.645,7.064-3.532,7.387-3.746-4.388,4.6-29.863-2.785-35.643C5717.323,5387.85,5714.861,5458.814,5714.972,5477.976Z" transform="translate(-5103.257 -4805.035)"/>
    <path id="Path_3051" data-name="Path 3051" class="cls-4" d="M4603,5567.576l9.311,43.993c11.453-1.283,40.675.534,43.458-4.6.855-4.494-1.5-5.887-4.6-7.385,4.067-1.5,7.6-5.673,2.139-11.132-.1-.106-.211-.321-.318-.428l-.643-.644c2.568-2.247,5.671-5.565,2.354-9.419-.75-.961,0-.106-1.07-1.069l-1.284-1.072c-.108-.106-.323-.213-.428-.427l1.605-1.5a9.227,9.227,0,0,0,1.391-1.5c1.07-1.5,1.07-3.1.643-5.243C4645.813,5558.694,4615.95,5566.292,4603,5567.576Z" transform="translate(-4110.312 -4967.747)"/>
    <path id="Path_3052" data-name="Path 3052" class="cls-4" d="M5476,6794.626l8.137,40.143a173.171,173.171,0,0,1,24.726-.538c7.17.217,17.447.857,21.512-3.1.215-4.391-1.39-4.391-4.492-6.209.106-.216.213-.321.319-.321a.483.483,0,0,1,.321-.319l1.926-1.605a3.809,3.809,0,0,0,1.6-3.429c.106-3.21-2.141-4.065-3.743-5.563,6.207-6.531,3.958-6.531-1.286-11.24,3.318-1.606,4.5-2.246,4.39-7.278C5516.139,6787.137,5489.377,6794.2,5476,6794.626Z" transform="translate(-4889.867 -6064.428)"/>
    <path id="Path_3053" data-name="Path 3053" class="cls-9" d="M2431,4505.557c1.6,32.217,43.242,33.392,56.836,19.908,4.388-4.39,9.847-11.774,9.954-21.088C2470.71,4500.953,2457.437,4498.919,2431,4505.557Z" transform="translate(-2170.794 -4019.394)"/>
    <path id="Path_3057" data-name="Path 3057" class="cls-11" d="M2208.354,30.184c-2.141,5.78-.429.963-1.821,7.493a37.924,37.924,0,0,0-.321,10.383c.428,3.425,1.819,18.2,2.676,20.123,3.211,3.1,4.5-4.817,6.423-5.245.106,0,.428-.107.535-.107,1.284-.321,1.82,1.177,1.82-3.532.107-3.211-.321-3.639-.642-7.6-.856-9.74,1.283-18.3-1.606-23.655-.963-1.713-1.5-6.636-.855-10.49.855-4.924.855-3.1-.644-7.814-1.177-3.532-.321-1.177.323-3.639a.823.823,0,0,0,.212-.535l.109-4.174L2210.387,0c-5.244,10.7-3.746,8.67-3.318,14.45C2207.176,16.162,2203.322,25.047,2208.354,30.184Z" transform="translate(-1969.662)"/>
    <path id="Path_3058" data-name="Path 3058" class="cls-6" d="M4502.927,5575.778c-.216,4.709,3.531,17.66,4.709,23.118,1.6,6.96,4.386,16.594,5.243,23.443,2.569.747,7.814-.857,10.277-2.356l-.213-2.355-9.315-43.991-.853-3.638-9.742,3.316Z" transform="translate(-4020.942 -4973.807)"/>
    <path id="Path_3059" data-name="Path 3059" class="cls-11" d="M3142.711,496.941c-.75.428-1.391.642-1.819.963l-.857.535a9.7,9.7,0,0,1-1.07,1.07c-7.386,6.208-8.349,7.493-13.915,17.554-1.391,2.569-7.278,8.884-.963,8.135,3.961-.428,2.034-1.927,4.924-1.284.214.107,2.568,1.5,2.568,1.5l14.45-19.481c6.958-7.279-.643-5.245,10.062-14.557,2.033-1.82,2.354-3.425,3-6.422,3.96-1.82,2.034,1.07,4.6-3.532-1.07-4.281-1.82-4.067-5.352-2.569-2.569.963-5.246,2.355-6.637,4.6-1.177,2.034-.213,1.5-2.568,3.1a9.264,9.264,0,0,0-3.1,2.462C3144.1,491.161,3142.5,493.3,3142.711,496.941Z" transform="translate(-2787.136 -426.724)"/>
    <path id="Path_3060" data-name="Path 3060" class="cls-11" d="M1074.411,563.882c.107-.107.214-.535.214-.428l.749-4.71a9.721,9.721,0,0,1,.428-1.713l.643-2.247c-1.5-.75-1.606-.75-2.141-1.5-1.5-2.462,1.07.107-2.462-2.462l-3.318-3.1c-3.532-3.532-3.64-2.569-6.422-6.208a54.409,54.409,0,0,0-4.388-5.459,7.215,7.215,0,0,0-2.891-1.927l-1.605-.321c-1.82-.642-4.709-4.174-5.78-5.673-2.675-3.96-.214-2.676-4.709-5.138-3.211-1.712-.856.428-4.389-5.994-5.031.214-5.459.963-4.067,5.459,2.248,7.278,3.211,5.994,4.6,7.278,3.318,2.89.214,2.676,4.817,7.064,4.388,4.281,4.174,1.07,7.172,5.459a.812.812,0,0,0,.214.428l5.031,7.707c3.318,4.281,7.064,6.529,11.56,10.168C1070.022,562.383,1071.735,566.237,1074.411,563.882Z" transform="translate(-922.954 -461.662)"/>
    <path id="Path_3061" data-name="Path 3061" class="cls-6" d="M5384,6810.672l8.239,40.461c3.532.1,6.314-.966,9.848-1.714l-.106-2.464-8.135-40.136-.321-1.82-9.417,3Z" transform="translate(-4807.714 -6076.616)"/>
    <path id="Path_3062" data-name="Path 3062" class="cls-9" d="M2189.039,4146.327c-9.741,4.6-11.347,32.217-.75,26.864C2196.21,4169.233,2199.207,4141.51,2189.039,4146.327Z" transform="translate(-1947.564 -3702.018)"/>
    <path id="Path_3063" data-name="Path 3063" class="cls-9" d="M3150.565,4060.108c-9.418,4.709-11.346,31.361-1.069,27.188C3157.523,4083.976,3160.734,4055.077,3150.565,4060.108Z" transform="translate(-2806.229 -3625.003)"/>
    <path id="Path_3071" data-name="Path 3071" class="cls-8" d="M4088.765,6097.766c.537,6.422,11.454,6.528,10.7-1.393C4098.72,6089.524,4088.124,6090.165,4088.765,6097.766Z" transform="translate(-3651.093 -5439.599)"/>
    <path id="Path_3072" data-name="Path 3072" class="cls-8" d="M4951.235,7174.047c-6.638,4.814.214,12.416,5.887,8.883C4962.473,7179.4,4957.55,7169.444,4951.235,7174.047Z" transform="translate(-4418.836 -6405.097)"/>
    <path id="Path_3073" data-name="Path 3073" class="cls-8" d="M4416.542,5967.137c-1.072.642-5.035,2.033-2.676,7.064a5.466,5.466,0,0,0,7.492,2.354C4426.71,5973.772,4423.5,5963.713,4416.542,5967.137Z" transform="translate(-3940.765 -5327.807)"/>
    <path id="Path_3074" data-name="Path 3074" class="cls-8" d="M5127.212,7155.865c-6.314,2.889-2.033,12.63,4.6,9.632C5137.7,7162.93,5134.278,7152.653,5127.212,7155.865Z" transform="translate(-4575.654 -6389.378)"/>
    <path id="Path_3075" data-name="Path 3075" class="cls-8" d="M4258.791,6041.413c1.179,5.992,12.2,5.564,10.382-2.678C4267.889,6032.633,4257.292,6033.919,4258.791,6041.413Z" transform="translate(-3802.816 -5388.917)"/>
    <path id="Path_3076" data-name="Path 3076" class="cls-8" d="M5289.62,7126c-7.173,3.1-3,11.879,3.425,10.061C5299.788,7134.127,5296.362,7123.1,5289.62,7126Z" transform="translate(-4720.08 -6362.826)"/>
  </g>
</svg>
